<?xml version="1.0" standalone="no"?>
<!DOCTYPE svg PUBLIC "-//W3C//DTD SVG 20010904//EN"
 "http://www.w3.org/TR/2001/REC-SVG-20010904/DTD/svg10.dtd">
<svg version="1.0" xmlns="http://www.w3.org/2000/svg"
 width="700.000000pt" height="700.000000pt" viewBox="0 0 700.000000 700.000000"
 preserveAspectRatio="xMidYMid meet">
<metadata>
Created by potrace 1.11, written by Peter Selinger 2001-2013
</metadata>
<g transform="translate(0.000000,700.000000) scale(0.100000,-0.100000)"
fill="#000000" stroke="none">
<path d="M3245 6774 c-374 -38 -658 -105 -950 -221 -1052 -419 -1807 -1330
-2020 -2440 -42 -220 -50 -314 -50 -618 1 -319 8 -401 61 -663 175 -863 715
-1640 1471 -2113 398 -250 818 -401 1318 -476 172 -25 678 -25 850 0 593 89
1089 291 1543 630 635 474 1090 1189 1246 1959 53 262 60 344 61 663 0 304 -8
398 -50 618 -233 1210 -1124 2194 -2296 2536 -313 91 -524 121 -874 126 -148
1 -288 1 -310 -1z m1365 -534 c21 -7 22 -8 5 -9 -33 -2 -122 -58 -150 -95
-220 -288 81 -1001 614 -1459 265 -228 518 -345 722 -335 117 5 187 40 241
117 64 91 81 213 53 372 -36 210 -165 487 -322 692 -24 31 -42 57 -39 57 7 0
163 -183 218 -255 259 -344 408 -685 425 -972 16 -269 -98 -446 -315 -492
-241 -51 -589 76 -952 347 -130 97 -410 370 -514 502 -110 138 -242 344 -311
484 -271 550 -203 976 165 1042 76 14 125 15 160 4z m451 -208 c92 -59 178
-189 187 -285 4 -40 1 -52 -18 -72 -28 -30 -42 -31 -96 -4 -101 48 -204 203
-204 305 0 43 4 56 22 68 32 23 58 20 109 -12z m-3980 -1210 c343 -168 624
-712 704 -1362 17 -144 20 -474 5 -600 -25 -201 -86 -424 -150 -551 -68 -133
-178 -252 -280 -302 -61 -30 -71 -32 -176 -32 -110 0 -111 0 -195 42 -409 205
-718 930 -719 1688 0 606 208 1073 515 1156 17 5 71 7 121 5 84 -3 99 -7 175
-44z m5348 -1218 c31 -7 81 -48 81 -68 0 -6 -19 -18 -42 -27 -24 -9 -200 -83
-393 -164 -335 -141 -1959 -810 -3083 -1270 -293 -120 -531 -219 -529 -221 2
-2 318 121 703 272 895 353 2458 965 2769 1084 323 124 422 160 445 160 36 0
34 -38 -5 -119 -33 -67 -57 -95 -198 -234 -561 -555 -1411 -1133 -2049 -1396
-435 -178 -957 -304 -1513 -365 -510 -56 -1211 -60 -1330 -7 -74 33 -93 104
-51 192 16 33 66 55 2574 1100 1406 587 2564 1067 2573 1068 9 1 30 -2 48 -5z"/>
<path d="M787 4586 c-161 -60 -286 -266 -348 -573 -30 -152 -38 -486 -15 -663
70 -535 288 -976 543 -1102 59 -29 78 -33 143 -33 97 0 153 26 229 103 176
180 274 588 241 1007 -30 398 -130 730 -298 990 -61 96 -182 213 -257 249 -72
35 -177 45 -238 22z m-66 -368 c111 -112 117 -361 10 -414 -82 -41 -180 82
-189 235 -2 42 1 95 7 117 25 94 109 124 172 62z"/>
<path d="M2420 1840 c-8 -5 -10 -10 -5 -10 6 0 17 5 25 10 8 5 11 10 5 10 -5
0 -17 -5 -25 -10z"/>
<path d="M2370 1820 c-8 -5 -10 -10 -5 -10 6 0 17 5 25 10 8 5 11 10 5 10 -5
0 -17 -5 -25 -10z"/>
<path d="M2320 1800 c-8 -5 -10 -10 -5 -10 6 0 17 5 25 10 8 5 11 10 5 10 -5
0 -17 -5 -25 -10z"/>
</g>
</svg>
