<?xml version="1.0" encoding="utf-8"?>
<!-- Generator: Adobe Illustrator 22.0.1, SVG Export Plug-In . SVG Version: 6.00 Build 0)  -->
<svg version="1.1" xmlns="http://www.w3.org/2000/svg" xmlns:xlink="http://www.w3.org/1999/xlink" x="0px" y="0px"
	 viewBox="0 0 187 65" style="enable-background:new 0 0 187 65;" xml:space="preserve">
 <style type="text/css">.st0{fill:#00B2E3;}
	.st1{fill:#FEFEFE;}
	.st2{fill:#0071CE;}
	.st3{fill:#FFFFFF;}
	.st4{fill:#EC0000;}
	.st5{clip-path:url(#XMLID_108_);}
	.st6{clip-path:url(#XMLID_109_);fill:#FF0000;}
	.st7{clip-path:url(#XMLID_110_);}
	.st8{clip-path:url(#XMLID_111_);fill:#FEFEFE;}
	.st9{clip-path:url(#XMLID_112_);}
	.st10{clip-path:url(#XMLID_113_);fill:#FEFEFE;}
	.st11{clip-path:url(#XMLID_114_);}
	.st12{clip-path:url(#XMLID_115_);fill:#FEFEFE;}
	.st13{clip-path:url(#XMLID_116_);}
	.st14{clip-path:url(#XMLID_117_);fill:#FEFEFE;}
	.st15{clip-path:url(#XMLID_118_);}
	.st16{clip-path:url(#XMLID_119_);fill:#FEFEFE;}
	.st17{clip-path:url(#XMLID_120_);}
	.st18{clip-path:url(#XMLID_121_);fill:#FEFEFE;}
	.st19{clip-path:url(#XMLID_122_);}
	.st20{clip-path:url(#XMLID_123_);fill:#FEFEFE;}
	.st21{clip-path:url(#XMLID_124_);}
	.st22{clip-path:url(#XMLID_125_);fill:#FEFEFE;}
	.st23{clip-path:url(#XMLID_126_);}
	.st24{clip-path:url(#XMLID_127_);fill:#FEFEFE;}
	.st25{clip-path:url(#XMLID_128_);}
	.st26{clip-path:url(#XMLID_129_);fill:#FEFEFE;}
	.st27{fill-rule:evenodd;clip-rule:evenodd;fill:#364B99;}
	.st28{fill-rule:evenodd;clip-rule:evenodd;fill:none;stroke:#364B99;stroke-miterlimit:10;}
	.st29{fill:#DC052B;}
	.st30{fill:#0033A1;}
	.st31{fill:#FBBC1C;}
	.st32{fill:#F5A800;}
	.st33{fill:#7A797E;}
	.st34{fill:#E20613;}
	.st35{clip-path:url(#SVGID_2_);}
	.st36{clip-path:url(#SVGID_6_);}
	.st37{clip-path:url(#SVGID_10_);}
	.st38{clip-path:url(#SVGID_14_);}
	.st39{clip-path:url(#SVGID_18_);}
	.st40{fill-rule:evenodd;clip-rule:evenodd;fill:#E20613;}
	.st41{fill-rule:evenodd;clip-rule:evenodd;fill:#802B29;}
	.st42{fill-rule:evenodd;clip-rule:evenodd;fill:#A22526;}
	.st43{fill-rule:evenodd;clip-rule:evenodd;fill:#A32827;}
	.st44{fill-rule:evenodd;clip-rule:evenodd;fill:#7D2926;}
	.st45{fill:#868686;}
	.st46{fill:#2B2422;}
	.st47{fill:#5A5A59;}
	.st48{fill:#808080;}
	.st49{fill:#929292;}
	.st50{fill:#A3A3A2;}
	.st51{fill:#FFD600;}
	.st52{fill:#FF7000;}
	.st53{fill:url(#XMLID_130_);}
	.st54{fill:url(#XMLID_131_);}
	.st55{fill:url(#XMLID_132_);}
	.st56{fill:#0E62AB;}
	.st57{fill:#FFDE11;}</style>
 <g>
  <title>Layer 1</title>
  <g id="Capa_1"/>
  <g id="Capa_2"/>
  <g id="Capa_3"/>
  <g id="Capa_4"/>
  <g id="Capa_5"/>
  <g id="Capa_6"/>
  <g id="Capa_7"/>
  <g id="Capa_8"/>
  <g id="Capa_9">
   <g id="svg_1">
    <g id="svg_2">
     <path class="st45" d="m41.7,57.2c-0.5,-0.2 -1.3,-0.4 -2.2,-0.4c-2.6,0 -3.8,1.9 -3.8,3.9c0,1.8 1.2,2.7 2.9,2.7c0.3,0 0.7,0 1,-0.1l0.6,-2.6l-1.9,0l0.2,-1l2.9,0l-1,4.5c-0.4,0.1 -1,0.2 -2,0.2c-2.2,0 -4,-1.2 -4,-3.9c0,-2.1 1.4,-4.9 5.1,-4.9c1.3,0 2,0.3 2.6,0.5l-0.4,1.1l0,0z" id="svg_3"/>
     <path class="st45" d="m43.9,55.9l1.7,0c1.2,0 3.2,0 3.2,2.1c0,1.2 -0.9,2.1 -2.1,2.3c0.6,0.4 0.8,1.7 1,2.3l0.5,1.8l-1.3,0l-0.5,-2.2c-0.3,-1.4 -0.5,-1.5 -1.1,-1.5l-1.2,0l-0.8,3.7l-1.2,0l1.8,-8.5l0,0zm0.5,3.6l1,0c0.9,0 2.1,-0.3 2.1,-1.4c0,-0.9 -0.5,-1.2 -1.4,-1.2l-1.1,0l-0.6,2.6l0,0z" id="svg_4"/>
     <path class="st45" d="m56.2,60.8c-0.6,2.6 -1.8,3.6 -3.7,3.6c-2.3,0 -3,-1.6 -3,-2.5c0,-0.6 0.2,-1.4 0.3,-1.9l0.9,-4.1l1.2,0l-1.1,5.1c-0.1,0.3 -0.1,0.6 -0.1,0.7c0,1.1 0.8,1.7 1.8,1.7c1.8,0 2.3,-1.8 2.6,-3.2l0.9,-4.3l1.2,0l-1,4.9l0,0z" id="svg_5"/>
     <path class="st45" d="m58.8,55.9l1.2,0l0.9,0c1.3,0 2.7,0.5 2.7,2.2c0,1.7 -1.2,2.9 -3.5,2.9l-1.2,0l-0.7,3.4l-1.2,0l1.8,-8.5l0,0zm0.4,4l0.6,0c1.2,0 2.5,-0.3 2.5,-1.6c0,-1.2 -0.9,-1.3 -1.9,-1.3l-0.6,0l-0.6,2.9l0,0z" id="svg_6"/>
     <path class="st45" d="m68.3,55.7c2.1,0 3.4,1.3 3.4,3.4c0,2.7 -1.6,5.3 -4.6,5.3c-2.3,0 -3.5,-1.2 -3.5,-3.6c-0.1,-2.3 1.6,-5.1 4.7,-5.1l0,0zm-1.2,7.7c2.1,0 3.3,-2.2 3.3,-4.1c0,-1.6 -0.7,-2.5 -2.2,-2.5c-2.1,0 -3.4,2 -3.4,4.1c0,1.5 0.8,2.5 2.3,2.5l0,0z" id="svg_7"/>
    </g>
    <path class="st46" d="m80.7,54.1c-0.7,-0.4 -1.7,-0.7 -2.6,-0.7c-0.9,0 -2.1,0.4 -2.1,1.4c0,2 4.3,1.9 4.3,5.4c0,3.1 -2.4,4.2 -5.2,4.2c-1.2,0 -2.5,-0.3 -3.6,-0.7l0.7,-2.2c1,0.5 2,0.9 3.1,0.9c1.2,0 2.4,-0.6 2.4,-2c0,-2.3 -4.3,-1.9 -4.3,-5.3c0,-2.7 2.3,-3.8 4.7,-3.8c1.1,0 2.2,0.1 3.3,0.6l-0.7,2.2l0,0z" id="svg_8"/>
    <path class="st46" d="m86.9,51.6l2.8,0l2.3,12.6l-2.6,0l-0.4,-2.9l-5.4,0l-1.6,2.9l-2.8,0l7.7,-12.6l0,0zm-2.2,7.8l3.9,0l-0.8,-5.5l-0.1,0l-3,5.5l0,0z" id="svg_9"/>
    <polygon class="st46" points="95.10000228881836,51.599998474121094 97.60000228881836,51.599998474121094 95.4000015258789,62.29999923706055 100.30000305175781,62.29999923706055 99.9000015258789,64.30000305175781 92.4000015258789,64.30000305175781 95.10000228881836,51.599998474121094 " id="svg_10"/>
    <polygon class="st46" points="103.70000457763672,51.599998474121094 106.4000015258789,51.599998474121094 103.70000457763672,64.30000305175781 101,64.30000305175781 103.70000457763672,51.599998474121094 " id="svg_11"/>
    <polygon class="st46" points="107.4000015258789,51.599998474121094 110.5999984741211,51.599998474121094 113.30000305175781,61.20000076293945 113.30000305175781,61.20000076293945 115.4000015258789,51.599998474121094 117.80000305175781,51.599998474121094 115,64.30000305175781 111.80000305175781,64.30000305175781 109.0999984741211,54.599998474121094 109.0999984741211,54.599998474121094 107.0999984741211,64.30000305175781 104.70000457763672,64.30000305175781 107.4000015258789,51.599998474121094 " id="svg_12"/>
    <path class="st46" d="m122.8,51.6l2.8,0l2.3,12.6l-2.5,0l-0.4,-2.9l-5.4,0l-1.6,2.9l-2.8,0l7.6,-12.6l0,0zm-2.1,7.8l3.9,0l-0.8,-5.5l-0.1,0l-3,5.5l0,0z" id="svg_13"/>
    <path class="st46" d="m137.5,54.1c-0.7,-0.4 -1.7,-0.7 -2.6,-0.7c-0.9,0 -2.1,0.4 -2.1,1.4c0,2 4.3,1.9 4.3,5.4c0,3.1 -2.4,4.2 -5.2,4.2c-1.2,0 -2.5,-0.3 -3.6,-0.7l0.7,-2.2c1,0.5 2,0.9 3.1,0.9c1.2,0 2.4,-0.6 2.4,-2c0,-2.3 -4.3,-1.9 -4.3,-5.3c0,-2.7 2.3,-3.8 4.7,-3.8c1.1,0 2.2,0.1 3.3,0.6l-0.7,2.2l0,0z" id="svg_14"/>
    <path class="st47" d="m97.9,24.2c0,-3.2 2.6,-5.7 5.7,-5.7c3.2,0 5.7,2.6 5.7,5.7c0,3.2 -2.6,5.7 -5.7,5.7c-3.1,0 -5.7,-2.6 -5.7,-5.7l0,0z" id="svg_15"/>
    <path class="st47" d="m95.8,32.9l0,1.3c0,0 13.5,4.9 26.1,-7.3l-2.3,-1.7c0,0 -9.8,11.2 -23.8,7.7l0,0z" id="svg_16"/>
    <path class="st48" d="m95.8,35.8l0,1.3c0,0 16.7,6.8 30.9,-6.9l-2.4,-1.7c0,-0.1 -10.6,12.1 -28.5,7.3l0,0z" id="svg_17"/>
    <path class="st49" d="m95.8,38.6l0,1.5c0,0 18.8,9.3 35.7,-6.6l-2.5,-1.8c0,0 -12.8,14.9 -33.2,6.9l0,0z" id="svg_18"/>
    <path class="st50" d="m95.8,41.7l0,1.6c0,0 21.1,12.6 40.5,-6.4l-2.4,-1.7c0,0 -15,18 -38.1,6.5l0,0z" id="svg_19"/>
    <g id="svg_20">
     <path class="st45" d="m75.9,42.9l-2.3,0l1.5,-6.9l-2.6,0l0.3,-1.6c1.6,-0.1 2.8,-0.5 3.6,-2.1l1.8,0l-2.3,10.6z" id="svg_21"/>
     <path class="st45" d="m82.5,32.1c2.4,0 3.5,1.6 3.5,4c0,3.1 -1.6,7 -5.2,7c-2.4,0 -3.4,-1.9 -3.4,-4.1c0.1,-3 1.7,-6.9 5.1,-6.9zm-1.4,9.2c2.2,0 2.8,-4.1 2.8,-5.6c0,-1.1 -0.4,-1.9 -1.5,-1.9c-2.1,0 -2.7,4.1 -2.7,5.6c-0.1,1.1 0.2,1.9 1.4,1.9z" id="svg_22"/>
     <path class="st45" d="m91.1,32.1c2.4,0 3.6,1.6 3.6,4c0,3.1 -1.6,7 -5.2,7c-2.4,0 -3.4,-1.9 -3.4,-4.1c0,-3 1.6,-6.9 5,-6.9zm-1.4,9.2c2.2,0 2.8,-4.1 2.8,-5.6c0,-1.1 -0.4,-1.9 -1.5,-1.9c-2.1,0 -2.7,4.1 -2.7,5.6c-0.1,1.1 0.2,1.9 1.4,1.9z" id="svg_23"/>
    </g>
    <g id="svg_24">
     <path class="st45" d="m78.2,45.9c0.1,-1 1,-1.3 1.9,-1.3c0.7,0 1.7,0.2 1.7,1c0,0.2 0,0.4 -0.1,0.7l-0.3,1.6c0,0.1 -0.1,0.4 -0.1,0.5c0,0.1 0,0.2 0,0.2l-1.1,0l0,-0.4c-0.3,0.3 -0.8,0.5 -1.2,0.5c-0.9,0 -1.3,-0.5 -1.3,-1.1c0,-0.8 0.6,-1.2 1.5,-1.4c1,-0.1 1.5,-0.1 1.5,-0.6c0,-0.4 -0.4,-0.5 -0.7,-0.5c-0.4,0 -0.7,0.2 -0.8,0.6l-1,0l0,0.2zm2.4,0.8c-0.3,0.2 -0.6,0.2 -0.9,0.2c-0.4,0 -0.8,0.1 -0.8,0.6c0,0.3 0.3,0.4 0.6,0.4c0.7,0 0.9,-0.5 1,-0.9l0.1,-0.3z" id="svg_25"/>
     <path class="st45" d="m82.6,44.7l1,0l-0.1,0.6l0,0c0.4,-0.4 0.8,-0.7 1.4,-0.7c0.8,0 1.2,0.4 1.2,1.1c0,0.2 -0.1,0.5 -0.1,0.7l-0.5,2.3l-1.1,0l0.5,-2.3c0,-0.1 0.1,-0.4 0.1,-0.5c0,-0.2 -0.3,-0.4 -0.5,-0.4c-0.7,0 -1,0.6 -1.1,1.1l-0.4,2.1l-1.1,0l0.7,-4zm3.3,-1.3c-0.1,0.2 -0.1,0.4 -0.2,0.6c-0.1,0.2 -0.3,0.3 -0.6,0.3c-0.2,0 -0.4,-0.1 -0.6,-0.1c-0.2,-0.1 -0.4,-0.1 -0.5,-0.1c-0.2,0 -0.3,0.1 -0.3,0.3l-0.5,0c0.1,-0.4 0.3,-0.9 1,-0.9c0.2,0 0.3,0.1 0.5,0.1c0.2,0.1 0.3,0.1 0.5,0.1c0.2,0 0.3,-0.1 0.3,-0.3l0.4,0z" id="svg_26"/>
     <path class="st45" d="m88.5,44.6c1.1,0 1.9,0.5 1.9,1.7c0,1.4 -0.9,2.5 -2.3,2.5c-1.1,0 -1.8,-0.6 -1.8,-1.7c-0.1,-1.4 0.8,-2.5 2.2,-2.5zm-0.4,3.3c0.8,0 1.2,-1 1.2,-1.7c0,-0.5 -0.2,-0.9 -0.8,-0.9c-0.8,0 -1.2,1 -1.2,1.7c0,0.5 0.3,0.9 0.8,0.9z" id="svg_27"/>
     <path class="st45" d="m93.1,45.8c0,-0.3 -0.2,-0.5 -0.6,-0.5c-0.4,0 -0.7,0.1 -0.7,0.4c0,0.2 0.1,0.3 0.5,0.4l0.5,0.2c0.6,0.2 1,0.5 1,1.1c0,1 -1,1.4 -1.9,1.4c-0.8,0 -1.7,-0.3 -1.7,-1.2l0,-0.2l1,0l0,0.1c0,0.4 0.4,0.5 0.8,0.5c0.3,0 0.7,-0.1 0.7,-0.5c0,-0.3 -0.2,-0.4 -0.4,-0.4l-0.8,-0.3c-0.5,-0.2 -0.9,-0.4 -0.9,-1c0,-0.9 1,-1.3 1.8,-1.3c0.9,0 1.7,0.2 1.6,1.3l-0.9,0z" id="svg_28"/>
    </g>
    <path class="st51" d="m149.5,39.2c0,10.2 -5,19.3 -12.7,24.8l2.8,0c7.9,-6.6 13,-16.5 13,-27.6c0,-19.8 -16.1,-35.9 -35.9,-35.9c-18,0 -32.9,13.3 -35.5,30.5c1,-0.3 3.9,-0.5 5.7,1.5c0,0 0.9,-1.5 3.2,-1.8c3.6,-12.8 15.2,-22 29.1,-22c16.7,0 30.3,13.7 30.3,30.5z" id="svg_29"/>
   </g>
  </g>
  <g id="Capa_10"/>
 </g>
</svg>
