<?xml version="1.0" encoding="utf-8"?>
<!-- Generator: Adobe Illustrator 22.0.1, SVG Export Plug-In . SVG Version: 6.00 Build 0)  -->
<svg version="1.1" xmlns="http://www.w3.org/2000/svg" xmlns:xlink="http://www.w3.org/1999/xlink" x="0px" y="0px"
	 viewBox="0 0 187 65" style="enable-background:new 0 0 187 65;" xml:space="preserve">
<style type="text/css">
	.st0{fill:#00B2E3;}
	.st1{fill:#FEFEFE;}
	.st2{fill:#0071CE;}
	.st3{fill:#FFFFFF;}
	.st4{fill:#EC0000;}
	.st5{clip-path:url(#XMLID_108_);}
	.st6{clip-path:url(#XMLID_109_);fill:#FF0000;}
	.st7{clip-path:url(#XMLID_110_);}
	.st8{clip-path:url(#XMLID_111_);fill:#FEFEFE;}
	.st9{clip-path:url(#XMLID_112_);}
	.st10{clip-path:url(#XMLID_113_);fill:#FEFEFE;}
	.st11{clip-path:url(#XMLID_114_);}
	.st12{clip-path:url(#XMLID_115_);fill:#FEFEFE;}
	.st13{clip-path:url(#XMLID_116_);}
	.st14{clip-path:url(#XMLID_117_);fill:#FEFEFE;}
	.st15{clip-path:url(#XMLID_118_);}
	.st16{clip-path:url(#XMLID_119_);fill:#FEFEFE;}
	.st17{clip-path:url(#XMLID_120_);}
	.st18{clip-path:url(#XMLID_121_);fill:#FEFEFE;}
	.st19{clip-path:url(#XMLID_122_);}
	.st20{clip-path:url(#XMLID_123_);fill:#FEFEFE;}
	.st21{clip-path:url(#XMLID_124_);}
	.st22{clip-path:url(#XMLID_125_);fill:#FEFEFE;}
	.st23{clip-path:url(#XMLID_126_);}
	.st24{clip-path:url(#XMLID_127_);fill:#FEFEFE;}
	.st25{clip-path:url(#XMLID_128_);}
	.st26{clip-path:url(#XMLID_129_);fill:#FEFEFE;}
	.st27{fill-rule:evenodd;clip-rule:evenodd;fill:#364B99;}
	.st28{fill-rule:evenodd;clip-rule:evenodd;fill:none;stroke:#364B99;stroke-miterlimit:10;}
	.st29{fill:#DC052B;}
	.st30{fill:#0033A1;}
	.st31{fill:#FBBC1C;}
	.st32{fill:#F5A800;}
	.st33{fill:#7A797E;}
	.st34{fill:#E20613;}
	.st35{clip-path:url(#SVGID_2_);}
	.st36{clip-path:url(#SVGID_6_);}
	.st37{clip-path:url(#SVGID_10_);}
	.st38{clip-path:url(#SVGID_14_);}
	.st39{clip-path:url(#SVGID_18_);}
	.st40{fill-rule:evenodd;clip-rule:evenodd;fill:#E20613;}
	.st41{fill-rule:evenodd;clip-rule:evenodd;fill:#802B29;}
	.st42{fill-rule:evenodd;clip-rule:evenodd;fill:#A22526;}
	.st43{fill-rule:evenodd;clip-rule:evenodd;fill:#A32827;}
	.st44{fill-rule:evenodd;clip-rule:evenodd;fill:#7D2926;}
	.st45{fill:#868686;}
	.st46{fill:#2B2422;}
	.st47{fill:#5A5A59;}
	.st48{fill:#808080;}
	.st49{fill:#929292;}
	.st50{fill:#A3A3A2;}
	.st51{fill:#FFD600;}
	.st52{fill:#FF7000;}
	.st53{fill:url(#XMLID_130_);}
	.st54{fill:url(#XMLID_131_);}
	.st55{fill:url(#XMLID_132_);}
	.st56{fill:#0E62AB;}
	.st57{fill:#FFDE11;}
</style>
<g id="Capa_1">
</g>
<g id="Capa_2">
</g>
<g id="Capa_3">
</g>
<g id="Capa_4">
</g>
<g id="Capa_5">
	<g>
		<g>
			<path class="st29" d="M69.8,15.9c4.4,0,7.9-3.5,7.9-7.9c0-4.4-3.5-7.9-7.9-7.9c-4.4,0-7.9,3.5-7.9,7.9
				C61.9,12.3,65.4,15.9,69.8,15.9z"/>
			<polygon class="st29" points="64.1,28.7 64.1,28.7 46,10.6 46,17.8 58.8,30.8 58.8,52.9 64.1,52.9 64.1,28.7 64.1,28.7 
				64.1,28.7 			"/>
			<path class="st29" d="M117.2,15.9c4.4,0,7.9-3.5,7.9-7.9c0-4.4-3.5-7.9-7.9-7.9c-4.4,0-7.9,3.5-7.9,7.9
				C109.3,12.3,112.9,15.9,117.2,15.9z"/>
			<g>
				<g>
					<g>
						<polygon class="st29" points="117.2,23.7 93.5,0 93.5,0 93.5,0 93.5,0 93.5,0 69.8,23.8 46,0 46,7.3 66.1,27.5 66,27.5 
							67.1,28.6 67.1,52.8 72.4,52.8 72.4,28.6 93.5,7.3 93.5,5.2 93.5,7.3 113.5,27.5 113.5,27.5 114.6,28.6 114.6,52.8 
							119.8,52.8 119.8,28.6 140.9,7.3 140.9,0 						"/>
					</g>
				</g>
			</g>
			<g>
				<g>
					<polygon class="st29" points="111.6,28.7 111.6,28.7 93.5,10.7 93.5,13.2 93.5,10.7 75.4,28.7 75.4,28.7 75.4,28.7 75.4,28.7 
						75.4,28.7 75.4,52.9 80.7,52.9 80.7,30.8 93.5,17.9 93.5,17.9 106.3,30.8 106.3,52.9 111.6,52.9 111.6,28.7 111.6,28.7 					
						"/>
				</g>
			</g>
			<polygon class="st29" points="122.9,28.7 122.9,28.7 122.9,28.7 122.9,28.7 122.9,52.9 128.2,52.9 128.2,30.8 141,17.9 141,10.6 
				122.9,28.7 			"/>
		</g>
		<g>
			<path class="st29" d="M64.3,56.1h9.1v2.1H67v1.7h6.1v2.1H67v3h-2.7V56.1z"/>
		</g>
		<g>
			<path class="st29" d="M46,56.1h2.7V65H46V56.1z"/>
		</g>
		<g>
			<path class="st29" d="M50.7,56.1h4.2l5,6.5h0v-6.5h2.7V65h-4.2l-5-6.5h0V65h-2.7V56.1z"/>
		</g>
		<g>
			<path class="st29" d="M74.8,59.1c0-2.6,1.4-3.2,3.8-3.2h4.3c2.4,0,3.8,0.6,3.8,3.2v2.6c0,2.6-1.4,3.2-3.8,3.2h-4.3
				c-2.4,0-3.8-0.6-3.8-3.2V59.1z M77.6,60.9c0,1.3,0.3,1.8,1.5,1.8h3.4c1.3,0,1.5-0.5,1.5-1.8v-1c0-1.1-0.3-1.8-1.7-1.8h-3.1
				c-1.4,0-1.7,0.7-1.7,1.8V60.9z"/>
		</g>
		<g>
			<path class="st29" d="M130.7,56.1H141v2.2h-3.8V65h-2.7v-6.7h-3.8V56.1z"/>
		</g>
		<g>
			<path class="st29" d="M112.6,56.1h2.9l3.4,6.6l3.4-6.6h2.9l-4.7,8.9h-3.3L112.6,56.1z"/>
		</g>
		<g>
			<path class="st29" d="M106.3,56.1h3.3l4.8,8.9h-3l-3.5-6.7l-3.4,6.7h-3L106.3,56.1z"/>
		</g>
		<g>
			<path class="st29" d="M88.4,56.1h4.2l5,6.5h0v-6.5h2.7V65h-4.2l-5-6.5h0V65h-2.7V56.1z"/>
		</g>
		<g>
			<path class="st29" d="M126.7,56.1h2.7V65h-2.7V56.1z"/>
		</g>
	</g>
</g>
<g id="Capa_6">
</g>
<g id="Capa_7">
</g>
<g id="Capa_8">
</g>
<g id="Capa_9">
</g>
<g id="Capa_10">
</g>
</svg>
