<?xml version="1.0" encoding="utf-8"?>
<!-- Generator: Adobe Illustrator 22.0.1, SVG Export Plug-In . SVG Version: 6.00 Build 0)  -->
<svg version="1.1" xmlns="http://www.w3.org/2000/svg" xmlns:xlink="http://www.w3.org/1999/xlink" x="0px" y="0px"
	 viewBox="0 0 187 65" style="enable-background:new 0 0 187 65;" xml:space="preserve">
<style type="text/css">
	.st0{fill:#00B2E3;}
	.st1{fill:#FEFEFE;}
	.st2{fill:#0071CE;}
	.st3{fill:#FFFFFF;}
	.st4{fill:#EC0000;}
	.st5{clip-path:url(#XMLID_108_);}
	.st6{clip-path:url(#XMLID_109_);fill:#FF0000;}
	.st7{clip-path:url(#XMLID_110_);}
	.st8{clip-path:url(#XMLID_111_);fill:#FEFEFE;}
	.st9{clip-path:url(#XMLID_112_);}
	.st10{clip-path:url(#XMLID_113_);fill:#FEFEFE;}
	.st11{clip-path:url(#XMLID_114_);}
	.st12{clip-path:url(#XMLID_115_);fill:#FEFEFE;}
	.st13{clip-path:url(#XMLID_116_);}
	.st14{clip-path:url(#XMLID_117_);fill:#FEFEFE;}
	.st15{clip-path:url(#XMLID_118_);}
	.st16{clip-path:url(#XMLID_119_);fill:#FEFEFE;}
	.st17{clip-path:url(#XMLID_120_);}
	.st18{clip-path:url(#XMLID_121_);fill:#FEFEFE;}
	.st19{clip-path:url(#XMLID_122_);}
	.st20{clip-path:url(#XMLID_123_);fill:#FEFEFE;}
	.st21{clip-path:url(#XMLID_124_);}
	.st22{clip-path:url(#XMLID_125_);fill:#FEFEFE;}
	.st23{clip-path:url(#XMLID_126_);}
	.st24{clip-path:url(#XMLID_127_);fill:#FEFEFE;}
	.st25{clip-path:url(#XMLID_128_);}
	.st26{clip-path:url(#XMLID_129_);fill:#FEFEFE;}
	.st27{fill-rule:evenodd;clip-rule:evenodd;fill:#364B99;}
	.st28{fill-rule:evenodd;clip-rule:evenodd;fill:none;stroke:#364B99;stroke-miterlimit:10;}
	.st29{fill:#DC052B;}
	.st30{fill:#0033A1;}
	.st31{fill:#FBBC1C;}
	.st32{fill:#F5A800;}
	.st33{fill:#7A797E;}
	.st34{fill:#E20613;}
	.st35{clip-path:url(#SVGID_2_);}
	.st36{clip-path:url(#SVGID_6_);}
	.st37{clip-path:url(#SVGID_10_);}
	.st38{clip-path:url(#SVGID_14_);}
	.st39{clip-path:url(#SVGID_18_);}
	.st40{fill-rule:evenodd;clip-rule:evenodd;fill:#E20613;}
	.st41{fill-rule:evenodd;clip-rule:evenodd;fill:#802B29;}
	.st42{fill-rule:evenodd;clip-rule:evenodd;fill:#A22526;}
	.st43{fill-rule:evenodd;clip-rule:evenodd;fill:#A32827;}
	.st44{fill-rule:evenodd;clip-rule:evenodd;fill:#7D2926;}
	.st45{fill:#868686;}
	.st46{fill:#2B2422;}
	.st47{fill:#5A5A59;}
	.st48{fill:#808080;}
	.st49{fill:#929292;}
	.st50{fill:#A3A3A2;}
	.st51{fill:#FFD600;}
	.st52{fill:#FF7000;}
	.st53{fill:url(#XMLID_130_);}
	.st54{fill:url(#XMLID_131_);}
	.st55{fill:url(#XMLID_132_);}
	.st56{fill:#0E62AB;}
	.st57{fill:#FFDE11;}
</style>
<g id="Capa_1">
</g>
<g id="Capa_2">
</g>
<g id="Capa_3">
</g>
<g id="Capa_4">
</g>
<g id="Capa_5">
</g>
<g id="Capa_6">
	<g>
		<polygon class="st30" points="44,40.4 49.4,14.9 55.4,14.9 51.1,35.3 59,35.3 57.9,40.4 		"/>
		<polygon class="st30" points="61.9,40.4 67.3,14.9 73.3,14.9 67.9,40.4 		"/>
		<path class="st30" d="M78.6,36h1.5c1.2,0,2-0.4,2.7-1.1c0.6-0.7,1-1.8,1-3.2c0-0.8-0.2-1.4-0.6-1.8c-0.4-0.4-0.9-0.7-1.6-0.7h-1.5
			L78.6,36z M71.8,40.4l5.4-25.5h5.4c3.3,0,5.5,0.4,6.8,1.2c1.3,0.8,1.9,2.2,1.9,4.1c0,1.9-0.4,3.4-1.1,4.6
			c-0.8,1.2-1.9,2.1-3.5,2.6c1,0.4,1.7,1,2.1,1.7c0.5,0.7,0.7,1.7,0.7,2.8c0,2.8-0.7,4.9-2.2,6.3c-1.4,1.4-3.7,2.1-6.7,2.1
			L71.8,40.4z M81,25.1h1.3c1.1,0,1.9-0.3,2.5-1c0.6-0.7,0.9-1.7,0.9-2.9c0-0.7-0.2-1.3-0.6-1.7c-0.3-0.4-0.9-0.6-1.5-0.6h-1.3
			L81,25.1z"/>
		<polygon class="st30" points="91.6,40.4 97.1,14.9 110.6,14.9 109.6,19.7 102,19.7 101,24.5 108.3,24.5 107.2,29.4 100,29.4 
			98.7,35.4 106.6,35.4 105.6,40.4 		"/>
		<path class="st30" d="M118.7,25.3h1.3c1.1,0,1.9-0.3,2.5-1c0.6-0.7,0.9-1.6,0.9-2.9c0-0.7-0.2-1.3-0.5-1.6
			c-0.3-0.4-0.9-0.6-1.5-0.6H120L118.7,25.3z M109.5,40.4l5.4-25.5h5.7c2,0,3.5,0.1,4.5,0.3c1,0.2,1.8,0.6,2.4,1.1
			c0.6,0.5,1.1,1.2,1.4,1.9c0.3,0.8,0.5,1.7,0.5,2.6c0,2-0.4,3.6-1.2,4.7c-0.8,1.2-2,2-3.6,2.4c0.9,0.2,1.6,0.6,2,1.1
			c0.5,0.5,0.6,1.2,0.6,2.1c0,0.7-0.1,1.7-0.5,3.2c-0.3,1.5-0.5,2.6-0.5,3.4c0,0.4,0,0.8,0.1,1.1c0.1,0.3,0.1,0.6,0.3,0.8v0.5h-6.2
			c-0.1-0.2-0.2-0.4-0.2-0.7c0-0.2,0-0.5,0-0.9c0-0.8,0.2-2,0.5-3.6c0.4-1.6,0.5-2.8,0.5-3.5c0-0.5-0.2-1-0.6-1.3
			c-0.4-0.3-0.8-0.5-1.5-0.5h-1.5l-2.2,10.5H109.5z"/>
		<polygon class="st30" points="132.2,40.4 136.6,19.9 131.6,19.9 132.6,14.9 148.4,14.9 147.3,19.9 142.6,19.9 138.3,40.4 		"/>
		<path class="st30" d="M151.7,31.1h3.6l0.7-12.2L151.7,31.1z M142.2,40.4l10.9-25.5h7.2l0.2,25.5h-5.8l0.3-4.9h-4.9l-1.7,4.9H142.2
			z"/>
		<path class="st30" d="M174.1,19.4l-3.5,16.4h1.3c1.1,0,1.9-0.3,2.4-1c0.5-0.7,1-2.2,1.5-4.5l1.2-5.8c0.1-0.6,0.2-1.1,0.3-1.6
			c0.1-0.5,0.1-0.9,0.1-1.3c0-0.7-0.2-1.3-0.5-1.6c-0.3-0.4-0.8-0.6-1.5-0.6H174.1z M163.6,40.4l5.4-25.5h7.1c2.4,0,4.2,0.5,5.4,1.6
			c1.2,1.1,1.7,2.7,1.7,4.9c0,0.5,0,1.1-0.1,1.8c-0.1,0.7-0.2,1.4-0.3,2.2c-0.4,2.3-0.8,4.4-1.3,6.2c-0.4,1.7-0.9,3.2-1.4,4.4
			c-0.7,1.4-1.6,2.5-2.8,3.3c-1.2,0.7-2.7,1.1-4.4,1.1H163.6z"/>
		<path class="st31" d="M71.1,44.5c0,0.5,0.4,1,1,1c0.6,0,1-0.4,1-1c0-0.5-0.4-1-1-1C71.6,43.5,71.1,44,71.1,44.5"/>
		<path class="st32" d="M45.2,45.9c0,1.5,1,2.2,2.3,2.9c1,0.5,1.4,0.8,1.4,1.6c0,1-0.7,1.6-1.7,1.6c-0.8,0-1.3-0.4-1.8-1.6l-0.1-0.3
			L44,51.2l0.1,0.2c0.6,1.5,1.7,2.2,3.2,2.2c2.1,0,3.4-1.3,3.4-3.2c0-1.5-0.7-2.2-2-2.9c0,0-0.4-0.2-0.4-0.2
			c-0.9-0.5-1.4-0.8-1.4-1.6c0-0.8,0.6-1.4,1.5-1.4c0.7,0,1.1,0.3,1.5,1.1l0.1,0.3l1.3-1.1l-0.1-0.2c-0.7-1.1-1.6-1.6-2.8-1.6
			C46.5,42.8,45.2,44.1,45.2,45.9"/>
		<path class="st32" d="M58.5,49.7c0-2-1.1-3.3-3-3.3c-2,0-3.6,1.6-3.6,3.8c0,2,1.3,3.3,3.3,3.3c1.1,0,2-0.5,2.8-1.5l0.2-0.2L57,51
			l-0.2,0.2c-0.5,0.7-1,1-1.7,1c-1,0-1.6-0.6-1.6-1.7h4.9L58.5,49.7z M53.4,49.3c0.2-1.1,1.1-1.7,2.1-1.7c1,0,1.7,0.6,1.7,1.7H53.4z
			"/>
		<path class="st32" d="M158.7,49.7c0-2-1.1-3.3-3-3.3c-2,0-3.6,1.6-3.6,3.8c0,2,1.3,3.3,3.3,3.3c1.1,0,2-0.5,2.8-1.5l0.2-0.2
			l-1.1-0.9l-0.2,0.2c-0.5,0.7-1,1-1.7,1c-1,0-1.6-0.6-1.6-1.7h4.9L158.7,49.7z M153.6,49.3c0.2-1.1,1.1-1.7,2.1-1.7
			c1,0,1.7,0.6,1.7,1.7H153.6z"/>
		<path class="st32" d="M61.9,47.1c0,0,0.1-0.4,0.1-0.4h-1.6l-0.9,6.7H61l0.4-3.1c0.3-2,0.9-2.2,1.5-2.2c0.2,0,0.4,0.1,0.6,0.2
			l0.3,0.1l0.4-1.6L64,46.7c-0.2-0.1-0.5-0.2-0.7-0.2C62.7,46.5,62.3,46.7,61.9,47.1"/>
		<path class="st32" d="M69.6,46.7c0,0-1.8,3.1-2.2,3.9c-0.3-0.8-1.2-3.9-1.2-3.9h-1.7l2.5,7.4l4.5-7.4H69.6z"/>
		<polygon class="st32" points="72.4,46.7 71.5,53.4 73.1,53.4 74,46.7 		"/>
		<polygon class="st32" points="83.3,46.7 82.4,53.4 84,53.4 84.9,46.7 		"/>
		<path class="st31" d="M83.3,45c0,0.5,0.4,1,1,1c0.6,0,1-0.4,1-1c0-0.5-0.4-1-1-1C83.8,44,83.3,44.4,83.3,45"/>
		<polygon class="st32" points="113.8,46.7 112.9,53.4 114.5,53.4 115.4,46.7 		"/>
		<path class="st31" d="M113.8,45c0,0.5,0.4,1,1,1c0.6,0,1-0.4,1-1c0-0.5-0.4-1-1-1C114.3,44,113.8,44.4,113.8,45"/>
		<polygon class="st32" points="149.3,46.7 148.4,53.4 150,53.4 150.9,46.7 		"/>
		<path class="st31" d="M149.3,45c0,0.5,0.4,1,1,1c0.5,0,1-0.4,1-1c0-0.5-0.4-1-1-1C149.8,44,149.3,44.4,149.3,45"/>
		<path class="st32" d="M75.3,50.3c0,2,1.3,3.3,3.3,3.3c0.8,0,1.6-0.2,2.1-0.6l0.1-0.1l0.3-1.9l-0.5,0.4c-0.7,0.5-1.2,0.8-1.8,0.8
			c-1.1,0-1.9-0.7-1.9-1.9c0-1.5,0.9-2.5,2.2-2.5c0.7,0,1.3,0.3,1.9,0.9l0.4,0.4l0.2-1.9l-0.1-0.1c-0.7-0.5-1.5-0.7-2.3-0.7
			C76.9,46.5,75.3,48.1,75.3,50.3"/>
		<path class="st32" d="M90,46.5c-2.1,0-3.7,1.6-3.7,3.8c0,2,1.3,3.3,3.4,3.3c2.2,0,3.7-1.6,3.7-3.9C93.3,47.9,91.9,46.5,90,46.5
			 M89.7,52.3c-1.1,0-1.8-0.8-1.8-2c0-1.4,0.9-2.4,2.1-2.4c1.1,0,1.8,0.8,1.8,2C91.7,51.3,90.9,52.3,89.7,52.3"/>
		<path class="st32" d="M95,48.7c0,1.1,0.7,1.5,1.6,1.9l0.4,0.2c0.6,0.3,0.8,0.4,0.8,0.7c0,0.4-0.4,0.7-1,0.7c-0.6,0-1.1-0.3-1.5-1
			L95.1,51l-1,1.2l0.1,0.2c0.7,0.8,1.5,1.3,2.6,1.3c1.6,0,2.5-0.9,2.5-2.3c0-1.2-0.7-1.6-1.7-2l-0.1,0c-0.7-0.3-1-0.4-1-0.8
			c0-0.3,0.3-0.6,0.9-0.6c0.5,0,1,0.2,1.3,0.7l0.2,0.3l1-1.2l-0.2-0.2c-0.6-0.7-1.4-1-2.3-1C96,46.5,95,47.4,95,48.7"/>
		<path class="st32" d="M168.8,46.5c-2.1,0-3.7,1.6-3.7,3.8c0,2,1.3,3.3,3.3,3.3c2.2,0,3.7-1.6,3.7-3.9
			C172.1,47.9,170.7,46.5,168.8,46.5 M168.5,52.3c-1.1,0-1.8-0.8-1.8-2c0-1.4,0.9-2.4,2.1-2.4c1.1,0,1.8,0.8,1.8,2
			C170.6,51.3,169.7,52.3,168.5,52.3"/>
		<path class="st32" d="M173.8,48.7c0,1.1,0.7,1.5,1.6,1.9l0.4,0.2c0.6,0.3,0.8,0.4,0.8,0.7c0,0.4-0.4,0.7-1,0.7
			c-0.6,0-1.1-0.3-1.5-1L174,51l-1.1,1.2l0.1,0.2c0.6,0.8,1.5,1.3,2.6,1.3c1.5,0,2.5-0.9,2.5-2.3c0-1.2-0.7-1.6-1.7-2l-0.1,0
			c-0.8-0.3-1-0.4-1-0.8c0-0.3,0.3-0.6,0.9-0.6c0.5,0,1,0.2,1.3,0.7l0.2,0.3l1-1.2l-0.2-0.2c-0.6-0.7-1.4-1-2.3-1
			C174.9,46.5,173.8,47.4,173.8,48.7"/>
		<path class="st32" d="M107.1,43l-1.4,10.4h1.7c0,0,0.6-4.4,0.6-4.8h3.9l0.2-1.6h-3.9c0.1-0.4,0.3-2.1,0.3-2.4h3.9l0.2-1.6H107.1z"
			/>
		<path class="st32" d="M119.2,47.2c0-0.1,0.1-0.5,0.1-0.5h-1.5l-0.9,6.7h1.6l0.4-3.3c0.1-1,0.5-2.1,1.8-2.1c1.1,0,1.1,0.7,1.1,0.9
			l0,0.4l0,0.1l-0.5,4.1h1.6l0.5-4.1c0-0.3,0.1-0.6,0.1-0.7c0-1.2-0.9-2.1-2.2-2.1C120.4,46.5,119.8,46.7,119.2,47.2"/>
		<path class="st32" d="M130.5,46.7c0,0-0.1,0.5-0.1,0.7c-0.5-0.6-1.2-0.9-2.1-0.9c-2,0-3.4,1.6-3.4,3.8c0,2,1.2,3.4,2.9,3.4
			c0.7,0,1.3-0.2,1.9-0.6c0,0-0.1,0.4-0.1,0.4h1.6l0.9-6.7H130.5z M128.1,52.4c-1.1,0-1.9-0.8-1.9-2.1c0-1.5,0.9-2.6,2.3-2.6
			c1,0,1.8,0.8,1.8,2.1C130.3,51.3,129.3,52.4,128.1,52.4"/>
		<path class="st32" d="M135.7,47.2c0-0.1,0.1-0.5,0.1-0.5h-1.5l-0.9,6.7h1.6l0.4-3.3c0.1-1,0.5-2.1,1.8-2.1c1.1,0,1.1,0.7,1.1,0.9
			l0,0.4l0,0.1l-0.5,4.1h1.6l0.5-4.1c0-0.3,0.1-0.6,0.1-0.7c0-1.2-0.9-2.1-2.2-2.1C136.9,46.5,136.3,46.7,135.7,47.2"/>
		<path class="st32" d="M141.3,50.3c0,2,1.3,3.3,3.3,3.3c0.8,0,1.6-0.2,2.1-0.6l0.1-0.1l0.3-1.9l-0.5,0.4c-0.7,0.5-1.2,0.8-1.8,0.8
			c-1.1,0-1.9-0.7-1.9-1.9c0-1.5,0.9-2.5,2.2-2.5c0.7,0,1.3,0.3,1.9,0.9l0.4,0.4l0.2-1.9l-0.1-0.1c-0.7-0.5-1.5-0.7-2.3-0.7
			C142.9,46.5,141.3,48.1,141.3,50.3"/>
		<path class="st32" d="M162.4,47.1c0,0,0.1-0.4,0.1-0.4h-1.6l-0.9,6.7h1.6l0.4-3.1c0.3-2,0.9-2.2,1.5-2.2c0.2,0,0.4,0.1,0.6,0.2
			l0.3,0.1l0.4-1.6l-0.2-0.1c-0.2-0.1-0.5-0.2-0.7-0.2C163.2,46.5,162.8,46.7,162.4,47.1"/>
		<rect y="14.9" class="st30" width="38.5" height="38.5"/>
		<path class="st3" d="M20,25.1c0,0,0.1-0.1,0.1-0.1c0.1,0.1,0.2,0.3,0.3,0.4c0,0.1,0.2-0.1,0.3,0c0.1,0.1,0.3,0.6,0.1,0.4
			c-0.3-0.2-0.5-0.4-0.7-0.6l-0.5-0.6l-0.2-0.1l0.3,0.1C19.9,24.7,19.9,25,20,25.1"/>
		<path class="st3" d="M20.2,24.2c0,0-0.1,0.1-0.1,0.1c-0.1-0.1-0.2-0.3-0.3-0.3c0-0.1-0.2,0.1-0.3,0c-0.1-0.1-0.3-0.6-0.1-0.4
			c0.3,0.2,0.5,0.4,0.7,0.6l0.5,0.6l0.2,0.1l-0.3-0.1C20.3,24.7,20.3,24.3,20.2,24.2"/>
		<path class="st3" d="M21,25.1l1.1,0.6l0.1,0.1l0.1,0l0.2,0.1l0,0v0l0,0l0.4,0.2l0.1,0.1c0.1,0.1,0.1,0.1,0.2,0.1l0.1,0l0,0l0,0
			l0.3,0.1c0,0,2.8,1.3,4,1.7c0.7,0.2,1.3,0.4,2,0.5c1.3,0.2,2.4,0.9,3.7,0.7c0.5-0.1,1.4,0.2,1.8,0.3c0.5,0.4,0.2,1.2,0.2,1.3
			c-0.5,0.7-1.7,0.5-1.7,0.5s-0.9-0.2-1-0.2c-0.1,0.2-1.9-0.3-2.9-0.5c-0.2,0-0.5-0.2-0.8-0.2c-1.5-0.3-2.7-1.2-4.2-1.8
			c-0.4-0.2-0.6-0.5-0.9-0.8c-0.2-0.2-0.5-0.2-0.7-0.3c-0.3-0.2-1.1-1.2-1.2-1.2l-0.3-0.1L21.4,26l-0.1-0.1l-0.6-0.7l-0.1-0.1
			C20.8,25.1,21,25.1,21,25.1"/>
		<path class="st3" d="M20.7,22c0,0,0.1-0.1,0.1-0.1c0.1,0.1,0.2,0.3,0.3,0.3c0,0.1,0.2-0.1,0.3,0c0.1,0.1,0.3,0.6,0.1,0.4
			c-0.3-0.2-0.5-0.4-0.7-0.6l-0.5-0.6l-0.2-0.1l0.3,0.1C20.5,21.6,20.6,21.9,20.7,22"/>
		<path class="st3" d="M20.8,21.1c0,0-0.1,0.1-0.1,0.1c-0.1-0.1-0.2-0.3-0.3-0.4c0-0.1-0.2,0.1-0.3,0c-0.1-0.1-0.3-0.6-0.1-0.4
			c0.3,0.2,0.5,0.4,0.7,0.6l0.5,0.6l0.2,0.1l-0.3-0.1C21,21.6,21,21.3,20.8,21.1"/>
		<path class="st3" d="M21.7,22l1.1,0.6l0.1,0.1l0.1,0l0.2,0.1l0,0v0l0,0l0.4,0.2l0.1,0.1c0.1,0.1,0.1,0.1,0.2,0.1l0.1,0l0,0l0,0
			l0.3,0.1c0,0,2.8,1.3,4,1.7c0.7,0.2,1.3,0.4,2,0.5c1.3,0.2,2.4,0.9,3.7,0.7c0.5-0.1,1.4,0.2,1.8,0.3c0.5,0.4,0.2,1.2,0.2,1.3
			c-0.5,0.7-1.7,0.5-1.7,0.5s-0.9-0.2-1-0.2c-0.2,0.2-1.9-0.3-2.9-0.5c-0.2,0-0.5-0.2-0.8-0.2c-1.5-0.3-2.7-1.2-4.2-1.8
			c-0.4-0.2-0.6-0.5-0.9-0.8c-0.2-0.2-0.5-0.2-0.7-0.3c-0.3-0.2-1.1-1.2-1.2-1.2L22.3,23l-0.2-0.1L22,22.8l-0.6-0.7L21.3,22
			C21.5,22,21.7,22,21.7,22"/>
		<path class="st3" d="M34.2,37.9c0-1.7,0.6-3.5,1-4.7c1-3.2,2.6-6.3,1.6-9.9c-1.4-3.6-5.2-5.6-9-6.8c-2-0.6-4.1-0.6-6-0.2
			c-2,0.3-3.5,1.7-4.4,3.3c-1.7,2.9-2.3,6-4,8.6c-0.8,1.3-2,2.4-3.5,3c-1.5,0.6-3.4,0.5-5,1.2c-0.2,0.2-0.5,0.3-0.8,0.4
			c0,0,0,0-0.1,0c-0.2,0.1-0.3,0.2-0.3,0.6c0,0,0,0,0,0c0,0,0,0,0,0c0,0.1,0,0.3,0,0.4c0.3,1,1.1,2.8,1.9,3.5c1.9,2,3.3,3.9,5.6,5.3
			c1.1,0.7,2.3,1.3,3.5,1.9c2.3,1.1,4.4,1.8,6.8,2.3l1.1,0.2L23,47l0.1,0l0,0l0.1,0c0.1-0.1,0.3,0,0.5,0l0.1,0l0.7,0.1l0.6,0
			c0.1,0,0.1,0,0.2,0.1c0.7,0.1,1.5,0.1,2.3,0.2c0,0,0.4-0.1,0.6-0.2l-0.2,0c0,0,0,0.1-0.1,0.1l0.1-0.1l0,0
			c-0.5-0.1-1.1-0.3-1.6-0.4l-0.2-0.1l-0.3,0l-0.5,0c-0.2,0-0.5-0.2-0.9-0.3c-0.1,0-1.2-0.1-1.3-0.1c-0.3-0.1-1.4-0.5-1.9-0.7
			c-0.6-0.3-1.2-0.6-1.9-0.9c-2.7-0.9-4.9-2.2-7.1-3.6c-0.4-0.3-0.7-0.6-1.1-0.9c-1.5-1-2.3-2.9-3.7-3.6c-0.9-0.5-0.9-1.5-0.9-1.5
			S5.7,33.7,4.9,33c0.4-0.2,0.9-0.4,1.5-0.5c1.7-0.3,4.3-0.3,6.1-1.9c3.3-3,3.7-7,5.6-10c0.9-1.6,2-2.9,3.8-3.3
			c1.8-0.4,3.9-0.5,5.8,0.1c1.5,0.5,2.8,1.1,4,1.8c2.3,1.3,4.4,3.5,4.3,5.9c0,2.4-0.9,4.6-1.3,6.5c-3,8.8,0.2,10.8,1.7,12.4
			c0.1,0.2,1.8,1.5-0.4-1.6C35,41.3,34.1,39.7,34.2,37.9"/>
		<path class="st32" d="M10.7,48c0,0-5,2.5-3.9,5c1,2.5,5.5,3,6,2.5c0.5-0.5,2.5-1.4,1.1-5.7c-0.9-1.4-1.7,0.9-1.7,0.9
			s-0.2,1.2,0,1.8c0.2,0.5-0.2,1.4-0.9,1.2c-0.8-0.1-2.8-0.7-2.9-1.6C8.1,51.2,12,48.6,10.7,48"/>
		<path class="st3" d="M30.2,17.8c0,0-0.4-3.1,1-3.4c1.5-0.3,3.1,1.6,3.1,2c-0.1,0.4,0.2,1.6-2.2,2.3c-0.9,0-0.1-1.1-0.1-1.1
			s0.5-0.5,0.8-0.5c0.3-0.1,0.6-0.5,0.3-0.8c-0.3-0.3-1.2-1.1-1.7-0.9C30.8,15.6,30.9,18.3,30.2,17.8"/>
		<path class="st3" d="M1.7,39.2c0,0.1,0.1,0,0.2,0.2c0.1,0.4,0.2,0.7,0.4,1c0.1,0.2,0.3,0.3,0.4,0.5c0.1,0.4,0.6,1.3,0.3,0.8
			c-0.5-0.8-0.8-1.3-1.1-2c-0.2-0.6-0.4-1.2-0.4-1.8c0-0.2-0.1-0.3-0.1-0.5c0.1,0.2,0.1,0.4,0.2,0.7C1.7,38.4,1.7,38.8,1.7,39.2"/>
		<path class="st3" d="M1.4,37.3C1.4,37.3,1.3,37.3,1.4,37.3v0.5c0,0.5,0.1,0.9,0.2,1.4c0,0,0,0.1,0,0.1l0,0c0,0,0,0,0,0
			c0,0.1,0.1,0.3,0.1,0.4c0.3,0.8,0.6,1.3,1.1,2C3,41.8,3,41.9,3.1,41.9c0.1,0,0.1-0.1-0.2-0.6l-0.2-0.4l-0.2-0.3l-0.2-0.2
			c0,0-0.3-0.7-0.3-0.7L2,39.4c0,0-0.1-0.2-0.1-0.2s0,0,0,0c0,0,0,0,0,0c0-0.4,0-0.8-0.2-1.2C1.6,37.9,1.5,37.3,1.4,37.3
			C1.5,37.3,1.5,37.3,1.4,37.3C1.5,37.3,1.5,37.3,1.4,37.3 M2.6,40.9C2.6,40.9,2.6,40.9,2.6,40.9c0,0,0,0.1,0.1,0.1
			C2.6,40.9,2.6,40.9,2.6,40.9"/>
		<path class="st3" d="M2.1,35.6c-0.1,0.1-0.2,0.2-0.2,0.2c-0.1,0.3-0.2,0.7-0.3,1l0-0.2c0.1-0.2,0.1-0.2,0.1,0
			c0-0.4,0.2-0.8,0.4-1.2C2.1,35.5,2.1,35.5,2.1,35.6"/>
		<path class="st3" d="M2,35.4c-0.2,0.4-0.4,0.7-0.4,1.1c-0.1,0-0.1,0.1-0.1,0.2l0,0.2l0.1,0.3l0.2-0.5L2,35.9c0,0,0.1-0.2,0.1-0.2
			l0,0l0,0c0-0.1,0-0.2,0-0.2L2,35.4L2,35.4z"/>
		<path class="st3" d="M5,43.4c0,0.1,0.1,0.1,0.1,0.2l0.2,0.1L5.6,44l0.1,0.1c0,0,0.8,0.7,0.8,0.7c0.2,0.2,0.6,0.5,0.6,0.5l0,0
			l0.1,0l0.6,0.4C8.2,46,8.6,46.3,9,46.6c2.7,1.7,5.4,3.1,8.6,4.2c1.7,0.6,3.4,1,5.1,1.3c3.3,0.6,6.5,1,9.5,0.1c1.2-0.3,3-1.2,3.5-2
			c0.8-1,1-0.3,1-0.2c0,1-2.2,2.8-4.7,3.4c-1.9,0.8-4.9,0.4-7.3,0.1c-0.6-0.1-1.3-0.2-2-0.4c-3.9-0.7-7.3-2.2-10.9-4.1
			c-1-0.5-1.7-1.1-2.5-1.6C8.6,47,8,46.7,7.6,46.3c-0.7-0.5-2-1.7-2-1.8c-0.4-0.4-0.5-0.7-0.8-0.9c-0.2-0.2-0.3-0.3-0.5-0.5
			l-0.3-0.3c0,0-0.1-0.2-0.2-0.2c-0.4-0.6-1.2-2-1.2-2C2.7,40.7,4.3,42.7,5,43.4"/>
		<path class="st3" d="M2.5,40.6l1.2,2c0,0,0.2,0.2,0.2,0.2l0.3,0.3c0,0,0.2,0.2,0.2,0.2l0.3,0.3c0,0,0.4,0.4,0.4,0.4l0.4,0.5
			c0.1,0.1,1.3,1.3,2,1.8c0,0,0.8,0.6,0.8,0.6l0.7,0.5l0.4,0.3c0.6,0.5,1.3,0.9,2.1,1.4c4.2,2.2,7.5,3.4,10.9,4.1l2,0.4
			c2.6,0.3,5.6,0.6,7.4-0.1c2.6-0.6,4.7-2.4,4.8-3.4c0-0.1,0-0.3-0.2-0.4c-0.2-0.1-0.5,0.1-0.9,0.5c-0.5,0.8-2.4,1.7-3.5,2
			c-3,0.9-6.3,0.5-9.4-0.1c-1.6-0.3-3.2-0.7-5.1-1.3c-3.1-1.1-5.8-2.4-8.6-4.2c0,0-1.2-0.8-1.2-0.8l-0.6-0.4c0,0-0.6-0.5-0.6-0.5
			L5.7,44l-0.1-0.1l-0.3-0.3l-0.2-0.1c0,0-0.1-0.1-0.1-0.1l0-0.1l-1.7-2.1l-0.7-0.8L2.5,40.6z M3.8,42.5c0,0-0.4-0.6-0.7-1.2
			c0,0,1.8,2.1,1.8,2.1l0,0L5,43.6l0.2,0.1L5.5,44l0.1,0.1c0,0,0.8,0.7,0.8,0.7l0.6,0.5l0.6,0.5L9,46.7c2.7,1.8,5.5,3.1,8.6,4.2
			c1.9,0.6,3.5,1.1,5.1,1.3c3.1,0.6,6.4,1,9.5,0.1c1.1-0.3,3.1-1.2,3.6-2.1c0.4-0.5,0.6-0.5,0.7-0.5c0.1,0,0.1,0.2,0.1,0.3
			c0,1-2.2,2.7-4.7,3.3c-1.8,0.8-4.7,0.5-7.3,0.1l-2-0.4c-3.4-0.6-6.7-1.8-10.9-4.1c-0.8-0.4-1.4-0.9-2.1-1.3l-0.4-0.3l-0.8-0.5
			l-0.8-0.6c-0.7-0.5-2-1.7-2-1.8c0,0-0.4-0.5-0.4-0.5l-0.4-0.5c0,0-0.3-0.3-0.3-0.3L4.3,43L4,42.7C4,42.8,3.8,42.5,3.8,42.5
			C3.8,42.5,3.8,42.5,3.8,42.5"/>
		<path class="st30" d="M184.2,9.4c-1.5,0-2.8,1.2-2.8,2.8c0,1.5,1.2,2.8,2.8,2.8c1.5,0,2.8-1.2,2.8-2.8
			C187,10.6,185.8,9.4,184.2,9.4 M184.2,14.5c-1.3,0-2.3-1-2.3-2.3c0-1.3,1-2.3,2.3-2.3c1.3,0,2.3,1,2.3,2.3
			C186.6,13.4,185.5,14.5,184.2,14.5"/>
		<path class="st30" d="M183.8,13.8h-0.5v-3.1c0.3,0,0.5-0.1,0.9-0.1c0.5,0,0.8,0.1,1,0.2c0.2,0.1,0.3,0.3,0.3,0.6
			c0,0.4-0.3,0.7-0.6,0.8v0c0.3,0,0.5,0.3,0.5,0.8c0.1,0.5,0.1,0.7,0.2,0.8H185c-0.1-0.1-0.1-0.4-0.2-0.8c-0.1-0.4-0.3-0.5-0.7-0.5
			h-0.3V13.8z M183.8,12h0.4c0.4,0,0.8-0.1,0.8-0.5c0-0.3-0.2-0.5-0.8-0.5c-0.2,0-0.3,0-0.4,0V12z"/>
	</g>
</g>
<g id="Capa_7">
</g>
<g id="Capa_8">
</g>
<g id="Capa_9">
</g>
<g id="Capa_10">
</g>
</svg>
