<?xml version="1.0" encoding="utf-8"?>
<!-- Generator: Adobe Illustrator 19.0.0, SVG Export Plug-In . SVG Version: 6.00 Build 0)  -->
<svg version="1.1" id="Capa_1" xmlns="http://www.w3.org/2000/svg" xmlns:xlink="http://www.w3.org/1999/xlink" x="0px" y="0px"
	 viewBox="-226 456.9 187 95" style="enable-background:new -226 456.9 187 95;" xml:space="preserve">
<style type="text/css">
	.st0{fill:#76BC21;}
	.st1{fill:#006937;}
</style>
<title>logo-banpro</title>
<g id="Layer_4">
	<path class="st0" d="M-59.2,476.9C-69.5,487-78.8,498.1-87,510l0,0c14.7-12.9,30.8-24.1,48-33.3l0,0
		C-45.7,476.4-52.5,476.5-59.2,476.9"/>
	<path class="st1" d="M-93.1,516.7L-93.1,516.7c8.9-14.8,19.4-28.5,31.4-40.9l-4.5-11.3c-4,4.7-7.7,9.6-11,14.8
		c-6.4,1.5-12.7,3.4-18.9,5.7c0,0,7.8,5.3,11.6,8.1C-87.7,500.5-92.8,515.8-93.1,516.7 M-50.4,514.5L-50.4,514.5
		c-2.2-8.1-4.4-16.3-6.5-24.5c-5.3,3.4-10.5,7-15.6,10.8L-50.4,514.5"/>
	<path class="st1" d="M-207.9,493.3h4.5l-0.4,2.2l0,0c0.9-1.6,2.5-2.5,4.3-2.6h0.7l-0.9,4.4l-1.3-0.1c-1.8-0.2-3.4,1.1-3.6,2.9
		l-1.9,8.8h-4.7L-207.9,493.3z"/>
	<path class="st1" d="M-146.8,493.3h4.5l-0.4,2.2l0,0c0.9-1.5,2.5-2.5,4.3-2.6h0.8l-1,4.4l-1.2-0.2c-1.8-0.2-3.5,1-3.7,2.9
		c0,0,0,0,0,0l-1.9,8.9h-4.7L-146.8,493.3z"/>
	<path class="st1" d="M-199.6,501.1c1-4.6,2.8-8.2,8.1-8.2s5.7,3.5,4.7,8.1c-1,4.6-2.8,8.3-8.1,8.3
		C-200.2,509.3-200.6,505.8-199.6,501.1 M-192.1,496c-1.4,0-2,1.3-2.8,5.1c-0.8,3.8-0.7,5.1,0.6,5.1s2-1.3,2.9-5.1
		C-190.5,497.3-190.6,496-192.1,496"/>
	<path class="st1" d="M-108.6,493c-1.6-0.1-3.1,0.2-4.5,1c-1.5,0.9-2.5,2.4-2.7,4.1h4.2c0.3-1.3,0.8-2.1,2.1-2.1s1.4,0.6,1.2,1.6
		s-0.6,1.4-2.1,1.7c-1.5,0.3-3,0.8-4.4,1.3c-1.5,0.9-2.5,2.3-2.8,4c-0.7,3.3,0.5,4.7,3.2,4.7c1.6,0,3.2-0.8,4.1-2.2l0,0
		c-0.1,0.6-0.1,1.2-0.1,1.8h4.5c-0.4-0.7-0.1-2.2,0.2-3.3l1.7-8C-103.3,494.3-104.7,493-108.6,493 M-109.7,504
		c-0.2,1.2-1.2,2.1-2.4,2.1c-0.8,0-1.2-0.7-0.9-2c0.1-0.7,0.5-1.3,1.1-1.7c0.9-0.5,1.8-0.9,2.8-1.2
		C-109.4,502.1-109.6,503-109.7,504"/>
	<path class="st1" d="M-221.8,488.4h7.5c5.1,0,5.3,3.6,4.7,6.2c-0.6,2.6-3.1,6.3-7.9,6.3h-2.1l-1.7,8h-4.9L-221.8,488.4z
		 M-218.9,497.3h1.3c1.5,0.1,2.9-1,3-2.6c0,0,0,0,0,0c0.3-1.6,0.1-2.8-1.9-2.8h-1.2L-218.9,497.3z"/>
	<path class="st1" d="M-183.2,493.3h4.5l-0.4,1.9h0.1c0.9-1.4,2.5-2.3,4.2-2.3c1.3,0,3.1,0.3,3.3,2.4c1.5-1.8,2.6-2.4,4.4-2.4
		c1.8,0,3.7,1.4,3.1,4.3l-2.5,11.7h-4.6l2.2-10.6c0.3-1.1-0.1-1.8-0.9-1.8c-1.2,0.1-2.1,1-2.2,2.2l-2.2,10.2h-4.6l2.2-10.6
		c0.3-1.1-0.1-1.8-0.9-1.8s-1.8,0.7-2.2,2.2l-2.1,10.2h-4.7L-183.2,493.3z"/>
	<path class="st1" d="M-158.1,501.9l-0.2,0.9c-0.5,2.4-0.4,3.6,0.9,3.6s1.8-0.9,2.3-2.8h4.3c-0.9,3.8-3.4,5.7-7.2,5.7
		c-5.9,0-5.5-4.1-4.5-8.7s2.9-7.7,8-7.7s5.4,3.7,4.2,9H-158.1z M-154.2,499.2c0.5-2.2,0.5-3.4-0.8-3.4s-2.1,1.3-2.5,3.4H-154.2z"/>
	<path class="st1" d="M-135.8,493.3h4.6l-3.3,15.6h-4.7L-135.8,493.3z M-134.7,488.1h4.6l-0.7,3.6h-4.7L-134.7,488.1z"/>
	<path class="st1" d="M-122.1,499.2c0.5-2.3,0.2-3.2-1.1-3.2s-2.1,1.9-2.8,5.1c-0.7,3.2-0.9,5.1,0.7,5.1s1.9-0.9,2.5-3.6h4.3
		c-1,4.8-3.3,6.7-7.6,6.7c-5.8,0-5.4-4.1-4.4-8.7s2.9-7.7,7.9-7.7s5.6,2.6,4.8,6.3H-122.1z"/>
	<path class="st0" d="M-201.9,469.5h4.5l-0.5,2.1h0.1c0.9-1.5,2.5-2.5,4.3-2.6h0.7l-0.9,4.4h-1.3c-1.8-0.2-3.4,1-3.7,2.8l-1.8,8.8
		h-4.7L-201.9,469.5z"/>
	<path class="st0" d="M-182.3,485h-4.5l0.4-1.8h-0.1c-0.9,1.4-2.5,2.2-4.2,2.2c-2.6,0-3.8-1.3-3.1-4.3l2.4-11.6h4.7l-2.3,10.6
		c-0.2,1.1,0.1,1.8,1,1.8s1.8-0.7,2.2-2.2l2.1-10.2h4.7L-182.3,485z"/>
	<path class="st0" d="M-168.9,469c-1.6,0-3.1,0.9-3.8,2.3h-0.1l0.4-1.9h-4.4l-4.3,20.3h4.6l1.4-6.6l0,0c0.4,1.6,1.7,2,3,2
		c3.8,0,5.2-3.4,6.2-8.1C-164.9,472.3-165.9,469-168.9,469 M-170.5,477.2c-0.6,2.8-1.1,4.6-2.8,4.6c-1.7,0-1.2-2.1-0.6-4.8
		c0.6-2.7,1.3-4.6,2.6-4.6C-170,472.4-170,474.7-170.5,477.2"/>
	<path class="st0" d="M-215.2,485.4c2,0.2,3.9-0.7,5-2.3l0,0l-0.3,1.9h3.3l2.4-11h-6.8l-0.7,3.3h2.3v0.6c-0.6,2.8-1.5,4.3-3.2,4.3
		s-1.8-1.8-0.6-7.4s1.8-7.5,3.8-7.5s1.5,2.1,1.2,3.5h4.6c0.5-2.4,1.2-6.7-5-6.7s-8.4,4.4-9.8,11.1S-220.3,485.4-215.2,485.4"/>
	<path class="st0" d="M-164.4,477.3c1-4.7,2.8-8.3,8.2-8.3s5.7,3.5,4.7,8.2s-2.8,8.2-8.2,8.2S-165.4,481.9-164.4,477.3
		 M-156.8,472.1c-1.4,0-2.1,1.3-2.9,5.1c-0.8,3.8-0.7,5.1,0.7,5.1s2-1.3,2.8-5.1C-155.4,473.4-155.4,472.1-156.8,472.1"/>
</g>
</svg>
