<?xml version="1.0" encoding="utf-8"?>
<!-- Generator: Adobe Illustrator 22.0.1, SVG Export Plug-In . SVG Version: 6.00 Build 0)  -->
<svg version="1.1" xmlns="http://www.w3.org/2000/svg" xmlns:xlink="http://www.w3.org/1999/xlink" x="0px" y="0px"
	 viewBox="0 0 187 65" style="enable-background:new 0 0 187 65;" xml:space="preserve">
 <style type="text/css">.st0{fill:#00B2E3;}
	.st1{fill:#FEFEFE;}
	.st2{fill:#0071CE;}
	.st3{fill:#FFFFFF;}
	.st4{fill:#EC0000;}
	.st5{clip-path:url(#XMLID_108_);}
	.st6{clip-path:url(#XMLID_109_);fill:#FF0000;}
	.st7{clip-path:url(#XMLID_110_);}
	.st8{clip-path:url(#XMLID_111_);fill:#FEFEFE;}
	.st9{clip-path:url(#XMLID_112_);}
	.st10{clip-path:url(#XMLID_113_);fill:#FEFEFE;}
	.st11{clip-path:url(#XMLID_114_);}
	.st12{clip-path:url(#XMLID_115_);fill:#FEFEFE;}
	.st13{clip-path:url(#XMLID_116_);}
	.st14{clip-path:url(#XMLID_117_);fill:#FEFEFE;}
	.st15{clip-path:url(#XMLID_118_);}
	.st16{clip-path:url(#XMLID_119_);fill:#FEFEFE;}
	.st17{clip-path:url(#XMLID_120_);}
	.st18{clip-path:url(#XMLID_121_);fill:#FEFEFE;}
	.st19{clip-path:url(#XMLID_122_);}
	.st20{clip-path:url(#XMLID_123_);fill:#FEFEFE;}
	.st21{clip-path:url(#XMLID_124_);}
	.st22{clip-path:url(#XMLID_125_);fill:#FEFEFE;}
	.st23{clip-path:url(#XMLID_126_);}
	.st24{clip-path:url(#XMLID_127_);fill:#FEFEFE;}
	.st25{clip-path:url(#XMLID_128_);}
	.st26{clip-path:url(#XMLID_129_);fill:#FEFEFE;}
	.st27{fill-rule:evenodd;clip-rule:evenodd;fill:#364B99;}
	.st28{fill-rule:evenodd;clip-rule:evenodd;fill:none;stroke:#364B99;stroke-miterlimit:10;}
	.st29{fill:#DC052B;}
	.st30{fill:#0033A1;}
	.st31{fill:#FBBC1C;}
	.st32{fill:#F5A800;}
	.st33{fill:#7A797E;}
	.st34{fill:#E20613;}
	.st35{clip-path:url(#SVGID_2_);}
	.st36{clip-path:url(#SVGID_6_);}
	.st37{clip-path:url(#SVGID_10_);}
	.st38{clip-path:url(#SVGID_14_);}
	.st39{clip-path:url(#SVGID_18_);}
	.st40{fill-rule:evenodd;clip-rule:evenodd;fill:#E20613;}
	.st41{fill-rule:evenodd;clip-rule:evenodd;fill:#802B29;}
	.st42{fill-rule:evenodd;clip-rule:evenodd;fill:#A22526;}
	.st43{fill-rule:evenodd;clip-rule:evenodd;fill:#A32827;}
	.st44{fill-rule:evenodd;clip-rule:evenodd;fill:#7D2926;}
	.st45{fill:#868686;}
	.st46{fill:#2B2422;}
	.st47{fill:#5A5A59;}
	.st48{fill:#808080;}
	.st49{fill:#929292;}
	.st50{fill:#A3A3A2;}
	.st51{fill:#FFD600;}
	.st52{fill:#FF7000;}
	.st53{fill:url(#XMLID_130_);}
	.st54{fill:url(#XMLID_131_);}
	.st55{fill:url(#XMLID_132_);}
	.st56{fill:#0E62AB;}
	.st57{fill:#FFDE11;}</style>
 <g>
  <title>Layer 1</title>
  <g id="Capa_1"/>
  <g id="Capa_2"/>
  <g id="Capa_3"/>
  <g id="Capa_4"/>
  <g id="Capa_5"/>
  <g id="Capa_6"/>
  <g id="Capa_7"/>
  <g id="Capa_8"/>
  <g id="Capa_9"/>
  <g stroke="null" id="Capa_10">
   <g stroke="null" id="XMLID_94_">
    <path stroke="null" id="XMLID_106_" class="st52" d="m43.2914,16.70538c0,1.11398 -0.87527,1.98925 -1.98925,1.98925l-17.82366,0l0,13.2086l13.76559,0c1.11398,0 1.98925,0.87527 1.98925,1.98925c0,1.11398 -0.87527,1.98925 -1.98925,1.98925l-13.76559,0l0,15.19785l-3.97849,0l0,-34.69247c0,-0.95484 0.71613,-1.67097 1.67097,-1.67097l20.13118,0c1.11398,0 1.98925,0.95484 1.98925,1.98925z" fill="black"/>
    <path stroke="null" id="XMLID_105_" class="st52" d="m51.24839,24.74193l0,0c1.11398,0 1.98925,0.87527 1.98925,1.98925l0,24.34839l-3.97849,0l0,-24.34839c0,-1.11398 0.87527,-1.98925 1.98925,-1.98925z"/>
    <circle stroke="null" id="XMLID_104_" class="st52" cx="51.24839" cy="16.70538" r="2.30753"/>
    <path stroke="null" id="XMLID_103_" class="st52" d="m60.39892,24.74193l0,0c1.11398,0 1.98925,0.87527 1.98925,1.98925l0,24.34839l-3.97849,0l0,-24.34839c0,-1.11398 0.87527,-1.98925 1.98925,-1.98925z"/>
    <path stroke="null" id="XMLID_102_" class="st52" d="m100.34301,14.71613l0,0c1.11398,0 1.98925,0.87527 1.98925,1.98925l0,34.29462l-3.97849,0l0,-34.29462c0,-1.03441 0.87527,-1.98925 1.98925,-1.98925z"/>
    <path stroke="null" id="XMLID_101_" class="st52" d="m71.69785,35.4043l0,15.67527l0,-15.5957c0,0 0,-0.07957 0,-0.07957z"/>
    <circle stroke="null" id="XMLID_100_" class="st52" cx="60.39892" cy="16.70538" r="2.30753"/>
    <g stroke="null" id="XMLID_96_">
     <linearGradient stroke="null" transform="translate(0,2.385213851928711) translate(9.5,0) translate(0,2.735215187072754) translate(10,0) translate(0,8.800000190734863) scale(0.897849440574646) translate(0,-8.800000190734863) translate(11.137724876403809,12.84760570526123) scale(0.886227548122406) translate(-11.137724876403809,-12.84760570526123) " id="XMLID_108_" x1="0.49432" y1="0.00204" x2="0.49432" y2="1.00259">
      <stop stroke="null" offset="0" stop-color="#FF7000"/>
      <stop stroke="null" offset="0.6538" stop-color="#FF9F00"/>
      <stop stroke="null" offset="0.9974" stop-color="#FFB300"/>
     </linearGradient>
     <path stroke="null" id="XMLID_99_" d="m142.67419,13.92043l0,0c1.11398,0 1.98925,0.87527 1.98925,1.98925l0,15.11828l-3.97849,0l0,-15.11828c0,-1.03441 0.87527,-1.98925 1.98925,-1.98925z" fill="url(#XMLID_108_)"/>
     <linearGradient stroke="null" transform="translate(0,2.385213851928711) translate(9.5,0) translate(0,2.735215187072754) translate(10,0) translate(0,8.800000190734863) scale(0.897849440574646) translate(0,-8.800000190734863) translate(11.137724876403809,12.84760570526123) scale(0.886227548122406) translate(-11.137724876403809,-12.84760570526123) " id="XMLID_109_" x1="0.50475" y1="0.99716" x2="0.50474" y2="0.00245">
      <stop stroke="null" offset="0" stop-color="#FF7000"/>
      <stop stroke="null" offset="0.6538" stop-color="#FF9F00"/>
      <stop stroke="null" offset="0.9974" stop-color="#FFB300"/>
     </linearGradient>
     <path stroke="null" id="XMLID_98_" d="m131.21613,39.78064l0,0c1.11398,0 1.98925,0.95484 1.90968,2.06882l-0.23871,8.51398l-3.97849,-0.15914l0.23871,-8.51398c0.07957,-1.03441 0.95484,-1.90968 2.06882,-1.90968z" fill="url(#XMLID_109_)"/>
     <radialGradient stroke="null" transform="translate(0,2.385213851928711) translate(9.5,0) translate(0,2.735215187072754) translate(10,0) translate(0,8.800000190734863) scale(0.897849440574646) translate(0,-8.800000190734863) translate(11.137724876403809,12.84760570526123) scale(0.886227548122406) translate(-11.137724876403809,-12.84760570526123) " id="XMLID_110_" cx="148.4881" cy="37.8716" r="29.9461" gradientUnits="userSpaceOnUse">
      <stop stroke="null" offset="0" stop-color="#FF7000"/>
      <stop stroke="null" offset="0.326" stop-color="#FF7300"/>
      <stop stroke="null" offset="0.54" stop-color="#FF7B00"/>
      <stop stroke="null" offset="0.7217" stop-color="#FF8A00"/>
      <stop stroke="null" offset="0.8845" stop-color="#FF9F00"/>
      <stop stroke="null" offset="0.9974" stop-color="#FFB300"/>
     </radialGradient>
     <path id="XMLID_97_" d="m167.5,36.27957c0,7.71828 -6.28602,14.0043 -14.0043,14.0043c-0.23871,0 -0.47742,0 -0.63656,0c-0.23871,0 -0.47742,0 -0.63656,-0.07957c-3.1828,-0.31828 -5.88817,-1.83011 -8.51398,-3.97849c0,0 0,0 0,0c0,0 0,0 0,0c-3.42151,-2.78495 -6.44516,-6.68387 -9.38925,-10.26452c-2.54624,-3.02366 -5.0129,-5.88817 -7.71828,-7.71828c-1.43226,-1.11398 -3.10323,-1.83011 -5.0129,-2.06882c-0.07957,0 -0.23871,0 -0.31828,-0.07957c-0.15914,0 -0.23871,0 -0.39785,0c-0.15914,0 -0.39785,0 -0.55699,0c-5.64946,0 -10.18495,4.53548 -10.18495,10.18495c0,5.64946 4.53548,10.18495 10.18495,10.18495c3.81935,0 7.16129,-2.06882 8.91183,-5.25161c0.07957,-0.23871 0.23871,-0.47742 0.31828,-0.63656c0.39785,-0.47742 0.95484,-0.7957 1.5914,-0.7957c1.11398,0 1.98925,0.87527 1.98925,1.98925c0,0 0,0.07957 0,0.07957c-0.23871,0.55699 -0.47742,1.03441 -0.7957,1.51183c-2.46667,4.13763 -6.92258,6.92258 -12.09462,6.92258c-7.71828,0 -14.0043,-6.28602 -14.0043,-14.0043c0,-7.71828 6.28602,-14.0043 14.0043,-14.0043c0.47742,0 0.95484,0 1.43226,0.07957c0.23871,0 0.39785,0.07957 0.63656,0.07957c0.23871,0 0.39785,0.07957 0.63656,0.07957c7.08172,1.35269 11.85591,7.71828 16.55054,13.60645l0,0c2.30753,2.94409 4.61505,5.72903 7.16129,7.71828c0,0 0.07957,0.07957 0.07957,0.07957c1.5914,1.43226 3.58065,2.30753 5.8086,2.54624c0.15914,0 0.31828,0 0.47742,0c0.07957,0 0.15914,0 0.23871,0l0.07957,0c0.07957,0 0.23871,0 0.31828,0c5.64946,0 10.18495,-4.53548 10.18495,-10.18495c0,-5.64946 -4.61505,-10.18495 -10.18495,-10.18495c-3.89892,0 -7.32043,2.22796 -9.07097,5.49032c0,0 0,0 0,0c-0.07957,0.07957 -0.07957,0.15914 -0.15914,0.31828l0,0c-0.31828,0.55699 -0.95484,0.87527 -1.5914,0.87527c-1.03441,0 -1.90968,-0.87527 -1.90968,-1.90968c0,-0.15914 0,-0.23871 0.07957,-0.39785c0,0 0,0 0,-0.07957c0.15914,-0.31828 0.23871,-0.55699 0.39785,-0.7957c0,0 0,0 0,0c2.3871,-4.29677 7.00215,-7.24086 12.25376,-7.24086c7.55914,-0.07957 13.84516,6.12688 13.84516,13.92473z" fill="url(#XMLID_110_)"/>
    </g>
    <path stroke="null" id="XMLID_95_" class="st52" d="m92.62473,35.88172l0,14.40215l-4.05806,0l0,-14.72043c0,-4.53548 -3.66021,-8.27527 -8.27527,-8.27527l-1.27312,0c-4.53548,0 -8.27527,3.66021 -8.27527,8.27527l0,14.64086l-3.97849,0l0,-24.26882c0,-1.11398 0.87527,-1.98925 1.98925,-1.98925c1.11398,0 1.98925,0.87527 1.98925,1.98925l0,1.11398c2.14839,-1.90968 4.93333,-3.10323 8.03656,-3.10323l1.83011,0c6.68387,0 12.01505,5.33118 12.01505,11.93548z"/>
   </g>
  </g>
 </g>
</svg>
