<svg xmlns="http://www.w3.org/2000/svg" viewBox="0 0 190 65"><defs><style>.cls-1{fill:#7a797e;}.cls-2{fill:#b6272b;}.cls-3{fill:#106141;}</style></defs><title>logos color</title><g id="Capa_7" data-name="Capa 7"><g id="_Grupo_" data-name="&lt;Grupo&gt;"><path id="_Trazado_compuesto_" data-name="&lt;Trazado compuesto&gt;" class="cls-1" d="M78.5,35.59h5.29a4.63,4.63,0,0,1,2.55.59,1.93,1.93,0,0,1,.91,1.74,3.14,3.14,0,0,1-.12.83,3.9,3.9,0,0,1-1.07,1.92,3.47,3.47,0,0,1-1.89,1v0a4.79,4.79,0,0,1,.74.16,2.4,2.4,0,0,1,.64.32,1.63,1.63,0,0,1,.49.62,2.28,2.28,0,0,1,.18,1,4.78,4.78,0,0,1-.64,2.36,3.8,3.8,0,0,1-1,1.13,5.1,5.1,0,0,1-1.68.86,8.58,8.58,0,0,1-2.48.32h-5Zm.85,10.59h1a2.27,2.27,0,0,0,1.52-.47,2.2,2.2,0,0,0,.73-1.2,2.26,2.26,0,0,0,.08-.6,1.08,1.08,0,0,0-.37-.9,1.67,1.67,0,0,0-1.06-.3h-1.1Zm1.32-5.48h.93A2.18,2.18,0,0,0,83,40.31a1.9,1.9,0,0,0,.66-1.12,1.49,1.49,0,0,0,0-.36,1,1,0,0,0-.32-.73,1.54,1.54,0,0,0-1-.29h-1Z"/><path id="_Trazado_compuesto_2" data-name="&lt;Trazado compuesto&gt;" class="cls-1" d="M88.47,41.67a4.59,4.59,0,0,1,.7-1.61,3.45,3.45,0,0,1,1.16-1,4.74,4.74,0,0,1,1.4-.49,10.44,10.44,0,0,1,1.8-.14,5.22,5.22,0,0,1,2.51.47,1.6,1.6,0,0,1,.81,1.5,3.85,3.85,0,0,1-.12.9l-1.2,5v0c-.08.33-.14.61-.19.83a2.85,2.85,0,0,0-.07.64,1,1,0,0,0,.14.59H92.25v-.13a.5.5,0,0,1,0-.12,5.28,5.28,0,0,1,.1-.86h0a3.13,3.13,0,0,1-1.26,1,3.83,3.83,0,0,1-1.63.37,2.79,2.79,0,0,1-1.75-.46,1.68,1.68,0,0,1-.6-1.44,4.36,4.36,0,0,1,.14-1.06,3.86,3.86,0,0,1,.73-1.51,3.38,3.38,0,0,1,1.19-1,6.69,6.69,0,0,1,1-.34c.39-.09.83-.19,1.33-.28l.77-.17a3,3,0,0,0,1.06-.37,1.26,1.26,0,0,0,.38-.74,1.33,1.33,0,0,0,0-.32c0-.43-.28-.65-.85-.65a1.33,1.33,0,0,0-1,.33,2.14,2.14,0,0,0-.52,1Zm1.88,4.2c0,.51.24.77.73.77a1.74,1.74,0,0,0,1-.32,1.63,1.63,0,0,0,.62-1c.08-.38.17-.77.28-1.18,0-.13.09-.31.14-.52-.4.17-.85.32-1.33.47a2.6,2.6,0,0,0-.63.25,1.55,1.55,0,0,0-.75,1.07A1.84,1.84,0,0,0,90.35,45.87Z"/><path id="_Trazado_compuesto_3" data-name="&lt;Trazado compuesto&gt;" class="cls-1" d="M99.36,38.69h3.16l-.28,1.15h0a3.58,3.58,0,0,1,1.31-1,3.78,3.78,0,0,1,1.67-.37c1.55,0,2.33.59,2.33,1.78a4.07,4.07,0,0,1-.12.91l-1.75,7.27h-3.28L104,41.78a1.55,1.55,0,0,0,.06-.4c0-.48-.24-.71-.73-.71a1.42,1.42,0,0,0-.93.35,1.83,1.83,0,0,0-.59,1l-1.51,6.35H97Z"/><path id="_Trazado_compuesto_4" data-name="&lt;Trazado compuesto&gt;" class="cls-1" d="M114.39,42.35a4.53,4.53,0,0,0,.14-1c0-.64-.3-1-.91-1a1.3,1.3,0,0,0-1.17.77,9.84,9.84,0,0,0-.83,2.45,12.22,12.22,0,0,0-.37,2.22c0,.65.29,1,.85,1a1.26,1.26,0,0,0,1.08-.49,5.6,5.6,0,0,0,.71-1.81h3a4.84,4.84,0,0,1-5.35,4.2,6,6,0,0,1-1.71-.21,2.65,2.65,0,0,1-1.11-.58,2.54,2.54,0,0,1-.75-2,11.43,11.43,0,0,1,.43-2.65,9.8,9.8,0,0,1,.67-1.94,5,5,0,0,1,1-1.49,4.41,4.41,0,0,1,1.61-1,6.66,6.66,0,0,1,2.26-.35,4.54,4.54,0,0,1,2.75.65,2.17,2.17,0,0,1,.83,1.84,6.63,6.63,0,0,1-.18,1.42Z"/><path id="_Trazado_compuesto_5" data-name="&lt;Trazado compuesto&gt;" class="cls-1" d="M118.56,48a2.52,2.52,0,0,1-.83-2,11,11,0,0,1,.35-2.35,12.32,12.32,0,0,1,.69-2.1,5.33,5.33,0,0,1,1.06-1.59,4.43,4.43,0,0,1,1.64-1.06,6.63,6.63,0,0,1,2.36-.38,4.39,4.39,0,0,1,2.83.7,2.54,2.54,0,0,1,.82,2,11,11,0,0,1-.35,2.35,12.32,12.32,0,0,1-.69,2.1,5.51,5.51,0,0,1-1.06,1.6,4.45,4.45,0,0,1-1.64,1.05,6.38,6.38,0,0,1-2.36.38A4.34,4.34,0,0,1,118.56,48Zm5.66-6.66c0-.63-.28-.95-.83-.95a1.32,1.32,0,0,0-1.15.7,9.13,9.13,0,0,0-.86,2.5,10.19,10.19,0,0,0-.36,2.17c0,.69.28,1,.85,1a1.26,1.26,0,0,0,1.13-.67,9.61,9.61,0,0,0,.83-2.52A11.19,11.19,0,0,0,124.22,41.29Z"/><path id="_Trazado_compuesto_6" data-name="&lt;Trazado compuesto&gt;" class="cls-1" d="M138.58,35.59h4.25l.53,12.81h-3.53l.06-2.44h-3.46l-1.09,2.44h-3.53Zm1.5,2.33h0l-2.56,5.71H140Z"/><path id="_Trazado_compuesto_7" data-name="&lt;Trazado compuesto&gt;" class="cls-1" d="M144.55,46.18,150,40.92h-4l.53-2.23h7.84l-.53,2.23-5.53,5.26h4.36l-.53,2.22H144Z"/><path id="_Trazado_compuesto_8" data-name="&lt;Trazado compuesto&gt;" class="cls-1" d="M156,40.7H154.6l.49-2h1.35l.69-2.85h3.28l-.69,2.85h1.52l-.48,2h-1.52l-1.18,4.9a2.81,2.81,0,0,0,0,.36c0,.36.3.54.89.54a3.26,3.26,0,0,0,.47,0l-.47,1.94a17.58,17.58,0,0,1-1.9.11,4.82,4.82,0,0,1-1.94-.27,1.08,1.08,0,0,1-.55-1.08,5.84,5.84,0,0,1,.2-1.27Z"/><path id="_Trazado_compuesto_9" data-name="&lt;Trazado compuesto&gt;" class="cls-1" d="M164,44l-.14.59a5.91,5.91,0,0,0-.21,1.31c0,.63.29.94.86.94a1.23,1.23,0,0,0,1-.42,3.92,3.92,0,0,0,.64-1.36h3q-.93,3.57-5.1,3.57a6,6,0,0,1-1.71-.21,2.65,2.65,0,0,1-1.11-.58,2.54,2.54,0,0,1-.75-2A12,12,0,0,1,161,43.2a10.48,10.48,0,0,1,.67-1.94,5,5,0,0,1,1.05-1.49,4.41,4.41,0,0,1,1.61-1,6.71,6.71,0,0,1,2.26-.35,4.21,4.21,0,0,1,2.7.66,2.48,2.48,0,0,1,.78,2,14.14,14.14,0,0,1-.46,2.94Zm2.77-1.69A5.35,5.35,0,0,0,167,41.1c0-.58-.27-.86-.79-.86a1.31,1.31,0,0,0-1.13.5,4.59,4.59,0,0,0-.64,1.59Z"/><path id="_Trazado_compuesto_10" data-name="&lt;Trazado compuesto&gt;" class="cls-1" d="M176.66,42.35a5.16,5.16,0,0,0,.14-1c0-.64-.3-1-.91-1a1.32,1.32,0,0,0-1.18.77,10.27,10.27,0,0,0-.83,2.45,11.94,11.94,0,0,0-.36,2.22c0,.65.28,1,.85,1a1.24,1.24,0,0,0,1.07-.49,5.38,5.38,0,0,0,.71-1.81h3a5.51,5.51,0,0,1-1.82,3.21,5.63,5.63,0,0,1-3.53,1,6.05,6.05,0,0,1-1.71-.21,2.61,2.61,0,0,1-1.1-.58,2.54,2.54,0,0,1-.75-2,11.87,11.87,0,0,1,.42-2.65,10.48,10.48,0,0,1,.67-1.94,5,5,0,0,1,1-1.49,4.45,4.45,0,0,1,1.62-1,6.65,6.65,0,0,1,2.25-.35,4.57,4.57,0,0,1,2.76.65,2.2,2.2,0,0,1,.83,1.84,6.63,6.63,0,0,1-.18,1.42Z"/><path id="_Trazado_compuesto_11" data-name="&lt;Trazado compuesto&gt;" class="cls-1" d="M181.11,41.67a4.78,4.78,0,0,1,.71-1.61,3.35,3.35,0,0,1,1.16-1,4.74,4.74,0,0,1,1.4-.49,10.44,10.44,0,0,1,1.8-.14,5.22,5.22,0,0,1,2.51.47,1.6,1.6,0,0,1,.81,1.5,3.85,3.85,0,0,1-.12.9l-1.2,5v0c-.08.33-.14.61-.19.83a2.85,2.85,0,0,0-.07.64,1,1,0,0,0,.14.59H184.9v-.13a.5.5,0,0,1,0-.12,5.28,5.28,0,0,1,.1-.86h0a3.13,3.13,0,0,1-1.26,1,3.83,3.83,0,0,1-1.63.37,2.84,2.84,0,0,1-1.76-.46,1.7,1.7,0,0,1-.59-1.44,4.36,4.36,0,0,1,.14-1.06,3.86,3.86,0,0,1,.73-1.51,3.38,3.38,0,0,1,1.19-1,6.69,6.69,0,0,1,1-.34c.39-.09.83-.19,1.33-.28l.77-.17a3,3,0,0,0,1.06-.37,1.26,1.26,0,0,0,.38-.74,1.33,1.33,0,0,0,0-.32c0-.43-.28-.65-.85-.65a1.33,1.33,0,0,0-1,.33,2.14,2.14,0,0,0-.52,1Zm1.89,4.2c0,.51.24.77.73.77a1.74,1.74,0,0,0,1-.32,1.68,1.68,0,0,0,.62-1c.08-.38.17-.77.28-1.18,0-.13.09-.31.14-.52-.4.17-.85.32-1.33.47a2.6,2.6,0,0,0-.63.25,1.55,1.55,0,0,0-.75,1.07A1.49,1.49,0,0,0,183,45.87Z"/></g><circle class="cls-2" cx="36.09" cy="38.16" r="11.4"/><path class="cls-3" d="M22,11.92s30.38,7.31,36.24,21.24c5,11.88,2,16.72-10,20.31,0,0,20.76,1.56,23.28-9.84C74.21,31.6,55.62,12.7,22,11.92Z"/><path class="cls-3" d="M52.27,11.92S21.9,19.23,16,33.16C11,45,14,49.88,26,53.47c0,0-20.76,1.56-23.28-9.84C.09,31.6,18.69,12.7,52.27,11.92Z"/></g></svg>