<?xml version="1.0" encoding="utf-8"?>
<!-- Generator: Adobe Illustrator 22.0.1, SVG Export Plug-In . SVG Version: 6.00 Build 0)  -->
<svg version="1.1" xmlns="http://www.w3.org/2000/svg" xmlns:xlink="http://www.w3.org/1999/xlink" x="0px" y="0px"
	 viewBox="0 0 187 65" style="enable-background:new 0 0 187 65;" xml:space="preserve">
<style type="text/css">
	.st0{fill:#00B2E3;}
	.st1{fill:#FEFEFE;}
	.st2{fill:#0071CE;}
	.st3{fill:#FFFFFF;}
	.st4{fill:#EC0000;}
	.st5{clip-path:url(#XMLID_108_);}
	.st6{clip-path:url(#XMLID_109_);fill:#FF0000;}
	.st7{clip-path:url(#XMLID_110_);}
	.st8{clip-path:url(#XMLID_111_);fill:#FEFEFE;}
	.st9{clip-path:url(#XMLID_112_);}
	.st10{clip-path:url(#XMLID_113_);fill:#FEFEFE;}
	.st11{clip-path:url(#XMLID_114_);}
	.st12{clip-path:url(#XMLID_115_);fill:#FEFEFE;}
	.st13{clip-path:url(#XMLID_116_);}
	.st14{clip-path:url(#XMLID_117_);fill:#FEFEFE;}
	.st15{clip-path:url(#XMLID_118_);}
	.st16{clip-path:url(#XMLID_119_);fill:#FEFEFE;}
	.st17{clip-path:url(#XMLID_120_);}
	.st18{clip-path:url(#XMLID_121_);fill:#FEFEFE;}
	.st19{clip-path:url(#XMLID_122_);}
	.st20{clip-path:url(#XMLID_123_);fill:#FEFEFE;}
	.st21{clip-path:url(#XMLID_124_);}
	.st22{clip-path:url(#XMLID_125_);fill:#FEFEFE;}
	.st23{clip-path:url(#XMLID_126_);}
	.st24{clip-path:url(#XMLID_127_);fill:#FEFEFE;}
	.st25{clip-path:url(#XMLID_128_);}
	.st26{clip-path:url(#XMLID_129_);fill:#FEFEFE;}
	.st27{fill-rule:evenodd;clip-rule:evenodd;fill:#364B99;}
	.st28{fill-rule:evenodd;clip-rule:evenodd;fill:none;stroke:#364B99;stroke-miterlimit:10;}
	.st29{fill:#DC052B;}
	.st30{fill:#0033A1;}
	.st31{fill:#FBBC1C;}
	.st32{fill:#F5A800;}
	.st33{fill:#7A797E;}
	.st34{fill:#E20613;}
	.st35{clip-path:url(#SVGID_2_);}
	.st36{clip-path:url(#SVGID_6_);}
	.st37{clip-path:url(#SVGID_10_);}
	.st38{clip-path:url(#SVGID_14_);}
	.st39{clip-path:url(#SVGID_18_);}
	.st40{fill-rule:evenodd;clip-rule:evenodd;fill:#E20613;}
	.st41{fill-rule:evenodd;clip-rule:evenodd;fill:#802B29;}
	.st42{fill-rule:evenodd;clip-rule:evenodd;fill:#A22526;}
	.st43{fill-rule:evenodd;clip-rule:evenodd;fill:#A32827;}
	.st44{fill-rule:evenodd;clip-rule:evenodd;fill:#7D2926;}
	.st45{fill:#868686;}
	.st46{fill:#2B2422;}
	.st47{fill:#5A5A59;}
	.st48{fill:#808080;}
	.st49{fill:#929292;}
	.st50{fill:#A3A3A2;}
	.st51{fill:#FFD600;}
	.st52{fill:#FF7000;}
	.st53{fill:url(#XMLID_130_);}
	.st54{fill:url(#XMLID_131_);}
	.st55{fill:url(#XMLID_132_);}
	.st56{fill:#0E62AB;}
	.st57{fill:#FFDE11;}
</style>
<g id="Capa_1">
	<g>
		<g>
			<path class="st0" d="M40.5,17c-3.2,0-5.8,2.6-5.8,5.8v27.4c0,3.2,2.6,5.8,5.8,5.8h27.4c3.2,0,5.7-2.8,5.7-6c0,0,0.1-33,0.1-33
				l0,0H40.5z"/>
		</g>
		<path class="st1" d="M76.3,38.7l-11.1,0c0,0-2.2-0.2-1.7,2c0.6,2.9,3.9,16,3.9,16l8.9-0.2L76.3,38.7z"/>
		<g>
			<path class="st2" d="M129.7,48.9c0-2.6-1.1-4.9-4.8-4.9c-1.9,0-3.4,0.5-4.3,1l0.6,2.1c0.8-0.5,2-0.9,3.1-0.9
				c1.9,0,2.2,1.1,2.2,1.8v0.2c-4.1,0-6.7,1.4-6.7,4.3c0,1.8,1.3,3.4,3.6,3.4c1.4,0,2.6-0.6,3.3-1.5h0.1c0,0,0.5,2,3.1,1.2
				c-0.1-0.8-0.2-1.7-0.2-2.7V48.9z M126.6,51.6c0,0.2,0,0.4-0.1,0.6c-0.2,0.8-1.1,1.5-2.1,1.5c-0.9,0-1.5-0.5-1.5-1.5
				c0-1.6,1.7-2,3.7-2V51.6z"/>
			<path class="st2" d="M65.5,40.5c0,0,2.7,11,3.1,12.8c0.5,2.1,1.4,2.9,4,2.3l1.7-6.8c0.4-1.7,0.7-2.9,1-4.6h0
				c0.2,1.7,0.5,2.9,0.8,4.6c0,0,0.7,3.1,1,4.7c0.4,1.6,1.3,2.7,3.9,2.1l4-15.2h-3.2l-1.4,6.6c-0.4,1.9-0.7,3.4-1,5.1h0
				c-0.2-1.7-0.5-3.2-0.9-5l-1.4-6.7h-3.4L72.3,47c-0.4,2-0.8,3.6-1.1,5.3h0c-0.3-1.6-0.6-3.6-1-5.5c0,0-0.9-4.7-1.2-6.3H65.5z"/>
			<path class="st2" d="M94.3,48.9c0-2.6-1.1-4.9-4.8-4.9c-1.9,0-3.4,0.5-4.3,1l0.6,2.1c0.8-0.5,2-0.9,3.1-0.9
				c1.9,0,2.2,1.1,2.2,1.8v0.2c-4.1,0-6.7,1.4-6.7,4.3c0,1.8,1.3,3.4,3.6,3.4c1.4,0,2.6-0.6,3.3-1.5h0.1c0,0,0.5,2,3.1,1.2
				c-0.1-0.8-0.2-1.7-0.2-2.7V48.9z M91.2,51.6c0,0.2,0,0.4-0.1,0.6c-0.2,0.8-1.1,1.5-2.1,1.5c-0.9,0-1.5-0.5-1.5-1.5
				c0-1.6,1.7-2,3.7-2V51.6z"/>
			<polygon class="st2" points="99.4,52.5 99.4,40.5 96.3,40.5 96.3,55.7 99.4,55.7 			"/>
			<path class="st2" d="M139.7,40.5c0,1.5,0,11.2,0,11.2c0,1.5,0.3,2.6,0.9,3.3c0.5,0.6,1.4,1,2.5,1c0.9,0,1.8-0.2,2.2-0.3l0-2.4
				c-0.3,0.1-0.7,0.1-1.2,0.1c-1,0-1.4-0.7-1.4-2.1V47h2.7v-2.9h-2.7v-3.6H139.7z"/>
			<path class="st2" d="M131.8,44.3v11.4h3.2v-5.8c0-0.3,0-0.6,0.1-0.8c0.2-1.2,1.2-2,2.5-2c0.4,0,0.6,0,0.9,0.1v-3
				c-0.2,0-0.4-0.1-0.7-0.1c-1.2,0-2.5,0.8-3.1,2.4h-0.1v-2.1H131.8z"/>
			<path class="st2" d="M101.6,44.3v11.4h3.1V49c0-0.3,0-0.6,0.1-0.9c0.3-0.7,0.9-1.5,1.9-1.5c1.2,0,1.8,1.1,1.8,2.6v6.5h3.1v-6.8
				c0-0.3,0-0.7,0.1-0.9c0.3-0.8,0.9-1.4,1.9-1.4c1.3,0,1.9,1,1.9,2.8c0,0,0,4.8,0,6.2h3.1V49c0-3.5-1.8-4.9-3.8-4.9
				c-0.9,0-1.6,0.2-2.2,0.6c-0.5,0.3-1,0.8-1.4,1.4h0c-0.5-1.2-1.6-2-3.1-2c-1.9,0-2.8,1-3.3,1.8h0v-1.5H101.6z"/>
		</g>
		<g>
			<path class="st0" d="M83.8,36.3l-4.9,0l0,0c-0.8,0-1.5-0.2-1.9-0.7l0,0c-0.4-0.5-0.6-1.2-0.6-2.1l0,0V19.8c0-0.9,0.2-1.6,0.6-2.1
				l0,0c0.5-0.5,1.1-0.7,1.9-0.7l0,0h5.2c0.8,0,1.5,0.1,2.1,0.2l0,0c0.6,0.1,1.2,0.4,1.7,0.7l0,0c0.4,0.3,0.8,0.7,1.1,1.1l0,0
				c0.3,0.4,0.6,0.9,0.8,1.5l0,0c0.2,0.5,0.3,1.1,0.3,1.7l0,0c0,1.6-0.6,3-1.8,3.9l0,0c1.7,0.9,2.6,2.5,2.6,4.5l0,0
				c0,1.1-0.3,2.1-0.8,3l0,0c-0.5,0.9-1.2,1.6-2.1,2l0,0c-0.6,0.3-1.2,0.4-1.9,0.5l0,0C85.5,36.2,84.7,36.3,83.8,36.3L83.8,36.3
				 M83.6,27.7 M83.6,28.2h-2.8v4.2h3c2.1-0.1,2.7-0.6,2.8-2.1l0,0c0-0.8-0.2-1.2-0.6-1.5l0,0C85.4,28.4,84.7,28.2,83.6,28.2
				L83.6,28.2 M80.8,24.5h2.4c0.8,0,1.3-0.1,1.7-0.2l0,0c0.3-0.1,0.5-0.3,0.7-0.7l0,0c0.1-0.3,0.2-0.6,0.2-0.9l0,0
				c0-0.8-0.2-1.1-0.6-1.3l0,0c-0.4-0.2-1.3-0.4-2.4-0.4l0,0h-2.1L80.8,24.5L80.8,24.5z"/>
			<path class="st0" d="M102.4,36.6c-0.5,0-1-0.3-1.3-0.7l0,0c-0.2-0.3-0.5-0.6-0.7-0.9l0,0c-0.6,0.5-1.2,0.8-1.7,1.1l0,0
				c-0.8,0.4-1.6,0.5-2.5,0.5l0,0c-0.9,0-1.6-0.2-2.3-0.6l0,0c-0.7-0.4-1.2-0.9-1.6-1.6l0,0c-0.4-0.7-0.5-1.4-0.5-2.2l0,0
				c0-1,0.3-2,0.9-2.7l0,0c0.6-0.8,1.4-1.3,2.4-1.5l0,0c0.2-0.1,0.7-0.2,1.4-0.3l0,0c0.8-0.2,1.4-0.3,1.9-0.5l0,0
				c0.4-0.1,0.8-0.2,1.3-0.4l0,0c-0.1-0.6-0.2-1-0.4-1.2l0,0c-0.1-0.2-0.5-0.4-1.3-0.4l0,0c-0.7,0-1.2,0.1-1.4,0.3l0,0
				c-0.3,0.2-0.6,0.5-0.8,0.9l0,0c-0.3,0.5-0.5,0.8-0.6,1l0,0c-0.3,0.4-0.7,0.4-1.2,0.5l0,0c-0.5,0-0.9-0.2-1.3-0.5l0,0
				c-0.4-0.3-0.5-0.8-0.5-1.3l0,0c0-0.7,0.2-1.4,0.7-2l0,0c0.4-0.7,1.1-1.2,2-1.6l0,0c0.9-0.4,2-0.6,3.2-0.6l0,0
				c1.4,0,2.5,0.2,3.3,0.6l0,0c0.9,0.4,1.5,1.1,1.9,2l0,0c0.4,0.9,0.5,1.9,0.5,3.2l0,0c0,0.8,0,1.5,0,2l0,0c0,0.6,0,1.2,0,1.8l0,0
				c0,0.6,0.1,1.2,0.3,1.8l0,0c0.2,0.7,0.3,1.1,0.3,1.5l0,0c0,0.5-0.2,1-0.6,1.3l0,0C103.4,36.4,103,36.6,102.4,36.6L102.4,36.6
				C102.4,36.6,102.4,36.6,102.4,36.6L102.4,36.6z M98.6,30.4c-0.8,0.2-1.4,0.3-1.7,0.4l0,0c-0.2,0.1-0.5,0.2-0.7,0.4l0,0
				c-0.2,0.2-0.3,0.4-0.3,0.8l0,0c0,0.4,0.1,0.6,0.4,0.9l0,0c0.2,0.2,0.5,0.4,1,0.4l0,0c0.5,0,0.9-0.1,1.4-0.4l0,0
				c0.4-0.3,0.7-0.5,0.9-0.9l0,0c0.2-0.3,0.3-1,0.3-2l0,0C99.4,30.1,99,30.2,98.6,30.4L98.6,30.4z"/>
			<path class="st0" d="M107.8,36.6c-0.6,0-1.1-0.3-1.5-0.7l0,0c-0.4-0.5-0.5-1.1-0.5-1.9l0,0v-9.8c0-0.7,0.1-1.3,0.5-1.8l0,0
				c0.3-0.4,0.9-0.7,1.5-0.7l0,0c0.4,0,0.7,0.1,1,0.3l0,0c0.3,0.2,0.5,0.5,0.7,0.9l0,0c0,0.1,0.1,0.2,0.1,0.3l0,0
				c0.3-0.3,0.7-0.6,1-0.8l0,0c0.7-0.4,1.5-0.6,2.4-0.6l0,0c0.9,0,1.7,0.2,2.4,0.7l0,0c0.7,0.4,1.3,1.1,1.6,1.9l0,0
				c0.2,0.5,0.4,1,0.4,1.5l0,0c0.1,0.5,0.1,1.1,0.1,1.9l0,0l0,6.3c0,0.7-0.1,1.4-0.5,1.9l0,0c-0.4,0.5-0.9,0.7-1.5,0.7l0,0
				c-0.6,0-1.2-0.3-1.5-0.7l0,0c-0.4-0.5-0.5-1.1-0.5-1.9l0,0v-5.6c0-1.1-0.1-1.8-0.4-2.3l0,0c-0.2-0.4-0.4-0.5-1.1-0.6l0,0
				c-0.4,0-0.8,0.1-1.1,0.4l0,0c-0.3,0.3-0.6,0.7-0.8,1.2l0,0c-0.1,0.4-0.2,1.3-0.2,2.7l0,0V34c0,0.8-0.1,1.4-0.5,1.9l0,0
				C108.9,36.3,108.4,36.6,107.8,36.6L107.8,36.6C107.8,36.6,107.8,36.6,107.8,36.6L107.8,36.6z"/>
			<path class="st0" d="M120.5,34.5c-1.1-1.3-1.7-3.1-1.7-5.2l0,0c0-1.4,0.3-2.8,0.8-3.9l0,0c0.5-1.1,1.3-2.1,2.3-2.7l0,0
				c1-0.6,2.2-1,3.5-1l0,0c0.8,0,1.6,0.1,2.3,0.4l0,0c0.7,0.3,1.3,0.6,1.8,1.1l0,0c0.5,0.4,0.9,0.9,1.2,1.4l0,0
				c0.3,0.5,0.4,1,0.4,1.5l0,0c0,0.5-0.2,1-0.6,1.4l0,0c-0.4,0.4-0.9,0.6-1.4,0.6l0,0c-0.4,0-0.7-0.1-1-0.4l0,0
				c-0.2-0.2-0.4-0.5-0.7-0.8l0,0c-0.3-0.6-0.7-1-1-1.3l0,0c-0.3-0.2-0.7-0.4-1.2-0.4l0,0c-0.7,0-1.2,0.3-1.7,0.9l0,0
				c-0.5,0.7-0.7,1.6-0.7,2.9l0,0c0,0.6,0.1,1.1,0.2,1.6l0,0c0.1,0.5,0.3,0.9,0.5,1.2l0,0c0.2,0.3,0.5,0.5,0.8,0.7l0,0
				c0.3,0.2,0.6,0.2,1,0.2l0,0c0.5,0,0.9-0.1,1.2-0.4l0,0c0.3-0.2,0.7-0.6,1-1.2l0,0c0.2-0.4,0.4-0.8,0.7-1l0,0
				c0.3-0.3,0.7-0.5,1.2-0.5l0,0c0.5,0,1,0.3,1.4,0.7l0,0c0.3,0.4,0.5,0.9,0.5,1.3l0,0c0,0.5-0.1,1-0.4,1.6l0,0
				c-0.3,0.6-0.6,1.1-1.1,1.5l0,0c-0.5,0.5-1.2,0.9-1.9,1.2l0,0c-0.8,0.3-1.6,0.4-2.6,0.4l0,0c0,0,0,0,0,0l0,0
				C123.3,36.6,121.7,35.9,120.5,34.5L120.5,34.5z"/>
			<path class="st0" d="M135.9,36c-0.8-0.4-1.5-0.9-2.1-1.6l0,0c-0.6-0.7-1-1.5-1.3-2.4l0,0c-0.3-0.9-0.4-1.9-0.4-2.9l0,0
				c0-1.1,0.1-2.1,0.4-3l0,0c0.3-0.9,0.7-1.7,1.3-2.4l0,0c0.6-0.7,1.3-1.2,2.1-1.5l0,0c0.8-0.4,1.7-0.5,2.7-0.5l0,0
				c1,0,1.9,0.2,2.7,0.5l0,0c0.8,0.4,1.5,0.9,2.1,1.6l0,0c0.6,0.7,1,1.5,1.3,2.4l0,0c0.3,0.9,0.4,1.9,0.4,3l0,0c0,1.1-0.1,2-0.4,3
				l0,0c-0.3,0.9-0.7,1.7-1.3,2.4l0,0c-0.6,0.7-1.3,1.2-2.1,1.5l0,0c-0.8,0.4-1.7,0.5-2.7,0.5l0,0C137.7,36.6,136.7,36.4,135.9,36
				L135.9,36z M137.4,25.8c-0.3,0.3-0.6,0.7-0.8,1.3l0,0c-0.2,0.6-0.3,1.3-0.3,2.1l0,0c0,0.8,0.1,1.5,0.3,2.1l0,0
				c0.2,0.6,0.5,1,0.8,1.3l0,0c0.4,0.3,0.7,0.4,1.2,0.4l0,0c0.8,0,1.3-0.3,1.7-0.9l0,0c0.4-0.6,0.7-1.6,0.7-2.9l0,0h0
				c0-1.3-0.3-2.3-0.7-2.9l0,0c-0.5-0.6-1-0.9-1.7-0.9l0,0C138.1,25.4,137.8,25.5,137.4,25.8L137.4,25.8z"/>
		</g>
		<g>
			<path class="st0" d="M88.7,7.8L81.2,0c-6.1,0.1-12.7,7.7-18.5,17h11C82.3,8.9,88.7,7.8,88.7,7.8"/>
			<path class="st3" d="M45.5,32.1l-5.3,0l11.3,18.5c0,0.1,0,0.1,0,0.1c0,0,0,0,0-0.1l0,0.1l0.4-1.1C59.3,33.1,67.1,23,73.7,16.9
				h-11c-5,8-9.3,17.3-12.1,24L45.5,32.1z"/>
		</g>
		<path class="st2" d="M149.8,50.2c1.4,0,2.5,1.1,2.5,2.6c0,1.5-1.1,2.6-2.5,2.6c-1.4,0-2.6-1.1-2.6-2.6
			C147.2,51.3,148.4,50.2,149.8,50.2L149.8,50.2z M149.8,50.6c-1.1,0-2.1,1-2.1,2.2c0,1.2,0.9,2.2,2.1,2.2c1.1,0,2.1-1,2.1-2.2
			C151.9,51.5,151,50.6,149.8,50.6L149.8,50.6z M149.3,54.2h-0.5v-2.9c0.2,0,0.5-0.1,0.8-0.1c0.4,0,0.7,0.1,0.9,0.2
			c0.2,0.1,0.3,0.3,0.3,0.6c0,0.4-0.3,0.6-0.6,0.7v0c0.3,0,0.4,0.3,0.5,0.7c0.1,0.4,0.1,0.6,0.2,0.7h-0.5c-0.1-0.1-0.1-0.4-0.2-0.7
			c-0.1-0.4-0.3-0.5-0.6-0.5h-0.3V54.2z M149.3,52.6h0.3c0.4,0,0.7-0.1,0.7-0.5c0-0.3-0.2-0.5-0.7-0.5c-0.2,0-0.3,0-0.3,0V52.6z"/>
		<polygon class="st2" points="72.7,59.3 71.8,63.7 71.2,63.7 72.1,59.3 70.5,59.3 70.6,58.8 74.5,58.8 74.4,59.3 		"/>
		<path class="st2" d="M73.8,60.7c0.1-0.1,0.2-0.3,0.3-0.4c0.1-0.1,0.3-0.2,0.5-0.2c0.2,0,0.4-0.1,0.5-0.1c0.2,0,0.3,0,0.5,0
			c0.2,0,0.3,0.1,0.4,0.1c0.1,0.1,0.2,0.2,0.3,0.3c0.1,0.1,0.1,0.3,0.1,0.4c0,0.1,0,0.2,0,0.3c0,0.1,0,0.2-0.1,0.3l-0.2,1
			c0,0.1,0,0.2-0.1,0.2c0,0.1,0,0.2,0,0.3c0,0.1,0,0.1,0,0.2c0,0,0.1,0,0.1,0c0,0,0.1,0,0.1,0c0,0,0.1,0,0.1,0l-0.1,0.4
			c0,0-0.1,0-0.2,0.1c-0.1,0-0.1,0-0.2,0c-0.2,0-0.3,0-0.4-0.1c-0.1-0.1-0.1-0.2-0.1-0.4l0,0c-0.1,0.2-0.3,0.3-0.5,0.4
			c-0.2,0.1-0.4,0.1-0.7,0.1c-0.2,0-0.3,0-0.4-0.1c-0.1,0-0.2-0.1-0.3-0.2c-0.1-0.1-0.2-0.2-0.2-0.3c-0.1-0.1-0.1-0.3-0.1-0.5
			c0-0.3,0.1-0.5,0.2-0.6c0.1-0.1,0.3-0.3,0.4-0.3c0.2-0.1,0.4-0.1,0.6-0.2c0.2,0,0.4,0,0.6-0.1c0.2,0,0.3,0,0.4,0
			c0.1,0,0.2,0,0.3-0.1c0.1,0,0.1-0.1,0.2-0.2c0-0.1,0.1-0.2,0.1-0.3c0-0.1,0-0.2-0.1-0.2c0-0.1-0.1-0.1-0.2-0.1
			c-0.1,0-0.1-0.1-0.2-0.1c-0.1,0-0.2,0-0.2,0c-0.1,0-0.2,0-0.3,0c-0.1,0-0.2,0.1-0.3,0.1c-0.1,0.1-0.2,0.1-0.2,0.2
			c-0.1,0.1-0.1,0.2-0.1,0.3h-0.6C73.6,61,73.7,60.8,73.8,60.7 M73.9,63.1c0.1,0.1,0.3,0.1,0.4,0.1c0.5,0,0.8-0.2,1-0.5
			c0.1-0.1,0.2-0.3,0.2-0.4c0-0.2,0.1-0.3,0.1-0.5h0c-0.1,0.1-0.2,0.1-0.3,0.1c-0.1,0-0.3,0-0.4,0.1c-0.1,0-0.3,0-0.4,0.1
			c-0.1,0-0.3,0.1-0.4,0.1c-0.1,0-0.2,0.1-0.3,0.2c-0.1,0.1-0.1,0.2-0.1,0.4C73.7,62.9,73.8,63,73.9,63.1"/>
		<path class="st2" d="M78,60.1l-0.1,0.5h0c0.1-0.2,0.3-0.4,0.6-0.5c0.2-0.1,0.5-0.2,0.7-0.2c0.3,0,0.6,0.1,0.7,0.2
			c0.2,0.1,0.2,0.4,0.2,0.7c0,0.1,0,0.2,0,0.3c0,0.1,0,0.3-0.1,0.4l-0.4,2H79l0.5-2.1c0,0,0-0.1,0-0.1c0,0,0-0.1,0-0.1
			c0-0.1,0-0.1,0-0.2c0,0,0-0.1,0-0.1c0-0.2-0.1-0.3-0.2-0.4c-0.1-0.1-0.3-0.1-0.4-0.1c-0.2,0-0.3,0-0.5,0.1
			c-0.2,0.1-0.3,0.2-0.4,0.3c-0.1,0.1-0.2,0.2-0.2,0.3c-0.1,0.1-0.1,0.3-0.1,0.4l-0.4,1.9h-0.6l0.7-3.5H78z"/>
		<path class="st2" d="M82.6,60.6l0.1-0.5h0.6c0-0.2,0.1-0.4,0.1-0.5c0-0.2,0.1-0.3,0.2-0.4c0.1-0.1,0.2-0.2,0.3-0.3
			c0.1-0.1,0.3-0.1,0.5-0.1c0.1,0,0.2,0,0.2,0c0.1,0,0.2,0,0.2,0l-0.1,0.5c0,0-0.1,0-0.1,0c0,0-0.1,0-0.1,0c-0.1,0-0.2,0-0.3,0.1
			c-0.1,0.1-0.1,0.1-0.2,0.2c0,0.1-0.1,0.2-0.1,0.3c0,0.1,0,0.2-0.1,0.3h0.7l-0.1,0.5h-0.7l-0.6,3h-0.6l0.7-3H82.6z"/>
		<path class="st2" d="M85,60.7c0.1-0.1,0.2-0.3,0.3-0.4c0.1-0.1,0.3-0.2,0.5-0.2c0.2,0,0.4-0.1,0.5-0.1c0.2,0,0.3,0,0.5,0
			c0.2,0,0.3,0.1,0.4,0.1c0.1,0.1,0.2,0.2,0.3,0.3c0.1,0.1,0.1,0.3,0.1,0.4c0,0.1,0,0.2,0,0.3c0,0.1,0,0.2-0.1,0.3l-0.2,1
			c0,0.1,0,0.2-0.1,0.2c0,0.1,0,0.2,0,0.3c0,0.1,0,0.1,0,0.2c0,0,0.1,0,0.1,0c0,0,0.1,0,0.1,0c0,0,0.1,0,0.1,0l-0.1,0.4
			c0,0-0.1,0-0.2,0.1c-0.1,0-0.1,0-0.2,0c-0.2,0-0.3,0-0.4-0.1c-0.1-0.1-0.1-0.2-0.1-0.4l0,0c-0.1,0.2-0.3,0.3-0.5,0.4
			c-0.2,0.1-0.4,0.1-0.7,0.1c-0.1,0-0.3,0-0.4-0.1c-0.1,0-0.2-0.1-0.3-0.2c-0.1-0.1-0.2-0.2-0.2-0.3c-0.1-0.1-0.1-0.3-0.1-0.5
			c0-0.3,0.1-0.5,0.2-0.6c0.1-0.1,0.3-0.3,0.4-0.3c0.2-0.1,0.4-0.1,0.6-0.2c0.2,0,0.4,0,0.6-0.1c0.2,0,0.3,0,0.4,0
			c0.1,0,0.2,0,0.3-0.1c0.1,0,0.1-0.1,0.2-0.2c0-0.1,0.1-0.2,0.1-0.3c0-0.1,0-0.2-0.1-0.2c0-0.1-0.1-0.1-0.2-0.1
			c-0.1,0-0.1-0.1-0.2-0.1c-0.1,0-0.2,0-0.2,0c-0.1,0-0.2,0-0.3,0c-0.1,0-0.2,0.1-0.3,0.1c-0.1,0.1-0.2,0.1-0.2,0.2
			c-0.1,0.1-0.1,0.2-0.1,0.3h-0.6C84.8,61,84.9,60.8,85,60.7 M85.2,63.1c0.1,0.1,0.3,0.1,0.4,0.1c0.5,0,0.8-0.2,1-0.5
			c0.1-0.1,0.2-0.3,0.2-0.4c0-0.2,0.1-0.3,0.1-0.5h0c-0.1,0.1-0.2,0.1-0.3,0.1c-0.1,0-0.3,0-0.4,0.1c-0.1,0-0.3,0-0.4,0.1
			c-0.1,0-0.3,0.1-0.4,0.1c-0.1,0-0.2,0.1-0.3,0.2C85,62.5,85,62.6,85,62.7C85,62.9,85,63,85.2,63.1 M87.6,58.7l-0.9,1h-0.5l0.6-1
			H87.6z"/>
		<path class="st2" d="M90.6,60.7c-0.1-0.1-0.3-0.2-0.5-0.2c-0.2,0-0.4,0.1-0.6,0.1c-0.2,0.1-0.3,0.2-0.4,0.4
			c-0.1,0.2-0.2,0.3-0.3,0.5c-0.1,0.2-0.1,0.4-0.1,0.6c0,0.1,0,0.3,0,0.4c0,0.1,0.1,0.2,0.1,0.3c0.1,0.1,0.2,0.2,0.3,0.2
			c0.1,0.1,0.2,0.1,0.4,0.1c0.3,0,0.5-0.1,0.6-0.2c0.2-0.1,0.3-0.3,0.4-0.5h0.6c-0.1,0.4-0.3,0.7-0.6,0.9c-0.3,0.2-0.6,0.3-1,0.3
			c-0.5,0-0.8-0.1-1.1-0.4c-0.2-0.3-0.4-0.6-0.4-1.1c0-0.3,0-0.6,0.1-0.8c0.1-0.3,0.2-0.5,0.4-0.7c0.2-0.2,0.4-0.4,0.6-0.5
			c0.2-0.1,0.5-0.2,0.8-0.2c0.4,0,0.7,0.1,1,0.3c0.2,0.2,0.4,0.5,0.4,0.9h-0.6C90.8,61,90.8,60.9,90.6,60.7"/>
		<path class="st2" d="M92.9,60.1l-0.7,3.5h-0.6l0.7-3.5H92.9z M92.5,59.5l0.2-0.7h0.6l-0.1,0.7H92.5z"/>
		<polygon class="st2" points="94.7,58.8 93.7,63.7 93.1,63.7 94.2,58.8 		"/>
		<path class="st2" d="M99.2,60.7c-0.1-0.1-0.3-0.2-0.5-0.2c-0.2,0-0.4,0.1-0.6,0.1c-0.2,0.1-0.3,0.2-0.4,0.4
			c-0.1,0.2-0.2,0.3-0.3,0.5c-0.1,0.2-0.1,0.4-0.1,0.6c0,0.1,0,0.3,0,0.4c0,0.1,0.1,0.2,0.1,0.3c0.1,0.1,0.2,0.2,0.3,0.2
			c0.1,0.1,0.2,0.1,0.4,0.1c0.2,0,0.5-0.1,0.6-0.2c0.2-0.1,0.3-0.3,0.4-0.5h0.6c-0.1,0.4-0.3,0.7-0.6,0.9c-0.3,0.2-0.6,0.3-1,0.3
			c-0.5,0-0.8-0.1-1.1-0.4c-0.2-0.3-0.4-0.6-0.4-1.1c0-0.3,0-0.6,0.1-0.8c0.1-0.3,0.2-0.5,0.4-0.7c0.2-0.2,0.4-0.4,0.6-0.5
			c0.2-0.1,0.5-0.2,0.8-0.2c0.4,0,0.7,0.1,1,0.3c0.2,0.2,0.4,0.5,0.4,0.9h-0.6C99.4,61,99.3,60.9,99.2,60.7"/>
		<path class="st2" d="M100.5,61.4c0.1-0.3,0.2-0.5,0.4-0.7c0.2-0.2,0.4-0.4,0.6-0.5c0.2-0.1,0.5-0.2,0.8-0.2c0.5,0,0.8,0.1,1.1,0.4
			c0.3,0.2,0.4,0.6,0.4,1.1c0,0.3,0,0.6-0.1,0.8c-0.1,0.3-0.2,0.5-0.4,0.7c-0.2,0.2-0.4,0.4-0.6,0.5c-0.2,0.1-0.5,0.2-0.8,0.2
			c-0.2,0-0.4,0-0.6-0.1c-0.2-0.1-0.3-0.2-0.5-0.3c-0.1-0.1-0.2-0.3-0.3-0.5c-0.1-0.2-0.1-0.4-0.1-0.6
			C100.4,62,100.4,61.7,100.5,61.4 M101.2,63c0.2,0.2,0.4,0.3,0.7,0.3c0.2,0,0.4-0.1,0.6-0.2c0.2-0.1,0.3-0.2,0.4-0.4
			c0.1-0.2,0.2-0.3,0.3-0.5c0.1-0.2,0.1-0.4,0.1-0.6c0-0.1,0-0.3-0.1-0.4c0-0.1-0.1-0.2-0.2-0.3c-0.1-0.1-0.2-0.2-0.3-0.2
			c-0.1-0.1-0.3-0.1-0.4-0.1c-0.2,0-0.4,0.1-0.6,0.2c-0.2,0.1-0.3,0.2-0.4,0.4c-0.1,0.2-0.2,0.3-0.3,0.5c-0.1,0.2-0.1,0.4-0.1,0.6
			C100.9,62.6,101,62.8,101.2,63"/>
		<path class="st2" d="M105.4,60.1l-0.1,0.5l0,0c0.1-0.2,0.3-0.3,0.5-0.5c0.2-0.1,0.4-0.2,0.7-0.2c0.2,0,0.4,0,0.6,0.1
			c0.2,0.1,0.3,0.3,0.3,0.5c0.1-0.2,0.3-0.3,0.5-0.5c0.2-0.1,0.4-0.2,0.7-0.2c0.1,0,0.2,0,0.4,0c0.1,0,0.2,0.1,0.3,0.1
			c0.1,0.1,0.2,0.1,0.2,0.2c0.1,0.1,0.1,0.2,0.1,0.4c0,0.1,0,0.2,0,0.4c0,0.1,0,0.2-0.1,0.3l-0.4,2.1h-0.6l0.5-2.2
			c0-0.1,0-0.1,0-0.2c0-0.1,0-0.1,0-0.2c0-0.1,0-0.2-0.2-0.3c-0.1-0.1-0.2-0.1-0.4-0.1c-0.1,0-0.2,0-0.2,0c-0.1,0-0.2,0.1-0.2,0.1
			c-0.1,0-0.2,0.1-0.2,0.2c-0.1,0.1-0.1,0.1-0.2,0.2c-0.1,0.1-0.2,0.2-0.2,0.4c0,0.1-0.1,0.3-0.1,0.4l-0.4,1.8h-0.6l0.4-2
			c0-0.1,0.1-0.3,0.1-0.4c0-0.1,0-0.2,0-0.2c0-0.1,0-0.3-0.1-0.3c-0.1-0.1-0.2-0.1-0.4-0.1c-0.2,0-0.3,0-0.5,0.1
			c-0.2,0.1-0.3,0.2-0.4,0.3c-0.1,0.1-0.2,0.2-0.3,0.4c0,0.1-0.1,0.3-0.1,0.4l-0.4,1.8h-0.6l0.7-3.5H105.4z"/>
		<path class="st2" d="M110.2,61.4c0.1-0.3,0.2-0.5,0.4-0.7c0.2-0.2,0.4-0.4,0.6-0.5c0.2-0.1,0.5-0.2,0.8-0.2c0.5,0,0.8,0.1,1.1,0.4
			c0.3,0.2,0.4,0.6,0.4,1.1c0,0.3,0,0.6-0.1,0.8c-0.1,0.3-0.2,0.5-0.4,0.7c-0.2,0.2-0.4,0.4-0.6,0.5c-0.2,0.1-0.5,0.2-0.8,0.2
			c-0.2,0-0.4,0-0.6-0.1c-0.2-0.1-0.3-0.2-0.5-0.3c-0.1-0.1-0.2-0.3-0.3-0.5c-0.1-0.2-0.1-0.4-0.1-0.6
			C110.1,62,110.1,61.7,110.2,61.4 M110.9,63c0.2,0.2,0.4,0.3,0.7,0.3c0.2,0,0.4-0.1,0.6-0.2c0.2-0.1,0.3-0.2,0.4-0.4
			c0.1-0.2,0.2-0.3,0.3-0.5c0.1-0.2,0.1-0.4,0.1-0.6c0-0.1,0-0.3-0.1-0.4c0-0.1-0.1-0.2-0.2-0.3c-0.1-0.1-0.2-0.2-0.3-0.2
			c-0.1-0.1-0.3-0.1-0.4-0.1c-0.2,0-0.4,0.1-0.6,0.2c-0.2,0.1-0.3,0.2-0.4,0.4c-0.1,0.2-0.2,0.3-0.3,0.5c-0.1,0.2-0.1,0.4-0.1,0.6
			C110.7,62.6,110.7,62.8,110.9,63"/>
		<path class="st2" d="M117.1,60.1l-0.7,3.5h-0.6l0.7-3.5H117.1z M116.6,59.5l0.2-0.7h0.6l-0.2,0.7H116.6z"/>
		<path class="st2" d="M118.5,60.1l-0.2,0.8h0c0.1-0.2,0.3-0.4,0.5-0.6c0.2-0.2,0.5-0.2,0.8-0.2c0,0,0.1,0,0.1,0c0,0,0.1,0,0.1,0
			l-0.1,0.6c0,0,0,0-0.1,0h-0.1c-0.1,0-0.1,0-0.2,0c0,0-0.1,0-0.2,0c-0.2,0-0.3,0.1-0.4,0.2c-0.1,0.1-0.2,0.2-0.3,0.4
			c-0.1,0.1-0.1,0.2-0.2,0.4c0,0.2-0.1,0.3-0.1,0.4l-0.3,1.6h-0.6l0.7-3.5H118.5z"/>
		<path class="st2" d="M122,60.7c0.1-0.1,0.2-0.3,0.3-0.4c0.1-0.1,0.3-0.2,0.5-0.2c0.2,0,0.4-0.1,0.5-0.1c0.2,0,0.3,0,0.5,0
			c0.2,0,0.3,0.1,0.4,0.1c0.1,0.1,0.2,0.2,0.3,0.3c0.1,0.1,0.1,0.3,0.1,0.4c0,0.1,0,0.2,0,0.3c0,0.1,0,0.2-0.1,0.3l-0.2,1
			c0,0.1,0,0.2-0.1,0.2c0,0.1,0,0.2,0,0.3c0,0.1,0,0.1,0,0.2c0,0,0.1,0,0.1,0c0,0,0.1,0,0.1,0c0,0,0.1,0,0.1,0l-0.1,0.4
			c0,0-0.1,0-0.2,0.1c-0.1,0-0.1,0-0.2,0c-0.2,0-0.3,0-0.4-0.1c-0.1-0.1-0.1-0.2-0.1-0.4l0,0c-0.1,0.2-0.3,0.3-0.5,0.4
			c-0.2,0.1-0.4,0.1-0.7,0.1c-0.2,0-0.3,0-0.4-0.1c-0.1,0-0.2-0.1-0.3-0.2c-0.1-0.1-0.2-0.2-0.2-0.3c-0.1-0.1-0.1-0.3-0.1-0.5
			c0-0.3,0.1-0.5,0.2-0.6c0.1-0.1,0.3-0.3,0.4-0.3c0.2-0.1,0.4-0.1,0.6-0.2c0.2,0,0.4,0,0.6-0.1c0.2,0,0.3,0,0.4,0
			c0.1,0,0.2,0,0.3-0.1c0.1,0,0.1-0.1,0.2-0.2c0-0.1,0.1-0.2,0.1-0.3c0-0.1,0-0.2-0.1-0.2c0-0.1-0.1-0.1-0.2-0.1
			c-0.1,0-0.1-0.1-0.2-0.1c-0.1,0-0.2,0-0.2,0c-0.1,0-0.2,0-0.3,0c-0.1,0-0.2,0.1-0.3,0.1c-0.1,0.1-0.2,0.1-0.2,0.2
			c-0.1,0.1-0.1,0.2-0.1,0.3h-0.6C121.8,61,121.9,60.8,122,60.7 M122.2,63.1c0.1,0.1,0.3,0.1,0.4,0.1c0.5,0,0.8-0.2,1-0.5
			c0.1-0.1,0.2-0.3,0.2-0.4c0-0.2,0.1-0.3,0.1-0.5h0c-0.1,0.1-0.2,0.1-0.3,0.1c-0.1,0-0.3,0-0.4,0.1c-0.1,0-0.3,0-0.4,0.1
			c-0.1,0-0.3,0.1-0.4,0.1c-0.1,0-0.2,0.1-0.3,0.2c-0.1,0.1-0.1,0.2-0.1,0.4C122,62.9,122,63,122.2,63.1"/>
		<polygon class="st2" points="126.6,58.8 125.5,63.7 125,63.7 126,58.8 		"/>
		<path class="st2" d="M130.6,60.7c-0.1-0.1-0.3-0.2-0.5-0.2c-0.1,0-0.2,0-0.3,0c-0.1,0-0.2,0-0.2,0.1c-0.1,0-0.1,0.1-0.2,0.1
			c0,0.1-0.1,0.1-0.1,0.2c0,0.1,0,0.2,0.1,0.2c0.1,0.1,0.1,0.1,0.2,0.2c0.1,0.1,0.2,0.1,0.3,0.1c0.1,0,0.2,0.1,0.3,0.1
			c0.1,0,0.2,0.1,0.3,0.2c0.1,0.1,0.2,0.1,0.3,0.2c0.1,0.1,0.2,0.2,0.2,0.3c0.1,0.1,0.1,0.2,0.1,0.4c0,0.2,0,0.4-0.1,0.5
			c-0.1,0.1-0.2,0.3-0.3,0.3c-0.1,0.1-0.3,0.1-0.5,0.2c-0.2,0-0.3,0.1-0.5,0.1c-0.2,0-0.4,0-0.6-0.1c-0.2,0-0.3-0.1-0.4-0.2
			c-0.1-0.1-0.2-0.2-0.3-0.4c-0.1-0.2-0.1-0.3-0.1-0.6h0.6c0,0.1,0,0.2,0.1,0.3c0,0.1,0.1,0.2,0.2,0.2c0.1,0.1,0.2,0.1,0.3,0.1
			c0.1,0,0.2,0,0.4,0c0.1,0,0.2,0,0.3,0c0.1,0,0.2-0.1,0.3-0.1c0.1,0,0.1-0.1,0.2-0.2c0-0.1,0.1-0.2,0.1-0.3c0-0.1,0-0.2-0.1-0.2
			c-0.1-0.1-0.1-0.1-0.2-0.2c-0.1,0-0.2-0.1-0.3-0.1c-0.1,0-0.2-0.1-0.3-0.1c-0.1,0-0.2-0.1-0.3-0.2c-0.1-0.1-0.2-0.1-0.3-0.2
			c-0.1-0.1-0.2-0.2-0.2-0.3c-0.1-0.1-0.1-0.2-0.1-0.3c0-0.2,0-0.3,0.1-0.4c0.1-0.1,0.2-0.2,0.3-0.3c0.1-0.1,0.3-0.1,0.4-0.2
			c0.2,0,0.3-0.1,0.5-0.1c0.2,0,0.3,0,0.5,0.1c0.2,0,0.3,0.1,0.4,0.2c0.1,0.1,0.2,0.2,0.3,0.3c0.1,0.1,0.1,0.3,0.1,0.5h-0.6
			C130.8,61,130.8,60.8,130.6,60.7"/>
		<path class="st2" d="M133.9,63.7l0.1-0.5h0c-0.1,0.2-0.3,0.4-0.5,0.5c-0.2,0.1-0.5,0.2-0.7,0.2c-0.3,0-0.6-0.1-0.7-0.2
			c-0.2-0.1-0.2-0.4-0.2-0.7c0-0.1,0-0.2,0-0.3c0-0.1,0-0.3,0.1-0.4l0.4-2h0.6l-0.4,2.1c0,0,0,0.1,0,0.1c0,0.1,0,0.1,0,0.2
			c0,0.1,0,0.1,0,0.1c0,0,0,0.1,0,0.1c0,0.2,0.1,0.3,0.2,0.4c0.1,0.1,0.3,0.1,0.4,0.1c0.2,0,0.3,0,0.5-0.1c0.1-0.1,0.3-0.2,0.4-0.3
			c0.1-0.1,0.2-0.2,0.3-0.4c0.1-0.1,0.1-0.3,0.2-0.4l0.4-1.9h0.6l-0.7,3.5H133.9z M134.8,58.7l-0.9,1h-0.5l0.6-1H134.8z"/>
		<path class="st2" d="M136.7,60.1l-0.1,0.5h0c0.2-0.2,0.4-0.4,0.5-0.5c0.2-0.1,0.4-0.1,0.6-0.1c0.2,0,0.4,0,0.6,0.1
			c0.2,0.1,0.3,0.2,0.4,0.3c0.1,0.1,0.2,0.3,0.3,0.5c0.1,0.2,0.1,0.4,0.1,0.6c0,0.3,0,0.5-0.1,0.8c-0.1,0.3-0.2,0.5-0.4,0.7
			c-0.2,0.2-0.4,0.4-0.6,0.5c-0.2,0.1-0.5,0.2-0.8,0.2c-0.1,0-0.2,0-0.3,0c-0.1,0-0.2-0.1-0.3-0.1c-0.1,0-0.2-0.1-0.3-0.2
			c-0.1-0.1-0.1-0.2-0.2-0.3h0l-0.4,1.9h-0.6l1-4.9H136.7z M138.4,60.8c-0.1-0.2-0.4-0.3-0.7-0.3c-0.2,0-0.4,0.1-0.6,0.2
			c-0.2,0.1-0.3,0.3-0.4,0.4c-0.1,0.2-0.2,0.4-0.3,0.6c-0.1,0.2-0.1,0.4-0.1,0.6c0,0.3,0.1,0.5,0.2,0.7c0.2,0.2,0.4,0.3,0.7,0.3
			c0.2,0,0.4-0.1,0.6-0.2c0.2-0.1,0.3-0.2,0.4-0.4c0.1-0.2,0.2-0.4,0.3-0.6c0.1-0.2,0.1-0.4,0.1-0.6C138.6,61.2,138.5,61,138.4,60.8
			"/>
		<path class="st2" d="M140.2,62.4c0,0.1,0,0.3,0.1,0.4c0,0.1,0.1,0.2,0.2,0.3c0.1,0.1,0.2,0.1,0.3,0.2c0.1,0,0.2,0.1,0.3,0.1
			c0.3,0,0.5-0.1,0.6-0.2c0.2-0.1,0.3-0.3,0.4-0.5h0.6c0,0.2-0.1,0.4-0.2,0.5c-0.1,0.1-0.2,0.3-0.4,0.4c-0.1,0.1-0.3,0.2-0.5,0.2
			c-0.2,0.1-0.4,0.1-0.5,0.1c-0.3,0-0.5,0-0.7-0.1c-0.2-0.1-0.3-0.2-0.5-0.3c-0.1-0.1-0.2-0.3-0.2-0.5c0-0.2-0.1-0.3-0.1-0.5
			c0-0.3,0-0.6,0.1-0.9c0.1-0.3,0.2-0.5,0.4-0.7c0.2-0.2,0.4-0.4,0.6-0.5c0.2-0.1,0.5-0.2,0.7-0.2c0.5,0,0.9,0.1,1.1,0.4
			c0.2,0.3,0.4,0.7,0.4,1.2c0,0.1,0,0.2,0,0.3c0,0.1,0,0.1,0,0.2h-2.6C140.2,62.2,140.2,62.3,140.2,62.4 M142.3,61.2
			c0-0.1-0.1-0.2-0.1-0.3c-0.1-0.1-0.2-0.2-0.3-0.2c-0.1-0.1-0.2-0.1-0.4-0.1c-0.2,0-0.3,0-0.5,0.1c-0.1,0.1-0.3,0.1-0.4,0.2
			c-0.1,0.1-0.2,0.2-0.3,0.3c-0.1,0.1-0.1,0.2-0.2,0.4h2C142.3,61.4,142.3,61.3,142.3,61.2"/>
		<path class="st2" d="M144.4,60.1l-0.2,0.8h0c0.1-0.2,0.3-0.4,0.5-0.6c0.2-0.2,0.5-0.2,0.8-0.2c0,0,0.1,0,0.1,0c0,0,0.1,0,0.1,0
			l-0.1,0.6c0,0,0,0-0.1,0h-0.1c-0.1,0-0.1,0-0.2,0c0,0-0.1,0-0.2,0c-0.2,0-0.3,0.1-0.4,0.2c-0.1,0.1-0.2,0.2-0.3,0.4
			c-0.1,0.1-0.1,0.2-0.2,0.4c0,0.2-0.1,0.3-0.1,0.4l-0.3,1.6h-0.6l0.7-3.5H144.4z"/>
	</g>
</g>
<g id="Capa_2">
</g>
<g id="Capa_3">
</g>
<g id="Capa_4">
</g>
<g id="Capa_5">
</g>
<g id="Capa_6">
</g>
<g id="Capa_7">
</g>
<g id="Capa_8">
</g>
<g id="Capa_9">
</g>
<g id="Capa_10">
</g>
</svg>
