<?xml version="1.0" encoding="utf-8"?>
<!-- Generator: Adobe Illustrator 22.0.1, SVG Export Plug-In . SVG Version: 6.00 Build 0)  -->
<svg version="1.1" xmlns="http://www.w3.org/2000/svg" xmlns:xlink="http://www.w3.org/1999/xlink" x="0px" y="0px"
	 viewBox="0 0 187 65" style="enable-background:new 0 0 187 65;" xml:space="preserve">
<style type="text/css">
	.st0{fill:#00B2E3;}
	.st1{fill:#FEFEFE;}
	.st2{fill:#0071CE;}
	.st3{fill:#FFFFFF;}
	.st4{fill:#EC0000;}
	.st5{clip-path:url(#XMLID_108_);}
	.st6{clip-path:url(#XMLID_109_);fill:#FF0000;}
	.st7{clip-path:url(#XMLID_110_);}
	.st8{clip-path:url(#XMLID_111_);fill:#FEFEFE;}
	.st9{clip-path:url(#XMLID_112_);}
	.st10{clip-path:url(#XMLID_113_);fill:#FEFEFE;}
	.st11{clip-path:url(#XMLID_114_);}
	.st12{clip-path:url(#XMLID_115_);fill:#FEFEFE;}
	.st13{clip-path:url(#XMLID_116_);}
	.st14{clip-path:url(#XMLID_117_);fill:#FEFEFE;}
	.st15{clip-path:url(#XMLID_118_);}
	.st16{clip-path:url(#XMLID_119_);fill:#FEFEFE;}
	.st17{clip-path:url(#XMLID_120_);}
	.st18{clip-path:url(#XMLID_121_);fill:#FEFEFE;}
	.st19{clip-path:url(#XMLID_122_);}
	.st20{clip-path:url(#XMLID_123_);fill:#FEFEFE;}
	.st21{clip-path:url(#XMLID_124_);}
	.st22{clip-path:url(#XMLID_125_);fill:#FEFEFE;}
	.st23{clip-path:url(#XMLID_126_);}
	.st24{clip-path:url(#XMLID_127_);fill:#FEFEFE;}
	.st25{clip-path:url(#XMLID_128_);}
	.st26{clip-path:url(#XMLID_129_);fill:#FEFEFE;}
	.st27{fill-rule:evenodd;clip-rule:evenodd;fill:#364B99;}
	.st28{fill-rule:evenodd;clip-rule:evenodd;fill:none;stroke:#364B99;stroke-miterlimit:10;}
	.st29{fill:#DC052B;}
	.st30{fill:#0033A1;}
	.st31{fill:#FBBC1C;}
	.st32{fill:#F5A800;}
	.st33{fill:#7A797E;}
	.st34{fill:#E20613;}
	.st35{clip-path:url(#SVGID_2_);}
	.st36{clip-path:url(#SVGID_6_);}
	.st37{clip-path:url(#SVGID_10_);}
	.st38{clip-path:url(#SVGID_14_);}
	.st39{clip-path:url(#SVGID_18_);}
	.st40{fill-rule:evenodd;clip-rule:evenodd;fill:#E20613;}
	.st41{fill-rule:evenodd;clip-rule:evenodd;fill:#802B29;}
	.st42{fill-rule:evenodd;clip-rule:evenodd;fill:#A22526;}
	.st43{fill-rule:evenodd;clip-rule:evenodd;fill:#A32827;}
	.st44{fill-rule:evenodd;clip-rule:evenodd;fill:#7D2926;}
	.st45{fill:#868686;}
	.st46{fill:#2B2422;}
	.st47{fill:#5A5A59;}
	.st48{fill:#808080;}
	.st49{fill:#929292;}
	.st50{fill:#A3A3A2;}
	.st51{fill:#FFD600;}
	.st52{fill:#FF7000;}
	.st53{fill:url(#XMLID_130_);}
	.st54{fill:url(#XMLID_131_);}
	.st55{fill:url(#XMLID_132_);}
	.st56{fill:#0E62AB;}
	.st57{fill:#FFDE11;}
</style>
<g id="Capa_1">
</g>
<g id="Capa_2">
</g>
<g id="Capa_3">
	<g>
		<g>
			<path class="st4" d="M71.8,37.4c0,3.7,1.9,5.8,4.9,5.8c1.5,0,2.5-0.6,3.1-1.6l0.1,1.3h2.2v-11c-1.3-0.4-2.6-0.6-4.2-0.6
				C73.8,31.3,71.8,33.5,71.8,37.4z M79.7,40.4c-0.6,0.5-1.4,0.8-2.4,0.8c-2.2,0-3.1-1.6-3.1-3.8c0-2.5,1.2-4,3.7-4
				c0.7,0,1.2,0,1.7,0.1V40.4z M89.1,31.3c-1.2,0-2.9,0.2-4.4,0.6v11h2.4v-9.4c0.7-0.1,1.3-0.2,1.9-0.2c2.4,0,3,0.8,3,2.6v7h2.4
				v-7.4C94.5,32.8,93.2,31.3,89.1,31.3z M34.1,34.4l-1.2-0.5c-1.5-0.7-2.4-1.3-2.4-2.5c0-1.2,0.9-1.9,2.8-1.9c1,0,2.4,0.2,3.6,0.6
				c0.2-0.6,0.4-1.3,0.4-2.2c-1.3-0.4-2.6-0.6-4-0.6c-3.6,0-5.3,1.6-5.3,4.1c0,2.3,1.4,3.5,3.5,4.4l1.1,0.5c2.1,0.9,2.9,1.5,2.9,2.8
				c0,1.3-1.1,2-3.2,2c-1.2,0-2.8-0.3-4-0.9c-0.2,0.7-0.4,1.3-0.4,2.2c1.2,0.6,2.7,0.8,4.5,0.8c3.7,0,5.7-1.7,5.7-4.3
				C38.1,36.9,36.9,35.6,34.1,34.4z M39.6,37.4c0,3.7,1.9,5.8,4.9,5.8c1.5,0,2.5-0.6,3.1-1.6l0.1,1.3h2.2v-11
				c-1.3-0.4-2.6-0.6-4.2-0.6C41.7,31.3,39.6,33.5,39.6,37.4z M47.5,40.4c-0.6,0.5-1.4,0.8-2.4,0.8c-2.2,0-3.1-1.6-3.1-3.8
				c0-2.5,1.2-4,3.7-4c0.7,0,1.2,0,1.7,0.1V40.4z M70.8,33.7c0.1-0.6,0.2-1.3,0.2-2.1h-3.8v-4.2c-0.7,0-1.7,0.1-2.4,0.4v11.6
				c0,2.7,1.5,3.8,3.9,3.8c0.7,0,1.4-0.1,2.1-0.4c0.1-0.6,0.2-1.4,0.3-2.1c-0.5,0.2-1.2,0.3-1.9,0.3c-1.2,0-1.9-0.6-1.9-2v-5.4H70.8
				z M57,31.3c-1.2,0-2.9,0.2-4.4,0.6v11H55v-9.4c0.7-0.1,1.3-0.2,1.9-0.2c2.4,0,3,0.8,3,2.6v7h2.4v-7.4
				C62.4,32.8,61.1,31.3,57,31.3z M16.8,31.6c0-0.8-0.3-1.6-0.7-2.3l-3.7-6.4c-0.3-0.5-0.5-1-0.6-1.5l-0.2,0.3
				c-0.9,1.6-0.9,3.5,0,5.1l2.9,5.1c0.9,1.6,0.9,3.5,0,5.1l-0.2,0.3c-0.1-0.5-0.3-1.1-0.6-1.5l-2.7-4.7l-1.7-3
				c-0.3-0.5-0.5-1-0.6-1.5l-0.2,0.3c-0.9,1.6-0.9,3.5,0,5.1l0,0l2.9,5.1c0.9,1.6,0.9,3.5,0,5.1l-0.2,0.3c-0.1-0.5-0.3-1.1-0.6-1.5
				l-3.7-6.4c-0.5-0.9-0.7-1.8-0.7-2.8c-3.9,1-6.7,3.2-6.7,5.7c0,3.5,5.3,6.4,11.7,6.4s11.7-2.9,11.7-6.4
				C23.5,34.8,20.8,32.6,16.8,31.6z M164.4,31.3c-3.6,0-5.1,2.6-5.1,5.9c0,3.8,1.9,6,5.6,6c1.3,0,2.4-0.2,3.5-0.8
				c0.1-0.5,0.2-1.1,0.2-1.5c-1.2,0.7-2.5,0.9-3.7,0.9c-2.5,0-3.9-1.4-4.1-4.1h8.2c0.1-0.4,0.1-0.9,0.1-1.4
				C169.2,33.5,167.8,31.3,164.4,31.3z M167.6,36.4h-6.7c0.2-2.3,1.3-3.7,3.5-3.7C166.6,32.6,167.6,34.1,167.6,36.4L167.6,36.4z
				 M176.7,32.6c0.7,0,1.6,0.1,2.4,0.5c0.1-0.4,0.2-0.9,0.2-1.3c-0.9-0.4-1.7-0.5-2.6-0.5c-3.9,0-5.8,2.4-5.8,6
				c0,3.8,2.1,5.9,5.4,5.9c1.1,0,2.1-0.2,2.8-0.8c0.1-0.5,0.2-1,0.2-1.5c-0.9,0.6-1.9,0.9-2.9,0.9c-2.3,0-3.9-1.4-3.9-4.6
				C172.5,34.3,173.9,32.6,176.7,32.6z M185.1,41.9c-1.4,0-2.1-0.7-2.1-2.4V33h3.8c0.1-0.4,0.1-0.9,0.2-1.4h-4v-4.1
				c-0.5,0-1.1,0.1-1.5,0.2v11.9c0,2.5,1.3,3.5,3.4,3.5c0.7,0,1.3-0.1,2-0.4c0.1-0.4,0.2-0.9,0.2-1.3
				C186.4,41.7,185.7,41.9,185.1,41.9z M155.5,42.9h1.5V27.5c-0.5,0-1.1,0.1-1.5,0.2V42.9z M104.4,31.5c-0.6-0.1-1.2-0.2-1.8-0.2
				c-4.1,0-6.2,2.2-6.2,6.1c0,3.7,1.9,5.8,4.9,5.8c1.6,0,2.5-0.6,3.2-1.7l0.1,1.4h2.2V27.5c-0.8,0-1.7,0.1-2.4,0.3V31.5z
				 M104.4,40.4c-0.7,0.5-1.5,0.8-2.4,0.8c-2.2,0-3.1-1.6-3.1-3.8c0-2.5,1.1-4,3.6-4c0.6,0,1.3,0.1,1.9,0.2V40.4z M114.2,31.3
				c-3.9,0-5.4,2.6-5.4,5.9c0,3.8,2,6,6,6c1.3,0,2.5-0.2,3.6-0.7c0.2-0.7,0.3-1.6,0.4-2.2c-1.2,0.6-2.6,0.8-3.9,0.8
				c-2.2,0-3.3-0.9-3.6-2.9h7.7c0.1-0.6,0.1-1.2,0.1-1.9C119.1,33.5,117.6,31.3,114.2,31.3z M111.2,36.2c0.2-1.9,1.1-2.9,2.8-2.9
				c1.7,0,2.6,1.1,2.6,2.9H111.2z M121.2,31.9v11h2.4v-9.4c0.6-0.1,1.2-0.1,1.8-0.1c0.7,0,1.3,0,1.8,0.1c0.1-0.5,0.2-1.3,0.2-2.1
				c-0.5-0.1-1.4-0.1-2.1-0.1C124,31.3,122.3,31.5,121.2,31.9z M137.5,34.7l-1.1-0.4c-1.9-0.7-2.9-1.5-2.9-3.1
				c0-1.6,1.3-2.4,3.4-2.4c1.2,0,2.5,0.2,3.7,0.7c0.1-0.4,0.2-0.9,0.3-1.5c-1.2-0.5-2.5-0.7-4-0.7c-3.1,0-5,1.4-5,3.8
				c0,2.4,1.4,3.5,3.6,4.4l1.1,0.4c2.4,1,3.3,1.7,3.3,3.2c0,1.6-1.4,2.5-3.7,2.5c-1.3,0-3-0.3-4.3-1c-0.2,0.4-0.2,0.9-0.3,1.5
				c1.3,0.7,2.8,1,4.6,1c3.4,0,5.3-1.6,5.3-4.1C141.5,37,140.4,35.8,137.5,34.7z M148.3,31.3c-3.6,0-5.1,2.6-5.1,5.9
				c0,3.8,1.9,6,5.6,6c1.3,0,2.4-0.2,3.5-0.8c0.1-0.5,0.2-1.1,0.2-1.5c-1.2,0.7-2.5,0.9-3.7,0.9c-2.5,0-3.9-1.4-4.1-4.1h8.2
				c0.1-0.4,0.1-0.9,0.1-1.4C153.1,33.5,151.7,31.3,148.3,31.3z M151.5,36.4h-6.7c0.2-2.3,1.3-3.7,3.5-3.7
				C150.5,32.6,151.5,34.1,151.5,36.4L151.5,36.4z"/>
		</g>
	</g>
</g>
<g id="Capa_4">
</g>
<g id="Capa_5">
</g>
<g id="Capa_6">
</g>
<g id="Capa_7">
</g>
<g id="Capa_8">
</g>
<g id="Capa_9">
</g>
<g id="Capa_10">
</g>
</svg>
