<?xml version="1.0" encoding="utf-8"?>
<!-- Generator: Adobe Illustrator 22.0.1, SVG Export Plug-In . SVG Version: 6.00 Build 0)  -->
<svg version="1.1" xmlns="http://www.w3.org/2000/svg" xmlns:xlink="http://www.w3.org/1999/xlink" x="0px" y="0px"
	 viewBox="0 0 187 65" style="enable-background:new 0 0 187 65;" xml:space="preserve">
<style type="text/css">
	.st0{fill:#00B2E3;}
	.st1{fill:#FEFEFE;}
	.st2{fill:#0071CE;}
	.st3{fill:#FFFFFF;}
	.st4{fill:#EC0000;}
	.st5{clip-path:url(#XMLID_108_);}
	.st6{clip-path:url(#XMLID_109_);fill:#FF0000;}
	.st7{clip-path:url(#XMLID_110_);}
	.st8{clip-path:url(#XMLID_111_);fill:#FEFEFE;}
	.st9{clip-path:url(#XMLID_112_);}
	.st10{clip-path:url(#XMLID_113_);fill:#FEFEFE;}
	.st11{clip-path:url(#XMLID_114_);}
	.st12{clip-path:url(#XMLID_115_);fill:#FEFEFE;}
	.st13{clip-path:url(#XMLID_116_);}
	.st14{clip-path:url(#XMLID_117_);fill:#FEFEFE;}
	.st15{clip-path:url(#XMLID_118_);}
	.st16{clip-path:url(#XMLID_119_);fill:#FEFEFE;}
	.st17{clip-path:url(#XMLID_120_);}
	.st18{clip-path:url(#XMLID_121_);fill:#FEFEFE;}
	.st19{clip-path:url(#XMLID_122_);}
	.st20{clip-path:url(#XMLID_123_);fill:#FEFEFE;}
	.st21{clip-path:url(#XMLID_124_);}
	.st22{clip-path:url(#XMLID_125_);fill:#FEFEFE;}
	.st23{clip-path:url(#XMLID_126_);}
	.st24{clip-path:url(#XMLID_127_);fill:#FEFEFE;}
	.st25{clip-path:url(#XMLID_128_);}
	.st26{clip-path:url(#XMLID_129_);fill:#FEFEFE;}
	.st27{fill-rule:evenodd;clip-rule:evenodd;fill:#364B99;}
	.st28{fill:#364B99;}
	.st29{font-family:'TimesNewRomanPSMT';}
	.st30{font-size:2.4404px;}
	.st31{fill-rule:evenodd;clip-rule:evenodd;fill:none;stroke:#364B99;stroke-miterlimit:10;}
	.st32{fill:#DC052B;}
	.st33{fill:#0033A1;}
	.st34{fill:#FBBC1C;}
	.st35{fill:#F5A800;}
	.st36{fill:#7A797E;}
	.st37{fill:#E20613;}
	.st38{clip-path:url(#SVGID_2_);}
	.st39{clip-path:url(#SVGID_6_);}
	.st40{clip-path:url(#SVGID_10_);}
	.st41{clip-path:url(#SVGID_14_);}
	.st42{clip-path:url(#SVGID_18_);}
	.st43{fill-rule:evenodd;clip-rule:evenodd;fill:#E20613;}
	.st44{fill-rule:evenodd;clip-rule:evenodd;fill:#802B29;}
	.st45{fill-rule:evenodd;clip-rule:evenodd;fill:#A22526;}
	.st46{fill-rule:evenodd;clip-rule:evenodd;fill:#A32827;}
	.st47{fill-rule:evenodd;clip-rule:evenodd;fill:#7D2926;}
	.st48{fill:#868686;}
	.st49{fill:#2B2422;}
	.st50{fill:#5A5A59;}
	.st51{fill:#808080;}
	.st52{fill:#929292;}
	.st53{fill:#A3A3A2;}
	.st54{fill:#FFD600;}
	.st55{fill:#FF7000;}
	.st56{fill:url(#XMLID_130_);}
	.st57{fill:url(#XMLID_131_);}
	.st58{fill:url(#XMLID_132_);}
	.st59{fill:#0E62AB;}
	.st60{fill:#FFDE11;}
</style>
<g id="Capa_1">
</g>
<g id="Capa_2">
</g>
<g id="Capa_3">
</g>
<g id="Capa_4">
	<g>
		<g id="XMLID_60_">
			<defs>
				<rect id="XMLID_61_" x="95.5" y="19.5" width="91.5" height="26"/>
			</defs>
			<use xlink:href="#XMLID_61_"  style="overflow:visible;fill-rule:evenodd;clip-rule:evenodd;fill:#FF0000;"/>
			<clipPath id="XMLID_108_">
				<use xlink:href="#XMLID_61_"  style="overflow:visible;"/>
			</clipPath>
			<g id="XMLID_62_" class="st5">
				<defs>
					<rect id="XMLID_63_" x="-58.5" y="0.2" width="383.2" height="273.5"/>
				</defs>
				<use xlink:href="#XMLID_63_"  style="overflow:visible;fill:#FF0000;"/>
				<clipPath id="XMLID_109_">
					<use xlink:href="#XMLID_63_"  style="overflow:visible;"/>
				</clipPath>
				<rect id="XMLID_64_" x="90.7" y="14.7" class="st6" width="101.1" height="35.6"/>
			</g>
		</g>
		<g id="XMLID_55_">
			<defs>
				<path id="XMLID_56_" d="M109.7,24.6c0,1.7,3,3.7,3,5.7c0,0,0,0.2-0.1,0.4c2.8,0.6,4.7,1.9,4.7,3.5c0,2.1-3.5,3.9-7.9,3.9h-0.1
					c-4.3,0-7.8-1.7-7.8-3.8c0-1.6,2.1-2.9,4.7-3.6c0,0.9,2.9,3.7,3,4.8c0,0,0,0.1,0,0.2c0,0.1,0,0.1,0,0.2c0.6-0.3,0.6-1.4,0.6-1.4
					c0-2.4-2.8-3.5-2.8-5.9c0-0.9,0.4-1.6,0.8-1.8v0.7c0,1.7,3.1,3.7,3.1,5.3v0.5c0.7-0.3,0.7-1.6,0.7-1.6c0-2.2-2.9-3.4-2.9-5.9
					c0-0.9,0.4-1.6,0.8-1.8V24.6z"/>
			</defs>
			<clipPath id="XMLID_110_">
				<use xlink:href="#XMLID_56_"  style="overflow:visible;"/>
			</clipPath>
			<g id="XMLID_57_" class="st7">
				<defs>
					<rect id="XMLID_58_" x="-58.5" y="0.2" width="383.2" height="273.5"/>
				</defs>
				<clipPath id="XMLID_111_">
					<use xlink:href="#XMLID_58_"  style="overflow:visible;"/>
				</clipPath>
				<rect id="XMLID_59_" x="96.8" y="19.1" class="st8" width="25.4" height="23.8"/>
			</g>
		</g>
		<g id="XMLID_50_">
			<defs>
				<path id="XMLID_51_" d="M123.7,37.2c-1.5,0-2.6-0.4-2.6-0.4v-2.6h0.4c0.2,1.4,1.2,2.4,2.4,2.4c1.2,0,2-0.7,2-1.7
					c0-1.1-1.1-1.6-1.9-2l-1.1-0.5c-1-0.5-1.8-1.3-1.8-2.5c0-1.4,1.1-2.7,3.1-2.7c1.4,0,2.6,0.5,2.6,0.5V30h-0.4
					c-0.2-1.2-0.9-2.2-2.3-2.2c-1,0-1.7,0.7-1.7,1.4c0,0.9,0.7,1.4,1.4,1.8l1.1,0.5c1,0.5,2.2,1.3,2.2,2.7
					C127.2,36,126,37.2,123.7,37.2"/>
			</defs>
			<clipPath id="XMLID_112_">
				<use xlink:href="#XMLID_51_"  style="overflow:visible;"/>
			</clipPath>
			<g id="XMLID_52_" class="st9">
				<defs>
					<rect id="XMLID_53_" x="-58.5" y="0.2" width="383.2" height="273.5"/>
				</defs>
				<clipPath id="XMLID_113_">
					<use xlink:href="#XMLID_53_"  style="overflow:visible;"/>
				</clipPath>
				<rect id="XMLID_54_" x="116.3" y="22.4" class="st10" width="15.7" height="19.6"/>
			</g>
		</g>
		<g id="XMLID_43_">
			<defs>
				<path id="XMLID_44_" d="M130.6,34.4c-0.3,0.1-0.8,0.4-0.8,1c0,0.4,0.2,0.9,0.9,0.9c0.3,0,0.8-0.2,1.2-0.5v-2L130.6,34.4z
					 M130,37.2c-0.9,0-1.5-0.6-1.5-1.5c0-0.7,0.5-1.2,1.5-1.5l1.9-0.7v-0.6c0-0.9-0.4-1.4-1-1.4c-0.4,0-0.8,0.2-1,0.5
					c-0.1,0.1-0.1,0.3-0.1,0.4c0,0.2,0.2,0.5,0.2,0.5l-0.9,0.4c-0.1-0.2-0.2-0.5-0.2-0.8c0-0.1,0-0.1,0-0.2c0.1-0.5,0.5-0.8,1.1-1.2
					c0.6-0.3,1-0.4,1.4-0.4c1.7,0,2,1.4,2,1.8v2.8c0,0.5,0,0.7,0.4,0.7c0.1,0,0.2,0,0.3-0.1l0.3-0.1v0.4l-1.9,0.7
					c-0.3-0.2-0.4-0.6-0.5-0.9C131.4,36.7,130.7,37.2,130,37.2z"/>
			</defs>
			<clipPath id="XMLID_114_">
				<use xlink:href="#XMLID_44_"  style="overflow:visible;"/>
			</clipPath>
			<g id="XMLID_47_" class="st11">
				<defs>
					<rect id="XMLID_48_" x="-58.5" y="0.2" width="383.2" height="273.5"/>
				</defs>
				<clipPath id="XMLID_115_">
					<use xlink:href="#XMLID_48_"  style="overflow:visible;"/>
				</clipPath>
				<rect id="XMLID_49_" x="123.6" y="26" class="st12" width="15.5" height="16"/>
			</g>
		</g>
		<g id="XMLID_38_">
			<defs>
				<path id="XMLID_39_" d="M135,37.1v-0.3l0.5-0.1c0.3-0.1,0.5-0.3,0.5-0.5v-3.7c0-0.3-0.2-0.5-0.4-0.5c-0.1,0-0.2,0-0.3,0.1
					l-0.2,0.1v-0.4l2-0.8h0.3v1c0.6-0.7,1.3-1,2-1c1.4,0,2.1,1,2.1,2.2v3.1c0,0.3,0.2,0.5,0.5,0.5l0.5,0.1v0.3h-3.3v-0.3l0.5-0.1
					c0.3-0.1,0.5-0.3,0.5-0.5V33c0-0.4-0.1-1.3-1.2-1.3c-0.6,0-1.1,0.4-1.4,0.6v3.8c0,0.3,0.2,0.5,0.5,0.5l0.5,0.1v0.3H135z"/>
			</defs>
			<clipPath id="XMLID_116_">
				<use xlink:href="#XMLID_39_"  style="overflow:visible;"/>
			</clipPath>
			<g id="XMLID_40_" class="st13">
				<defs>
					<rect id="XMLID_41_" x="-58.5" y="0.2" width="383.2" height="273.5"/>
				</defs>
				<clipPath id="XMLID_117_">
					<use xlink:href="#XMLID_41_"  style="overflow:visible;"/>
				</clipPath>
				<rect id="XMLID_42_" x="130.1" y="26" class="st14" width="16.9" height="15.9"/>
			</g>
		</g>
		<g id="XMLID_33_">
			<defs>
				<path id="XMLID_34_" d="M147,32h-1.9v3.4c0,0.8,0.4,1.2,1,1.2c0.2,0,0.6-0.1,0.9-0.3l0.2,0.3l-1.2,0.8c0,0-0.2,0-0.4,0
					c-1.2,0-1.8-0.7-1.8-2.2V32h-1v-0.3c0,0,1.5-0.6,2.1-2h0.3v1.7h2.2L147,32z"/>
			</defs>
			<clipPath id="XMLID_118_">
				<use xlink:href="#XMLID_34_"  style="overflow:visible;"/>
			</clipPath>
			<g id="XMLID_35_" class="st15">
				<defs>
					<rect id="XMLID_36_" x="-58.5" y="0.2" width="383.2" height="273.5"/>
				</defs>
				<clipPath id="XMLID_119_">
					<use xlink:href="#XMLID_36_"  style="overflow:visible;"/>
				</clipPath>
				<rect id="XMLID_37_" x="137.9" y="24.8" class="st16" width="14.2" height="17.4"/>
			</g>
		</g>
		<g id="XMLID_26_">
			<defs>
				<path id="XMLID_27_" d="M149.7,34.4c-0.3,0.1-0.8,0.4-0.8,1c0,0.4,0.2,0.9,0.9,0.9c0.3,0,0.8-0.2,1.2-0.5v-2L149.7,34.4z
					 M149.1,37.2c-0.9,0-1.5-0.6-1.5-1.5c0-0.7,0.5-1.2,1.5-1.5l1.9-0.7v-0.6c0-0.9-0.4-1.4-1-1.4c-0.4,0-0.8,0.2-1,0.5
					c-0.1,0.1-0.1,0.3-0.1,0.4c0,0.2,0.2,0.5,0.2,0.5l-0.9,0.4c-0.1-0.2-0.2-0.5-0.2-0.8c0-0.1,0-0.1,0-0.2c0.1-0.5,0.5-0.8,1.1-1.2
					c0.6-0.3,1-0.4,1.4-0.4c1.7,0,2,1.4,2,1.8v2.8c0,0.5,0,0.7,0.4,0.7c0.1,0,0.2,0,0.3-0.1l0.3-0.1v0.4l-1.9,0.7
					c-0.3-0.2-0.4-0.6-0.5-0.9C150.5,36.7,149.8,37.2,149.1,37.2z"/>
			</defs>
			<clipPath id="XMLID_120_">
				<use xlink:href="#XMLID_27_"  style="overflow:visible;"/>
			</clipPath>
			<g id="XMLID_30_" class="st17">
				<defs>
					<rect id="XMLID_31_" x="-58.5" y="0.2" width="383.2" height="273.5"/>
				</defs>
				<clipPath id="XMLID_121_">
					<use xlink:href="#XMLID_31_"  style="overflow:visible;"/>
				</clipPath>
				<rect id="XMLID_32_" x="142.8" y="26" class="st18" width="15.5" height="16"/>
			</g>
		</g>
		<g id="XMLID_21_">
			<defs>
				<path id="XMLID_22_" d="M153.7,37.1v-0.3l0.5-0.1c0.3-0.1,0.5-0.3,0.5-0.5v-3.7c0-0.3-0.2-0.5-0.4-0.5c-0.1,0-0.2,0-0.3,0.1
					l-0.2,0.1v-0.4l2-0.8h0.3v1c0.6-0.7,1.3-1,2-1c1.4,0,2.1,1,2.1,2.2v3.1c0,0.3,0.2,0.5,0.5,0.5l0.5,0.1v0.3h-3.3v-0.3l0.5-0.1
					c0.3-0.1,0.5-0.3,0.5-0.5V33c0-0.4-0.1-1.3-1.2-1.3c-0.6,0-1.1,0.4-1.4,0.6v3.8c0,0.3,0.2,0.5,0.5,0.5l0.5,0.1v0.3H153.7z"/>
			</defs>
			<clipPath id="XMLID_122_">
				<use xlink:href="#XMLID_22_"  style="overflow:visible;"/>
			</clipPath>
			<g id="XMLID_23_" class="st19">
				<defs>
					<rect id="XMLID_24_" x="-58.5" y="0.2" width="383.2" height="273.5"/>
				</defs>
				<clipPath id="XMLID_123_">
					<use xlink:href="#XMLID_24_"  style="overflow:visible;"/>
				</clipPath>
				<rect id="XMLID_25_" x="148.8" y="26" class="st20" width="16.9" height="15.9"/>
			</g>
		</g>
		<g id="XMLID_14_">
			<defs>
				<path id="XMLID_15_" d="M165.3,31.4c-1,0-2,0.6-2,2.5c0,1.5,0.8,2.5,2,2.5c0.7,0,1.2-0.4,1.3-0.6v-3.6
					C166.3,31.7,165.8,31.4,165.3,31.4 M164.6,37.2c-1.3,0-2.8-1-2.8-3c0-1.8,1.4-3.3,3.3-3.3c0.6,0,1.1,0.1,1.4,0.3V28
					c0-0.3-0.2-0.4-0.4-0.4c-0.1,0-0.3,0-0.4,0.1l-0.3,0.1v-0.4l2.1-0.9h0.3v9c0,0.5,0.1,0.8,0.5,0.8c0.1,0,0.2,0,0.3-0.1l0.3-0.1
					v0.4l-1.9,0.7c-0.3-0.2-0.5-0.6-0.5-0.9C166.2,36.7,165.6,37.2,164.6,37.2"/>
			</defs>
			<clipPath id="XMLID_124_">
				<use xlink:href="#XMLID_15_"  style="overflow:visible;"/>
			</clipPath>
			<g id="XMLID_18_" class="st21">
				<defs>
					<rect id="XMLID_19_" x="-58.5" y="0.2" width="383.2" height="273.5"/>
				</defs>
				<clipPath id="XMLID_125_">
					<use xlink:href="#XMLID_19_"  style="overflow:visible;"/>
				</clipPath>
				<rect id="XMLID_20_" x="157" y="21.6" class="st22" width="16.8" height="20.4"/>
			</g>
		</g>
		<g id="XMLID_7_">
			<defs>
				<path id="XMLID_8_" d="M173.8,33L173.8,33c0-1.1-0.6-1.5-1.3-1.5c-0.8,0-1.3,0.5-1.5,1.5H173.8z M170.9,33.5L170.9,33.5
					c0,1.9,1,2.8,2.3,2.8c0.7,0,1.3-0.2,1.7-0.6v0.5c-0.6,0.5-1.4,0.9-2.4,0.9c-2.1,0-3.1-1.6-3.1-3.1c0-1.8,1.4-3.2,3.1-3.2
					c1.4,0,2.6,1,2.6,2.5v0.2H170.9z"/>
			</defs>
			<clipPath id="XMLID_126_">
				<use xlink:href="#XMLID_8_"  style="overflow:visible;"/>
			</clipPath>
			<g id="XMLID_11_" class="st23">
				<defs>
					<rect id="XMLID_12_" x="-58.5" y="0.2" width="383.2" height="273.5"/>
				</defs>
				<clipPath id="XMLID_127_">
					<use xlink:href="#XMLID_12_"  style="overflow:visible;"/>
				</clipPath>
				<rect id="XMLID_13_" x="164.7" y="26" class="st24" width="15.3" height="16"/>
			</g>
		</g>
		<g id="XMLID_2_">
			<defs>
				<path id="XMLID_3_" d="M176,37.1v-0.3l0.5-0.1c0.3-0.1,0.5-0.3,0.5-0.5v-3.7c0-0.3-0.2-0.5-0.4-0.5c-0.1,0-0.2,0-0.3,0.1
					l-0.2,0.1v-0.4l2-0.8h0.3v1.3c0.5-1,1.1-1.4,1.8-1.4c0.6,0,0.7,0.1,0.7,0.1v1.5h-0.3c-0.1-0.4-0.3-0.6-0.7-0.6
					c-0.4,0-1,0.1-1.4,0.9v3.4c0,0.3,0.3,0.5,0.5,0.5l0.7,0.1v0.3H176z"/>
			</defs>
			<clipPath id="XMLID_128_">
				<use xlink:href="#XMLID_3_"  style="overflow:visible;"/>
			</clipPath>
			<g id="XMLID_4_" class="st25">
				<defs>
					<rect id="XMLID_5_" x="-58.5" y="0.2" width="383.2" height="273.5"/>
				</defs>
				<clipPath id="XMLID_129_">
					<use xlink:href="#XMLID_5_"  style="overflow:visible;"/>
				</clipPath>
				<rect id="XMLID_6_" x="171.2" y="26" class="st26" width="14.3" height="15.9"/>
			</g>
		</g>
		<path class="st27" d="M18.6,33c0,5.1-4.2,9.3-9.3,9.3c-2.7,0-5.1-1.2-6.8-3c1.3-0.9,5-0.7,6-0.3c6.2,1.9,7.1-3.6,7.1-3.6H15
			c-1.1,3.8-6.9,2.2-7.7,2.2c-0.8,0-1.4,0.2-1.4,0.2l7.8-10.4H4l-0.8,2.7l0.6,0.3c0.7-2,3.3-2,3.3-2h2.7L1.9,38.6
			C0.7,37.1,0,35.1,0,33c0-5.1,4.2-9.3,9.3-9.3C14.4,23.7,18.6,27.9,18.6,33L18.6,33z"/>
		<g>
			<path class="st27" d="M30.1,29.9h2.1l-5.9,8.2h8l1.1-2.2c-1.1,1-3.7,1-3.7,1h-2.2l5.8-8.2H28l-0.9,2
				C28.2,29.9,30.1,29.9,30.1,29.9L30.1,29.9z"/>
			<path class="st27" d="M36.6,28.6c0,0,0.6,0.4,0.6,1.4v5.7c0,0,0.2,2.7,4.1,2.7c3.8,0,3.9-3,3.9-3v-6c0,0,0-0.8,0.6-0.8h-2.8
				c0,0,0.6,0,0.6,0.9v5.6c0,0-0.1,2.1-2.2,2.1c-2,0-2.3-1.9-2.3-1.9V30c0,0,0-1.3,0.4-1.3H36.6L36.6,28.6z"/>
			<path class="st27" d="M51.9,33.9c0,0,2.4-0.5,2.4-2.7c0-2.6-3.4-2.7-3.4-2.7h-3.6c0,0,0.6,0.4,0.6,1.4v6.9c0,0-0.2,1.2-0.8,1.2
				h3.1c0,0-0.5-0.1-0.6-1.2v-2.8h0.2l2.1,2.7c0,0,1.4,1.9,3.7,1.2C55.7,38.1,54.8,37.7,51.9,33.9z M49.7,33.3v-3.4
				c0,0,2.7-0.2,2.7,1.5C52.4,33.5,49.7,33.3,49.7,33.3z"/>
			<path class="st27" d="M56.6,28.6c0,0,0.6,0,0.6,1.5v6.6c0,0,0,1.4-0.7,1.4h2.8c0,0-0.5,0-0.5-1.5v-6.5c0,0,0-1.5,0.6-1.5H56.6
				L56.6,28.6z"/>
			<path class="st27" d="M68.8,30.6v-1.7c0,0-1-0.4-2.3-0.4c-1.9,0-5.7,0.8-5.7,5.2c0,4.4,4.3,4.9,5.1,4.9s2.2-0.3,2.8-0.7V36
				c0,0-0.7,1.1-2.6,1.1c-1.9,0-3.4-1.7-3.4-3.5c0-1.9,1.5-3.8,3.6-3.8C68,29.8,68.8,30.6,68.8,30.6L68.8,30.6z"/>
			<path class="st27" d="M78.6,36.6v-6.5c0,0,0-1.5,0.6-1.5h-2.8c0,0,0.6,0,0.6,1.5v2.4h-4.3v-2.4c0,0,0-1.5,0.6-1.5h-2.8
				c0,0,0.6,0,0.6,1.5v6.6c0,0,0,1.4-0.7,1.4h2.8c0,0-0.5,0-0.5-1.5v-2.8H77v2.9c0,0,0,1.4-0.7,1.4h2.8
				C79.1,38.1,78.6,38.1,78.6,36.6L78.6,36.6z"/>
		</g>
		<g>
			<text transform="matrix(1 0 0 1 80.7051 24.3976)" class="st28 st29 st30">R</text>
			<circle class="st31" cx="81.5" cy="23.5" r="1.9"/>
		</g>
	</g>
</g>
<g id="Capa_5">
</g>
<g id="Capa_6">
</g>
<g id="Capa_7">
</g>
<g id="Capa_8">
</g>
<g id="Capa_9">
</g>
<g id="Capa_10">
</g>
</svg>
