<?xml version="1.0" encoding="utf-8"?>
<!-- Generator: Adobe Illustrator 22.0.1, SVG Export Plug-In . SVG Version: 6.00 Build 0)  -->
<svg version="1.1" xmlns="http://www.w3.org/2000/svg" xmlns:xlink="http://www.w3.org/1999/xlink" x="0px" y="0px"
	 viewBox="0 0 187 65" style="enable-background:new 0 0 187 65;" xml:space="preserve">
<style type="text/css">
	.st0{fill:#00B2E3;}
	.st1{fill:#FEFEFE;}
	.st2{fill:#0071CE;}
	.st3{fill:#FFFFFF;}
	.st4{fill:#EC0000;}
	.st5{clip-path:url(#XMLID_108_);}
	.st6{clip-path:url(#XMLID_109_);fill:#FF0000;}
	.st7{clip-path:url(#XMLID_110_);}
	.st8{clip-path:url(#XMLID_111_);fill:#FEFEFE;}
	.st9{clip-path:url(#XMLID_112_);}
	.st10{clip-path:url(#XMLID_113_);fill:#FEFEFE;}
	.st11{clip-path:url(#XMLID_114_);}
	.st12{clip-path:url(#XMLID_115_);fill:#FEFEFE;}
	.st13{clip-path:url(#XMLID_116_);}
	.st14{clip-path:url(#XMLID_117_);fill:#FEFEFE;}
	.st15{clip-path:url(#XMLID_118_);}
	.st16{clip-path:url(#XMLID_119_);fill:#FEFEFE;}
	.st17{clip-path:url(#XMLID_120_);}
	.st18{clip-path:url(#XMLID_121_);fill:#FEFEFE;}
	.st19{clip-path:url(#XMLID_122_);}
	.st20{clip-path:url(#XMLID_123_);fill:#FEFEFE;}
	.st21{clip-path:url(#XMLID_124_);}
	.st22{clip-path:url(#XMLID_125_);fill:#FEFEFE;}
	.st23{clip-path:url(#XMLID_126_);}
	.st24{clip-path:url(#XMLID_127_);fill:#FEFEFE;}
	.st25{clip-path:url(#XMLID_128_);}
	.st26{clip-path:url(#XMLID_129_);fill:#FEFEFE;}
	.st27{fill-rule:evenodd;clip-rule:evenodd;fill:#364B99;}
	.st28{fill-rule:evenodd;clip-rule:evenodd;fill:none;stroke:#364B99;stroke-miterlimit:10;}
	.st29{fill:#DC052B;}
	.st30{fill:#0033A1;}
	.st31{fill:#FBBC1C;}
	.st32{fill:#F5A800;}
	.st33{fill:#7A797E;}
	.st34{fill:#E20613;}
	.st35{clip-path:url(#SVGID_2_);}
	.st36{clip-path:url(#SVGID_6_);}
	.st37{clip-path:url(#SVGID_10_);}
	.st38{clip-path:url(#SVGID_14_);}
	.st39{clip-path:url(#SVGID_18_);}
	.st40{fill-rule:evenodd;clip-rule:evenodd;fill:#E20613;}
	.st41{fill-rule:evenodd;clip-rule:evenodd;fill:#802B29;}
	.st42{fill-rule:evenodd;clip-rule:evenodd;fill:#A22526;}
	.st43{fill-rule:evenodd;clip-rule:evenodd;fill:#A32827;}
	.st44{fill-rule:evenodd;clip-rule:evenodd;fill:#7D2926;}
	.st45{fill:#868686;}
	.st46{fill:#2B2422;}
	.st47{fill:#5A5A59;}
	.st48{fill:#808080;}
	.st49{fill:#929292;}
	.st50{fill:#A3A3A2;}
	.st51{fill:#FFD600;}
	.st52{fill:#FF7000;}
	.st53{fill:url(#XMLID_130_);}
	.st54{fill:url(#XMLID_131_);}
	.st55{fill:url(#XMLID_132_);}
	.st56{fill:#0E62AB;}
	.st57{fill:#FFDE11;}
</style>
<g id="Capa_1">
</g>
<g id="Capa_2">
</g>
<g id="Capa_3">
</g>
<g id="Capa_4">
</g>
<g id="Capa_5">
</g>
<g id="Capa_6">
</g>
<g id="Capa_7">
</g>
<g id="Capa_8">
</g>
<g id="Capa_9">
</g>
<g id="Capa_10">
	<g>
		<path class="st56" d="M55.7,37h-4.2v-5.5h3.9C59.4,31.5,59.8,37.2,55.7,37 M51.5,23.6h3.9c3.3,0,3.3,5.3-0.7,5h-3.3V23.6z
			 M59.2,29.8c0.7-0.4,0.9-0.9,1.1-1.5c0.2-0.7,0.4-1.3,0.4-2.4s-0.4-2-0.9-2.8c-0.9-1.8-3.1-2.4-5.3-2.4h-6.4v19.5h7.5
			c1.1,0,2.2-0.2,3.1-0.7s1.5-1.1,2.2-2c0.4-0.9,0.9-2,0.9-3.1C61.6,32.4,61.1,30.7,59.2,29.8"/>
		<path class="st56" d="M119,37L119,37c-2.6,0-4.6-2-4.6-4.6c0-2.4,2-4.6,4.4-4.6l0,0c2.4,0,4.6,2,4.6,4.6C123.6,35,121.6,37,119,37
			 M119,24.7L119,24.7c-4.2,0-7.7,3.5-7.7,7.7s3.5,7.7,7.7,7.7l0,0c4.2,0,7.7-3.5,7.7-7.7S123.2,25,119,24.7"/>
		<path class="st56" d="M110.2,40.1h-5.5c-5,0-9.4-4.4-9.4-9.6c0-4.2,3.1-9,7.2-9.6c2-0.2,5-0.2,7.7-0.2v3.3H105
			c-3.7,0.2-5.9,2.4-6.4,6.1c-0.2,3.5,2.2,6.6,5.7,6.8h5.9"/>
		<path class="st56" d="M135.7,37L135.7,37c-2.8,0-4.6-1.8-4.6-4.4s1.8-4.8,4.4-4.8h0.2c2.6,0,4.6,2.2,4.6,4.6
			C140,34.8,138.1,37,135.7,37 M135.7,24.7L135.7,24.7c-4.2,0-7.7,3.5-7.7,7.7V46h2.8v-7.5c1.3,1.1,3.1,1.8,4.8,1.8
			c4.2,0,7.7-3.5,7.7-7.7C143.1,28.2,139.8,24.7,135.7,24.7"/>
		<path class="st56" d="M152.1,37L152.1,37c-2.8,0-4.6-1.8-4.6-4.4s1.8-4.8,4.4-4.8h0.2c2.6,0,4.6,2,4.6,4.6S154.7,37,152.1,37
			 M152.1,24.7L152.1,24.7c-4.2,0-7.7,3.5-7.7,7.7V46h2.8v-7.5c1.3,1.1,3.1,1.8,4.8,1.8c4.2,0,7.7-3.5,7.7-7.7
			C159.8,28.2,156.3,24.7,152.1,24.7"/>
		<path class="st56" d="M163.7,32.4c0-2.2,1.3-3.7,3.3-4.4c0.4-0.2,1.1-0.2,1.5-0.2c0.9,0,1.1,0.2,1.8,0.4l-3.3,3.3l-2.8,2.8
			C163.9,33.9,163.7,33.3,163.7,32.4 M167,37c-0.4-0.2-0.7-0.2-0.4-0.4l0.4-0.4l6.6-6.8c0.7-0.4,0.7-2,0-2.4
			c-0.2-0.4-2.4-2.2-4.8-2.2c-0.7,0-1.1,0-1.8,0.2c-3.5,0.7-6.4,3.9-6.1,7.5c0,3.7,2.6,6.6,6.1,7.5c0.7,0.2,1.5,0.2,2.4,0.2h4.8
			v-2.8h-5.5C168.1,37.2,167.4,37,167,37"/>
		<path class="st56" d="M182.3,37.2c-0.9,0-1.8-0.2-2.4-0.7c-0.9-0.7-1.5-2-1.8-3.7V20.8h-2.8V32c0,3.7,0.9,5.5,2.6,7
			c1.1,1.1,3.1,1.5,5,1.5h3.5v-3.1"/>
		<path class="st56" d="M91.8,26.3L91.8,26.3c-1.5-1.3-3.5-1.8-5.5-1.8c-1.3,0.2-3.1,0.9-3.9,1.8c-0.7,0.4-1.1,1.3-1.3,2
			c-0.2,0.7-0.4,2.2-0.4,2.2v9.4h2.8v-9.6c0-1.8,1.5-2.8,3.3-2.8c2,0,3.7,1.1,3.7,2.8v9.6h2.8v-9.4V30
			C93.4,28.5,92.7,27.2,91.8,26.3"/>
		<path class="st56" d="M71,37L71,37c-2.6,0-4.6-2-4.6-4.6s2-4.6,4.6-4.6l0,0c2.6,0,4.6,2,4.6,4.6S73.6,37,71,37 M78.2,29.8
			c-1.1-2.8-3.9-5-7.2-5l0,0c-4.2,0-7.7,3.5-7.7,7.7s3.5,7.7,7.7,7.7l0,0c1.8,0,3.3-0.7,4.6-1.5v1.5h3.1c0,0,0-7.9,0-8.1
			C78.7,31.3,78.4,30.4,78.2,29.8"/>
		<path class="st56" d="M1.7,14H41c0.9,0,1.5,0.9,1.5,1.8v28.7c0,0.9-0.7,1.8-1.5,1.8H1.7c-0.9,0-1.5-0.9-1.5-1.8V15.8
			C0.2,14.9,0.9,14,1.7,14"/>
		<polyline class="st57" points="30.9,34.8 30.9,39.9 32.9,39.9 32.9,38.1 34.6,38.1 34.6,39.9 36.4,39.9 36.4,34.8 		"/>
		<path class="st57" d="M12.3,31.3c-0.9,0-1.8-0.7-1.8-1.8c0-0.9,0.7-1.8,1.8-1.8c0.9,0,1.8,0.7,1.8,1.8
			C13.8,30.7,13.1,31.3,12.3,31.3 M12.3,37.9c-0.9,0-1.8-0.7-1.8-1.8c0-0.9,0.7-1.8,1.8-1.8c0.9,0,1.8,0.7,1.8,1.8
			C13.8,37.2,13.1,37.9,12.3,37.9 M7.4,34.6c-0.9,0-1.8-0.7-1.8-1.8c0-0.9,0.7-1.8,1.8-1.8c0.9,0,1.8,0.7,1.8,1.8
			C9,33.9,8.3,34.6,7.4,34.6 M15.5,31.3c0.2-0.4,0.4-1.1,0.4-1.5c0-2-1.8-3.7-3.7-3.7l0,0c-2,0-3.5,1.5-3.7,3.5
			c-0.4-0.2-0.7-0.2-1.1-0.2H7.2c-2,0-3.7,1.8-3.7,3.7c0,2,1.8,3.7,3.7,3.7h0.2c0.4,0,0.9,0,1.1-0.2c0.2,2,1.8,3.5,3.7,3.5l0,0
			c2,0,3.7-1.8,3.7-3.7c0-0.4,0-1.1-0.2-1.5h22.6v-3.3H15.5V31.3z"/>
	</g>
</g>
</svg>
