<?xml version="1.0" encoding="utf-8"?>
<!-- Generator: Adobe Illustrator 22.0.1, SVG Export Plug-In . SVG Version: 6.00 Build 0)  -->
<svg version="1.1" xmlns="http://www.w3.org/2000/svg" xmlns:xlink="http://www.w3.org/1999/xlink" x="0px" y="0px"
	 viewBox="0 0 187 65" style="enable-background:new 0 0 187 65;" xml:space="preserve">
<style type="text/css">
	.st0{fill:#00B2E3;}
	.st1{fill:#FEFEFE;}
	.st2{fill:#0071CE;}
	.st3{fill:#FFFFFF;}
	.st4{fill:#EC0000;}
	.st5{clip-path:url(#XMLID_108_);}
	.st6{clip-path:url(#XMLID_109_);fill:#FF0000;}
	.st7{clip-path:url(#XMLID_110_);}
	.st8{clip-path:url(#XMLID_111_);fill:#FEFEFE;}
	.st9{clip-path:url(#XMLID_112_);}
	.st10{clip-path:url(#XMLID_113_);fill:#FEFEFE;}
	.st11{clip-path:url(#XMLID_114_);}
	.st12{clip-path:url(#XMLID_115_);fill:#FEFEFE;}
	.st13{clip-path:url(#XMLID_116_);}
	.st14{clip-path:url(#XMLID_117_);fill:#FEFEFE;}
	.st15{clip-path:url(#XMLID_118_);}
	.st16{clip-path:url(#XMLID_119_);fill:#FEFEFE;}
	.st17{clip-path:url(#XMLID_120_);}
	.st18{clip-path:url(#XMLID_121_);fill:#FEFEFE;}
	.st19{clip-path:url(#XMLID_122_);}
	.st20{clip-path:url(#XMLID_123_);fill:#FEFEFE;}
	.st21{clip-path:url(#XMLID_124_);}
	.st22{clip-path:url(#XMLID_125_);fill:#FEFEFE;}
	.st23{clip-path:url(#XMLID_126_);}
	.st24{clip-path:url(#XMLID_127_);fill:#FEFEFE;}
	.st25{clip-path:url(#XMLID_128_);}
	.st26{clip-path:url(#XMLID_129_);fill:#FEFEFE;}
	.st27{fill-rule:evenodd;clip-rule:evenodd;fill:#364B99;}
	.st28{fill-rule:evenodd;clip-rule:evenodd;fill:none;stroke:#364B99;stroke-miterlimit:10;}
	.st29{fill:#DC052B;}
	.st30{fill:#0033A1;}
	.st31{fill:#FBBC1C;}
	.st32{fill:#F5A800;}
	.st33{fill:#7A797E;}
	.st34{fill:#E20613;}
	.st35{clip-path:url(#SVGID_2_);}
	.st36{clip-path:url(#SVGID_6_);}
	.st37{clip-path:url(#SVGID_10_);}
	.st38{clip-path:url(#SVGID_14_);}
	.st39{clip-path:url(#SVGID_18_);}
	.st40{fill-rule:evenodd;clip-rule:evenodd;fill:#E20613;}
	.st41{fill-rule:evenodd;clip-rule:evenodd;fill:#802B29;}
	.st42{fill-rule:evenodd;clip-rule:evenodd;fill:#A22526;}
	.st43{fill-rule:evenodd;clip-rule:evenodd;fill:#A32827;}
	.st44{fill-rule:evenodd;clip-rule:evenodd;fill:#7D2926;}
	.st45{fill:#868686;}
	.st46{fill:#2B2422;}
	.st47{fill:#5A5A59;}
	.st48{fill:#808080;}
	.st49{fill:#929292;}
	.st50{fill:#A3A3A2;}
	.st51{fill:#FFD600;}
	.st52{fill:#FF7000;}
	.st53{fill:url(#XMLID_130_);}
	.st54{fill:url(#XMLID_131_);}
	.st55{fill:url(#XMLID_132_);}
	.st56{fill:#0E62AB;}
	.st57{fill:#FFDE11;}
</style>
<g id="Capa_1">
</g>
<g id="Capa_2">
	<g>
		<path class="st4" d="M23.8,31.2c0-1.1-0.4-2.3-1-3.3l-5.2-9c-0.4-0.7-0.7-1.4-0.8-2.2l-0.2,0.4c-1.3,2.2-1.3,5,0,7.2l4.2,7.2
			c1.3,2.2,1.3,5,0,7.2l-0.2,0.4c-0.2-0.8-0.4-1.5-0.8-2.2l-3.8-6.6l-2.4-4.2c-0.4-0.7-0.7-1.4-0.8-2.2l-0.2,0.4
			c-1.3,2.2-1.3,5,0,7.2l0,0l4.2,7.2c1.3,2.2,1.3,5,0,7.2l-0.2,0.4c-0.2-0.8-0.4-1.5-0.8-2.2l-5.2-9c-0.7-1.2-1-2.6-1-3.9
			C3.8,32.6,0,35.7,0,39.3c0,5,7.4,9,16.6,9c9.2,0,16.6-4,16.6-9C33.3,35.7,29.4,32.6,23.8,31.2z M39.5,46.6
			c0.1-1.3,0.2-2.2,0.6-3.2c1.7,0.8,4,1.2,5.7,1.2c2.9,0,4.5-0.9,4.5-2.8c0-1.8-1.2-2.7-4.1-3.9l-1.6-0.7c-2.9-1.3-4.9-2.9-4.9-6.2
			c0-3.6,2.5-5.8,7.5-5.8c2,0,3.9,0.3,5.7,0.9c-0.1,1.2-0.3,2.2-0.6,3.1c-1.7-0.6-3.7-0.9-5.1-0.9c-2.7,0-4,1.1-4,2.7
			c0,1.6,1.2,2.6,3.4,3.5l1.7,0.7c4,1.7,5.6,3.5,5.6,6.5c0,3.6-2.7,6.1-8,6.1C43.4,47.8,41.3,47.4,39.5,46.6z M70.7,31.6v15.6h-3.2
			l-0.2-1.9c-0.9,1.4-2.2,2.2-4.4,2.2c-4.1,0-6.9-3-6.9-8.2c0-5.5,2.9-8.6,8.7-8.6C67.1,30.8,68.9,31,70.7,31.6z M67.3,43.7v-9.8
			c-0.7-0.1-1.5-0.2-2.5-0.2c-3.6,0-5.2,2.2-5.2,5.7c0,3.2,1.3,5.4,4.3,5.4C65.3,44.8,66.4,44.4,67.3,43.7z M88.3,36.8v10.5h-3.4
			v-9.9c0-2.5-0.8-3.7-4.2-3.7c-0.8,0-1.8,0.1-2.7,0.2v13.3h-3.4V31.6c2.2-0.5,4.6-0.9,6.2-0.9C86.5,30.8,88.3,33,88.3,36.8z
			 M97.9,44.7c1,0,1.9-0.2,2.7-0.5c-0.1,0.9-0.2,2-0.4,2.9c-0.9,0.4-1.9,0.5-2.9,0.5c-3.3,0-5.5-1.5-5.5-5.3V25.9
			c1.1-0.3,2.4-0.5,3.4-0.5v5.9h5.4c-0.1,1.1-0.2,2-0.3,2.9h-5.1v7.7C95.2,43.9,96.2,44.7,97.9,44.7z M116.3,31.6v15.6h-3.2
			l-0.2-1.9c-0.9,1.4-2.2,2.2-4.4,2.2c-4.1,0-6.9-3-6.9-8.2c0-5.5,2.9-8.6,8.7-8.6C112.6,30.8,114.5,31,116.3,31.6z M112.9,43.7
			v-9.8c-0.7-0.1-1.5-0.2-2.5-0.2c-3.6,0-5.2,2.2-5.2,5.7c0,3.2,1.3,5.4,4.3,5.4C110.9,44.8,111.9,44.4,112.9,43.7z M133.9,36.8
			v10.5h-3.4v-9.9c0-2.5-0.8-3.7-4.2-3.7c-0.8,0-1.8,0.1-2.7,0.2v13.3H120V31.6c2.2-0.5,4.6-0.9,6.2-0.9
			C132,30.8,133.9,33,133.9,36.8z M151.3,25.4v21.9h-3.2l-0.2-2c-0.9,1.5-2.2,2.4-4.5,2.4c-4.1,0-6.9-3-6.9-8.2
			c0-5.5,2.9-8.6,8.7-8.6c0.9,0,1.7,0.1,2.6,0.2v-5.2C149,25.5,150.2,25.4,151.3,25.4z M147.9,43.6V34c-0.9-0.2-1.8-0.3-2.7-0.3
			c-3.4,0-5,2.1-5,5.7c0,3.2,1.3,5.4,4.3,5.4C145.8,44.8,147,44.4,147.9,43.6z M168.6,40.6h-11c0.4,2.8,2.1,4.1,5.1,4.1
			c1.9,0,3.8-0.4,5.5-1.2c-0.1,0.9-0.3,2.1-0.5,3.1c-1.6,0.7-3.2,1-5.1,1c-5.7,0-8.5-3.2-8.5-8.5c0-4.7,2.2-8.3,7.6-8.3
			c4.9,0,7,3.2,7,7.2C168.8,38.9,168.7,39.7,168.6,40.6z M157.6,37.7h7.7c0-2.6-1.4-4.1-3.7-4.1C159.1,33.6,157.8,35,157.6,37.7z
			 M180.6,30.9c0,1-0.1,2.3-0.3,2.9c-0.8-0.1-1.6-0.1-2.6-0.1c-0.8,0-1.7,0.1-2.5,0.2v13.4h-3.4V31.6c1.5-0.5,3.9-0.9,5.9-0.9
			C178.7,30.8,179.9,30.8,180.6,30.9z"/>
		<path class="st4" d="M186.2,25.3c-0.5-0.5-1.2-0.8-1.9-0.8c-0.7,0-1.4,0.3-1.9,0.8c-0.5,0.5-0.8,1.2-0.8,1.9
			c0,0.7,0.3,1.4,0.8,1.9c0.5,0.5,1.2,0.8,1.9,0.8c0.7,0,1.4-0.3,1.9-0.8c0.5-0.5,0.8-1.2,0.8-1.9C187,26.4,186.7,25.8,186.2,25.3z
			 M186,28.8c-0.5,0.5-1.1,0.7-1.7,0.7c-0.6,0-1.2-0.2-1.7-0.7c-0.4-0.5-0.7-1-0.7-1.7c0-0.6,0.3-1.2,0.7-1.7c0.4-0.4,1-0.7,1.6-0.7
			c0.7,0,1.2,0.2,1.7,0.7c0.4,0.4,0.7,1,0.7,1.7C186.7,27.8,186.4,28.4,186,28.8z"/>
		<g>
			<path class="st4" d="M184.3,27.4l-0.4,0l0,1l-0.4,0l0-2.7c0.2,0,0.5-0.1,0.7-0.1c0.8,0,1.1,0.4,1.1,0.8c0,0.4-0.2,0.7-0.6,0.8
				l0.7,1.1l-0.5,0L184.3,27.4z M184.2,27.1c0.5,0,0.7-0.2,0.7-0.5c0-0.3-0.2-0.5-0.6-0.5c-0.1,0-0.2,0-0.3,0l0,1L184.2,27.1z"/>
		</g>
	</g>
</g>
<g id="Capa_3">
</g>
<g id="Capa_4">
</g>
<g id="Capa_5">
</g>
<g id="Capa_6">
</g>
<g id="Capa_7">
</g>
<g id="Capa_8">
</g>
<g id="Capa_9">
</g>
<g id="Capa_10">
</g>
</svg>
