<!--?xml version="1.0" encoding="UTF-8"?-->
<svg width="150px" height="104px" viewBox="0 0 150 104" version="1.1" xmlns="http://www.w3.org/2000/svg" xmlns:xlink="http://www.w3.org/1999/xlink" class="" style="">
    <!-- Generator: Sketch 49 (51002) - http://www.bohemiancoding.com/sketch -->
    <title>ilustracion-4a</title>
    <desc>Created with Sketch.</desc>
    <defs></defs>
    <g id="ilustracion-4a" stroke="none" stroke-width="1" fill="none" fill-rule="evenodd">
        <g id="ilustracion1" transform="translate(0.000000, 8.000000)" stroke="#FF9400" stroke-width="3.25203252">
            <path d="M38.5360163,25.8118259 C40.2441463,29.0710852 43.1620325,31.5913074 46.6925203,32.7760481" id="Stroke-150" class="bUBMQCSz_0"></path>
            <path d="M71.7327642,40.1649926 C73.9286992,37.637437 75.2612195,34.3370296 75.2612195,30.7225111 C75.2612195,24.3734741 71.156748,18.988363 65.4628455,17.0780296 C64.4681301,10.1036222 58.4864228,4.74132593 51.2526829,4.74132593 C47.2742276,4.74132593 43.6742276,6.36362222 41.0738211,8.98325185" id="Stroke-151" class="bUBMQCSz_1"></path>
            <path d="M51.2527236,33.5216037 C49.6580081,33.5216037 48.1258943,33.2571963 46.692561,32.7760481" id="Stroke-152" class="bUBMQCSz_2"></path>
            <path d="M53.621626,52.8627 C55.6033333,54.4968111 58.1407317,55.4782556 60.9073984,55.4782556 C67.2443902,55.4782556 72.3813821,50.3298481 72.3813821,43.9783667 C72.3813821,42.6412556 72.1513008,41.358737 71.7326016,40.1650333" id="Stroke-153" class="bUBMQCSz_3"></path>
            <path d="M71.7327642,40.1649926 C70.1628455,35.6888074 65.91,32.478437 60.9071545,32.478437" id="Stroke-154" class="bUBMQCSz_4"></path>
            <path d="M49.4328049,43.9784889 C49.4328049,47.5571556 51.0641057,50.7536741 53.6214228,52.8628222" id="Stroke-155" class="bUBMQCSz_5"></path>
            <path d="M41.0738618,8.98329259 C38.9697967,6.39503333 35.7657317,4.74136667 32.1746748,4.74136667 C29.0832114,4.74136667 26.2791463,5.96888519 24.2161382,7.96151481 C23.340935,7.74762593 22.4275203,7.63151481 21.4868699,7.63151481 C15.6576016,7.63151481 10.8437805,11.9883296 10.1096341,17.6305148 L10.0271138,18.5545148 C4.37386179,19.2682926 -0.00012195122,24.1005519 -0.00012195122,29.9602926 C-0.00012195122,33.0940704 1.25231707,35.9341074 3.28117886,38.0082185 C2.76776423,39.3135519 2.48280488,40.7341815 2.48280488,42.2224407 C2.48280488,48.5735148 7.61979675,53.7223296 13.9567886,53.7223296 C15.1722358,53.7223296 16.342561,53.531663 17.441748,53.1804778" id="Stroke-156" class="bUBMQCSz_6"></path>
            <path d="M38.5360163,25.8118259 C37.4896748,23.8151222 36.8945528,21.5434185 36.8945528,19.1315667 C36.8945528,15.1711593 38.4913008,11.5851593 41.0738211,8.98345556" id="Stroke-157" class="bUBMQCSz_7"></path>
            <path d="M41.0738618,8.98329259 C38.490935,11.5854037 36.8945935,15.1714037 36.8945935,19.1314037 C36.8945935,21.5432556 37.4893089,23.8149593 38.5360569,25.811663" id="Stroke-158" class="bUBMQCSz_8"></path>
            <path d="M32.8329268,36.2645148 C30.9207317,38.3822185 28.2321138,39.7792185 25.2174797,40.0122556" id="Stroke-159" class="bUBMQCSz_9"></path>
            <path d="M17.441748,53.1806815 C19.3592276,54.6233111 21.741748,55.4784593 24.3234553,55.4784593 C27.796626,55.4784593 30.9067886,53.9299037 33.0108537,51.4862741 C34.5893089,55.3965704 38.2486585,58.2394593 42.6141057,58.6305704 C42.9551626,58.6615333 43.3002846,58.6770148 43.649065,58.6770148 C47.9222358,58.6770148 51.646626,56.3344222 53.6214228,52.8624963 C51.0641057,50.7537556 49.4328049,47.557237 49.4328049,43.9785704" id="Stroke-160" class="bUBMQCSz_10"></path>
            <path d="M25.2173984,40.0123778 C25.3564228,40.7277852 25.4312195,41.4664148 25.4312195,42.222563 C25.4312195,47.3558963 22.0747154,51.7021185 17.4417886,53.1806" id="Stroke-161" class="bUBMQCSz_11"></path>
            <path d="M25.2173984,40.0123778 C24.7804065,37.7626741 23.3613008,34.3579704 19.4409756,32.2256" id="Stroke-162" class="bUBMQCSz_12"></path>
            <path d="M113.113943,54.373 C114.822073,57.6322593 117.739959,60.1524815 121.270447,61.3372222" id="Stroke-163" class="bUBMQCSz_13"></path>
            <path d="M146.310691,68.7262074 C148.506626,66.1986519 149.839146,62.8982444 149.839146,59.2837259 C149.839146,52.9346889 145.734675,47.5495778 140.040772,45.6392444 C139.046057,38.664837 133.06435,33.3025407 125.83061,33.3025407 C121.852154,33.3025407 118.252154,34.924837 115.651748,37.5444667" id="Stroke-164" class="bUBMQCSz_14"></path>
            <path d="M125.83065,62.0827778 C124.235935,62.0827778 122.703821,61.8183704 121.270488,61.3372222" id="Stroke-165" class="bUBMQCSz_15"></path>
            <path d="M128.199553,81.4238741 C130.18126,83.0579852 132.718659,84.0394296 135.485325,84.0394296 C141.822317,84.0394296 146.959309,78.8910222 146.959309,72.5395407 C146.959309,71.2024296 146.729228,69.9199111 146.310528,68.7262074" id="Stroke-166" class="bUBMQCSz_16"></path>
            <path d="M146.310691,68.7262074 C144.740772,64.2500222 140.487927,61.0396519 135.485081,61.0396519" id="Stroke-167" class="bUBMQCSz_17"></path>
            <path d="M124.010732,72.539663 C124.010732,76.1183296 125.642033,79.3148481 128.19935,81.4239963" id="Stroke-168" class="bUBMQCSz_18"></path>
            <path d="M115.651789,37.5445074 C113.547724,34.9562481 110.343659,33.3025815 106.752602,33.3025815 C103.661138,33.3025815 100.857073,34.5301 98.794065,36.5227296 C97.9188618,36.3088407 97.0054472,36.1927296 96.0647967,36.1927296 C90.2355285,36.1927296 85.4217073,40.5495444 84.687561,46.1917296 L84.6050407,47.1157296 C78.9517886,47.8295074 74.5778049,52.6617667 74.5778049,58.5215074 C74.5778049,61.6552852 75.8302439,64.4953222 77.8591057,66.5694333 C77.3456911,67.8747667 77.0607317,69.2953963 77.0607317,70.7836556 C77.0607317,77.1347296 82.1977236,82.2835444 88.5347154,82.2835444 C89.7501626,82.2835444 90.9204878,82.0928778 92.0196748,81.7416926" id="Stroke-169" class="bUBMQCSz_19"></path>
            <path d="M113.113943,54.373 C112.067602,52.3762963 111.47248,50.1045926 111.47248,47.6927407 C111.47248,43.7323333 113.069228,40.1463333 115.651748,37.5446296" id="Stroke-170" class="bUBMQCSz_20"></path>
            <path d="M115.651789,37.5445074 C113.068862,40.1466185 111.47252,43.7326185 111.47252,47.6926185 C111.47252,50.1044704 112.067236,52.3761741 113.113984,54.3728778" id="Stroke-171" class="bUBMQCSz_21"></path>
            <path d="M107.410854,64.8257296 C105.498659,66.9434333 102.810041,68.3404333 99.7954065,68.5734704" id="Stroke-172" class="bUBMQCSz_22"></path>
            <path d="M92.0196748,81.7418963 C93.9371545,83.1845259 96.3196748,84.0396741 98.9013821,84.0396741 C102.374553,84.0396741 105.484715,82.4911185 107.58878,80.0474889 C109.167236,83.9577852 112.826585,86.8006741 117.192033,87.1917852 C117.533089,87.2227481 117.878211,87.2382296 118.226992,87.2382296 C122.500163,87.2382296 126.224553,84.895637 128.19935,81.4237111 C125.642033,79.3149704 124.010732,76.1184519 124.010732,72.5397852" id="Stroke-173" class="bUBMQCSz_23"></path>
            <path d="M99.7953252,68.5735519 C99.9343496,69.2889593 100.009146,70.0275889 100.009146,70.783737 C100.009146,75.9170704 96.6526423,80.2632926 92.0197154,81.7417741" id="Stroke-174" class="bUBMQCSz_24"></path>
            <path d="M99.7953252,68.5735519 C99.3583333,66.3238481 97.9392276,62.9191444 94.0189024,60.7867741" id="Stroke-175" class="bUBMQCSz_25"></path>
            <path d="M73.4936992,81.9418111 L53.321748,81.9418111 C47.0579268,81.9418111 41.9802846,76.8528852 41.9802846,70.5751444 L41.9802846,59.7381074" id="Stroke-176" class="bUBMQCSz_26"></path>
            <path id="Stroke-177" d="M69.5581707,87.9013259L73.4935366,81.9417704L69.583374,75.4049185" class="bUBMQCSz_27"></path>
            <path id="Stroke-178" d="M85.2456098,34.264063L81.3102439,28.3045074L85.2204065,21.7676556" class="bUBMQCSz_28"></path>
            <path d="M115.651789,36.1189074 L115.651789,6.55172222 C115.651789,3.05087037 112.820081,0.213277778 109.327398,0.213277778 L100.707886,0.213277778 C97.0135772,0.213277778 94.0188618,3.21464815 94.0188618,6.91716667 L94.0188618,21.996537 C94.0188618,25.3466481 91.3091057,28.0620185 87.9668293,28.0620185 L83.0371545,28.0620185" id="Stroke-179" class="bUBMQCSz_29"></path>
        </g>
    </g>
<style data-made-with="vivus-instant">.bUBMQCSz_0{stroke-dasharray:11 13;stroke-dashoffset:12;}.start .bUBMQCSz_0{animation:bUBMQCSz_draw 26ms ease 0ms forwards;}.bUBMQCSz_1{stroke-dasharray:61 63;stroke-dashoffset:62;}.start .bUBMQCSz_1{animation:bUBMQCSz_draw 137ms ease 26ms forwards;}.bUBMQCSz_2{stroke-dasharray:5 7;stroke-dashoffset:6;}.start .bUBMQCSz_2{animation:bUBMQCSz_draw 13ms ease 163ms forwards;}.bUBMQCSz_3{stroke-dasharray:30 32;stroke-dashoffset:31;}.start .bUBMQCSz_3{animation:bUBMQCSz_draw 68ms ease 176ms forwards;}.bUBMQCSz_4{stroke-dasharray:15 17;stroke-dashoffset:16;}.start .bUBMQCSz_4{animation:bUBMQCSz_draw 35ms ease 245ms forwards;}.bUBMQCSz_5{stroke-dasharray:11 13;stroke-dashoffset:12;}.start .bUBMQCSz_5{animation:bUBMQCSz_draw 26ms ease 280ms forwards;}.bUBMQCSz_6{stroke-dasharray:91 93;stroke-dashoffset:92;}.start .bUBMQCSz_6{animation:bUBMQCSz_draw 203ms ease 307ms forwards;}.bUBMQCSz_7{stroke-dasharray:19 21;stroke-dashoffset:20;}.start .bUBMQCSz_7{animation:bUBMQCSz_draw 44ms ease 511ms forwards;}.bUBMQCSz_8{stroke-dasharray:19 21;stroke-dashoffset:20;}.start .bUBMQCSz_8{animation:bUBMQCSz_draw 44ms ease 555ms forwards;}.bUBMQCSz_9{stroke-dasharray:9 11;stroke-dashoffset:10;}.start .bUBMQCSz_9{animation:bUBMQCSz_draw 22ms ease 599ms forwards;}.bUBMQCSz_10{stroke-dasharray:54 56;stroke-dashoffset:55;}.start .bUBMQCSz_10{animation:bUBMQCSz_draw 121ms ease 621ms forwards;}.bUBMQCSz_11{stroke-dasharray:17 19;stroke-dashoffset:18;}.start .bUBMQCSz_11{animation:bUBMQCSz_draw 39ms ease 743ms forwards;}.bUBMQCSz_12{stroke-dasharray:11 13;stroke-dashoffset:12;}.start .bUBMQCSz_12{animation:bUBMQCSz_draw 26ms ease 783ms forwards;}.bUBMQCSz_13{stroke-dasharray:11 13;stroke-dashoffset:12;}.start .bUBMQCSz_13{animation:bUBMQCSz_draw 26ms ease 809ms forwards;}.bUBMQCSz_14{stroke-dasharray:61 63;stroke-dashoffset:62;}.start .bUBMQCSz_14{animation:bUBMQCSz_draw 137ms ease 836ms forwards;}.bUBMQCSz_15{stroke-dasharray:5 7;stroke-dashoffset:6;}.start .bUBMQCSz_15{animation:bUBMQCSz_draw 13ms ease 973ms forwards;}.bUBMQCSz_16{stroke-dasharray:30 32;stroke-dashoffset:31;}.start .bUBMQCSz_16{animation:bUBMQCSz_draw 68ms ease 986ms forwards;}.bUBMQCSz_17{stroke-dasharray:15 17;stroke-dashoffset:16;}.start .bUBMQCSz_17{animation:bUBMQCSz_draw 35ms ease 1055ms forwards;}.bUBMQCSz_18{stroke-dasharray:11 13;stroke-dashoffset:12;}.start .bUBMQCSz_18{animation:bUBMQCSz_draw 26ms ease 1090ms forwards;}.bUBMQCSz_19{stroke-dasharray:91 93;stroke-dashoffset:92;}.start .bUBMQCSz_19{animation:bUBMQCSz_draw 203ms ease 1117ms forwards;}.bUBMQCSz_20{stroke-dasharray:19 21;stroke-dashoffset:20;}.start .bUBMQCSz_20{animation:bUBMQCSz_draw 44ms ease 1320ms forwards;}.bUBMQCSz_21{stroke-dasharray:19 21;stroke-dashoffset:20;}.start .bUBMQCSz_21{animation:bUBMQCSz_draw 44ms ease 1365ms forwards;}.bUBMQCSz_22{stroke-dasharray:9 11;stroke-dashoffset:10;}.start .bUBMQCSz_22{animation:bUBMQCSz_draw 22ms ease 1409ms forwards;}.bUBMQCSz_23{stroke-dasharray:54 56;stroke-dashoffset:55;}.start .bUBMQCSz_23{animation:bUBMQCSz_draw 121ms ease 1431ms forwards;}.bUBMQCSz_24{stroke-dasharray:17 19;stroke-dashoffset:18;}.start .bUBMQCSz_24{animation:bUBMQCSz_draw 39ms ease 1553ms forwards;}.bUBMQCSz_25{stroke-dasharray:11 13;stroke-dashoffset:12;}.start .bUBMQCSz_25{animation:bUBMQCSz_draw 26ms ease 1592ms forwards;}.bUBMQCSz_26{stroke-dasharray:49 51;stroke-dashoffset:50;}.start .bUBMQCSz_26{animation:bUBMQCSz_draw 110ms ease 1619ms forwards;}.bUBMQCSz_27{stroke-dasharray:15 17;stroke-dashoffset:16;}.start .bUBMQCSz_27{animation:bUBMQCSz_draw 35ms ease 1730ms forwards;}.bUBMQCSz_28{stroke-dasharray:15 17;stroke-dashoffset:16;}.start .bUBMQCSz_28{animation:bUBMQCSz_draw 35ms ease 1765ms forwards;}.bUBMQCSz_29{stroke-dasharray:89 91;stroke-dashoffset:90;}.start .bUBMQCSz_29{animation:bUBMQCSz_draw 199ms ease 1800ms forwards;}@keyframes bUBMQCSz_draw{100%{stroke-dashoffset:0;}}@keyframes bUBMQCSz_fade{0%{stroke-opacity:1;}93.54838709677419%{stroke-opacity:1;}100%{stroke-opacity:0;}}</style></svg>