<!--?xml version="1.0" encoding="UTF-8"?-->
<svg width="125px" height="140px" viewBox="0 0 125 140" version="1.1" xmlns="http://www.w3.org/2000/svg" xmlns:xlink="http://www.w3.org/1999/xlink" style="">
    <!-- Generator: Sketch 49 (51002) - http://www.bohemiancoding.com/sketch -->
    <title>ilustracion-2a</title>
    <desc>Created with Sketch.</desc>
    <defs></defs>
    <g id="ilustracion-2a" stroke="none" stroke-width="1" fill="none" fill-rule="evenodd">
        <g id="ilustracion2" transform="translate(3.000000, 4.000000)">
            <path d="M75.7463691,66.4968676 C75.7463691,75.1618946 68.7013906,82.1857324 60.0114335,82.1857324 C51.3209614,82.1857324 44.2759828,75.1618946 44.2759828,66.4968676 C44.2759828,57.8318405 51.3209614,50.8080027 60.0114335,50.8080027 C68.7013906,50.8080027 75.7463691,57.8318405 75.7463691,66.4968676" id="Fill-101" fill="#FF9400" class="fYubZyzR_0"></path>
            <path d="M88.8094249,66.4968676 C88.8094249,82.3551919 75.9158627,95.2110027 60.01097,95.2110027 C44.1065923,95.2110027 31.21303,82.3551919 31.21303,66.4968676 C31.21303,50.6385432 44.1065923,37.7827324 60.01097,37.7827324 C75.9158627,37.7827324 88.8094249,50.6385432 88.8094249,66.4968676 Z" id="Stroke-103" stroke="#FF9400" stroke-width="4.12017167" class="fYubZyzR_1"></path>
            <path d="M117.291502,66.4968676 C117.291502,98.0394351 91.6460086,123.609327 60.0113305,123.609327 C28.3761373,123.609327 2.73064378,98.0394351 2.73064378,66.4968676 C2.73064378,34.9543 28.3761373,9.38440811 60.0113305,9.38440811 C91.6460086,9.38440811 117.291502,34.9543 117.291502,66.4968676 Z" id="Stroke-105" stroke="#FF9400" stroke-width="4.12017167" class="fYubZyzR_2"></path>
            <path d="M60.011176,18.7685081 L60.011176,37.7828865" id="Stroke-107" stroke="#FF9400" stroke-width="4.12017167" class="fYubZyzR_3"></path>
            <path d="M101.703348,43.0463486 L85.0939056,52.3887" id="Stroke-109" stroke="#FF9400" stroke-width="4.12017167" class="fYubZyzR_4"></path>
            <path d="M102.480979,88.5163784 L85.5614936,79.744027" id="Stroke-111" stroke="#FF9400" stroke-width="4.12017167" class="fYubZyzR_5"></path>
            <path d="M59.9257339,114.225176 L59.9597253,95.2107973" id="Stroke-113" stroke="#FF9400" stroke-width="4.12017167" class="fYubZyzR_6"></path>
            <path d="M17.4679313,88.3749568 L34.4167725,79.6590919" id="Stroke-115" stroke="#FF9400" stroke-width="4.12017167" class="fYubZyzR_7"></path>
            <path d="M18.7850987,42.2410054 L35.209133,51.9043027" id="Stroke-117" stroke="#FF9400" stroke-width="4.12017167" class="fYubZyzR_8"></path>
            <path d="M69.4229871,9.38430541 C69.4229871,14.5671973 65.2090815,18.7687649 60.01097,18.7687649 C54.8133734,18.7687649 50.5994678,14.5671973 50.5994678,9.38430541 C50.5994678,4.20141351 54.8133734,-0.000154054054 60.01097,-0.000154054054 C65.2090815,-0.000154054054 69.4229871,4.20141351 69.4229871,9.38430541" id="Fill-119" fill="#FFFFFF" class="fYubZyzR_9"></path>
            <path d="M69.4229871,9.38430541 C69.4229871,14.5671973 65.2090815,18.7687649 60.01097,18.7687649 C54.8133734,18.7687649 50.5994678,14.5671973 50.5994678,9.38430541 C50.5994678,4.20141351 54.8133734,-0.000154054054 60.01097,-0.000154054054 C65.2090815,-0.000154054054 69.4229871,4.20141351 69.4229871,9.38430541 Z" id="Stroke-121" stroke="#FF9400" stroke-width="4.12017167" class="fYubZyzR_10"></path>
            <path d="M114.666335,46.9982459 C110.120755,49.5124081 104.392172,47.8763541 101.870627,43.3440838 C99.3490815,38.812327 100.98994,33.1000027 105.535004,30.5858405 C110.080584,28.0716784 115.809682,29.7077324 118.331227,34.2400027 C120.852773,38.7717595 119.211914,44.4840838 114.666335,46.9982459" id="Fill-123" fill="#FFFFFF" class="fYubZyzR_11"></path>
            <path d="M114.666335,46.9982459 C110.120755,49.5124081 104.392172,47.8763541 101.870627,43.3440838 C99.3490815,38.812327 100.98994,33.1000027 105.535004,30.5858405 C110.080584,28.0716784 115.809682,29.7077324 118.331227,34.2400027 C120.852773,38.7717595 119.211914,44.4840838 114.666335,46.9982459 Z" id="Stroke-125" stroke="#FF9400" stroke-width="4.12017167" class="fYubZyzR_12"></path>
            <path d="M105.118403,101.427803 C100.708275,98.6841 99.3640687,92.8957757 102.115828,88.4985595 C104.867588,84.1013432 110.673425,82.761073 115.083039,85.5047757 C119.493167,88.2484784 120.837373,94.0373162 118.085614,98.4340189 C115.333854,102.831235 109.528532,104.171505 105.118403,101.427803" id="Fill-127" fill="#FFFFFF" class="fYubZyzR_13"></path>
            <path d="M105.118403,101.427803 C100.708275,98.6841 99.3640687,92.8957757 102.115828,88.4985595 C104.867588,84.1013432 110.673425,82.761073 115.083039,85.5047757 C119.493167,88.2484784 120.837373,94.0373162 118.085614,98.4340189 C115.333854,102.831235 109.528532,104.171505 105.118403,101.427803 Z" id="Stroke-129" stroke="#FF9400" stroke-width="4.12017167" class="fYubZyzR_14"></path>
            <path d="M50.5313305,123.598286 C50.5375107,118.415395 54.7565665,114.218962 59.9541631,114.225124 C65.1522747,114.231286 69.36103,118.437989 69.3548498,123.620368 C69.3486695,128.803259 65.1301288,132.999692 59.9320172,132.99353 C54.7339056,132.987368 50.5251502,128.781178 50.5313305,123.598286" id="Fill-131" fill="#FFFFFF" class="fYubZyzR_15"></path>
            <path d="M50.5313305,123.598286 C50.5375107,118.415395 54.7565665,114.218962 59.9541631,114.225124 C65.1522747,114.231286 69.36103,118.437989 69.3548498,123.620368 C69.3486695,128.803259 65.1301288,132.999692 59.9320172,132.99353 C54.7339056,132.987368 50.5251502,128.781178 50.5313305,123.598286 Z" id="Stroke-133" stroke="#FF9400" stroke-width="4.12017167" class="fYubZyzR_16"></path>
            <path d="M5.12580258,85.341427 C9.70125322,82.8816973 15.4097511,84.5860486 17.8767039,89.1481027 C20.3436567,93.7096432 18.6343004,99.4019405 14.0593648,101.86167 C9.48391416,104.3214 3.77490129,102.617049 1.3079485,98.0549946 C-1.15900429,93.4934541 0.550351931,87.8011568 5.12580258,85.341427" id="Fill-135" fill="#FFFFFF" class="fYubZyzR_17"></path>
            <path d="M5.12580258,85.341427 C9.70125322,82.8816973 15.4097511,84.5860486 17.8767039,89.1481027 C20.3436567,93.7096432 18.6343004,99.4019405 14.0593648,101.86167 C9.48391416,104.3214 3.77490129,102.617049 1.3079485,98.0549946 C-1.15900429,93.4934541 0.550351931,87.8011568 5.12580258,85.341427 Z" id="Stroke-137" stroke="#FF9400" stroke-width="4.12017167" class="fYubZyzR_18"></path>
            <path d="M14.8651159,30.1147432 C19.3839142,32.6761486 20.96503,38.4049054 18.396103,42.910473 C15.827691,47.4160405 10.0815966,48.992527 5.56279828,46.4311216 C1.044,43.8702297 -0.53711588,38.1409595 2.03181116,33.6353919 C4.6007382,29.1298243 10.3463176,27.5533378 14.8651159,30.1147432" id="Fill-139" fill="#FFFFFF" class="fYubZyzR_19"></path>
            <path d="M14.8651159,30.1147432 C19.3839142,32.6761486 20.96503,38.4049054 18.396103,42.910473 C15.827691,47.4160405 10.0815966,48.992527 5.56279828,46.4311216 C1.044,43.8702297 -0.53711588,38.1409595 2.03181116,33.6353919 C4.6007382,29.1298243 10.3463176,27.5533378 14.8651159,30.1147432 Z" id="Stroke-141" stroke="#FF9400" stroke-width="4.12017167" class="fYubZyzR_20"></path>
            <path id="Fill-143" fill="#FF9400" d="M57.0927039,12.294027L62.9294421,12.294027L62.9294421,6.47437838L57.0927039,6.47437838Z" class="fYubZyzR_21"></path>
            <path id="Fill-145" fill="#FF9400" d="M108.964378,42.7482541L106.13279,37.6588216L111.237167,34.8360378L114.068755,39.9249568Z" class="fYubZyzR_22"></path>
            <path id="Fill-146" fill="#FF9400" d="M106.079794,94.3946703L109.169923,89.4572378L114.121854,92.5383189L111.031725,97.4757514Z" class="fYubZyzR_23"></path>
            <path id="Fill-147" fill="#FF9400" d="M57.1784549,120.55387L63.0074678,120.852735L62.7077253,126.665195L56.8787124,126.365816Z" class="fYubZyzR_24"></path>
            <path id="Fill-148" fill="#FF9400" d="M10.931176,89.7088081L13.4964979,94.9363757L8.2535794,97.4941865L5.68825751,92.2666189Z" class="fYubZyzR_25"></path>
            <path id="Fill-149" fill="#FF9400" d="M14.2774764,37.5518568L10.9370472,42.3244514L6.15043777,38.9943162L9.49086695,34.2212081Z" class="fYubZyzR_26"></path>
        </g>
    </g>
<style data-made-with="vivus-instant">.fYubZyzR_0{stroke-dasharray:99 101;stroke-dashoffset:100;animation:fYubZyzR_draw_0 6200ms ease-in 0ms infinite,fYubZyzR_fade 6200ms linear 0ms infinite;}.fYubZyzR_1{stroke-dasharray:181 183;stroke-dashoffset:182;animation:fYubZyzR_draw_1 6200ms ease-in 0ms infinite,fYubZyzR_fade 6200ms linear 0ms infinite;}.fYubZyzR_2{stroke-dasharray:360 362;stroke-dashoffset:361;animation:fYubZyzR_draw_2 6200ms ease-in 0ms infinite,fYubZyzR_fade 6200ms linear 0ms infinite;}.fYubZyzR_3{stroke-dasharray:20 22;stroke-dashoffset:21;animation:fYubZyzR_draw_3 6200ms ease-in 0ms infinite,fYubZyzR_fade 6200ms linear 0ms infinite;}.fYubZyzR_4{stroke-dasharray:20 22;stroke-dashoffset:21;animation:fYubZyzR_draw_4 6200ms ease-in 0ms infinite,fYubZyzR_fade 6200ms linear 0ms infinite;}.fYubZyzR_5{stroke-dasharray:20 22;stroke-dashoffset:21;animation:fYubZyzR_draw_5 6200ms ease-in 0ms infinite,fYubZyzR_fade 6200ms linear 0ms infinite;}.fYubZyzR_6{stroke-dasharray:20 22;stroke-dashoffset:21;animation:fYubZyzR_draw_6 6200ms ease-in 0ms infinite,fYubZyzR_fade 6200ms linear 0ms infinite;}.fYubZyzR_7{stroke-dasharray:20 22;stroke-dashoffset:21;animation:fYubZyzR_draw_7 6200ms ease-in 0ms infinite,fYubZyzR_fade 6200ms linear 0ms infinite;}.fYubZyzR_8{stroke-dasharray:20 22;stroke-dashoffset:21;animation:fYubZyzR_draw_8 6200ms ease-in 0ms infinite,fYubZyzR_fade 6200ms linear 0ms infinite;}.fYubZyzR_9{stroke-dasharray:60 62;stroke-dashoffset:61;animation:fYubZyzR_draw_9 6200ms ease-in 0ms infinite,fYubZyzR_fade 6200ms linear 0ms infinite;}.fYubZyzR_10{stroke-dasharray:60 62;stroke-dashoffset:61;animation:fYubZyzR_draw_10 6200ms ease-in 0ms infinite,fYubZyzR_fade 6200ms linear 0ms infinite;}.fYubZyzR_11{stroke-dasharray:60 62;stroke-dashoffset:61;animation:fYubZyzR_draw_11 6200ms ease-in 0ms infinite,fYubZyzR_fade 6200ms linear 0ms infinite;}.fYubZyzR_12{stroke-dasharray:60 62;stroke-dashoffset:61;animation:fYubZyzR_draw_12 6200ms ease-in 0ms infinite,fYubZyzR_fade 6200ms linear 0ms infinite;}.fYubZyzR_13{stroke-dasharray:60 62;stroke-dashoffset:61;animation:fYubZyzR_draw_13 6200ms ease-in 0ms infinite,fYubZyzR_fade 6200ms linear 0ms infinite;}.fYubZyzR_14{stroke-dasharray:60 62;stroke-dashoffset:61;animation:fYubZyzR_draw_14 6200ms ease-in 0ms infinite,fYubZyzR_fade 6200ms linear 0ms infinite;}.fYubZyzR_15{stroke-dasharray:60 62;stroke-dashoffset:61;animation:fYubZyzR_draw_15 6200ms ease-in 0ms infinite,fYubZyzR_fade 6200ms linear 0ms infinite;}.fYubZyzR_16{stroke-dasharray:60 62;stroke-dashoffset:61;animation:fYubZyzR_draw_16 6200ms ease-in 0ms infinite,fYubZyzR_fade 6200ms linear 0ms infinite;}.fYubZyzR_17{stroke-dasharray:60 62;stroke-dashoffset:61;animation:fYubZyzR_draw_17 6200ms ease-in 0ms infinite,fYubZyzR_fade 6200ms linear 0ms infinite;}.fYubZyzR_18{stroke-dasharray:60 62;stroke-dashoffset:61;animation:fYubZyzR_draw_18 6200ms ease-in 0ms infinite,fYubZyzR_fade 6200ms linear 0ms infinite;}.fYubZyzR_19{stroke-dasharray:60 62;stroke-dashoffset:61;animation:fYubZyzR_draw_19 6200ms ease-in 0ms infinite,fYubZyzR_fade 6200ms linear 0ms infinite;}.fYubZyzR_20{stroke-dasharray:60 62;stroke-dashoffset:61;animation:fYubZyzR_draw_20 6200ms ease-in 0ms infinite,fYubZyzR_fade 6200ms linear 0ms infinite;}.fYubZyzR_21{stroke-dasharray:24 26;stroke-dashoffset:25;animation:fYubZyzR_draw_21 6200ms ease-in 0ms infinite,fYubZyzR_fade 6200ms linear 0ms infinite;}.fYubZyzR_22{stroke-dasharray:24 26;stroke-dashoffset:25;animation:fYubZyzR_draw_22 6200ms ease-in 0ms infinite,fYubZyzR_fade 6200ms linear 0ms infinite;}.fYubZyzR_23{stroke-dasharray:24 26;stroke-dashoffset:25;animation:fYubZyzR_draw_23 6200ms ease-in 0ms infinite,fYubZyzR_fade 6200ms linear 0ms infinite;}.fYubZyzR_24{stroke-dasharray:24 26;stroke-dashoffset:25;animation:fYubZyzR_draw_24 6200ms ease-in 0ms infinite,fYubZyzR_fade 6200ms linear 0ms infinite;}.fYubZyzR_25{stroke-dasharray:24 26;stroke-dashoffset:25;animation:fYubZyzR_draw_25 6200ms ease-in 0ms infinite,fYubZyzR_fade 6200ms linear 0ms infinite;}.fYubZyzR_26{stroke-dasharray:24 26;stroke-dashoffset:25;animation:fYubZyzR_draw_26 6200ms ease-in 0ms infinite,fYubZyzR_fade 6200ms linear 0ms infinite;}@keyframes fYubZyzR_draw{100%{stroke-dashoffset:0;}}@keyframes fYubZyzR_fade{0%{stroke-opacity:1;}93.54838709677419%{stroke-opacity:1;}100%{stroke-opacity:0;}}@keyframes fYubZyzR_draw_0{12.903225806451612%{stroke-dashoffset: 100}14.85707586799789%{ stroke-dashoffset: 0;}100%{ stroke-dashoffset: 0;}}@keyframes fYubZyzR_draw_1{14.85707586799789%{stroke-dashoffset: 182}18.41308298001211%{ stroke-dashoffset: 0;}100%{ stroke-dashoffset: 0;}}@keyframes fYubZyzR_draw_2{18.413082980012117%{stroke-dashoffset: 361}25.466481702194177%{ stroke-dashoffset: 0;}100%{ stroke-dashoffset: 0;}}@keyframes fYubZyzR_draw_3{25.466481702194173%{stroke-dashoffset: 21}25.876790215118888%{ stroke-dashoffset: 0;}100%{ stroke-dashoffset: 0;}}@keyframes fYubZyzR_draw_4{25.876790215118895%{stroke-dashoffset: 21}26.287098728043613%{ stroke-dashoffset: 0;}100%{ stroke-dashoffset: 0;}}@keyframes fYubZyzR_draw_5{26.287098728043613%{stroke-dashoffset: 21}26.697407240968328%{ stroke-dashoffset: 0;}100%{ stroke-dashoffset: 0;}}@keyframes fYubZyzR_draw_6{26.697407240968328%{stroke-dashoffset: 21}27.107715753893046%{ stroke-dashoffset: 0;}100%{ stroke-dashoffset: 0;}}@keyframes fYubZyzR_draw_7{27.107715753893046%{stroke-dashoffset: 21}27.518024266817765%{ stroke-dashoffset: 0;}100%{ stroke-dashoffset: 0;}}@keyframes fYubZyzR_draw_8{27.518024266817765%{stroke-dashoffset: 21}27.928332779742476%{ stroke-dashoffset: 0;}100%{ stroke-dashoffset: 0;}}@keyframes fYubZyzR_draw_9{27.928332779742483%{stroke-dashoffset: 61}29.12018131728571%{ stroke-dashoffset: 0;}100%{ stroke-dashoffset: 0;}}@keyframes fYubZyzR_draw_10{29.12018131728571%{stroke-dashoffset: 61}30.312029854828943%{ stroke-dashoffset: 0;}100%{ stroke-dashoffset: 0;}}@keyframes fYubZyzR_draw_11{30.312029854828943%{stroke-dashoffset: 61}31.50387839237217%{ stroke-dashoffset: 0;}100%{ stroke-dashoffset: 0;}}@keyframes fYubZyzR_draw_12{31.50387839237217%{stroke-dashoffset: 61}32.695726929915395%{ stroke-dashoffset: 0;}100%{ stroke-dashoffset: 0;}}@keyframes fYubZyzR_draw_13{32.695726929915395%{stroke-dashoffset: 61}33.887575467458625%{ stroke-dashoffset: 0;}100%{ stroke-dashoffset: 0;}}@keyframes fYubZyzR_draw_14{33.88757546745863%{stroke-dashoffset: 61}35.079424005001854%{ stroke-dashoffset: 0;}100%{ stroke-dashoffset: 0;}}@keyframes fYubZyzR_draw_15{35.079424005001854%{stroke-dashoffset: 61}36.27127254254508%{ stroke-dashoffset: 0;}100%{ stroke-dashoffset: 0;}}@keyframes fYubZyzR_draw_16{36.27127254254508%{stroke-dashoffset: 61}37.46312108008831%{ stroke-dashoffset: 0;}100%{ stroke-dashoffset: 0;}}@keyframes fYubZyzR_draw_17{37.46312108008831%{stroke-dashoffset: 61}38.65496961763154%{ stroke-dashoffset: 0;}100%{ stroke-dashoffset: 0;}}@keyframes fYubZyzR_draw_18{38.654969617631544%{stroke-dashoffset: 61}39.846818155174766%{ stroke-dashoffset: 0;}100%{ stroke-dashoffset: 0;}}@keyframes fYubZyzR_draw_19{39.84681815517477%{stroke-dashoffset: 61}41.038666692717996%{ stroke-dashoffset: 0;}100%{ stroke-dashoffset: 0;}}@keyframes fYubZyzR_draw_20{41.038666692717996%{stroke-dashoffset: 61}42.230515230261226%{ stroke-dashoffset: 0;}100%{ stroke-dashoffset: 0;}}@keyframes fYubZyzR_draw_21{42.230515230261226%{stroke-dashoffset: 25}42.7189777456478%{ stroke-dashoffset: 0;}100%{ stroke-dashoffset: 0;}}@keyframes fYubZyzR_draw_22{42.7189777456478%{stroke-dashoffset: 25}43.20744026103437%{ stroke-dashoffset: 0;}100%{ stroke-dashoffset: 0;}}@keyframes fYubZyzR_draw_23{43.20744026103437%{stroke-dashoffset: 25}43.695902776420944%{ stroke-dashoffset: 0;}100%{ stroke-dashoffset: 0;}}@keyframes fYubZyzR_draw_24{43.69590277642094%{stroke-dashoffset: 25}44.18436529180751%{ stroke-dashoffset: 0;}100%{ stroke-dashoffset: 0;}}@keyframes fYubZyzR_draw_25{44.18436529180751%{stroke-dashoffset: 25}44.67282780719408%{ stroke-dashoffset: 0;}100%{ stroke-dashoffset: 0;}}@keyframes fYubZyzR_draw_26{44.67282780719408%{stroke-dashoffset: 25}45.161290322580655%{ stroke-dashoffset: 0;}100%{ stroke-dashoffset: 0;}}</style></svg>