<!--?xml version="1.0" encoding="UTF-8"?-->
<svg width="125px" height="140px" viewBox="0 0 125 140" version="1.1" xmlns="http://www.w3.org/2000/svg" xmlns:xlink="http://www.w3.org/1999/xlink" class="" style="">
    <!-- Generator: Sketch 49 (51002) - http://www.bohemiancoding.com/sketch -->
    <title>ilustracion-2a</title>
    <desc>Created with Sketch.</desc>
    <defs></defs>
    <g id="ilustracion-2a" stroke="none" stroke-width="1" fill="none" fill-rule="evenodd">
        <g id="ilustracion2" transform="translate(3.000000, 4.000000)">
            <path d="M75.7463691,66.4968676 C75.7463691,75.1618946 68.7013906,82.1857324 60.0114335,82.1857324 C51.3209614,82.1857324 44.2759828,75.1618946 44.2759828,66.4968676 C44.2759828,57.8318405 51.3209614,50.8080027 60.0114335,50.8080027 C68.7013906,50.8080027 75.7463691,57.8318405 75.7463691,66.4968676" id="Fill-101" fill="#FF9400" class="hOYaNwkc_0"></path>
            <path d="M88.8094249,66.4968676 C88.8094249,82.3551919 75.9158627,95.2110027 60.01097,95.2110027 C44.1065923,95.2110027 31.21303,82.3551919 31.21303,66.4968676 C31.21303,50.6385432 44.1065923,37.7827324 60.01097,37.7827324 C75.9158627,37.7827324 88.8094249,50.6385432 88.8094249,66.4968676 Z" id="Stroke-103" stroke="#FF9400" stroke-width="4.12017167" class="hOYaNwkc_1"></path>
            <path d="M117.291502,66.4968676 C117.291502,98.0394351 91.6460086,123.609327 60.0113305,123.609327 C28.3761373,123.609327 2.73064378,98.0394351 2.73064378,66.4968676 C2.73064378,34.9543 28.3761373,9.38440811 60.0113305,9.38440811 C91.6460086,9.38440811 117.291502,34.9543 117.291502,66.4968676 Z" id="Stroke-105" stroke="#FF9400" stroke-width="4.12017167" class="hOYaNwkc_2"></path>
            <path d="M60.011176,18.7685081 L60.011176,37.7828865" id="Stroke-107" stroke="#FF9400" stroke-width="4.12017167" class="hOYaNwkc_3"></path>
            <path d="M101.703348,43.0463486 L85.0939056,52.3887" id="Stroke-109" stroke="#FF9400" stroke-width="4.12017167" class="hOYaNwkc_4"></path>
            <path d="M102.480979,88.5163784 L85.5614936,79.744027" id="Stroke-111" stroke="#FF9400" stroke-width="4.12017167" class="hOYaNwkc_5"></path>
            <path d="M59.9257339,114.225176 L59.9597253,95.2107973" id="Stroke-113" stroke="#FF9400" stroke-width="4.12017167" class="hOYaNwkc_6"></path>
            <path d="M17.4679313,88.3749568 L34.4167725,79.6590919" id="Stroke-115" stroke="#FF9400" stroke-width="4.12017167" class="hOYaNwkc_7"></path>
            <path d="M18.7850987,42.2410054 L35.209133,51.9043027" id="Stroke-117" stroke="#FF9400" stroke-width="4.12017167" class="hOYaNwkc_8"></path>
            <path d="M69.4229871,9.38430541 C69.4229871,14.5671973 65.2090815,18.7687649 60.01097,18.7687649 C54.8133734,18.7687649 50.5994678,14.5671973 50.5994678,9.38430541 C50.5994678,4.20141351 54.8133734,-0.000154054054 60.01097,-0.000154054054 C65.2090815,-0.000154054054 69.4229871,4.20141351 69.4229871,9.38430541" id="Fill-119" fill="#FFFFFF" class="hOYaNwkc_9"></path>
            <path d="M69.4229871,9.38430541 C69.4229871,14.5671973 65.2090815,18.7687649 60.01097,18.7687649 C54.8133734,18.7687649 50.5994678,14.5671973 50.5994678,9.38430541 C50.5994678,4.20141351 54.8133734,-0.000154054054 60.01097,-0.000154054054 C65.2090815,-0.000154054054 69.4229871,4.20141351 69.4229871,9.38430541 Z" id="Stroke-121" stroke="#FF9400" stroke-width="4.12017167" class="hOYaNwkc_10"></path>
            <path d="M114.666335,46.9982459 C110.120755,49.5124081 104.392172,47.8763541 101.870627,43.3440838 C99.3490815,38.812327 100.98994,33.1000027 105.535004,30.5858405 C110.080584,28.0716784 115.809682,29.7077324 118.331227,34.2400027 C120.852773,38.7717595 119.211914,44.4840838 114.666335,46.9982459" id="Fill-123" fill="#FFFFFF" class="hOYaNwkc_11"></path>
            <path d="M114.666335,46.9982459 C110.120755,49.5124081 104.392172,47.8763541 101.870627,43.3440838 C99.3490815,38.812327 100.98994,33.1000027 105.535004,30.5858405 C110.080584,28.0716784 115.809682,29.7077324 118.331227,34.2400027 C120.852773,38.7717595 119.211914,44.4840838 114.666335,46.9982459 Z" id="Stroke-125" stroke="#FF9400" stroke-width="4.12017167" class="hOYaNwkc_12"></path>
            <path d="M105.118403,101.427803 C100.708275,98.6841 99.3640687,92.8957757 102.115828,88.4985595 C104.867588,84.1013432 110.673425,82.761073 115.083039,85.5047757 C119.493167,88.2484784 120.837373,94.0373162 118.085614,98.4340189 C115.333854,102.831235 109.528532,104.171505 105.118403,101.427803" id="Fill-127" fill="#FFFFFF" class="hOYaNwkc_13"></path>
            <path d="M105.118403,101.427803 C100.708275,98.6841 99.3640687,92.8957757 102.115828,88.4985595 C104.867588,84.1013432 110.673425,82.761073 115.083039,85.5047757 C119.493167,88.2484784 120.837373,94.0373162 118.085614,98.4340189 C115.333854,102.831235 109.528532,104.171505 105.118403,101.427803 Z" id="Stroke-129" stroke="#FF9400" stroke-width="4.12017167" class="hOYaNwkc_14"></path>
            <path d="M50.5313305,123.598286 C50.5375107,118.415395 54.7565665,114.218962 59.9541631,114.225124 C65.1522747,114.231286 69.36103,118.437989 69.3548498,123.620368 C69.3486695,128.803259 65.1301288,132.999692 59.9320172,132.99353 C54.7339056,132.987368 50.5251502,128.781178 50.5313305,123.598286" id="Fill-131" fill="#FFFFFF" class="hOYaNwkc_15"></path>
            <path d="M50.5313305,123.598286 C50.5375107,118.415395 54.7565665,114.218962 59.9541631,114.225124 C65.1522747,114.231286 69.36103,118.437989 69.3548498,123.620368 C69.3486695,128.803259 65.1301288,132.999692 59.9320172,132.99353 C54.7339056,132.987368 50.5251502,128.781178 50.5313305,123.598286 Z" id="Stroke-133" stroke="#FF9400" stroke-width="4.12017167" class="hOYaNwkc_16"></path>
            <path d="M5.12580258,85.341427 C9.70125322,82.8816973 15.4097511,84.5860486 17.8767039,89.1481027 C20.3436567,93.7096432 18.6343004,99.4019405 14.0593648,101.86167 C9.48391416,104.3214 3.77490129,102.617049 1.3079485,98.0549946 C-1.15900429,93.4934541 0.550351931,87.8011568 5.12580258,85.341427" id="Fill-135" fill="#FFFFFF" class="hOYaNwkc_17"></path>
            <path d="M5.12580258,85.341427 C9.70125322,82.8816973 15.4097511,84.5860486 17.8767039,89.1481027 C20.3436567,93.7096432 18.6343004,99.4019405 14.0593648,101.86167 C9.48391416,104.3214 3.77490129,102.617049 1.3079485,98.0549946 C-1.15900429,93.4934541 0.550351931,87.8011568 5.12580258,85.341427 Z" id="Stroke-137" stroke="#FF9400" stroke-width="4.12017167" class="hOYaNwkc_18"></path>
            <path d="M14.8651159,30.1147432 C19.3839142,32.6761486 20.96503,38.4049054 18.396103,42.910473 C15.827691,47.4160405 10.0815966,48.992527 5.56279828,46.4311216 C1.044,43.8702297 -0.53711588,38.1409595 2.03181116,33.6353919 C4.6007382,29.1298243 10.3463176,27.5533378 14.8651159,30.1147432" id="Fill-139" fill="#FFFFFF" class="hOYaNwkc_19"></path>
            <path d="M14.8651159,30.1147432 C19.3839142,32.6761486 20.96503,38.4049054 18.396103,42.910473 C15.827691,47.4160405 10.0815966,48.992527 5.56279828,46.4311216 C1.044,43.8702297 -0.53711588,38.1409595 2.03181116,33.6353919 C4.6007382,29.1298243 10.3463176,27.5533378 14.8651159,30.1147432 Z" id="Stroke-141" stroke="#FF9400" stroke-width="4.12017167" class="hOYaNwkc_20"></path>
            <path id="Fill-143" fill="#FF9400" d="M57.0927039,12.294027L62.9294421,12.294027L62.9294421,6.47437838L57.0927039,6.47437838Z" class="hOYaNwkc_21"></path>
            <path id="Fill-145" fill="#FF9400" d="M108.964378,42.7482541L106.13279,37.6588216L111.237167,34.8360378L114.068755,39.9249568Z" class="hOYaNwkc_22"></path>
            <path id="Fill-146" fill="#FF9400" d="M106.079794,94.3946703L109.169923,89.4572378L114.121854,92.5383189L111.031725,97.4757514Z" class="hOYaNwkc_23"></path>
            <path id="Fill-147" fill="#FF9400" d="M57.1784549,120.55387L63.0074678,120.852735L62.7077253,126.665195L56.8787124,126.365816Z" class="hOYaNwkc_24"></path>
            <path id="Fill-148" fill="#FF9400" d="M10.931176,89.7088081L13.4964979,94.9363757L8.2535794,97.4941865L5.68825751,92.2666189Z" class="hOYaNwkc_25"></path>
            <path id="Fill-149" fill="#FF9400" d="M14.2774764,37.5518568L10.9370472,42.3244514L6.15043777,38.9943162L9.49086695,34.2212081Z" class="hOYaNwkc_26"></path>
        </g>
    </g>
<style data-made-with="vivus-instant">.hOYaNwkc_0{stroke-dasharray:99 101;stroke-dashoffset:100;}.start .hOYaNwkc_0{animation:hOYaNwkc_draw 121ms ease 0ms forwards;}.hOYaNwkc_1{stroke-dasharray:181 183;stroke-dashoffset:182;}.start .hOYaNwkc_1{animation:hOYaNwkc_draw 220ms ease 121ms forwards;}.hOYaNwkc_2{stroke-dasharray:360 362;stroke-dashoffset:361;}.start .hOYaNwkc_2{animation:hOYaNwkc_draw 437ms ease 341ms forwards;}.hOYaNwkc_3{stroke-dasharray:20 22;stroke-dashoffset:21;}.start .hOYaNwkc_3{animation:hOYaNwkc_draw 25ms ease 778ms forwards;}.hOYaNwkc_4{stroke-dasharray:20 22;stroke-dashoffset:21;}.start .hOYaNwkc_4{animation:hOYaNwkc_draw 25ms ease 804ms forwards;}.hOYaNwkc_5{stroke-dasharray:20 22;stroke-dashoffset:21;}.start .hOYaNwkc_5{animation:hOYaNwkc_draw 25ms ease 829ms forwards;}.hOYaNwkc_6{stroke-dasharray:20 22;stroke-dashoffset:21;}.start .hOYaNwkc_6{animation:hOYaNwkc_draw 25ms ease 855ms forwards;}.hOYaNwkc_7{stroke-dasharray:20 22;stroke-dashoffset:21;}.start .hOYaNwkc_7{animation:hOYaNwkc_draw 25ms ease 880ms forwards;}.hOYaNwkc_8{stroke-dasharray:20 22;stroke-dashoffset:21;}.start .hOYaNwkc_8{animation:hOYaNwkc_draw 25ms ease 906ms forwards;}.hOYaNwkc_9{stroke-dasharray:60 62;stroke-dashoffset:61;}.start .hOYaNwkc_9{animation:hOYaNwkc_draw 73ms ease 931ms forwards;}.hOYaNwkc_10{stroke-dasharray:60 62;stroke-dashoffset:61;}.start .hOYaNwkc_10{animation:hOYaNwkc_draw 73ms ease 1005ms forwards;}.hOYaNwkc_11{stroke-dasharray:60 62;stroke-dashoffset:61;}.start .hOYaNwkc_11{animation:hOYaNwkc_draw 73ms ease 1079ms forwards;}.hOYaNwkc_12{stroke-dasharray:60 62;stroke-dashoffset:61;}.start .hOYaNwkc_12{animation:hOYaNwkc_draw 73ms ease 1153ms forwards;}.hOYaNwkc_13{stroke-dasharray:60 62;stroke-dashoffset:61;}.start .hOYaNwkc_13{animation:hOYaNwkc_draw 73ms ease 1227ms forwards;}.hOYaNwkc_14{stroke-dasharray:60 62;stroke-dashoffset:61;}.start .hOYaNwkc_14{animation:hOYaNwkc_draw 73ms ease 1301ms forwards;}.hOYaNwkc_15{stroke-dasharray:60 62;stroke-dashoffset:61;}.start .hOYaNwkc_15{animation:hOYaNwkc_draw 73ms ease 1374ms forwards;}.hOYaNwkc_16{stroke-dasharray:60 62;stroke-dashoffset:61;}.start .hOYaNwkc_16{animation:hOYaNwkc_draw 73ms ease 1448ms forwards;}.hOYaNwkc_17{stroke-dasharray:60 62;stroke-dashoffset:61;}.start .hOYaNwkc_17{animation:hOYaNwkc_draw 73ms ease 1522ms forwards;}.hOYaNwkc_18{stroke-dasharray:60 62;stroke-dashoffset:61;}.start .hOYaNwkc_18{animation:hOYaNwkc_draw 73ms ease 1596ms forwards;}.hOYaNwkc_19{stroke-dasharray:60 62;stroke-dashoffset:61;}.start .hOYaNwkc_19{animation:hOYaNwkc_draw 73ms ease 1670ms forwards;}.hOYaNwkc_20{stroke-dasharray:60 62;stroke-dashoffset:61;}.start .hOYaNwkc_20{animation:hOYaNwkc_draw 73ms ease 1744ms forwards;}.hOYaNwkc_21{stroke-dasharray:24 26;stroke-dashoffset:25;}.start .hOYaNwkc_21{animation:hOYaNwkc_draw 30ms ease 1818ms forwards;}.hOYaNwkc_22{stroke-dasharray:24 26;stroke-dashoffset:25;}.start .hOYaNwkc_22{animation:hOYaNwkc_draw 30ms ease 1848ms forwards;}.hOYaNwkc_23{stroke-dasharray:24 26;stroke-dashoffset:25;}.start .hOYaNwkc_23{animation:hOYaNwkc_draw 30ms ease 1878ms forwards;}.hOYaNwkc_24{stroke-dasharray:24 26;stroke-dashoffset:25;}.start .hOYaNwkc_24{animation:hOYaNwkc_draw 30ms ease 1909ms forwards;}.hOYaNwkc_25{stroke-dasharray:24 26;stroke-dashoffset:25;}.start .hOYaNwkc_25{animation:hOYaNwkc_draw 30ms ease 1939ms forwards;}.hOYaNwkc_26{stroke-dasharray:24 26;stroke-dashoffset:25;}.start .hOYaNwkc_26{animation:hOYaNwkc_draw 30ms ease 1969ms forwards;}@keyframes hOYaNwkc_draw{100%{stroke-dashoffset:0;}}@keyframes hOYaNwkc_fade{0%{stroke-opacity:1;}93.54838709677419%{stroke-opacity:1;}100%{stroke-opacity:0;}}</style></svg>