<!--?xml version="1.0" encoding="UTF-8"?-->
<svg width="150px" height="150px" viewBox="0 0 150 150" version="1.1" xmlns="http://www.w3.org/2000/svg" xmlns:xlink="http://www.w3.org/1999/xlink" style="" class="">
    <!-- Generator: Sketch 49 (51002) - http://www.bohemiancoding.com/sketch -->
    <title>ilustracion-3a</title>
    <desc>Created with Sketch.</desc>
    <defs></defs>
    <g id="ilustracion-3a" stroke="none" stroke-width="1" fill="none" fill-rule="evenodd">
        <g id="ilustracion3" stroke="#FF9400" stroke-width="4">
            <path d="M95.7236842,0 L95.7236842,17.7631579" id="Stroke-1" class="FfvsRunX_0"></path>
            <path d="M59.2105263,57.2368421 L41.4473684,57.2368421" id="Stroke-5" class="FfvsRunX_1"></path>
            <path d="M150,57.2368421 L132.236842,57.2368421" id="Stroke-5-Copy" class="FfvsRunX_2"></path>
            <path d="M128.289474,35.5263158 L137.171053,30.5921053" id="Stroke-6" class="FfvsRunX_3"></path>
            <path d="M127.302632,75 L136.184211,79.9342105" id="Stroke-7" class="FfvsRunX_4"></path>
            <path d="M65.1315789,75 L56.25,79.9342105" id="Stroke-8" class="FfvsRunX_5"></path>
            <path d="M64.1447368,36.5131579 L55.2631579,31.5789474" id="Stroke-9" class="FfvsRunX_6"></path>
            <path d="M79.9342105,104.605263 L111.513158,104.605263" id="Stroke-10" class="FfvsRunX_7"></path>
            <path d="M72.5538864,73.772077 C84.5202455,89.3436507 82.5115644,98.6842105 82.5115644,98.6842105 L109.116612,98.6842105 C109.116612,98.6842105 107.987375,89.8582656 118.405715,75.5195823 C118.405715,75.5195823 126.315789,62.9219468 126.315789,55.0169441 C126.315789,38.2576828 112.840333,24.6710526 96.2171053,24.6710526 C79.5938775,24.6710526 66.1184211,38.2576828 66.1184211,55.0169441 C66.1184211,62.0993576 68.5315974,68.6095351 72.5647255,73.7725737" id="Stroke-11" class="FfvsRunX_8"></path>
            <path d="M72.0611842,74.0141447 L72.0394737,74.0131579" id="Stroke-13" class="FfvsRunX_9"></path>
            <path d="M83.8815789,110.526316 L107.565789,110.526316" id="Stroke-15" class="FfvsRunX_10"></path>
            <path id="Stroke-17" d="M103.618421,93.75L103.618421,77.9967811L107.565789,63.1578947" class="FfvsRunX_11"></path>
            <path id="Stroke-19" d="M87.8289474,93.75L87.8289474,77.9967811L83.8815789,63.1578947" class="FfvsRunX_12"></path>
            <path id="Stroke-21" d="M80.9210526,63.1578947L88.2695628,59.2105263L96.600388,63.1578947L104.396893,59.2105263L112.5,63.1578947" class="FfvsRunX_13"></path>
            <path d="M90.9737942,116.447368 C90.8568962,116.912287 90.7894737,117.400773 90.7894737,117.906934 C90.7894737,120.916048 92.998409,123.355263 95.7234417,123.355263 C98.4489594,123.355263 100.657895,120.916048 100.657895,117.906934 C100.657895,117.400773 100.590472,116.912287 100.473574,116.447368 L90.9737942,116.447368 Z" id="Stroke-23" class="FfvsRunX_14"></path>
            <path d="M87.8289474,116.447368 L104.605263,116.447368" id="Stroke-25" class="FfvsRunX_15"></path>
            <path d="M95.7236842,125.328947 L95.7236194,142.264587 C95.7236194,142.264587 95.815702,149.013158 89.0560528,149.013158 C81.4141938,149.013158 82.1003571,142.126361 82.1003571,142.126361 L82.1003571,134.29943 C82.1003571,134.29943 82.0657024,131.186401 79.3725362,131.186401 C75.8545878,131.186401 76.2065807,134.320997 76.2065807,134.320997 C76.2065807,134.320997 76.0194452,136.527713 74.2040334,136.527713 L67.1052632,136.527713" id="Stroke-27" class="FfvsRunX_16"></path>
            <path d="M31.5789474,104.605263 C31.5789474,107.875055 28.9280639,110.526316 25.6576514,110.526316 C22.3877256,110.526316 19.7368421,107.875055 19.7368421,104.605263 C19.7368421,101.335472 22.3877256,98.6842105 25.6576514,98.6842105 C28.9280639,98.6842105 31.5789474,101.335472 31.5789474,104.605263 Z" id="Stroke-29" class="FfvsRunX_17"></path>
            <path d="M42.4342105,104.111842 C42.4342105,113.104809 35.1442825,120.394737 26.1513158,120.394737 C17.1588504,120.394737 9.86842105,113.104809 9.86842105,104.111842 C9.86842105,95.1188754 17.1588504,87.8289474 26.1513158,87.8289474 C35.1442825,87.8289474 42.4342105,95.1188754 42.4342105,104.111842 Z" id="Stroke-31" class="FfvsRunX_18"></path>
            <path d="M47.3684211,104.605263 C47.3684211,116.595532 37.6481639,126.315789 25.6578947,126.315789 C13.6676256,126.315789 3.94736842,116.595532 3.94736842,104.605263 C3.94736842,92.614994 13.6676256,82.8947368 25.6578947,82.8947368 C37.6481639,82.8947368 47.3684211,92.614994 47.3684211,104.605263 Z" id="Stroke-33" class="FfvsRunX_19"></path>
            <path d="M25.6578947,81.9078947 L25.6578947,77.9605263" id="Stroke-35" class="FfvsRunX_20"></path>
            <path d="M33.5526316,83.8815789 L35.5263158,79.9342105" id="Stroke-37" class="FfvsRunX_21"></path>
            <path d="M40.4605263,87.8289474 L43.4210526,84.8684211" id="Stroke-39" class="FfvsRunX_22"></path>
            <path d="M45.3947368,93.75 L49.3421053,91.7763158" id="Stroke-41" class="FfvsRunX_23"></path>
            <path d="M47.3684211,101.644737 L51.3157895,100.657895" id="Stroke-43" class="FfvsRunX_24"></path>
            <path d="M47.3684211,108.552632 L51.3157895,109.539474" id="Stroke-45" class="FfvsRunX_25"></path>
            <path d="M44.4078947,116.447368 L48.3552632,118.421053" id="Stroke-47" class="FfvsRunX_26"></path>
            <path d="M39.4736842,121.381579 L42.4342105,125.328947" id="Stroke-49" class="FfvsRunX_27"></path>
            <path d="M32.5657895,125.328947 L33.5526316,129.276316" id="Stroke-51" class="FfvsRunX_28"></path>
            <path d="M25.1141447,126.315789 L24.6710526,130.263158" id="Stroke-53" class="FfvsRunX_29"></path>
            <path d="M17.7631579,124.342105 L15.7894737,128.289474" id="Stroke-55" class="FfvsRunX_30"></path>
            <path d="M10.8552632,120.394737 L7.89473684,123.355263" id="Stroke-57" class="FfvsRunX_31"></path>
            <path d="M6.90789474,114.473684 L2.96052632,116.447368" id="Stroke-59" class="FfvsRunX_32"></path>
            <path d="M3.94736842,106.578947 L0,107.451316" id="Stroke-61" class="FfvsRunX_33"></path>
            <path d="M4.93421053,98.6842105 L0.986842105,97.6973684" id="Stroke-63" class="FfvsRunX_34"></path>
            <path d="M8.88157895,92.7631579 L4.93421053,89.8026316" id="Stroke-65" class="FfvsRunX_35"></path>
            <path d="M13.8157895,86.8421053 L10.8552632,82.8947368" id="Stroke-67" class="FfvsRunX_36"></path>
            <path d="M20.7236842,82.8947368 L19.7368421,78.9473684" id="Stroke-69" class="FfvsRunX_37"></path>
            <path d="M62.1710526,116.447368 C62.1710526,118.627251 60.4039662,120.394737 58.2234268,120.394737 C56.0434023,120.394737 54.2763158,118.627251 54.2763158,116.447368 C54.2763158,114.267486 56.0434023,112.5 58.2234268,112.5 C60.4039662,112.5 62.1710526,114.267486 62.1710526,116.447368 Z" id="Stroke-71" class="FfvsRunX_38"></path>
            <path d="M58.2236842,111.513158 L58.2236842,107.565789" id="Stroke-73" class="FfvsRunX_39"></path>
            <path d="M62.1710526,116.447368 L66.1184211,116.447368" id="Stroke-75" class="FfvsRunX_40"></path>
            <path d="M58.2236842,120.394737 L58.2236842,124.342105" id="Stroke-77" class="FfvsRunX_41"></path>
            <path d="M54.2763158,116.447368 L50.3289474,116.447368" id="Stroke-79" class="FfvsRunX_42"></path>
            <path d="M57.2368421,136.677632 C57.2368421,139.130279 55.2486997,141.118421 52.7960526,141.118421 C50.3434055,141.118421 48.3552632,139.130279 48.3552632,136.677632 C48.3552632,134.224984 50.3434055,132.236842 52.7960526,132.236842 C55.2486997,132.236842 57.2368421,134.224984 57.2368421,136.677632 Z" id="Stroke-81" class="FfvsRunX_43"></path>
            <path d="M62.1710526,136.184211 C62.1710526,141.63421 57.7526314,146.052632 52.3026316,146.052632 C46.8521341,146.052632 42.4342105,141.63421 42.4342105,136.184211 C42.4342105,130.734211 46.8521341,126.315789 52.3026316,126.315789 C57.7526314,126.315789 62.1710526,130.734211 62.1710526,136.184211 Z" id="Stroke-83" class="FfvsRunX_44"></path>
            <path d="M52.3026316,126.315789 L52.3026316,122.368421" id="Stroke-85" class="FfvsRunX_45"></path>
            <path d="M59.2105263,129.276316 L62.1710526,126.315789" id="Stroke-87" class="FfvsRunX_46"></path>
            <path d="M62.1710526,136.184211 L66.1184211,136.184211" id="Stroke-89" class="FfvsRunX_47"></path>
            <path d="M59.2105263,143.092105 L62.1710526,146.052632" id="Stroke-91" class="FfvsRunX_48"></path>
            <path d="M52.3026316,146.052632 L52.3026316,150" id="Stroke-93" class="FfvsRunX_49"></path>
            <path d="M45.3947368,143.092105 L42.4342105,146.052632" id="Stroke-95" class="FfvsRunX_50"></path>
            <path d="M42.4342105,136.184211 L38.4868421,136.184211" id="Stroke-97" class="FfvsRunX_51"></path>
            <path d="M45.3947368,129.276316 L42.4342105,126.315789" id="Stroke-99" class="FfvsRunX_52"></path>
        </g>
    </g>
<style data-made-with="vivus-instant">.FfvsRunX_0{stroke-dasharray:18 20;stroke-dashoffset:19;}.start .FfvsRunX_0{animation:FfvsRunX_draw 32ms ease 0ms forwards;}.FfvsRunX_1{stroke-dasharray:18 20;stroke-dashoffset:19;}.start .FfvsRunX_1{animation:FfvsRunX_draw 32ms ease 32ms forwards;}.FfvsRunX_2{stroke-dasharray:18 20;stroke-dashoffset:19;}.start .FfvsRunX_2{animation:FfvsRunX_draw 32ms ease 64ms forwards;}.FfvsRunX_3{stroke-dasharray:11 13;stroke-dashoffset:12;}.start .FfvsRunX_3{animation:FfvsRunX_draw 20ms ease 97ms forwards;}.FfvsRunX_4{stroke-dasharray:11 13;stroke-dashoffset:12;}.start .FfvsRunX_4{animation:FfvsRunX_draw 20ms ease 117ms forwards;}.FfvsRunX_5{stroke-dasharray:11 13;stroke-dashoffset:12;}.start .FfvsRunX_5{animation:FfvsRunX_draw 20ms ease 138ms forwards;}.FfvsRunX_6{stroke-dasharray:11 13;stroke-dashoffset:12;}.start .FfvsRunX_6{animation:FfvsRunX_draw 20ms ease 158ms forwards;}.FfvsRunX_7{stroke-dasharray:32 34;stroke-dashoffset:33;}.start .FfvsRunX_7{animation:FfvsRunX_draw 56ms ease 179ms forwards;}.FfvsRunX_8{stroke-dasharray:217 219;stroke-dashoffset:218;}.start .FfvsRunX_8{animation:FfvsRunX_draw 372ms ease 235ms forwards;}.FfvsRunX_9{stroke-dasharray:1 3;stroke-dashoffset:2;}.start .FfvsRunX_9{animation:FfvsRunX_draw 3ms ease 607ms forwards;}.FfvsRunX_10{stroke-dasharray:24 26;stroke-dashoffset:25;}.start .FfvsRunX_10{animation:FfvsRunX_draw 42ms ease 610ms forwards;}.FfvsRunX_11{stroke-dasharray:32 34;stroke-dashoffset:33;}.start .FfvsRunX_11{animation:FfvsRunX_draw 56ms ease 653ms forwards;}.FfvsRunX_12{stroke-dasharray:32 34;stroke-dashoffset:33;}.start .FfvsRunX_12{animation:FfvsRunX_draw 56ms ease 709ms forwards;}.FfvsRunX_13{stroke-dasharray:36 38;stroke-dashoffset:37;}.start .FfvsRunX_13{animation:FfvsRunX_draw 63ms ease 766ms forwards;}.FfvsRunX_14{stroke-dasharray:29 31;stroke-dashoffset:30;}.start .FfvsRunX_14{animation:FfvsRunX_draw 51ms ease 829ms forwards;}.FfvsRunX_15{stroke-dasharray:17 19;stroke-dashoffset:18;}.start .FfvsRunX_15{animation:FfvsRunX_draw 30ms ease 880ms forwards;}.FfvsRunX_16{stroke-dasharray:67 69;stroke-dashoffset:68;}.start .FfvsRunX_16{animation:FfvsRunX_draw 116ms ease 911ms forwards;}.FfvsRunX_17{stroke-dasharray:38 40;stroke-dashoffset:39;}.start .FfvsRunX_17{animation:FfvsRunX_draw 66ms ease 1027ms forwards;}.FfvsRunX_18{stroke-dasharray:103 105;stroke-dashoffset:104;}.start .FfvsRunX_18{animation:FfvsRunX_draw 177ms ease 1093ms forwards;}.FfvsRunX_19{stroke-dasharray:137 139;stroke-dashoffset:138;}.start .FfvsRunX_19{animation:FfvsRunX_draw 235ms ease 1271ms forwards;}.FfvsRunX_20{stroke-dasharray:4 6;stroke-dashoffset:5;}.start .FfvsRunX_20{animation:FfvsRunX_draw 8ms ease 1506ms forwards;}.FfvsRunX_21{stroke-dasharray:5 7;stroke-dashoffset:6;}.start .FfvsRunX_21{animation:FfvsRunX_draw 10ms ease 1515ms forwards;}.FfvsRunX_22{stroke-dasharray:5 7;stroke-dashoffset:6;}.start .FfvsRunX_22{animation:FfvsRunX_draw 10ms ease 1525ms forwards;}.FfvsRunX_23{stroke-dasharray:5 7;stroke-dashoffset:6;}.start .FfvsRunX_23{animation:FfvsRunX_draw 10ms ease 1535ms forwards;}.FfvsRunX_24{stroke-dasharray:5 7;stroke-dashoffset:6;}.start .FfvsRunX_24{animation:FfvsRunX_draw 10ms ease 1546ms forwards;}.FfvsRunX_25{stroke-dasharray:5 7;stroke-dashoffset:6;}.start .FfvsRunX_25{animation:FfvsRunX_draw 10ms ease 1556ms forwards;}.FfvsRunX_26{stroke-dasharray:5 7;stroke-dashoffset:6;}.start .FfvsRunX_26{animation:FfvsRunX_draw 10ms ease 1566ms forwards;}.FfvsRunX_27{stroke-dasharray:5 7;stroke-dashoffset:6;}.start .FfvsRunX_27{animation:FfvsRunX_draw 10ms ease 1576ms forwards;}.FfvsRunX_28{stroke-dasharray:5 7;stroke-dashoffset:6;}.start .FfvsRunX_28{animation:FfvsRunX_draw 10ms ease 1587ms forwards;}.FfvsRunX_29{stroke-dasharray:4 6;stroke-dashoffset:5;}.start .FfvsRunX_29{animation:FfvsRunX_draw 8ms ease 1597ms forwards;}.FfvsRunX_30{stroke-dasharray:5 7;stroke-dashoffset:6;}.start .FfvsRunX_30{animation:FfvsRunX_draw 10ms ease 1605ms forwards;}.FfvsRunX_31{stroke-dasharray:5 7;stroke-dashoffset:6;}.start .FfvsRunX_31{animation:FfvsRunX_draw 10ms ease 1616ms forwards;}.FfvsRunX_32{stroke-dasharray:5 7;stroke-dashoffset:6;}.start .FfvsRunX_32{animation:FfvsRunX_draw 10ms ease 1626ms forwards;}.FfvsRunX_33{stroke-dasharray:5 7;stroke-dashoffset:6;}.start .FfvsRunX_33{animation:FfvsRunX_draw 10ms ease 1636ms forwards;}.FfvsRunX_34{stroke-dasharray:5 7;stroke-dashoffset:6;}.start .FfvsRunX_34{animation:FfvsRunX_draw 10ms ease 1646ms forwards;}.FfvsRunX_35{stroke-dasharray:5 7;stroke-dashoffset:6;}.start .FfvsRunX_35{animation:FfvsRunX_draw 10ms ease 1656ms forwards;}.FfvsRunX_36{stroke-dasharray:5 7;stroke-dashoffset:6;}.start .FfvsRunX_36{animation:FfvsRunX_draw 10ms ease 1667ms forwards;}.FfvsRunX_37{stroke-dasharray:5 7;stroke-dashoffset:6;}.start .FfvsRunX_37{animation:FfvsRunX_draw 10ms ease 1677ms forwards;}.FfvsRunX_38{stroke-dasharray:25 27;stroke-dashoffset:26;}.start .FfvsRunX_38{animation:FfvsRunX_draw 44ms ease 1687ms forwards;}.FfvsRunX_39{stroke-dasharray:4 6;stroke-dashoffset:5;}.start .FfvsRunX_39{animation:FfvsRunX_draw 8ms ease 1732ms forwards;}.FfvsRunX_40{stroke-dasharray:4 6;stroke-dashoffset:5;}.start .FfvsRunX_40{animation:FfvsRunX_draw 8ms ease 1740ms forwards;}.FfvsRunX_41{stroke-dasharray:4 6;stroke-dashoffset:5;}.start .FfvsRunX_41{animation:FfvsRunX_draw 8ms ease 1749ms forwards;}.FfvsRunX_42{stroke-dasharray:4 6;stroke-dashoffset:5;}.start .FfvsRunX_42{animation:FfvsRunX_draw 8ms ease 1757ms forwards;}.FfvsRunX_43{stroke-dasharray:28 30;stroke-dashoffset:29;}.start .FfvsRunX_43{animation:FfvsRunX_draw 49ms ease 1766ms forwards;}.FfvsRunX_44{stroke-dasharray:63 65;stroke-dashoffset:64;}.start .FfvsRunX_44{animation:FfvsRunX_draw 109ms ease 1815ms forwards;}.FfvsRunX_45{stroke-dasharray:4 6;stroke-dashoffset:5;}.start .FfvsRunX_45{animation:FfvsRunX_draw 8ms ease 1924ms forwards;}.FfvsRunX_46{stroke-dasharray:5 7;stroke-dashoffset:6;}.start .FfvsRunX_46{animation:FfvsRunX_draw 10ms ease 1933ms forwards;}.FfvsRunX_47{stroke-dasharray:4 6;stroke-dashoffset:5;}.start .FfvsRunX_47{animation:FfvsRunX_draw 8ms ease 1943ms forwards;}.FfvsRunX_48{stroke-dasharray:5 7;stroke-dashoffset:6;}.start .FfvsRunX_48{animation:FfvsRunX_draw 10ms ease 1952ms forwards;}.FfvsRunX_49{stroke-dasharray:4 6;stroke-dashoffset:5;}.start .FfvsRunX_49{animation:FfvsRunX_draw 8ms ease 1962ms forwards;}.FfvsRunX_50{stroke-dasharray:5 7;stroke-dashoffset:6;}.start .FfvsRunX_50{animation:FfvsRunX_draw 10ms ease 1970ms forwards;}.FfvsRunX_51{stroke-dasharray:4 6;stroke-dashoffset:5;}.start .FfvsRunX_51{animation:FfvsRunX_draw 8ms ease 1981ms forwards;}.FfvsRunX_52{stroke-dasharray:5 7;stroke-dashoffset:6;}.start .FfvsRunX_52{animation:FfvsRunX_draw 10ms ease 1989ms forwards;}@keyframes FfvsRunX_draw{100%{stroke-dashoffset:0;}}@keyframes FfvsRunX_fade{0%{stroke-opacity:1;}93.54838709677419%{stroke-opacity:1;}100%{stroke-opacity:0;}}</style></svg>