<svg viewBox="0 0 183 122" version="1.1" xmlns="http://www.w3.org/2000/svg" xmlns:xlink="http://www.w3.org/1999/xlink" id="el_VdVp4qBtr"><style>@-webkit-keyframes el_GooTgf9VP4_W4QLKOqJP_Animation{0%{-webkit-transform: rotate(0deg);transform: rotate(0deg);}41.67%{-webkit-transform: rotate(10deg);transform: rotate(10deg);}50%{-webkit-transform: rotate(-10deg);transform: rotate(-10deg);}58.33%{-webkit-transform: rotate(0deg);transform: rotate(0deg);}100%{-webkit-transform: rotate(0deg);transform: rotate(0deg);}}@keyframes el_GooTgf9VP4_W4QLKOqJP_Animation{0%{-webkit-transform: rotate(0deg);transform: rotate(0deg);}41.67%{-webkit-transform: rotate(10deg);transform: rotate(10deg);}50%{-webkit-transform: rotate(-10deg);transform: rotate(-10deg);}58.33%{-webkit-transform: rotate(0deg);transform: rotate(0deg);}100%{-webkit-transform: rotate(0deg);transform: rotate(0deg);}}#el_VdVp4qBtr *{-webkit-animation-duration: 6s;animation-duration: 6s;-webkit-animation-iteration-count: infinite;animation-iteration-count: infinite;-webkit-animation-timing-function: cubic-bezier(0, 0, 1, 1);animation-timing-function: cubic-bezier(0, 0, 1, 1);}#el_meZvZsPtOb{stroke: none;stroke-width: 1;fill: none;}#el_9XAoxFcIT5{-webkit-transform: translate(2px, 2px);transform: translate(2px, 2px);}#el_6Uoewi9IDq{fill: #9CA0A2;}#el_kwfhP1p-r1{fill: #C2CDD2;}#el_Sfqem-5f6Z{fill: #FFFFFF;}#el_FyPz3gGxH-{fill: #C2CDD2;}#el_BtdOEtOGJE{fill: #9CA0A2;}#el_UWndJZ4RjS{fill: #202B57;opacity: 0.2;}#el_CVvQkX0ixZ{fill: #202B57;opacity: 0.2;}#el_GAs8SZUp49{fill: #89CFD9;}#el_M2l1xRt3tk{fill-opacity: 0.2;fill: #2D3875;}#el_ny4Lc19L8N{fill: #FFD4A8;}#el_5Gg1uCXCIt{fill: #2D3875;}#el_5ApkVNVsZA{fill: #FFC5B7;}#el_op0vEVO1h5n{fill: #FFC5B7;}#el_fyu_kByynJC{fill: #2D3875;}#el_vvTJ6Xd0fmf{fill: #2D3875;}#el_UAuz_vr5_Kz{fill: #2D3875;}#el_tZ9oNi85aBW{fill: #2D3875;}#el_C-A2fSVdtE2{fill: #1A2241;}#el_bNq1I8SXBrx{fill: #1A2241;}#el_U1U3yDqg5VA{fill: #1A2241;}#el_YEmVYhig9Cn{fill: #1A2241;}#el_ssl8cxaj_Cl{fill: #1A2241;}#el_jk9zOu9aU5z{fill: #1A2241;}#el_GaOaQ6kX21w{fill: #1A2241;}#el_OVBNtvaIkN8{fill: #1A2241;}#el_UknQZL5RfAw{fill: #1A2241;}#el_2QQMUIEwaBo{fill: #FFD4A8;}#el_ySeMZyXvAnI{fill: #F9F9F9;}#el_c_NWbXL85Pq{fill: #F9F9F9;}#el_GooTgf9VP4_W4QLKOqJP{-webkit-animation-name: el_GooTgf9VP4_W4QLKOqJP_Animation;animation-name: el_GooTgf9VP4_W4QLKOqJP_Animation;-webkit-animation-timing-function: cubic-bezier(0.42, 0, 1, 1);animation-timing-function: cubic-bezier(0.42, 0, 1, 1);-webkit-transform-origin: 50% 50%;transform-origin: 50% 50%;transform-box: fill-box;}</style>
    <!-- Generator: Sketch 49 (51002) - http://www.bohemiancoding.com/sketch -->
    <title>ilustracion-2b</title>
    <desc>Created with Sketch.</desc>
    <defs/>
    <g id="el_meZvZsPtOb" fill-rule="evenodd">
        <g id="el_9XAoxFcIT5">
            <g id="el_GooTgf9VP4_W4QLKOqJP" data-animator-group="true" data-animator-type="1"><g id="el_GooTgf9VP4">
                <path d="M19.7270788,32.0245077 C16.1329869,32.0359956 13.2106674,29.1311816 13.2002735,25.5376368 C13.1893326,21.9435449 16.0935996,19.0212254 19.6871444,19.0102845 C23.2812363,18.9993435 26.2030088,21.9036105 26.2139497,25.4977024 C26.2248906,29.0917943 23.3206236,32.0135667 19.7270788,32.0245077 M28.9169037,0.0715536105 C14.8791575,0.114770241 3.53397155,11.528884 3.57718818,25.5666302 C3.61985777,39.6038293 15.0339716,50.9495624 29.0717177,50.9068928 C43.1094639,50.8636761 54.4546499,39.4495624 54.4119803,25.4118162 C54.3693107,11.37407 42.9546499,0.0288840263 28.9169037,0.0715536105" id="el_6Uoewi9IDq"/>
                <polygon id="el_kwfhP1p-r1" points="37.5124726 18.9560175 177.256455 18.5304158 177.294201 31.0555799 173.110394 31.0681619 174.015208 53.3115974 164.391575 53.3411379 164.790372 46.6452954 159.769037 46.6606127 159.789825 53.354814 153.513567 53.3739606 153.490591 45.842779 148.888293 45.8570022 148.918928 55.8985777 143.061707 55.9160832 142.97965 29.1392779 37.5447484 29.4603939"/>
                <path d="M16.6734683,32.034081 C13.0799234,32.0450219 10.1576039,29.1402079 10.146663,25.546663 C10.1357221,21.9525711 13.0399891,19.0307987 16.634081,19.0198578 C20.2276258,19.0089168 23.1499453,21.9131838 23.1608862,25.5067287 C23.1718271,29.1008206 20.2670131,32.02314 16.6734683,32.034081 M25.8632932,0.0811269147 C11.8260941,0.123796499 0.480908096,11.5384573 0.523577681,25.5756565 C0.566247265,39.6134026 11.9803611,50.9591357 26.0181072,50.9164661 C40.0558534,50.8737965 51.4010394,39.4585886 51.3583698,25.4213895 C51.3157002,11.3836433 39.9010394,0.0384573304 25.8632932,0.0811269147" id="el_Sfqem-5f6Z"/>
                <path d="M16.6734683,32.034081 C13.0799234,32.0450219 10.1576039,29.1402079 10.146663,25.546663 C10.1357221,21.9525711 13.0399891,19.0307987 16.634081,19.0198578 C20.2276258,19.0089168 23.1499453,21.9131838 23.1608862,25.5067287 C23.1718271,29.1008206 20.2670131,32.02314 16.6734683,32.034081 M25.8632932,0.0811269147 C11.8260941,0.123796499 0.480908096,11.5384573 0.523577681,25.5756565 C0.566247265,39.6134026 11.9803611,50.9591357 26.0181072,50.9164661 C40.0558534,50.8737965 51.4010394,39.4585886 51.3583698,25.4213895 C51.3157002,11.3836433 39.9010394,0.0384573304 25.8632932,0.0811269147" id="el_FyPz3gGxH-"/>
                <path d="M177.256291,18.5305252 C177.256291,18.5305252 171.440098,23.4101751 177.294037,31.0551422 C177.294037,31.0551422 182.463074,23.7115974 177.256291,18.5305252" id="el_BtdOEtOGJE"/>
                <path d="M23.9966083,24.0332604 C24.3713348,24.004267 24.8171772,24.8538293 24.9681619,26.3374179 C25.0327133,27.0890591 25.052407,27.9347921 24.8609409,28.9878556 C24.7580963,29.5130197 24.5846827,30.0961707 24.2597374,30.6809628 C23.9347921,31.266849 23.4867615,31.7838074 22.992779,32.2033917 C21.0009847,33.8117068 18.8680525,34.2269147 17.337965,34.2241794 C15.8013129,34.195186 14.9304158,33.7301969 14.9599562,33.3625821 C14.9851204,32.9670678 15.8363239,32.7132385 17.0370897,32.2761488 C17.6388403,32.0573304 18.3303063,31.7832604 19.0545952,31.4249453 C19.766302,31.0660832 20.5677243,30.6054705 21.1820569,30.0846827 C21.8062363,29.5513129 22.1071116,29.0721007 22.3778993,28.3324945 C22.6344639,27.6142232 22.8292123,26.8177243 23.0031729,26.1946389 C23.3450766,24.9205689 23.6060175,24.0606127 23.9966083,24.0332604" id="el_UWndJZ4RjS"/>
                <path d="M96.0835339,20.4991247 C98.2224836,19.9405908 100.617451,20.478884 102.312199,21.8984683 C104.393709,23.6424508 105.41012,26.5516411 107.797429,27.847046 C110.021718,29.0538293 112.784847,28.4881838 115.133862,27.5472648 C117.482877,26.6063457 119.7564,25.3049234 122.277188,25.0806346 C124.797429,24.8563457 127.71756,26.168709 128.21209,28.6506565 C117.167232,29.3010941 105.411761,29.0910284 94.3669037,29.7414661" id="el_CVvQkX0ixZ"/>
                <polygon id="el_GAs8SZUp49" points="3.75404814 36.9174508 4.98326039 38.5793764 4.88315098 37.2019147 3.67636761 35.8479759"/>
            </g></g>
            <path d="M117.927407,116.708151 C117.927407,117.852571 108.284628,118.780908 96.3896608,118.780908 C84.4946937,118.780908 74.8519147,117.852571 74.8519147,116.708151 C74.8519147,115.563184 84.4946937,114.635394 96.3896608,114.635394 C108.284628,114.635394 117.927407,115.563184 117.927407,116.708151" id="el_M2l1xRt3tk"/>
            <path d="M99.2624179,21.1516958 L101.450602,27.0455689 C101.93802,28.3584792 101.265153,29.8163567 99.9500547,30.2972101 L99.1737965,30.581674 L99.4861597,34.8847374 L93.4927243,35.3190919 L92.6119803,23.1790481 L99.2624179,21.1516958 Z" id="el_ny4Lc19L8N"/>
            <path d="M99.0246718,17.6827133 C99.0246718,17.6827133 97.7981947,16.9031729 96.3337527,18.8911379 C94.8693107,20.8796499 91.408151,19.5382932 90.2713895,22.0087527 C89.134628,24.4797593 90.0027899,27.3845733 91.5520241,29.5886214 L92.6286105,31.3200219 L95.6833151,31.0979212 C95.6833151,31.0979212 97.0022429,28.1077681 96.4300328,27.2800875 C96.4300328,27.2800875 93.0323304,26.8030635 94.0706236,24.9907002 C95.1089168,23.1777899 96.7571663,25.7368709 96.7571663,25.7368709 L97.6247812,25.6012035 L96.5739059,22.2035011 C96.5739059,22.2035011 99.6028993,21.6219912 99.9765317,19.7128009 C100.349617,17.8041575 99.0246718,17.6827133 99.0246718,17.6827133" id="el_5Gg1uCXCIt"/>
            <path d="M88.6019694,77.3662473 L89.3547046,86.1064004 C89.5713348,88.6206236 89.4849015,91.1523523 89.097046,93.6468818 L85.7212254,115.359136 L87.6413567,115.359136 L93.9263676,98.5987418 C95.0893873,95.4980853 95.7731947,92.2382385 95.954267,88.9313457 L96.5888403,77.3662473 L88.6019694,77.3662473 Z" id="el_5ApkVNVsZA"/>
            <path d="M95.7317287,74.2591904 L97.2601751,85.385558 C97.8017505,88.5414661 98.0369803,91.743326 97.9636761,94.9446389 L97.4789934,116.005908 L99.128884,115.3593 L102.493764,101.637199 C103.866849,96.0365427 104.256893,90.2400438 103.646389,84.5059081 L102.9593,74.2591904 L95.7317287,74.2591904 Z" id="el_op0vEVO1h5n"/>
            <path d="M94.0064551,35.1956236 C94.0064551,35.1956236 88.8346827,34.0019694 90.028337,41.7601751 C91.2214442,49.5178337 92.612035,53.6912473 92.612035,53.6912473 C92.612035,53.6912473 83.4637856,64.2377462 86.2487965,78.3608315 L86.9840263,86.2525164 L105.941904,86.2525164 L103.554595,48.9210066 L104.165646,48.1989059 C105.162363,47.0205689 105.571007,45.4538293 105.276696,43.9390591 L104.35,39.1742888 L117.080853,37.1852298 L127.424398,28.2339168 L125.037637,26.2448578 L116.583589,32.5435449 L94.0064551,35.1956236 Z" id="el_fyu_kByynJC"/>
            <path d="M94.8975383,21.1516958 C93.1179978,23.2074945 92.0518053,25.7583698 94.1891138,27.439442 C94.5178884,27.6981947 94.8844092,27.9591357 95.0217177,28.3546499 C95.1048687,28.5958972 96.4041028,28.8240153 96.3898796,29.0789387 C96.2328775,31.8136214 94.763512,34.581674 94.6076039,37.3163567 C94.5457877,38.3885667 94.4692013,39.5121991 93.9013676,40.4241247 C93.0780635,41.7463348 91.4495077,42.2911926 90.2673414,43.3054158 C88.9916302,44.3995077 88.2782823,46.0028993 87.179267,47.2742341 C85.5074945,49.2085886 82.9949125,50.2797046 80.4588074,50.6008206 C77.286488,51.0028993 73.9303611,50.2676696 71.3811269,48.3371444 C68.8318928,46.4060722 67.1858315,43.2403173 67.346663,40.0472101 C67.5813457,35.3874726 71.6480853,31.4892232 76.2115427,30.52314 C78.1333151,30.1166849 80.1327681,30.141302 82.0337527,29.6473195 C83.9347374,29.1527899 85.8368162,27.9646061 86.3920678,26.0805799 C86.7006018,25.034628 86.5638403,23.8737965 87.0107768,22.8787199 C87.0107768,22.8787199 88.1065098,18.5871444 95.0879103,19.8043217" id="el_vvTJ6Xd0fmf"/>
            <path d="M88.1065098,115.273249 C88.1065098,115.273249 91.6169037,115.838348 91.7826586,116.559354 C91.9489606,117.279814 85.4090263,116.173687 85.4090263,116.173687 L85.525547,115.371718" id="el_UAuz_vr5_Kz"/>
            <path d="M99.1705689,115.187746 C99.1705689,115.187746 103.411816,115.413129 103.679869,116.102407 C103.947921,116.792232 97.3171772,116.638512 97.3171772,116.638512 L97.3171772,115.828337" id="el_tZ9oNi85aBW"/>
            <path d="M87.8559081,62.0131838 L104.521116,64.0410832" id="el_C-A2fSVdtE2"/>
            <path d="M104.521335,64.0410832 C104.511488,64.1198578 100.772976,63.729267 96.1717724,63.1690919 C91.5689278,62.6094639 87.8462801,62.0919584 87.8561269,62.0131838 C87.8654267,61.9344092 91.6033917,62.325 96.2062363,62.8851751 C100.80744,63.4448031 104.531182,63.9628556 104.521335,64.0410832" id="el_bNq1I8SXBrx"/>
            <path d="M97.266849,52.6332604 C97.2838074,52.7109409 96.2493435,52.9510941 94.9561269,53.1693654 C93.6623632,53.3887309 92.6065646,53.5025164 92.5972648,53.4237418 C92.587965,53.3455142 93.6224289,53.104814 94.9079869,52.8870897 C96.1935449,52.6693654 97.2498906,52.5555799 97.266849,52.6332604" id="el_U1U3yDqg5VA"/>
            <path d="M97.8753282,54.5431072 C97.8638403,54.6218818 96.8928337,54.5398249 95.7073851,54.3603939 C94.5219365,54.1815098 93.5706236,53.9730853 93.5821116,53.8943107 C93.5941466,53.8166302 94.5646061,53.89814 95.7506018,54.0770241 C96.9355033,54.2564551 97.8873632,54.4648796 97.8753282,54.5431072" id="el_YEmVYhig9Cn"/>
            <path d="M107.762199,38.4838074 C107.768764,38.5231947 107.236488,38.645186 106.371061,38.811488 C105.505635,38.9766958 104.307057,39.1867615 102.98047,39.4012035 C101.654978,39.6156455 100.447648,39.7907002 99.5783917,39.9094092 C98.7096827,40.0204595 98.2353939,40.2890591 98.2151532,40.2556893 C98.1861597,40.2250547 98.6582604,39.8754923 99.5428337,39.7102845 C100.410449,39.5390591 101.607385,39.3333698 102.935066,39.1178337 C104.261652,38.9039387 105.465153,38.7256018 106.338786,38.6107221 C107.212418,38.4963895 107.755635,38.4449672 107.762199,38.4838074" id="el_ssl8cxaj_Cl"/>
            <path d="M114.805963,37.4965536 C115.819092,36.1376915 117.546116,35.4916302 119.233206,35.322046 C118.73977,35.8904267 118.026969,36.2804705 117.498523,36.8171225 C117.381455,36.9358315 117.237582,37.1289387 117.08058,37.1852845 C116.944365,37.2339716 116.858479,37.2093545 116.717341,37.2416302 C116.032987,37.4002735 115.364497,37.3876915 114.73047,37.5939278" id="el_jk9zOu9aU5z"/>
            <path d="M95.0596827,33.6116521 C95.0968818,33.6072757 95.1083698,34.2921772 94.7161379,35.2872538 C94.3200766,36.2686543 93.7451313,37.5968818 93.0252188,39.038895 C92.3042123,40.479267 91.5071663,41.7139497 90.8479759,42.538895 C90.1920678,43.3687637 89.717779,43.8195295 89.6915208,43.7954595 C89.6592451,43.7664661 90.0782823,43.2692013 90.6855033,42.4179978 C91.2971007,41.5689825 92.0542123,40.3386761 92.7692013,38.9092451 C93.4820022,37.4820022 94.0908643,36.1570569 94.5285011,35.2106674 C94.9590263,34.2588074 95.0170131,33.6072757 95.0596827,33.6116521" id="el_GaOaQ6kX21w"/>
            <path d="M100.657549,64.7916849 C100.373085,72.0444201 100.618709,79.3184902 101.391685,86.5356674" id="el_OVBNtvaIkN8"/>
            <path d="M101.391575,86.5356674 C101.371882,86.5378556 101.322101,86.2364333 101.248796,85.6899344 C101.174398,85.1434354 101.083589,84.3507659 100.986214,83.3699125 C100.790372,81.4076586 100.587418,78.6893873 100.484573,75.6822757 C100.383917,72.673523 100.403611,69.94814 100.467068,67.9771335 C100.497702,66.9913567 100.534902,66.1948578 100.572101,65.6450766 C100.608206,65.0947484 100.637746,64.7905908 100.65744,64.7916849 C100.677133,64.7922319 100.685886,65.0980306 100.683698,65.6483589 C100.679869,66.2506565 100.674945,67.0356674 100.669475,67.9809628 C100.658534,69.9497812 100.670569,72.6696937 100.771225,75.6729759 C100.873523,78.67407 101.044201,81.388512 101.188074,83.352407 C101.257549,84.2949672 101.315536,85.0777899 101.359847,85.6789934 C101.398687,86.2282276 101.411269,86.5334792 101.391575,86.5356674" id="el_UknQZL5RfAw"/>
            <path d="M125.353173,26.9362691 C125.75744,25.5549781 126.206018,24.101477 127.267834,23.1299234 C127.622867,23.5954595 127.052845,24.2863786 127.254705,24.8361597 C127.821991,24.3055252 128.518381,23.7344092 129.280416,23.8853939 C129.084573,24.3449125 128.736652,24.7382385 128.304486,24.9882385 C128.872867,24.7267505 129.518381,24.4625274 130.10372,24.6835339 C129.576368,25.1118709 129.023304,25.5101204 128.449453,25.874453 C129.046827,25.7748906 129.650766,25.7212801 130.256346,25.7136214 C130.352079,25.8104486 130.22407,25.9630744 130.107549,26.0330963 C129.693435,26.2825492 129.254158,26.4926149 128.799562,26.6578228 C129.056674,26.6742341 129.314333,26.6900985 129.571991,26.7065098 C129.663895,26.7119803 129.769475,26.7251094 129.821444,26.8016958 C129.902407,26.92314 129.780416,27.077954 129.660613,27.160558 C129.294639,27.4121991 128.857549,27.5352845 128.429759,27.6534464 C127.923195,27.7940372 127.417177,27.934628 126.91116,28.0746718 C126.879431,28.0834245 126.846608,28.0921772 126.815427,28.0867068 C126.763457,28.077954 126.725164,28.0358315 126.690153,27.9964442 C126.24814,27.4964442 125.658425,27.1288293 125.015098,26.9504923" id="el_2QQMUIEwaBo"/>
            <polygon id="el_ySeMZyXvAnI" points="37.5124726 57.6111597 38.7816193 59.9317287 41.1016411 61.2003282 38.7816193 62.4700219 37.5124726 64.7900438 36.243326 62.4700219 33.9233042 61.2003282 36.243326 59.9317287"/>
            <polygon id="el_c_NWbXL85Pq" points="67.3358315 65.3948031 67.9621991 66.5408643 69.1082604 67.1672319 67.9621991 67.7941466 67.3358315 68.9396608 66.7089168 67.7941466 65.5634026 67.1672319 66.7089168 66.5408643"/>
        </g>
    </g>
<script>(function(){var a=document.querySelector('#el_VdVp4qBtr'),b=a.querySelectorAll('style'),c=function(d){b.forEach(function(f){var g=f.textContent;g&amp;&amp;(f.textContent=g.replace(/transform-box:[^;\r\n]*/gi,'transform-box: '+d))})};c('initial'),window.requestAnimationFrame(function(){return c('fill-box')})})();</script></svg>