<?xml version="1.0" encoding="UTF-8"?>
<svg width="125px" height="140px" viewBox="0 0 125 140" version="1.1" xmlns="http://www.w3.org/2000/svg" xmlns:xlink="http://www.w3.org/1999/xlink">
    <!-- Generator: Sketch 49 (51002) - http://www.bohemiancoding.com/sketch -->
    <title>ilustracion-2a</title>
    <desc>Created with Sketch.</desc>
    <defs></defs>
    <g id="ilustracion-2a" stroke="none" stroke-width="1" fill="none" fill-rule="evenodd">
        <g id="ilustracion2" transform="translate(3.000000, 4.000000)">
            <path d="M75.7463691,66.4968676 C75.7463691,75.1618946 68.7013906,82.1857324 60.0114335,82.1857324 C51.3209614,82.1857324 44.2759828,75.1618946 44.2759828,66.4968676 C44.2759828,57.8318405 51.3209614,50.8080027 60.0114335,50.8080027 C68.7013906,50.8080027 75.7463691,57.8318405 75.7463691,66.4968676" id="Fill-101" fill="#FF9400"></path>
            <path d="M88.8094249,66.4968676 C88.8094249,82.3551919 75.9158627,95.2110027 60.01097,95.2110027 C44.1065923,95.2110027 31.21303,82.3551919 31.21303,66.4968676 C31.21303,50.6385432 44.1065923,37.7827324 60.01097,37.7827324 C75.9158627,37.7827324 88.8094249,50.6385432 88.8094249,66.4968676 Z" id="Stroke-103" stroke="#FF9400" stroke-width="4.12017167"></path>
            <path d="M117.291502,66.4968676 C117.291502,98.0394351 91.6460086,123.609327 60.0113305,123.609327 C28.3761373,123.609327 2.73064378,98.0394351 2.73064378,66.4968676 C2.73064378,34.9543 28.3761373,9.38440811 60.0113305,9.38440811 C91.6460086,9.38440811 117.291502,34.9543 117.291502,66.4968676 Z" id="Stroke-105" stroke="#FF9400" stroke-width="4.12017167"></path>
            <path d="M60.011176,18.7685081 L60.011176,37.7828865" id="Stroke-107" stroke="#FF9400" stroke-width="4.12017167"></path>
            <path d="M101.703348,43.0463486 L85.0939056,52.3887" id="Stroke-109" stroke="#FF9400" stroke-width="4.12017167"></path>
            <path d="M102.480979,88.5163784 L85.5614936,79.744027" id="Stroke-111" stroke="#FF9400" stroke-width="4.12017167"></path>
            <path d="M59.9257339,114.225176 L59.9597253,95.2107973" id="Stroke-113" stroke="#FF9400" stroke-width="4.12017167"></path>
            <path d="M17.4679313,88.3749568 L34.4167725,79.6590919" id="Stroke-115" stroke="#FF9400" stroke-width="4.12017167"></path>
            <path d="M18.7850987,42.2410054 L35.209133,51.9043027" id="Stroke-117" stroke="#FF9400" stroke-width="4.12017167"></path>
            <path d="M69.4229871,9.38430541 C69.4229871,14.5671973 65.2090815,18.7687649 60.01097,18.7687649 C54.8133734,18.7687649 50.5994678,14.5671973 50.5994678,9.38430541 C50.5994678,4.20141351 54.8133734,-0.000154054054 60.01097,-0.000154054054 C65.2090815,-0.000154054054 69.4229871,4.20141351 69.4229871,9.38430541" id="Fill-119" fill="#FFFFFF"></path>
            <path d="M69.4229871,9.38430541 C69.4229871,14.5671973 65.2090815,18.7687649 60.01097,18.7687649 C54.8133734,18.7687649 50.5994678,14.5671973 50.5994678,9.38430541 C50.5994678,4.20141351 54.8133734,-0.000154054054 60.01097,-0.000154054054 C65.2090815,-0.000154054054 69.4229871,4.20141351 69.4229871,9.38430541 Z" id="Stroke-121" stroke="#FF9400" stroke-width="4.12017167"></path>
            <path d="M114.666335,46.9982459 C110.120755,49.5124081 104.392172,47.8763541 101.870627,43.3440838 C99.3490815,38.812327 100.98994,33.1000027 105.535004,30.5858405 C110.080584,28.0716784 115.809682,29.7077324 118.331227,34.2400027 C120.852773,38.7717595 119.211914,44.4840838 114.666335,46.9982459" id="Fill-123" fill="#FFFFFF"></path>
            <path d="M114.666335,46.9982459 C110.120755,49.5124081 104.392172,47.8763541 101.870627,43.3440838 C99.3490815,38.812327 100.98994,33.1000027 105.535004,30.5858405 C110.080584,28.0716784 115.809682,29.7077324 118.331227,34.2400027 C120.852773,38.7717595 119.211914,44.4840838 114.666335,46.9982459 Z" id="Stroke-125" stroke="#FF9400" stroke-width="4.12017167"></path>
            <path d="M105.118403,101.427803 C100.708275,98.6841 99.3640687,92.8957757 102.115828,88.4985595 C104.867588,84.1013432 110.673425,82.761073 115.083039,85.5047757 C119.493167,88.2484784 120.837373,94.0373162 118.085614,98.4340189 C115.333854,102.831235 109.528532,104.171505 105.118403,101.427803" id="Fill-127" fill="#FFFFFF"></path>
            <path d="M105.118403,101.427803 C100.708275,98.6841 99.3640687,92.8957757 102.115828,88.4985595 C104.867588,84.1013432 110.673425,82.761073 115.083039,85.5047757 C119.493167,88.2484784 120.837373,94.0373162 118.085614,98.4340189 C115.333854,102.831235 109.528532,104.171505 105.118403,101.427803 Z" id="Stroke-129" stroke="#FF9400" stroke-width="4.12017167"></path>
            <path d="M50.5313305,123.598286 C50.5375107,118.415395 54.7565665,114.218962 59.9541631,114.225124 C65.1522747,114.231286 69.36103,118.437989 69.3548498,123.620368 C69.3486695,128.803259 65.1301288,132.999692 59.9320172,132.99353 C54.7339056,132.987368 50.5251502,128.781178 50.5313305,123.598286" id="Fill-131" fill="#FFFFFF"></path>
            <path d="M50.5313305,123.598286 C50.5375107,118.415395 54.7565665,114.218962 59.9541631,114.225124 C65.1522747,114.231286 69.36103,118.437989 69.3548498,123.620368 C69.3486695,128.803259 65.1301288,132.999692 59.9320172,132.99353 C54.7339056,132.987368 50.5251502,128.781178 50.5313305,123.598286 Z" id="Stroke-133" stroke="#FF9400" stroke-width="4.12017167"></path>
            <path d="M5.12580258,85.341427 C9.70125322,82.8816973 15.4097511,84.5860486 17.8767039,89.1481027 C20.3436567,93.7096432 18.6343004,99.4019405 14.0593648,101.86167 C9.48391416,104.3214 3.77490129,102.617049 1.3079485,98.0549946 C-1.15900429,93.4934541 0.550351931,87.8011568 5.12580258,85.341427" id="Fill-135" fill="#FFFFFF"></path>
            <path d="M5.12580258,85.341427 C9.70125322,82.8816973 15.4097511,84.5860486 17.8767039,89.1481027 C20.3436567,93.7096432 18.6343004,99.4019405 14.0593648,101.86167 C9.48391416,104.3214 3.77490129,102.617049 1.3079485,98.0549946 C-1.15900429,93.4934541 0.550351931,87.8011568 5.12580258,85.341427 Z" id="Stroke-137" stroke="#FF9400" stroke-width="4.12017167"></path>
            <path d="M14.8651159,30.1147432 C19.3839142,32.6761486 20.96503,38.4049054 18.396103,42.910473 C15.827691,47.4160405 10.0815966,48.992527 5.56279828,46.4311216 C1.044,43.8702297 -0.53711588,38.1409595 2.03181116,33.6353919 C4.6007382,29.1298243 10.3463176,27.5533378 14.8651159,30.1147432" id="Fill-139" fill="#FFFFFF"></path>
            <path d="M14.8651159,30.1147432 C19.3839142,32.6761486 20.96503,38.4049054 18.396103,42.910473 C15.827691,47.4160405 10.0815966,48.992527 5.56279828,46.4311216 C1.044,43.8702297 -0.53711588,38.1409595 2.03181116,33.6353919 C4.6007382,29.1298243 10.3463176,27.5533378 14.8651159,30.1147432 Z" id="Stroke-141" stroke="#FF9400" stroke-width="4.12017167"></path>
            <polygon id="Fill-143" fill="#FF9400" points="57.0927039 12.294027 62.9294421 12.294027 62.9294421 6.47437838 57.0927039 6.47437838"></polygon>
            <polygon id="Fill-145" fill="#FF9400" points="108.964378 42.7482541 106.13279 37.6588216 111.237167 34.8360378 114.068755 39.9249568"></polygon>
            <polygon id="Fill-146" fill="#FF9400" points="106.079794 94.3946703 109.169923 89.4572378 114.121854 92.5383189 111.031725 97.4757514"></polygon>
            <polygon id="Fill-147" fill="#FF9400" points="57.1784549 120.55387 63.0074678 120.852735 62.7077253 126.665195 56.8787124 126.365816"></polygon>
            <polygon id="Fill-148" fill="#FF9400" points="10.931176 89.7088081 13.4964979 94.9363757 8.2535794 97.4941865 5.68825751 92.2666189"></polygon>
            <polygon id="Fill-149" fill="#FF9400" points="14.2774764 37.5518568 10.9370472 42.3244514 6.15043777 38.9943162 9.49086695 34.2212081"></polygon>
        </g>
    </g>
</svg>