<?xml version="1.0" encoding="UTF-8"?>
<svg width="150px" height="150px" viewBox="0 0 150 150" version="1.1" xmlns="http://www.w3.org/2000/svg" xmlns:xlink="http://www.w3.org/1999/xlink">
    <!-- Generator: Sketch 49 (51002) - http://www.bohemiancoding.com/sketch -->
    <title>ilustracion-3a</title>
    <desc>Created with Sketch.</desc>
    <defs></defs>
    <g id="ilustracion-3a" stroke="none" stroke-width="1" fill="none" fill-rule="evenodd">
        <g id="ilustracion3" stroke="#FF9400" stroke-width="4">
            <path d="M95.7236842,0 L95.7236842,17.7631579" id="Stroke-1"></path>
            <path d="M59.2105263,57.2368421 L41.4473684,57.2368421" id="Stroke-5"></path>
            <path d="M150,57.2368421 L132.236842,57.2368421" id="Stroke-5-Copy"></path>
            <path d="M128.289474,35.5263158 L137.171053,30.5921053" id="Stroke-6"></path>
            <path d="M127.302632,75 L136.184211,79.9342105" id="Stroke-7"></path>
            <path d="M65.1315789,75 L56.25,79.9342105" id="Stroke-8"></path>
            <path d="M64.1447368,36.5131579 L55.2631579,31.5789474" id="Stroke-9"></path>
            <path d="M79.9342105,104.605263 L111.513158,104.605263" id="Stroke-10"></path>
            <path d="M72.5538864,73.772077 C84.5202455,89.3436507 82.5115644,98.6842105 82.5115644,98.6842105 L109.116612,98.6842105 C109.116612,98.6842105 107.987375,89.8582656 118.405715,75.5195823 C118.405715,75.5195823 126.315789,62.9219468 126.315789,55.0169441 C126.315789,38.2576828 112.840333,24.6710526 96.2171053,24.6710526 C79.5938775,24.6710526 66.1184211,38.2576828 66.1184211,55.0169441 C66.1184211,62.0993576 68.5315974,68.6095351 72.5647255,73.7725737" id="Stroke-11"></path>
            <path d="M72.0611842,74.0141447 L72.0394737,74.0131579" id="Stroke-13"></path>
            <path d="M83.8815789,110.526316 L107.565789,110.526316" id="Stroke-15"></path>
            <polyline id="Stroke-17" points="103.618421 93.75 103.618421 77.9967811 107.565789 63.1578947"></polyline>
            <polyline id="Stroke-19" points="87.8289474 93.75 87.8289474 77.9967811 83.8815789 63.1578947"></polyline>
            <polyline id="Stroke-21" points="80.9210526 63.1578947 88.2695628 59.2105263 96.600388 63.1578947 104.396893 59.2105263 112.5 63.1578947"></polyline>
            <path d="M90.9737942,116.447368 C90.8568962,116.912287 90.7894737,117.400773 90.7894737,117.906934 C90.7894737,120.916048 92.998409,123.355263 95.7234417,123.355263 C98.4489594,123.355263 100.657895,120.916048 100.657895,117.906934 C100.657895,117.400773 100.590472,116.912287 100.473574,116.447368 L90.9737942,116.447368 Z" id="Stroke-23"></path>
            <path d="M87.8289474,116.447368 L104.605263,116.447368" id="Stroke-25"></path>
            <path d="M95.7236842,125.328947 L95.7236194,142.264587 C95.7236194,142.264587 95.815702,149.013158 89.0560528,149.013158 C81.4141938,149.013158 82.1003571,142.126361 82.1003571,142.126361 L82.1003571,134.29943 C82.1003571,134.29943 82.0657024,131.186401 79.3725362,131.186401 C75.8545878,131.186401 76.2065807,134.320997 76.2065807,134.320997 C76.2065807,134.320997 76.0194452,136.527713 74.2040334,136.527713 L67.1052632,136.527713" id="Stroke-27"></path>
            <path d="M31.5789474,104.605263 C31.5789474,107.875055 28.9280639,110.526316 25.6576514,110.526316 C22.3877256,110.526316 19.7368421,107.875055 19.7368421,104.605263 C19.7368421,101.335472 22.3877256,98.6842105 25.6576514,98.6842105 C28.9280639,98.6842105 31.5789474,101.335472 31.5789474,104.605263 Z" id="Stroke-29"></path>
            <path d="M42.4342105,104.111842 C42.4342105,113.104809 35.1442825,120.394737 26.1513158,120.394737 C17.1588504,120.394737 9.86842105,113.104809 9.86842105,104.111842 C9.86842105,95.1188754 17.1588504,87.8289474 26.1513158,87.8289474 C35.1442825,87.8289474 42.4342105,95.1188754 42.4342105,104.111842 Z" id="Stroke-31"></path>
            <path d="M47.3684211,104.605263 C47.3684211,116.595532 37.6481639,126.315789 25.6578947,126.315789 C13.6676256,126.315789 3.94736842,116.595532 3.94736842,104.605263 C3.94736842,92.614994 13.6676256,82.8947368 25.6578947,82.8947368 C37.6481639,82.8947368 47.3684211,92.614994 47.3684211,104.605263 Z" id="Stroke-33"></path>
            <path d="M25.6578947,81.9078947 L25.6578947,77.9605263" id="Stroke-35"></path>
            <path d="M33.5526316,83.8815789 L35.5263158,79.9342105" id="Stroke-37"></path>
            <path d="M40.4605263,87.8289474 L43.4210526,84.8684211" id="Stroke-39"></path>
            <path d="M45.3947368,93.75 L49.3421053,91.7763158" id="Stroke-41"></path>
            <path d="M47.3684211,101.644737 L51.3157895,100.657895" id="Stroke-43"></path>
            <path d="M47.3684211,108.552632 L51.3157895,109.539474" id="Stroke-45"></path>
            <path d="M44.4078947,116.447368 L48.3552632,118.421053" id="Stroke-47"></path>
            <path d="M39.4736842,121.381579 L42.4342105,125.328947" id="Stroke-49"></path>
            <path d="M32.5657895,125.328947 L33.5526316,129.276316" id="Stroke-51"></path>
            <path d="M25.1141447,126.315789 L24.6710526,130.263158" id="Stroke-53"></path>
            <path d="M17.7631579,124.342105 L15.7894737,128.289474" id="Stroke-55"></path>
            <path d="M10.8552632,120.394737 L7.89473684,123.355263" id="Stroke-57"></path>
            <path d="M6.90789474,114.473684 L2.96052632,116.447368" id="Stroke-59"></path>
            <path d="M3.94736842,106.578947 L0,107.451316" id="Stroke-61"></path>
            <path d="M4.93421053,98.6842105 L0.986842105,97.6973684" id="Stroke-63"></path>
            <path d="M8.88157895,92.7631579 L4.93421053,89.8026316" id="Stroke-65"></path>
            <path d="M13.8157895,86.8421053 L10.8552632,82.8947368" id="Stroke-67"></path>
            <path d="M20.7236842,82.8947368 L19.7368421,78.9473684" id="Stroke-69"></path>
            <path d="M62.1710526,116.447368 C62.1710526,118.627251 60.4039662,120.394737 58.2234268,120.394737 C56.0434023,120.394737 54.2763158,118.627251 54.2763158,116.447368 C54.2763158,114.267486 56.0434023,112.5 58.2234268,112.5 C60.4039662,112.5 62.1710526,114.267486 62.1710526,116.447368 Z" id="Stroke-71"></path>
            <path d="M58.2236842,111.513158 L58.2236842,107.565789" id="Stroke-73"></path>
            <path d="M62.1710526,116.447368 L66.1184211,116.447368" id="Stroke-75"></path>
            <path d="M58.2236842,120.394737 L58.2236842,124.342105" id="Stroke-77"></path>
            <path d="M54.2763158,116.447368 L50.3289474,116.447368" id="Stroke-79"></path>
            <path d="M57.2368421,136.677632 C57.2368421,139.130279 55.2486997,141.118421 52.7960526,141.118421 C50.3434055,141.118421 48.3552632,139.130279 48.3552632,136.677632 C48.3552632,134.224984 50.3434055,132.236842 52.7960526,132.236842 C55.2486997,132.236842 57.2368421,134.224984 57.2368421,136.677632 Z" id="Stroke-81"></path>
            <path d="M62.1710526,136.184211 C62.1710526,141.63421 57.7526314,146.052632 52.3026316,146.052632 C46.8521341,146.052632 42.4342105,141.63421 42.4342105,136.184211 C42.4342105,130.734211 46.8521341,126.315789 52.3026316,126.315789 C57.7526314,126.315789 62.1710526,130.734211 62.1710526,136.184211 Z" id="Stroke-83"></path>
            <path d="M52.3026316,126.315789 L52.3026316,122.368421" id="Stroke-85"></path>
            <path d="M59.2105263,129.276316 L62.1710526,126.315789" id="Stroke-87"></path>
            <path d="M62.1710526,136.184211 L66.1184211,136.184211" id="Stroke-89"></path>
            <path d="M59.2105263,143.092105 L62.1710526,146.052632" id="Stroke-91"></path>
            <path d="M52.3026316,146.052632 L52.3026316,150" id="Stroke-93"></path>
            <path d="M45.3947368,143.092105 L42.4342105,146.052632" id="Stroke-95"></path>
            <path d="M42.4342105,136.184211 L38.4868421,136.184211" id="Stroke-97"></path>
            <path d="M45.3947368,129.276316 L42.4342105,126.315789" id="Stroke-99"></path>
        </g>
    </g>
</svg>