<?xml version="1.0" encoding="UTF-8"?>
<svg viewBox="0 0 385 200" version="1.1" xmlns="http://www.w3.org/2000/svg" xmlns:xlink="http://www.w3.org/1999/xlink">
    <!-- Generator: Sketch 49 (51002) - http://www.bohemiancoding.com/sketch -->
    <title>Mobile</title>
    <desc>Created with Sketch.</desc>
    <defs></defs>
    <g id="Mobile" stroke="none" stroke-width="1" fill="none" fill-rule="evenodd">
        <g id="Group" transform="translate(9.000000, 125.000000)" fill-rule="nonzero">
            <g id="sombras_piso-copy" transform="translate(4.000000, 140.000000)" fill="#FBAFA7">
                <path d="M308,6.72916667 C308,10.2 281.63964,13.1041667 249.105405,13.1041667 C216.571171,13.1041667 190.210811,10.2708333 190.210811,6.72916667 C190.210811,3.1875 216.571171,0.354166667 249.105405,0.354166667 C281.63964,0.354166667 308,3.25833333 308,6.72916667" id="Fill-25"></path>
                <path d="M203.876577,6.5875 C203.876577,10.0583333 177.516216,12.9625 144.981982,12.9625 C112.447748,12.9625 86.0873874,10.1291667 86.0873874,6.5875 C86.0873874,3.11666667 112.447748,0.2125 144.981982,0.2125 C177.516216,0.283333333 203.876577,3.11666667 203.876577,6.5875" id="Fill-27"></path>
                <path d="M117.927928,6.72916667 C117.927928,10.2 91.5675676,13.1041667 59.0333333,13.1041667 C26.4990991,13.1041667 0.138738739,10.2708333 0.138738739,6.72916667 C0.138738739,3.1875 26.4990991,0.354166667 59.0333333,0.354166667 C91.5675676,0.354166667 117.927928,3.25833333 117.927928,6.72916667" id="Fill-29"></path>
                <path d="M227.67027,15.3708333 C227.67027,16.0791667 222.259459,16.6458333 215.669369,16.6458333 C209.00991,16.6458333 203.668468,16.0791667 203.668468,15.3708333 C203.668468,14.6625 209.079279,14.0958333 215.669369,14.0958333 C222.328829,14.0958333 227.67027,14.6625 227.67027,15.3708333" id="Fill-144"></path>
                <path d="M288.368468,14.9458333 C288.368468,15.5125 283.859459,16.0083333 278.30991,16.0083333 C272.76036,16.0083333 268.251351,15.5125 268.251351,14.9458333 C268.251351,14.3791667 272.76036,13.8833333 278.30991,13.8833333 C283.859459,13.8833333 288.368468,14.3083333 288.368468,14.9458333" id="Fill-148"></path>
            </g>
            <g id="Layer_1-Copy">
                <path d="M95,135.094215 L94.0291262,139.884298 C94.0291262,139.884298 103.87656,142.869421 105.74896,143.910744 C106.789182,142.522314 99.4382802,135.996694 99.4382802,135.996694 L95,135.094215 Z" id="Fill-41_1_" fill="#300881"></path>
                <g id="persona2_1_" transform="translate(106.373093, 2.082645)">
                    <path d="M2.28848821,138.565289 L1.73370319,143.980165 C1.73370319,143.980165 15.8113731,143.633058 17.961165,143.563636 C16.1581137,139.53719 5.40915395,139.05124 5.40915395,139.05124 L2.28848821,138.565289 Z" id="Fill-53_1_" fill="#0F0D33"></path>
                    <path d="M2.7739251,80.5289256 L0.901525659,82.8892562 C0.901525659,82.8892562 5.06241331,114.892562 4.57697642,120.515702 C4.09153953,126.138843 2.28848821,139.120661 2.28848821,139.120661 L6.44937587,138.981818 C6.44937587,138.981818 11.4424411,121.834711 11.9278779,119.613223 C12.4133148,117.391736 11.5117892,80.2512397 11.5117892,80.2512397 L2.7739251,80.5289256 Z" id="Fill-55_1_" fill="#DD4412"></path>
                    <path d="M20.7350902,79.9735537 C20.7350902,79.9735537 22.3300971,99.6892562 20.7350902,111.490909 C19.0707351,123.22314 15.5339806,140.161983 15.5339806,140.161983 L11.0263523,140.300826 C11.0263523,140.300826 12.6213592,124.056198 12.0665742,118.641322 C11.5117892,113.226446 6.72676838,96.4264463 4.92371706,93.7190083 C3.12066574,91.0115702 -0.485436893,84.9719008 1.45631068,80.7371901 C3.53675451,76.2247934 20.7350902,79.9735537 20.7350902,79.9735537" id="Fill-57_1_" fill="#FA5C17"></path>
                    <path d="M11.1650485,139.676033 L10.6102635,145.090909 C10.6102635,145.090909 24.6879334,144.743802 26.8377254,144.67438 C25.0346741,140.647934 14.2857143,140.161983 14.2857143,140.161983 L11.1650485,139.676033 Z" id="Fill-59_1_" fill="#19124C"></path>
                    <path d="M28.3633842,15.7586777 C28.3633842,15.4115702 28.4327323,14.9950413 28.3633842,14.6479339 C28.2246879,8.67768595 23.3009709,4.02644628 17.3370319,4.16528926 C11.3730929,4.30413223 6.72676838,9.23305785 6.86546463,15.2033058 C6.93481276,18.0495868 8.11373093,20.6181818 9.98613037,22.492562 C10.9570042,26.8661157 10.887656,33.738843 10.887656,33.738843 L10.9570042,35.5438017 C10.9570042,35.5438017 16.5742025,36.585124 17.1289875,34.5024793 C17.6837725,32.4892562 18.7239945,28.9487603 20.3883495,28.6710744 C22.1220527,28.3933884 26.8377254,28.4628099 27.6005548,27.4214876 C28.3633842,26.4495868 28.3633842,20.5487603 28.4327323,20.3404959 C28.5714286,20.0628099 30.0277393,19.1603306 30.0277393,18.6049587 C30.0970874,18.1190083 28.3633842,15.7586777 28.3633842,15.7586777" id="Fill-61_1_" fill="#F89A5B"></path>
                    <path d="M11.9278779,20.0628099 C11.9278779,20.0628099 12.6213592,24.7834711 11.6504854,25.1305785 C10.6796117,25.4082645 8.87656033,25.1305785 8.94590846,23.9504132 C9.01525659,22.7702479 8.25242718,21.1735537 7.35090153,20.2016529 C6.44937587,19.2297521 3.259362,14.092562 6.72676838,7.56694215 C9.43134535,2.42975207 17.1983356,1.6661157 19.1400832,2.36033058 C21.0124827,3.05454545 22.5381415,3.81818182 23.0929265,2.42975207 C23.6477115,1.1107438 25.7281553,-0.416528926 28.0859917,1.04132231 C30.443828,2.49917355 30.1664355,6.31735537 27.8085992,7.35867769 C25.4507628,8.4 21.9140083,7.8446281 21.4285714,7.56694215 C20.9431345,7.2892562 19.556172,10.4826446 18.5852982,11.5239669 C17.6144244,12.5652893 15.8113731,13.6066116 15.8113731,13.6066116 L16.0887656,17.3553719 C16.0887656,17.3553719 15.0485437,14.9950413 13.1761442,15.5504132 C11.4424411,15.9669421 10.4715673,18.6743802 11.9278779,20.0628099" id="Fill-63_1_" fill="#300881"></path>
                    <path d="M29.2649098,20.4793388 C29.2649098,20.4793388 25.1733703,18.4661157 21.9140083,19.8545455 C18.6546463,21.2429752 18.8626907,23.8809917 18.8626907,25.061157 C18.7933426,26.4495868 19.2094313,29.0181818 21.4285714,29.4347107 C23.5783634,29.8512397 29.0568655,29.1570248 28.7101248,26.7272727 C28.4327323,24.5752066 25.1733703,25.8247934 24.0638003,25.9636364 C22.9542302,26.1024793 21.9140083,24.7834711 22.6768377,23.3256198 C23.4396671,21.7983471 27.2538141,22.0066116 28.4327323,22.2842975 C29.6116505,22.4231405 29.9583911,20.9652893 29.2649098,20.4793388" id="Fill-65_1_" fill="#300881"></path>
                    <path d="M9.36199723,32.1421488 C9.36199723,32.1421488 19.556172,31.6561983 20.1803051,32.7669421 C20.8044383,33.8082645 21.9833564,81.9867769 21.9833564,81.9867769 L0.27739251,82.0561983 C0.27739251,82.0561983 7.35090153,33.738843 9.36199723,32.1421488" id="Fill-67_1_" fill="#DADADE"></path>
                    <polygon id="Fill-69_1_" fill="#19124C" points="39.4590846 52.8297521 40.4993065 54.8429752 51.0402219 44.3603306 47.9889043 42.8330579"></polygon>
                    <polygon id="Fill-71_1_" fill="#0A091C" points="51.0402219 45.6099174 41.1927878 55.8842975 40.4993065 54.8429752 51.0402219 44.3603306"></polygon>
                    <path d="M36.4771151,58.0363636 C36.4771151,58.0363636 38.2801664,54.0793388 39.3897365,52.8297521 C40.4993065,51.5801653 42.5104022,50.7471074 42.4410541,51.2330579 C42.371706,51.7190083 40.9153953,53.6628099 40.9153953,53.6628099 C40.9153953,53.6628099 44.4521498,52.7603306 45.2149792,51.0247934 C45.9778086,49.2892562 47.9889043,48.3867769 47.9195562,48.9421488 C47.850208,49.4975207 44.4521498,57.8280992 43.6199723,58.4528926 C42.7877947,59.077686 39.7364771,61.8545455 37.9334258,61.7157025 C36.1997226,61.5768595 36.4771151,58.0363636 36.4771151,58.0363636" id="Fill-73_1_" fill="#F89A5B"></path>
                    <path d="M12.8987517,37.1404959 C13.5228849,34.5024793 17.8224688,33.6 17.961165,36.6545455 C18.1692094,42.2082645 18.0305132,49.6363636 18.3772538,53.0380165 C18.6546463,55.814876 19.556172,62.4099174 26.074896,60.8826446 C32.6629681,59.4247934 36.962552,56.0231405 36.962552,56.0231405 L40.0832178,61.4380165 C40.0832178,61.4380165 28.6407767,67.338843 22.4687933,67.4082645 C16.851595,67.4082645 13.7309293,65.1867769 12.6213592,57.9669421 C11.5117892,50.7471074 12.2746186,39.7785124 12.8987517,37.1404959" id="Fill-75_1_" fill="#E6C03B"></path>
                </g>
                <g id="persona3_1_" transform="translate(155.610264, 0.000000)">
                    <polygon id="Fill-77_1_" fill="#34227A" points="31.3453537 87.8876033 26.2135922 141.342149 21.9140083 141.342149 19.556172 77.4743802"></polygon>
                    <path d="M26.2135922,141.342149 L25.9361997,146.757025 C25.9361997,146.757025 15.6033287,147.034711 14.2163662,147.034711 C14.2163662,145.57686 21.9833564,141.342149 21.9833564,141.342149 L26.2135922,141.342149 Z" id="Fill-79_1_" fill="#19124C"></path>
                    <path d="M41.4008322,75.9471074 L41.4008322,116.905785 L43.1345354,141.41157 L38.9042996,141.41157 C38.9042996,141.41157 36.2690707,120.585124 35.4368932,117.461157 C34.6047157,114.33719 29.0568655,89.2760331 28.9181692,88.8595041 C28.779473,88.4429752 22.0527046,83.5834711 19.556172,77.5438017 C19.6948682,76.9190083 20.0416089,74.9752066 20.0416089,74.9752066 L29.334258,71.6429752 L41.4008322,75.9471074 Z" id="Fill-81_1_" fill="#464195"></path>
                    <path d="M38.9042996,141.342149 L39.1816921,146.757025 C39.1816921,146.757025 49.5145631,147.034711 50.9015257,147.034711 C50.9015257,145.57686 43.1345354,141.342149 43.1345354,141.342149 L38.9042996,141.342149 Z" id="Fill-83_1_" fill="#19124C"></path>
                    <polygon id="Fill-85_1_" fill="#19124C" points="8.39112344 36.5157025 8.0443828 19.0909091 0.624133148 19.5768595 1.2482663 37.3487603"></polygon>
                    <path d="M19.9722607,45.4710744 C19.9722607,45.4710744 16.9902913,52.7603306 14.0083218,52.2049587 C11.0263523,51.6495868 9.98613037,37.9041322 9.98613037,37.9041322 C9.98613037,37.9041322 11.3037448,32.6280992 9.77808599,31.2396694 C8.25242718,29.7818182 5.96393897,28.7404959 5.40915395,29.6429752 C4.85436893,30.614876 7.07350902,30.753719 7.76699029,31.5867769 C8.46047157,32.4892562 8.11373093,36.5157025 8.11373093,36.5157025 L5.82524272,36.7239669 C5.82524272,36.7239669 8.66851595,54.6347107 12.6213592,55.814876 C16.5742025,56.9950413 22.6074896,50.7471074 22.9542302,48.6644628 C23.2316227,46.6512397 19.9722607,45.4710744 19.9722607,45.4710744" id="Fill-87_1_" fill="#CC845B"></path>
                    <path d="M26.5603329,34.1553719 L23.370319,51.0247934 L17.8918169,45.5404959 C17.8918169,45.5404959 24.8959778,33.738843 26.0055479,33.877686 C27.0457698,34.0165289 26.5603329,34.1553719 26.5603329,34.1553719" id="Fill-89_1_" fill="#DDBA44"></path>
                    <path d="M25.8668516,18.1190083 L45.8391123,20.2710744 C45.8391123,20.2710744 44.5214979,22.9090909 45.0069348,26.5190083 C45.4923717,30.1289256 50.4160888,41.0975207 50,47.0677686 C49.5839112,53.0380165 46.1165049,57.4115702 41.9556172,57.7586777 C37.7947295,58.0363636 21.8446602,54.8429752 23.4396671,45.4710744 C25.0346741,36.0991736 27.3925104,33.322314 26.6990291,27.6297521 C25.9361997,21.8677686 23.7864078,19.9933884 25.8668516,18.1190083" id="Fill-91_1_" fill="#300881"></path>
                    <path d="M37.3786408,22.1454545 C40.2912621,20.4793388 42.3023578,17.3553719 42.3023578,13.7454545 C42.3023578,8.4 38.0027739,4.02644628 32.59362,4.02644628 C27.2538141,4.02644628 22.8848821,8.33057851 22.8848821,13.7454545 C22.8848821,14.092562 22.8848821,14.4396694 22.9542302,14.7867769 L22.8848821,14.8561983 C22.8848821,14.8561983 21.7059639,17.8413223 22.0527046,18.3272727 C22.4687933,18.8132231 23.3009709,18.8132231 23.3009709,18.8132231 L23.5090153,22.492562 C23.5090153,22.492562 24.0638003,26.2413223 27.184466,26.1719008 C30.3051318,26.1024793 32.2468793,25.061157 32.2468793,25.061157 C32.1081831,27.768595 31.2066574,33.1834711 31.2066574,33.1834711 L28.4327323,33.1834711 L27.6699029,37.9735537 L33.2871012,38.3206612 L34.8821082,36.585124 L36.8932039,33.1140496 L35.3675451,33.1140496 L36.6158114,24.0198347 L37.3786408,22.1454545 Z" id="Fill-93_1_" fill="#CC845B"></path>
                    <path d="M34.6047157,9.58016529 C34.6047157,9.58016529 33.0097087,12.6347107 34.3966713,14.4396694 C35.852982,16.2446281 38.4188627,14.9256198 38.4188627,14.9256198 C38.4188627,14.9256198 40.0138696,12.0099174 40.9153953,12.4958678 C41.8169209,12.9818182 43.2038835,15.0644628 41.4008322,17.7719008 C39.5284327,20.4793388 38.0721221,18.9520661 38.0721221,18.9520661 L36.6158114,23.9504132 L45.3536755,23.9504132 C45.3536755,23.9504132 50.6934813,12.7041322 45.3536755,5.20661157 C40.0138696,-2.29090909 29.7503467,0.485950413 24.6185853,4.30413223 C21.0124827,6.94214876 19.2094313,11.6628099 19.8335645,14.4396694 C20.4576976,17.2165289 23.0235784,12.8429752 23.0235784,12.8429752 C23.0235784,12.8429752 22.8848821,14.4396694 23.9944521,14.7867769 C24.9653259,15.2727273 29.1262136,14.7867769 34.6047157,9.58016529" id="Fill-95_1_" fill="#300881"></path>
                    <path d="M25.520111,34.6413223 C25.520111,34.6413223 20.8044383,47.2066116 21.220527,49.2198347 C21.6366158,51.2330579 24.0638003,52.968595 24.0638003,52.968595 L19.4868239,77.4743802 L42.7184466,77.4743802 L39.8751734,67.1305785 L41.7475728,33.2528926 L26.4216366,33.6 C26.4909847,33.6 25.9361997,33.461157 25.520111,34.6413223" id="Fill-97_1_" fill="#E6C03B"></path>
                    <path d="M44.4521498,46.1652893 C44.4521498,46.1652893 46.5325936,59.4247934 46.740638,65.8115702 C46.9486824,72.1983471 46.3245492,82.0561983 46.3245492,82.0561983 C46.3245492,82.0561983 46.3245492,90.3867769 45.2149792,92.677686 C44.1054092,94.8991736 42.4410541,96.3570248 41.8862691,95.3157025 C41.331484,94.2743802 42.7877947,91.0115702 43.0651872,89.831405 C43.3425798,88.5818182 43.0651872,85.8743802 43.0651872,85.8743802 C43.0651872,85.8743802 42.0249653,89.414876 41.7475728,90.3173554 C41.4701803,91.2198347 40.0832178,91.7057851 40.3606103,88.9983471 C40.6380028,86.3603306 42.6490985,82.5421488 42.6490985,82.5421488 C42.6490985,82.5421488 43.9667129,79.4181818 43.481276,71.2958678 C43.0651872,63.1735537 39.8058252,47.6231405 40.6380028,45.5404959 C41.6782247,43.3884298 44.4521498,46.1652893 44.4521498,46.1652893" id="Fill-99_1_" fill="#CC845B"></path>
                    <path d="M39.5977809,33.8082645 L38.9042996,48.6644628 C38.9042996,48.6644628 43.6893204,50.4 47.4341193,47.4842975 C47.4341193,45.5404959 41.8169209,33.2528926 41.8169209,33.2528926 L39.5977809,33.8082645 Z" id="Fill-101_1_" fill="#E6C03B"></path>
                </g>
                <g id="persona4_1_" transform="translate(202.766990, 24.297521)">
                    <path d="M64.8404993,41.1669421 C64.8404993,43.0413223 62.8987517,50.6082645 57.9056865,52.6909091 C52.9126214,54.7735537 34.8127601,55.1900826 34.1192788,55.3983471 C33.3564494,55.6066116 26.3522885,59.077686 28.9181692,58.8 C30.998613,58.5917355 33.4257975,57.3421488 34.7434119,57.4809917 C36.407767,57.6892562 37.8640777,57.9669421 38.6962552,58.3140496 C39.5284327,58.661157 42.926491,57.4809917 42.926491,57.4809917 C42.926491,57.4809917 55.6865465,58.8694215 58.668516,57.4115702 C61.6504854,55.8842975 69.2787795,52.2049587 70.8737864,42.8330579 C71.4979196,39.2231405 70.3883495,36.3768595 68.2385576,36.5157025 C66.4355062,36.585124 64.8404993,39.292562 64.8404993,41.1669421" id="Fill-103_1_" fill="#6D402D"></path>
                    <path d="M0.27739251,61.4380165 L0.27739251,64.5619835 C0.27739251,65.6727273 13.6615811,66.5752066 30.2357836,66.5752066 C46.8099861,66.5752066 60.1941748,65.6727273 60.1941748,64.5619835 L60.1941748,61.4380165 L0.27739251,61.4380165 Z" id="Fill-105_1_" fill="#BBBBBB"></path>
                    <path d="M60.1941748,61.4380165 C60.1941748,62.5487603 46.8099861,63.4512397 30.2357836,63.4512397 C13.6615811,63.4512397 0.27739251,62.5487603 0.27739251,61.4380165 C0.27739251,60.3272727 13.6615811,59.4247934 30.2357836,59.4247934 C46.740638,59.4247934 60.1941748,60.3272727 60.1941748,61.4380165" id="Fill-107_1_" fill="#300881"></path>
                    <path d="M6.58807212,118.294215 L6.58807212,120.585124 C6.58807212,121.418182 16.29681,122.042975 28.2940361,122.042975 C40.2912621,122.042975 50,121.418182 50,120.585124 L50,118.294215 L6.58807212,118.294215 Z" id="Fill-109_1_" fill="#19124C"></path>
                    <path d="M50,118.294215 C50,119.127273 40.2912621,119.752066 28.2940361,119.752066 C16.29681,119.752066 6.58807212,119.127273 6.58807212,118.294215 C6.58807212,117.461157 16.29681,116.836364 28.2940361,116.836364 C40.2912621,116.766942 50,117.461157 50,118.294215" id="Fill-111_1_" fill="#300881"></path>
                    <polygon id="Fill-113_1_" fill="#BBBBBB" points="26.3522885 117.461157 30.2357836 117.461157 30.2357836 66.5752066 26.3522885 66.5752066"></polygon>
                    <polygon id="Fill-115_1_" fill="#19124C" points="39.1816921 60.8132231 56.2413315 60.8132231 56.2413315 59.7719008 38.8349515 59.7719008"></polygon>
                    <polygon id="Fill-116_1_" fill="#19124C" points="46.8099861 113.087603 48.1969487 113.087603 48.1969487 83.4446281 46.8099861 83.4446281"></polygon>
                    <polygon id="Fill-117_1_" fill="#19124C" points="77.8085992 117.044628 79.1955617 117.044628 79.1955617 83.4446281 77.8085992 83.4446281"></polygon>
                    <polygon id="Fill-118_1_" fill="#DD4412" points="46.8099861 79.0710744 46.8099861 83.5140496 59.223301 91.4280992 59.223301 86.0132231"></polygon>
                    <polygon id="Fill-119_1_" fill="#DD4412" points="91.6088766 86.0132231 59.223301 86.0132231 46.8099861 79.0710744 73.0929265 79.0710744"></polygon>
                    <path d="M91.6088766,44.2909091 L91.6088766,86.0132231 L87.3092926,86.0132231 L87.3092926,84.4165289 L73.0929265,79.1404959 L73.0929265,38.7371901 C73.0929265,38.7371901 81.8307906,28.5322314 91.6088766,44.2909091" id="Fill-120_1_" fill="#FA5C17"></path>
                    <path d="M87.3092926,43.5966942 L87.3092926,84.4165289 L68.7933426,78.3768595 L68.7933426,37.9735537 C68.7933426,37.9735537 77.5312067,27.768595 87.3092926,43.5966942" id="Fill-121_1_" fill="#DD4412"></path>
                    <polygon id="Fill-122_1_" fill="#FA5C17" points="59.223301 91.4280992 91.6088766 91.4280992 91.6088766 86.0132231 59.223301 86.0132231"></polygon>
                    <polygon id="Fill-123_1_" fill="#19124C" points="59.223301 121.071074 60.6102635 121.071074 60.6102635 91.4280992 59.223301 91.4280992"></polygon>
                    <polygon id="Fill-124_1_" fill="#19124C" points="90.221914 121.071074 91.6088766 121.071074 91.6088766 91.4280992 90.221914 91.4280992"></polygon>
                    <path d="M49.9306519,116.697521 L50,120.86281 C50,120.86281 40.0832178,121.140496 38.6269071,121.140496 C38.6269071,119.682645 46.3938974,116.697521 46.3938974,116.697521 L49.9306519,116.697521 Z" id="Fill-125_1_" fill="#464195"></path>
                    <path d="M43.0651872,113.365289 L41.8169209,117.322314 C41.8169209,117.322314 31.9694868,115.378512 30.5825243,115.031405 C30.9292649,113.573554 39.1816921,112.601653 39.1816921,112.601653 L43.0651872,113.365289 Z" id="Fill-126_1_" fill="#464195"></path>
                    <path d="M71.6366158,6.31735537 C71.6366158,6.31735537 61.4424411,3.3322314 58.7378641,5.34545455 C53.6754508,9.02479339 51.3176144,14.7867769 51.3176144,17.9801653 C51.3176144,22.4231405 56.1719834,23.2561983 56.0332871,25.5471074 C55.8252427,27.768595 52.149792,32.4198347 53.4674064,35.4049587 C55.3398058,39.7785124 61.2343967,43.0413223 68.5852982,42.277686 C76.0055479,41.5140496 84.8821082,36.6545455 84.8127601,31.1008264 C84.7434119,24.9917355 80.3051318,22.9090909 80.3051318,20.4793388 C80.3051318,17.3553719 81.9001387,17.4247934 81.1373093,11.0380165 C80.8599168,8.46942149 71.6366158,6.31735537 71.6366158,6.31735537" id="Fill-127_1_" fill="#9673D0"></path>
                    <path d="M77.8085992,14.231405 C77.8085992,8.81652893 73.4396671,4.37355372 67.961165,4.37355372 C62.5520111,4.37355372 58.1137309,8.74710744 58.1137309,14.231405 C58.1137309,14.5090909 58.1137309,14.7867769 58.1830791,15.0644628 C58.1830791,15.0644628 56.4493759,20.5487603 57.9056865,24.7834711 C59.3619972,29.0181818 63.7309293,29.2264463 65.3259362,28.8793388 C66.9209431,28.5322314 68.5159501,29.4347107 68.5852982,34.0165289 C68.6546463,38.6677686 72.1914008,35.4743802 72.1914008,35.4743802 L73.0235784,33.461157 L71.0124827,27.6991736 C71.0124827,27.6991736 72.260749,27.2132231 73.0235784,24.9917355 C73.370319,24.0198347 73.6477115,23.0479339 73.7864078,22.214876 C76.2135922,20.4099174 77.8085992,17.4942149 77.8085992,14.231405" id="Fill-128_1_" fill="#90573E"></path>
                    <path d="M57.3509015,7.49752066 C57.3509015,7.49752066 56.1719834,14.5785124 60.9570042,16.0363636 C65.742025,17.5636364 72.260749,14.231405 72.260749,14.231405 L72.7461859,16.3834711 C72.7461859,16.3834711 76.2829404,12.4264463 76.9764216,14.231405 C77.6699029,15.9669421 77.3925104,19.9933884 74.6185853,19.9933884 C71.8446602,19.9933884 75.0346741,24.9917355 75.0346741,24.9917355 C75.0346741,24.9917355 80.443828,21.5900826 80.9292649,16.2446281 C81.4147018,10.8991736 81.2760055,6.80330579 78.5020804,4.44297521 C75.7281553,2.08264463 72.8848821,-0.555371901 67.3370319,1.24958678 C61.7198336,3.05454545 58.3217753,4.65123967 57.3509015,7.49752066" id="Fill-129_1_" fill="#9673D0"></path>
                    <path d="M66.5742025,65.3950413 C66.5742025,65.3950413 55.5478502,71.4347107 47.3647712,72.2677686 C39.1816921,73.1008264 40.9153953,88.3735537 40.6380028,91.0809917 C40.3606103,93.7884298 38.9736477,112.809917 38.9736477,112.809917 C38.9736477,112.809917 41.4008322,113.781818 43.1345354,113.504132 C43.1345354,113.504132 49.6532594,87.8181818 51.4563107,77.2661157 C51.4563107,77.2661157 67.961165,70.6710744 75.1040222,63.7289256 C75.0346741,63.8677686 70.5270458,65.5338843 66.5742025,65.3950413" id="Fill-130_1_" fill="#E6C03B"></path>
                    <path d="M77.184466,62.8264463 C77.184466,62.8264463 87.5866852,70.3933884 77.1151179,79.8347107 C69.2094313,85.7355372 52.9126214,85.4578512 52.9126214,85.4578512 C52.9126214,85.4578512 53.3287101,104.687603 49.9306519,116.836364 C49.9306519,116.836364 48.5436893,116.836364 46.2552011,116.975207 C46.2552011,116.975207 46.9486824,108.922314 46.0471567,101.771901 C46.0471567,101.771901 49.9306519,84.6942149 51.4563107,77.4049587 C51.4563107,77.4049587 66.0887656,71.2958678 75.1040222,63.8677686 C75.0346741,63.8677686 76.0055479,63.3123967 77.184466,62.8264463" id="Fill-131_1_" fill="#E6C03B"></path>
                    <path d="M66.5742025,65.3950413 C66.5742025,65.3950413 66.5742025,56.0231405 65.0485437,53.246281 C63.4535368,50.4694215 61.5117892,47.1371901 63.2454924,42.4165289 C65.0485437,37.6958678 66.7128988,35.5438017 66.7128988,35.5438017 L72.9542302,32.9752066 C72.9542302,32.9752066 77.739251,32.9752066 78.5020804,35.7520661 C78.9181692,37.2099174 77.184466,62.7570248 77.184466,62.7570248 C77.184466,62.7570248 71.8446602,65.8809917 66.5742025,65.3950413" id="Fill-132_1_" fill="#34227A"></path>
                    <path d="M72.7461859,39.5702479 C72.8848821,41.4446281 71.4979196,49.1504132 66.6435506,51.5801653 C61.8585298,54.0099174 43.8280166,55.7454545 43.0651872,56.0231405 C42.3023578,56.3008264 35.5755895,60.1884298 38.0721221,59.7719008 C40.1525659,59.4247934 42.4410541,58.0363636 43.8280166,58.0363636 C45.4923717,58.1057851 46.9486824,58.3140496 47.7808599,58.5917355 C48.6130374,58.8694215 51.9417476,57.4809917 51.9417476,57.4809917 C51.9417476,57.4809917 64.7711512,57.9669421 67.6144244,56.231405 C70.4576976,54.4958678 77.8085992,50.261157 78.779473,40.8198347 C79.1262136,37.1404959 77.8779473,34.4330579 75.6588072,34.7107438 C73.9944521,34.9190083 72.6074896,37.6958678 72.7461859,39.5702479" id="Fill-133_1_" fill="#90573E"></path>
                    <polygon id="Fill-134_1_" fill="#19124C" points="5.2704577 38.9454545 13.2454924 60.8132231 39.1816921 60.8132231 31.1373093 38.9454545"></polygon>
                </g>
                <g id="persona1_1_" transform="translate(0.270458, 27.768595)">
                    <path d="M81.5533981,111.490909 L81.8307906,116.350413 C81.8307906,116.350413 92.1636616,116.766942 94.1747573,117.252893 C94.7988904,115.656198 86.0610264,111.213223 86.0610264,111.213223 L81.5533981,111.490909 Z" id="Fill-37_1_" fill="#300881"></path>
                    <path d="M59.1539528,78.5157025 C59.1539528,78.5157025 69.7642164,77.4049587 74.5492372,79.9041322 C90.2912621,88.0958678 86.962552,103.923967 86.1303745,111.213223 C83.8418863,111.352066 81.5533981,111.490909 81.5533981,111.490909 C81.5533981,111.490909 85.2981969,93.5801653 75.1040222,88.0958678 C67.961165,84.2082645 61.2343967,84.6247934 60.6796117,84.6942149 C60.0554785,84.7636364 59.1539528,78.5157025 59.1539528,78.5157025" id="Fill-39_1_" fill="#DE8551"></path>
                    <path d="M68.5852982,74.6975207 C68.5852982,74.6975207 78.8488211,75.322314 83.7725381,77.5438017 C95.7697642,82.9586777 100.069348,100.938843 99.2371706,108.228099 C96.9486824,107.950413 94.7295423,107.32562 94.7295423,107.32562 C94.7295423,107.32562 94.7295423,91.7057851 84.5353675,86.2214876 C77.3925104,82.3338843 71.0124827,82.4727273 70.3883495,82.5421488 C69.7642164,82.6809917 68.5852982,74.6975207 68.5852982,74.6975207" id="Fill-43_1_" fill="#EDB090"></path>
                    <path d="M42.5797503,3.3322314 C42.5797503,3.3322314 43.2038835,1.38842975 46.3245492,1.31900826 C49.445215,1.24958678 51.2482663,4.44297521 51.1789182,6.38677686 C51.0402219,8.33057851 50.6934813,9.37190083 51.1789182,10.6214876 C51.6643551,11.8710744 53.259362,14.231405 52.4965326,16.7305785 C51.7337032,19.2297521 51.0402219,21.5206612 48.6130374,20.2016529 C46.185853,18.8132231 41.9556172,4.79008264 42.5797503,3.3322314" id="Fill-45_1_" fill="#9673D0"></path>
                    <path d="M50.554785,17.4247934 C50.6934813,16.7305785 50.7628294,16.0363636 50.7628294,15.3421488 C50.7628294,9.85785124 46.3245492,5.34545455 40.776699,5.34545455 C35.2981969,5.34545455 30.7905687,9.78842975 30.7905687,15.3421488 C30.7905687,18.6049587 32.3855756,21.4512397 34.7434119,23.3256198 L32.7323162,34.6413223 L35.7836338,35.5438017 L39.9445215,29.4347107 C39.9445215,29.4347107 46.5325936,29.4347107 48.6130374,28.3933884 C50.7628294,27.4214876 50.554785,17.4247934 50.554785,17.4247934 Z" id="Fill-47_1_" fill="#EDB090"></path>
                    <path d="M73.0929265,73.7950413 C71.8446602,73.7950413 68.5852982,72.4760331 59.6393897,72.3371901 C47.850208,72.1983471 44.4521498,67.5471074 42.926491,65.7421488 C41.4008322,63.9371901 39.2510402,64.2842975 39.4590846,61.1603306 C39.667129,58.0363636 41.2621359,57.2033058 41.6782247,56.0231405 C42.0943135,54.7735537 38.1414702,33.6 38.1414702,33.6 L32.2468793,30.9619835 C32.2468793,30.9619835 26.9764216,40.4033058 25.5894591,51.4413223 C24.1331484,62.4793388 24.5492372,65.6727273 26.9764216,72.1983471 C29.4036061,78.7239669 36.962552,82.8198347 43.8280166,84.0694215 C51.3869626,85.4578512 69.3481276,85.0413223 73.0235784,87.0545455 C74.9653259,84.4165289 74.2718447,73.7950413 73.0929265,73.7950413" id="Fill-49_1_" fill="#464195"></path>
                    <path d="M48.0582524,8.53884298 C48.0582524,8.53884298 47.9889043,13.3983471 44.9375867,15.8280992 C41.8862691,18.3272727 39.2510402,18.4661157 39.2510402,18.4661157 C39.2510402,18.4661157 35.3675451,14.5785124 33.5644938,17.5636364 C31.7614424,20.5487603 34.6047157,21.8677686 34.6047157,21.8677686 C34.6047157,21.8677686 36.407767,22.214876 35.3675451,26.2413223 C34.3273232,30.2677686 34.1192788,34.1553719 30.8599168,34.5024793 C27.6005548,34.9190083 27.0457698,32.0033058 27.0457698,32.0033058 C27.0457698,32.0033058 19.4868239,30.892562 20.5963939,21.8677686 C21.7059639,12.8429752 24.9653259,14.6479339 26.6990291,14.3702479 C26.1442441,11.5239669 26.4216366,8.05289256 28.2246879,6.10909091 C30.0277393,4.16528926 33.0790569,0.833057851 35.9916782,0.555371901 C38.9042996,0.208264463 47.6421637,-0.485950413 48.0582524,8.53884298" id="Fill-51_1_" fill="#9673D0"></path>
                    <path d="M1.17891817,60.3966942 C1.17891817,60.3966942 -3.74479889,37.6264463 10.7489598,34.5719008 C25.1733703,31.4479339 25.4507628,52.4826446 25.3120666,59.077686 C25.2427184,62.2710744 22.0527046,91.0809917 62.1359223,80.8760331 C62.1359223,80.8760331 72.4687933,78.0297521 74.5492372,86.846281 C76.629681,95.7322314 71.7753121,100.591736 65.6726768,102.119008 C59.5700416,103.715702 32.5242718,105.93719 25.3814147,104.409917 C25.3120666,104.340496 12.1359223,103.854545 1.17891817,60.3966942" id="Fill-135_1_" fill="#FF885F"></path>
                    <polygon id="Fill-136_1_" fill="#34227A" points="21.3592233 115.170248 27.3925104 115.170248 32.6629681 104.895868 26.9764216 104.895868"></polygon>
                    <polygon id="Fill-137_1_" fill="#34227A" points="71.1511789 115.170248 65.0485437 115.170248 59.0152566 103.160331 64.2163662 102.604959"></polygon>
                    <polygon id="Fill-138_1_" fill="#19124C" points="46.4632455 71.9900826 73.7170596 72.9619835 86.3384189 47.2760331 83.7725381 46.9289256 72.5381415 70.046281 46.8099861 69.3520661"></polygon>
                    <path d="M34.8127601,50.9553719 C34.8127601,50.9553719 36.7545076,53.1768595 39.3203883,58.3834711 C41.4701803,62.6181818 44.3134535,67.2 50.8321775,67.5471074 C54.0915395,67.7553719 57.4202497,66.7140496 58.8765603,65.0479339 C61.0263523,62.6181818 61.1650485,60.0495868 62.9680999,58.8694215 C64.9791956,57.5504132 68.5852982,58.7305785 68.5159501,60.1190083 C68.4466019,61.507438 65.0485437,59.077686 64.0083218,61.7157025 C63.3841886,63.3818182 63.6615811,63.5900826 63.3841886,65.0479339 C63.037448,67.2 61.8585298,69.1438017 60.0554785,69.3520661 C58.5991678,69.4909091 53.5367545,72.9619835 47.6421637,71.8512397 C43.8973648,71.1570248 36.8932039,66.922314 33.70319,59.5636364 C30.0970874,51.3024793 29.1955617,51.2330579 30.2357836,49.0809917 C31.2760055,47.0677686 33.4951456,46.2347107 34.8127601,50.9553719" id="Fill-139_1_" fill="#EDB090"></path>
                    <path d="M32.1775312,36.0991736 C33.5644938,35.9603306 35.0901526,36.2380165 35.9223301,40.7504132 C36.7545076,45.2628099 37.517337,52.6909091 37.517337,52.6909091 C37.517337,52.6909091 30.5825243,55.953719 26.9764216,52.6909091 C27.4618585,49.2892562 28.6407767,40.8892562 28.6407767,40.8892562 C28.6407767,40.8892562 29.4036061,36.307438 32.1775312,36.0991736" id="Fill-140_1_" fill="#343474"></path>
                </g>
                <g id="planta7_1_" transform="translate(195.832178, 98.578512)">
                    <path d="M24.5492372,36.8628099 C24.5492372,37.4181818 20.0416089,37.9041322 14.4937587,37.9041322 C8.94590846,37.9041322 4.43828017,37.4181818 4.43828017,36.8628099 C4.43828017,36.307438 8.94590846,35.8214876 14.4937587,35.8214876 C20.0416089,35.8214876 24.5492372,36.307438 24.5492372,36.8628099" id="Fill-23_1_" fill="#FBAFA7"></path>
                    <path d="M12.482663,37.1404959 C12.482663,37.1404959 3.53675451,27.3520661 0.970873786,21.5206612 C-1.52565881,15.6892562 2.56588072,14.6479339 4.64632455,17.7024793 C6.72676838,20.8264463 10.4715673,27.8380165 11.5117892,19.4380165 C12.5520111,11.0380165 11.1650485,9.23305785 12.4133148,8.19173554 C13.6615811,7.15041322 15.2565881,7.8446281 16.4355062,11.8710744 C17.6144244,15.8975207 21.5672677,16.7305785 22.6074896,12.9123967 C23.6477115,9.09421488 26.2829404,0.763636364 30.0970874,1.18016529 C33.9112344,1.6661157 29.9583911,7.70578512 30.0970874,11.1768595 C30.2357836,14.6479339 33.2871012,14.0231405 35.7142857,10.968595 C38.1414702,7.8446281 46.3938974,-1.73553719 50.0693481,1.18016529 C53.7447989,4.09586777 48.5436893,7.8446281 50.0693481,11.5239669 C51.5950069,15.2033058 51.3176144,21.1735537 44.3134535,18.8826446 C37.3092926,16.5917355 37.7947295,23.1173554 37.4479889,24.2975207 C37.1012483,25.477686 35.3675451,29.3652893 30.998613,27.4214876 C26.629681,25.477686 24.2024965,26.3801653 25.8668516,27.9768595 C27.4618585,29.5735537 30.3744799,31.3090909 28.8488211,32.2115702 C27.3231623,33.1140496 21.6366158,30.1289256 19.2094313,31.7256198 C16.7822469,33.322314 15.8807212,37.1404959 15.8807212,37.1404959 L12.482663,37.1404959 Z" id="Fill-19_1_" fill="#519CBB"></path>
                    <path d="M46.9486824,9.58016529 C46.9486824,9.58016529 46.3938974,10.0661157 45.4230236,10.8991736 C44.4521498,11.6628099 42.9958391,12.8429752 41.1927878,14.092562 C40.2912621,14.7173554 39.3203883,15.3421488 38.2108183,16.0363636 C37.1012483,16.661157 35.9916782,17.3553719 34.6740638,17.9107438 C32.1081831,18.9520661 29.334258,19.7157025 26.5603329,20.6876033 C23.7864078,21.5900826 21.0818308,22.631405 18.7933426,24.0892562 C17.6837725,24.8528926 16.7128988,25.6859504 16.0887656,26.7272727 C15.8113731,27.2132231 15.6033287,27.768595 15.4646325,28.3239669 C15.3952843,28.8793388 15.3259362,29.4347107 15.1872399,29.9900826 C14.9098474,32.1421488 14.7018031,33.9471074 14.6324549,35.2661157 C14.5631068,36.5157025 14.6324549,37.2793388 14.6324549,37.2793388 C14.6324549,37.2793388 14.4937587,36.585124 14.4937587,35.2661157 C14.4937587,34.0165289 14.5631068,32.1421488 14.7711512,29.9900826 C14.8404993,29.4347107 14.9098474,28.8793388 14.9791956,28.3239669 C15.0485437,27.6991736 15.2565881,27.0743802 15.6033287,26.5190083 C16.2274619,25.4082645 17.2676838,24.4363636 18.4466019,23.6727273 C20.8044383,22.1454545 23.5783634,21.1041322 26.2829404,20.1322314 C29.0568655,19.2297521 31.9001387,18.3966942 34.3966713,17.4247934 C35.6449376,16.938843 36.8238558,16.3140496 37.8640777,15.6892562 C38.9736477,15.0644628 39.9445215,14.4396694 40.8460472,13.8842975 C42.6490985,12.7041322 44.1747573,11.6628099 45.2149792,10.8991736 C46.3245492,9.99669421 46.9486824,9.58016529 46.9486824,9.58016529" id="Fill-21_1_" fill="#E9E2FA"></path>
                </g>
                <g id="planta6_1_" transform="translate(145.208044, 102.743802)">
                    <path d="M25.2427184,30.2677686 C25.2427184,30.9619835 19.8335645,31.5173554 13.2454924,31.5173554 C6.65742025,31.5173554 1.2482663,30.9619835 1.2482663,30.2677686 C1.2482663,29.5735537 6.65742025,29.0181818 13.2454924,29.0181818 C19.8335645,29.0181818 25.2427184,29.5735537 25.2427184,30.2677686" id="Fill-145_1_" fill="#FBAFA7"></path>
                    <path d="M18.5852982,30.5454545 C18.5852982,30.5454545 23.5090153,22.631405 19.001387,18.3272727 C15.6726768,15.9669421 11.9278779,20.1322314 9.84743412,17.7024793 C7.76699029,15.3421488 17.3370319,7.42809917 14.2163662,3.47107438 C11.1650485,-0.485950413 4.99306519,-0.833057851 1.38696255,2.56859504 C-2.21914008,5.97024793 3.60610264,24.922314 8.0443828,30.5454545 C8.0443828,30.5454545 13.9389736,31.2396694 18.5852982,30.5454545" id="Fill-146_1_" fill="#519CBB"></path>
                    <path d="M13.592233,30.892562 C13.592233,30.892562 13.2454924,30.5454545 12.6213592,29.8512397 C12.3439667,29.5041322 11.9972261,29.0876033 11.5811373,28.6016529 C11.1650485,28.1157025 10.7489598,27.5603306 10.332871,26.8661157 C9.91678225,26.2413223 9.43134535,25.477686 8.94590846,24.7140496 C8.73786408,24.2975207 8.52981969,23.9504132 8.25242718,23.5338843 C8.0443828,23.1173554 7.83633842,22.7008264 7.62829404,22.214876 C7.21220527,21.3123967 6.86546463,20.4099174 6.51872399,19.4380165 C6.31067961,18.9520661 6.24133148,18.4661157 6.10263523,17.9107438 C5.96393897,17.4247934 5.89459085,16.8694215 5.75589459,16.3834711 L5.61719834,15.6198347 L5.61719834,14.8561983 L5.61719834,14.092562 C5.61719834,13.814876 5.61719834,13.5371901 5.68654646,13.3289256 C5.75589459,12.2876033 5.96393897,11.3157025 6.10263523,10.3438017 C6.31067961,9.37190083 6.51872399,8.46942149 6.7961165,7.63636364 C7.07350902,6.80330579 7.35090153,5.97024793 7.69764216,5.27603306 C7.97503467,4.58181818 8.32177531,3.88760331 8.66851595,3.40165289 C9.01525659,2.84628099 9.2926491,2.42975207 9.57004161,2.08264463 C10.1248266,1.38842975 10.5409154,1.04132231 10.5409154,1.04132231 C10.5409154,1.04132231 10.1248266,1.38842975 9.63938974,2.15206612 C9.36199723,2.49917355 9.08460472,2.98512397 8.80721221,3.54049587 C8.52981969,4.09586777 8.25242718,4.72066116 7.97503467,5.48429752 C7.42024965,6.94214876 7.00416089,8.67768595 6.65742025,10.5520661 C6.51872399,11.5239669 6.31067961,12.4958678 6.31067961,13.4677686 C6.31067961,13.7454545 6.24133148,13.953719 6.31067961,14.231405 L6.38002774,14.9950413 L6.44937587,15.7586777 L6.58807212,16.522314 C6.65742025,17.0082645 6.72676838,17.4942149 6.86546463,17.9801653 C7.00416089,18.4661157 7.07350902,18.9520661 7.2815534,19.4380165 C7.55894591,20.4099174 7.97503467,21.3123967 8.32177531,22.214876 C8.52981969,22.631405 8.73786408,23.0479339 8.94590846,23.4644628 C9.15395284,23.8809917 9.36199723,24.2975207 9.57004161,24.6446281 C9.98613037,25.4082645 10.4022191,26.1719008 10.8183079,26.7966942 C11.6504854,28.1157025 12.3439667,29.1570248 12.8987517,29.9206612 C13.3148405,30.4760331 13.592233,30.892562 13.592233,30.892562" id="Fill-147_1_" fill="#E9E2FA"></path>
                </g>
                <g id="planta5_1_" transform="translate(19.687933, 120.099174)">
                    <path d="M49.6532594,36.6545455 C49.6532594,37.3487603 44.2441054,37.9041322 37.6560333,37.9041322 C31.0679612,37.9041322 25.6588072,37.3487603 25.6588072,36.6545455 C25.6588072,35.9603306 31.0679612,35.4049587 37.6560333,35.4049587 C44.2441054,35.4049587 49.6532594,35.8909091 49.6532594,36.6545455" id="Fill-141_1_" fill="#FBAFA7"></path>
                    <path d="M38.9736477,36.9322314 C38.9736477,36.9322314 47.9195562,27.1438017 50.4854369,21.3123967 C52.9819695,15.4809917 48.89043,14.4396694 46.8099861,17.4942149 C44.7295423,20.6181818 40.9847434,27.6297521 39.9445215,19.2297521 C38.9042996,10.8297521 40.2912621,9.02479339 39.0429958,7.98347107 C37.7947295,6.94214876 36.1997226,7.63636364 35.0208044,11.6628099 C33.8418863,15.6892562 29.889043,16.522314 28.8488211,12.7041322 C27.8085992,8.88595041 25.1733703,0.555371901 21.3592233,0.971900826 C17.5450763,1.45785124 21.4979196,7.49752066 21.3592233,10.968595 C21.220527,14.4396694 18.1692094,13.814876 15.742025,10.7603306 C13.3148405,7.63636364 5.06241331,-1.94380165 1.38696255,0.971900826 C-2.28848821,3.88760331 2.91262136,7.63636364 1.38696255,11.3157025 C-0.138696255,14.9950413 0.138696255,20.9652893 7.14285714,18.6743802 C14.147018,16.3834711 13.6615811,22.9090909 14.0083218,24.0892562 C14.3550624,25.2694215 16.0887656,29.1570248 20.4576976,27.2132231 C24.8266297,25.2694215 27.2538141,26.1719008 25.6588072,27.768595 C24.0638003,29.3652893 21.1511789,31.1008264 22.6768377,32.0033058 C24.2024965,32.9057851 29.889043,29.9206612 32.3162275,31.5173554 C34.7434119,33.1140496 35.6449376,36.9322314 35.6449376,36.9322314 L38.9736477,36.9322314 Z" id="Fill-142_1_" fill="#519CBB"></path>
                    <path d="M4.50762829,9.37190083 C4.50762829,9.37190083 5.06241331,9.78842975 6.10263523,10.5520661 C7.14285714,11.3157025 8.59916782,12.3570248 10.4715673,13.5371901 C11.3730929,14.092562 12.4133148,14.7173554 13.4535368,15.3421488 C14.5631068,15.9669421 15.6726768,16.5917355 16.9209431,17.077686 C19.4174757,18.0495868 22.260749,18.8132231 25.0346741,19.785124 C27.8085992,20.7570248 30.5825243,21.7983471 32.8710125,23.3256198 C34.0499307,24.0892562 35.0901526,25.061157 35.7142857,26.1719008 C36.0610264,26.7272727 36.2690707,27.3520661 36.3384189,27.9768595 C36.407767,28.5322314 36.4771151,29.1570248 36.5464632,29.6429752 C36.8238558,31.7950413 36.8238558,33.6694215 36.8238558,34.9190083 C36.8238558,36.168595 36.6851595,36.9322314 36.6851595,36.9322314 C36.6851595,36.9322314 36.7545076,36.168595 36.6851595,34.9190083 C36.6158114,33.6694215 36.4771151,31.8644628 36.1303745,29.6429752 C36.0610264,29.0876033 35.9916782,28.5322314 35.852982,27.9768595 C35.7836338,27.4214876 35.5755895,26.8661157 35.2288488,26.3801653 C34.6047157,25.338843 33.6338419,24.5057851 32.5242718,23.7421488 C30.2357836,22.2842975 27.5312067,21.2429752 24.7572816,20.3404959 C21.9833564,19.368595 19.2094313,18.6049587 16.6435506,17.5636364 C15.3259362,17.0082645 14.2163662,16.3834711 13.1067961,15.6892562 C11.9972261,15.0644628 11.0263523,14.3702479 10.1248266,13.7454545 C8.32177531,12.4958678 6.86546463,11.385124 5.89459085,10.5520661 C5.06241331,9.85785124 4.50762829,9.37190083 4.50762829,9.37190083" id="Fill-143_1_" fill="#E9E2FA"></path>
                </g>
            </g>
        </g>
        <g id="amperson-copy" transform="translate(149.000000, 5.000000)" fill-rule="nonzero" opacity="0.2">
            <g id="ampersand">
                <g id="Group-3" transform="translate(29.848866, 0.000000)" fill="#FCB900">
                    <path d="M57.8471033,235.978462 C29.968262,212.392527 27.5206549,186.007253 50.3848866,156.763077 C53.5488665,152.415165 61.3095718,145.863516 73.6670025,137.227253 L97.9042821,165.697143 C109.485642,178.91956 120.828212,192.320659 131.872292,205.90044 L132.051385,206.198242 C110.739295,239.969011 85.9647355,249.915604 57.8471033,235.978462 M58.1455919,43.1813187 C61.3095718,33.2942857 69.7269521,27.6956044 83.397733,26.3852747 C96.1730479,27.3978022 104.829219,33.2942857 109.306549,44.1938462 C115.216625,58.0118681 112.291436,71.5320879 100.710076,84.6949451 C97.4267003,88.7450549 91.8151134,93.2120879 83.8753149,98.2151648 L71.995466,84.6949451 L70.6821159,83.4441758 C57.7874055,70.46 53.6085642,57.0589011 58.1455919,43.1813187 M169.06398,200.182637 C174.735264,187.972747 178.257431,178.80044 179.630479,172.546593 L185.839043,144.136264 L155.63199,138.716264 L153.184383,154.321099 L149.901008,165.697143 L146.737028,174.571648 L139.513602,165.697143 L120.708816,142.706813 L100.710076,118.287033 C129.30529,98.8107692 142.976071,79.4536264 141.782116,60.2156044 C141.185139,32.6986813 128.529219,13.8775824 103.874055,3.69274725 C86.5020151,-1.84637363 69.6075567,-0.595604396 53.1906801,7.32593407 L52.8921914,7.62373626 L51.6982368,8.2789011 C36.5947103,18.7615385 27.938539,30.7331868 25.6700252,44.1342857 C22.9239295,58.9648352 25.0730479,72.4254945 32.1173804,84.6353846 C35.5201511,92.14 43.4002519,102.384396 55.6979849,115.487692 L55.8770781,116.738462 L42.5047859,125.136484 C24.4760705,138.001538 12.5365239,151.462198 6.6861461,165.637582 C0.776070529,181.123297 -0.955163728,194.583956 1.43274559,206.138681 C4.29823678,222.934725 10.7455919,236.454945 20.7151134,246.63978 C30.6846348,257.896703 42.5644836,265.401319 56.3546599,269.094066 C90.9793451,274.097143 117.126952,267.485934 134.857179,249.32 L137.543577,246.63978 C140.88665,244.019121 145.841562,238.42044 152.408312,229.843736 L169.004282,246.63978 L180.346851,256.229011 L189.301511,262.125495 L190.495466,261.649011 L206.852645,236.276264 C198.435264,231.451868 185.779345,219.420659 169.06398,200.182637" id="Fill-1"></path>
                </g>
                <path d="M81.606801,8.21934066 C66.5032746,18.701978 57.8471033,30.6736264 55.5785894,44.0747253 C52.8324937,58.9052747 54.9816121,72.3659341 62.0259446,84.5758242 C65.4287154,92.0804396 73.3088161,102.324835 85.6065491,115.368571 L85.7856423,116.619341 L52.1161209,123.051868 C27.4012594,99.1681319 18.2078086,76.2373626 24.4163728,54.3786813 C29.7891688,34.3068132 48.8924433,18.8806593 81.606801,8.21934066" id="Fill-4" fill="#FC8100"></path>
                <path d="M139.215113,44.0747253 C134.737783,33.2347253 126.081612,27.2786813 113.246599,26.2661538 C99.5758186,27.5764835 91.1584383,33.1751648 87.9944584,43.0621978 C102.262217,50.3881319 106.441058,63.7892308 100.59068,83.2654945 L101.90403,84.5758242 L113.783879,98.096044 C121.66398,93.092967 127.335264,88.5663736 130.61864,84.5758242 C142.259698,71.412967 145.125189,57.8927473 139.215113,44.0747253" id="Fill-6" fill="#FC8100"></path>
                <path d="M52.1161209,123.111429 L85.7856423,116.678901 L72.4133501,125.076923 C54.3846348,137.941978 42.4450882,151.402637 36.5947103,165.578022 C30.7443325,181.063736 28.9534005,194.524396 31.3413098,206.079121 C34.1471033,222.875165 40.5944584,236.395385 50.6236776,246.58022 C60.593199,257.837143 72.4730479,265.282198 86.2632242,268.974945 C39.2214106,266.592527 11.1037783,246.63978 1.91032746,209.057143 C-4.95491184,174.80989 11.7604534,146.161319 52.1161209,123.111429" id="Fill-8" fill="#FC8100"></path>
                <path d="M127.872544,165.578022 L103.575567,137.108132 C91.2778338,145.803956 83.4574307,152.296044 80.3531486,156.643956 L122.201259,205.066593 L161.780856,205.781319 C150.796474,192.201538 139.453904,178.80044 127.872544,165.578022" id="Fill-10" fill="#FC8100"></path>
                <polygon id="Fill-12" fill="#FC8100" points="185.600252 138.597143 150.61738 142.587692 169.422166 165.578022 176.645592 174.512088 179.809572 165.578022 183.092947 154.201978"></polygon>
                <path d="M161.840554,205.781319 L122.260957,205.066593 C117.903023,216.502198 106.441058,226.806154 87.8153652,235.859341 C115.932997,249.796484 140.647859,239.909451 162.079345,206.01956 L161.840554,205.781319 Z" id="Fill-14" fill="#FC8100"></path>
                <path d="M198.912846,246.58022 L182.316877,229.784176 C175.809824,238.360879 170.854912,243.95956 167.452141,246.58022 L164.765743,249.26044 L175.39194,256.645934 L219.269773,262.065934 L210.315113,256.10989 L198.912846,246.58022 Z" id="Fill-16" fill="#FC8100"></path>
            </g>
        </g>
    </g>
</svg>