<?xml version="1.0" encoding="UTF-8"?>
<svg width="69px" height="122px" viewBox="0 0 69 122" version="1.1" xmlns="http://www.w3.org/2000/svg" xmlns:xlink="http://www.w3.org/1999/xlink">
    <!-- Generator: Sketch 49 (51002) - http://www.bohemiancoding.com/sketch -->
    <title>ilustracion-3c</title>
    <desc>Created with Sketch.</desc>
    <defs></defs>
    <g id="ilustracion-3c" stroke="none" stroke-width="1" fill="none" fill-rule="evenodd">
        <g id="Group-36" transform="translate(3.000000, 4.000000)">
            <path d="M46.219727,18.8203413 C46.1698976,17.1172696 44.776041,15.7657338 43.0716041,15.7657338 L42.6627304,15.7657338 C41.8900341,15.7657338 41.2108532,15.2551536 40.9958362,14.5131741 L39.8094881,10.4080546 L36.1460068,10.8612969 L36.0395222,14.0879181 C36.0088055,15.0237543 35.24157,15.7657338 34.3057338,15.7657338 L32.7937884,15.7657338 C32.4552218,15.7657338 32.1337201,15.8312628 31.8279181,15.9336519 C31.9344027,21.2162457 37.1698976,24.4572014 41.9917406,22.4599317 C43.4750171,21.8462799 44.9644369,20.9425256 46.2497611,19.8148805 C46.2388396,19.4667577 46.2286007,19.1309215 46.219727,18.8203413" id="Fill-64" fill="#FAB9AF"></path>
            <path d="M59.8887372,111.860068 C59.8887372,112.887372 50.0637966,113.720137 37.9441006,113.720137 C25.8249406,113.720137 16,112.887372 16,111.860068 C16,110.832765 25.8249406,110 37.9441006,110 C50.0637966,110 59.8887372,110.832765 59.8887372,111.860068" id="Fill-112" fill-opacity="0.2" fill="#87AFB9"></path>
            <path d="M38.3713311,101.194403 L38.3494881,107.210785 L38.9023891,110.313174 C38.9979522,110.850375 38.5952218,111.347304 38.0498294,111.364369 C35.4382253,111.444232 28.7699659,111.619659 28.5911263,111.330922 C27.7515358,109.97256 31.5467577,109.449693 34.3235495,108.37529 C35.825256,107.79372 35.9542662,104.440819 35.7556314,101.48587 C35.6668942,100.160956 37.337884,99.5159044 38.1549488,100.562321 C38.2962457,100.742526 38.3720137,100.965734 38.3713311,101.194403" id="Fill-67" fill="#FA968C"></path>
            <path d="M34.3233447,108.375222 C34.3383618,108.369761 34.3513311,108.359522 34.3656655,108.353379 C35.027099,108.600478 35.7718089,108.74587 36.6107167,108.74587 C37.3308532,108.74587 37.9827304,108.641433 38.5718089,108.457133 L38.9021843,110.313106 C38.99843,110.850307 38.6004778,111.347235 38.0557679,111.3643 C35.4475768,111.444164 28.7704437,111.620273 28.5909215,111.330853 C27.7513311,109.972491 31.5465529,109.450307 34.3233447,108.375222" id="Fill-68" fill="#965028"></path>
            <path d="M41.1585666,77.0348805 C42.5305802,80.1331741 53.8664164,104.083345 54.7899659,103.390512 C55.5913311,102.789829 49.082116,77.2314676 47.7101024,74.1338567 C46.3380887,71.0355631 43.7592491,69.1734471 41.9503754,69.9748123 C40.1408191,70.7754949 39.7865529,73.936587 41.1585666,77.0348805" id="Fill-69" fill="#41B5E6"></path>
            <path d="M29.0335154,49.3582253 C28.9331741,53.785529 30.674471,81.8756314 34.1140614,81.9541297 C37.5543345,82.0319454 41.3898294,54.0681229 41.4901706,49.6408191 C41.5905119,45.2135154 38.8833447,41.5609556 35.4437543,41.4824573 C32.0041638,41.4046416 29.1338567,44.9309215 29.0335154,49.3582253" id="Fill-70" fill="#0091C8"></path>
            <path d="M38.8653242,76.1187031 C39.2066212,78.5555631 39.2619113,94.1712628 38.7131058,102.103686 L35.5820478,102.103686 C33.9008191,94.4088055 32.1028669,79.4954949 31.7690785,77.1125597 C31.7649829,77.081843 31.7636177,77.0524915 31.7595222,77.0217747 C29.8878498,68.7432765 28.9595222,52.6231399 29.0332423,49.3582935 C29.1342662,44.9309898 32.0038908,41.4047099 35.4434812,41.4825256 C38.8830717,41.5610239 41.5902389,45.2135836 41.4898976,49.6408874 C41.427099,52.4204096 38.7035495,74.9644369 38.8653242,76.1187031" id="Fill-71" fill="#1C9585"></path>
            <path d="M39.4748123,69.2192491 C40.2393174,61.9946758 41.4481911,51.4820478 41.4898294,49.6410922 C41.5901706,45.2131058 38.883686,41.5605461 35.443413,41.4827304 C32.0038225,41.4049147 29.134198,44.9305119 29.0338567,49.3584983 C29.0202048,49.9550853 29.0406826,50.985802 29.0932423,52.3161775 C33.5266894,55.5571331 36.7000683,60.5032082 37.1075768,66.0376792 C37.8359044,67.1366553 38.6604778,68.1769283 39.4748123,69.2192491" id="Fill-72" fill="#177D75"></path>
            <path d="M35.0511263,48.4832765 C34.950785,52.9105802 38.9091468,78.3221843 42.3487372,78.4 C45.7883276,78.4784983 48.0286007,53.1180887 48.1296246,48.690785 C48.2299659,44.2634812 44.9009556,40.6860068 41.4613652,40.6075085 C38.0217747,40.5296928 35.1514676,44.0559727 35.0511263,48.4832765" id="Fill-73" fill="#41B5E6"></path>
            <path d="M53.9101706,107.649147 C55.3122184,107.840273 57.4303072,106.22116 57.8187031,105.524915 C57.828942,105.505802 56.1511263,103.133106 56.1627304,103.114676 L54.5695563,98.8006826 C54.2419113,97.9119454 52.9838908,97.9146758 52.6589761,98.8047782 C52.4405461,99.4047782 52.4548805,100.064846 52.7006143,100.654608 L53.5995904,102.814334 C54.0296246,103.847782 54.1934471,104.973379 54.0753584,106.086689 L53.9101706,107.649147 Z" id="Fill-74" fill="#FAB9AF"></path>
            <path d="M51.871058,109.114744 C52.6819795,108.719522 53.4574061,108.355017 53.7932423,107.539317 C55.3809556,107.024642 56.4840273,105.901775 57.1072355,104.541365 C57.4266894,104.799386 57.7632082,105.107235 57.9720819,105.41099 C58.2587713,105.828055 58.6512628,106.381638 58.9297611,106.771399 C59.1263481,107.046485 59.0915358,107.421911 58.8498976,107.658771 L54.3550171,111.371399 C54.3550171,111.371399 49.7126962,111.436246 49.6328328,111.303823 C49.2874403,110.729761 50.7290785,109.671741 51.871058,109.114744" id="Fill-75" fill="#965028"></path>
            <path d="M47.7101024,74.1336519 C48.557884,76.0483276 53.2657338,92.3575427 55.0998635,100.236724 C54.0486689,100.561638 53.6159044,100.94116 52.5872355,101.328191 C49.3926962,95.0804096 41.794744,81.4988396 40.3688055,78.4005461 C37.7886007,74.5479863 34.957884,52.5875768 35.0513993,48.4831399 C35.1517406,44.0558362 38.0213652,40.5295563 41.4616382,40.6080546 C44.9012287,40.6858703 48.2302389,44.2633447 48.129215,48.6906485 C48.0643686,51.5554949 47.1367235,72.8387713 47.7101024,74.1336519" id="Fill-76" fill="#39AE96"></path>
            <g id="brazo-la" transform="translate(0.000000, 15.000000)">
                <path d="M5.87856655,16.7606826 C5.05331058,16.0043686 6.05535836,14.7122184 6.99119454,15.3012969 C11.8833447,18.381843 16.314744,18.9654608 20.8014334,15.316314 C24.7427304,12.1668259 28.2000683,6.33610922 29.652628,2.79003413 C30.3277133,1.14225256 32.2109898,0.353856655 33.8587713,1.02894198 C35.5065529,1.7040273 36.2949488,3.58662116 35.6198635,5.23440273 C33.8075768,9.6596587 20.3720819,30.0501024 5.87856655,16.7606826" id="Fill-65" fill="#FA968C"></path>
                <path d="M25.8708532,9.63788396 C25.876314,9.62969283 25.8824573,9.62286689 25.8872355,9.61467577 C26.6251195,8.53412969 27.3097611,7.40580205 27.9411604,6.24812287 C28.5664164,5.11911263 29.203959,3.86382253 29.6503754,2.79624573 L29.672901,2.74232082 C29.7083959,2.65699659 29.7486689,2.57303754 29.7923549,2.4890785 C30.6217065,0.912969283 32.5725597,0.308191126 34.1486689,1.13754266 C35.7247782,1.96757679 36.3295563,3.91774744 35.5002048,5.49385666 C34.7220478,6.97235495 33.9684642,8.18122867 33.1077133,9.45358362 C32.5254608,10.2931741 31.9056655,11.1081911 31.2674403,11.9102389 C30.7923549,11.4030717 27.0060068,10.0447099 25.8708532,9.63788396" id="Fill-66" fill="#FA870A"></path>
                <path d="M3.31385666,14.8933106 C3.31385666,14.8933106 5.21215017,16.8189078 5.99167235,16.4346075 C6.77119454,16.0503072 7.22443686,15.648942 6.70703072,14.4933106 C6.19030717,13.3369966 4.93023891,11.9977474 4.01351536,11.3458703 C4.01351536,11.3458703 3.27972696,11.4898976 3.03399317,11.583413 C2.141843,11.9240273 1.69952218,12.2496246 2.53979522,12.7793174 C3.37938567,13.3083276 4.32273038,13.4311945 3.9534471,13.7636177 C3.58416382,14.096041 2.05174061,12.9608874 1.50293515,13.201843 C0.954129693,13.4427986 3.31385666,14.8933106 3.31385666,14.8933106" id="Fill-78" fill="#FA968C"></path>
                <path d="M1.77215017,15.4746758 L0.436996587,15.8460068 L0.808327645,14.5108532 L5.51890785,9.79959044 C5.6356314,9.68286689 5.82539249,9.68286689 5.94211604,9.79959044 L6.48273038,10.3402048 C6.60013652,10.4576109 6.60013652,10.6466894 6.48273038,10.7640956 L1.77215017,15.4746758 Z" id="Fill-87" fill="#D4D4D4"></path>
                <polygon id="Fill-88" fill="#DCBE82" points="0.804914676 14.5219795 0.436996587 15.8462116 1.76054608 15.4776109"></polygon>
                <polygon id="Fill-89" fill="#50555A" points="0.582116041 15.3233447 0.436723549 15.8462116 0.963003413 15.6994539"></polygon>
                <path d="M6.23044369,11.016314 L6.48300341,10.7637543 C6.59972696,10.6470307 6.59972696,10.4572696 6.48300341,10.3405461 L5.94238908,9.79993174 C5.82566553,9.68320819 5.63590444,9.68320819 5.51918089,9.79993174 L5.26662116,10.0524915 L6.23044369,11.016314 Z" id="Fill-90" fill="#FFA50A"></path>
                <polygon id="Fill-91" fill="#50555A" points="5.93146758 11.307099 4.97174061 10.347372 5.26662116 10.0524915 6.22634812 11.0122184"></polygon>
                <path d="M6.70737201,14.4930375 C6.43023891,13.8732423 5.93877133,13.2063481 5.40225256,12.6172696 C5.39542662,13.1503754 5.05003413,13.6793857 4.36334471,13.6793857 C4.24047782,13.6793857 4.13262799,13.6575427 4.0316041,13.6268259 C4.0309215,13.6691468 4.0083959,13.714198 3.9537884,13.7640273 C3.58450512,14.0957679 2.05139932,12.9606143 1.50259386,13.20157 C0.953788396,13.4425256 3.31419795,14.8930375 3.31419795,14.8930375 C3.31419795,14.8930375 5.21180887,16.8186348 5.99201365,16.4343345 C6.77153584,16.0500341 7.22409556,15.6486689 6.70737201,14.4930375" id="Fill-92" fill="#FA968C"></path>
            </g>
            <path d="M32.6965188,15.7659386 L34.3661433,15.7659386 C34.9477133,17.1120137 36.17843,18.1522867 38.0869625,18.1522867 C39.9995904,18.1522867 41.2746758,16.8990444 41.8555631,15.5529693 L43.3340614,15.7659386 C44.8917406,15.7659386 46.1675085,16.9980205 46.2118771,18.5556997 C46.3286007,22.6144027 46.5927645,30.4355631 47.0582935,37.5065529 C47.4794539,43.9072355 49.2268942,49.8546758 48.0316724,51.6000683 C48.0316724,51.6000683 32.5374744,54.0799317 28.5893515,50.474471 C28.8466894,44.6376109 29.4999317,21.7106485 29.7681911,18.4587713 C29.894471,16.9345392 31.1675085,15.7659386 32.6965188,15.7659386" id="Fill-77" fill="#FFA50A"></path>
            <g id="brazo-ca" transform="translate(36.000000, 0.000000)">
                <path d="M5.0752901,3.61071672 C5.0752901,3.61071672 7.69372014,4.28580205 8.1647099,3.55542662 C8.63569966,2.8243686 8.81795222,2.24757679 7.77972696,1.52197952 C6.7421843,0.797064846 4.97221843,0.296040956 3.85071672,0.208668942 C2.72989761,0.120614334 0.788600683,0.767030717 0.626825939,0.973174061 C0.0363822526,1.7247099 2.08416382,1.67078498 3.07665529,1.69262799 C4.06982935,1.71447099 5.18860068,1.83802048 5.04320819,2.3131058 C4.89713311,2.78750853 2.99883959,2.6025256 2.65208191,3.0912628 C2.30532423,3.58 5.0752901,3.61071672 5.0752901,3.61071672" id="Fill-63" fill="#FAB9AF"></path>
                <path d="M9.07174061,16.0195222 C16.6184983,17.9942662 24.6478498,15.5922184 15.2676451,8.18812287 C11.9830034,5.68027304 7.44307167,3.47686007 7.89085324,3.70552901 C6.91883959,3.20860068 7.46901024,1.72600683 8.52703072,1.97720137 C11.477884,2.67686007 14.3925597,3.6516041 17.2123549,5.11030717 C32.1727645,12.9164505 22.6430717,26.3785666 7.34955631,22.2270307 C5.63351536,21.7608191 4.61986348,19.9915358 5.08539249,18.2748123 C5.54887372,16.5683276 7.30040956,15.5567235 9.00757679,16.0024573 L9.07174061,16.0195222 Z" id="Fill-79" fill="#FAB9AF"></path>
                <path d="M14.4269625,16.6129693 C12.6877133,16.6819113 10.8317406,16.4273038 9.04129693,15.9358362 L9.00307167,15.9249147 L8.98191126,15.9194539 C7.22150171,15.4484642 5.41262799,16.494198 4.94232082,18.2546075 C4.47133106,20.0156997 5.51706485,21.8245734 7.2774744,22.2948805 C9.97576792,23.0163823 12.8645051,23.3201365 15.7880546,22.8518771 C15.7880546,22.8518771 15.7375427,18.1802048 14.4269625,16.6129693" id="Fill-80" fill="#FA870A"></path>
            </g>
            <path d="M39.6976109,11.0688737 L39.8948805,11.0688737 C41.3979522,11.0688737 42.6163823,9.85044369 42.6163823,8.34737201 L42.6163823,4.32552901 L39.6976109,4.32552901 L39.6976109,11.0688737 Z" id="Fill-81" fill="#3C5A73"></path>
            <path d="M36.1459386,10.8613652 L39.8094198,10.4081229 L40.5309215,12.9050512 C39.7111263,13.8292833 38.494744,15.2647782 37.1616382,15.2647782 C36.7391126,15.2647782 36.3534471,15.1453242 36.007372,14.925529 L36.1459386,10.8613652 Z" id="Fill-82" fill="#FA968C"></path>
            <path d="M37.1946758,13.3503072 C39.6663481,13.3503072 41.6704437,11.3462116 41.6704437,8.87453925 L41.6704437,3.88887372 L33.9939932,3.88887372 C33.9939932,3.88887372 33.9939932,7.78102389 34.5530375,10.4076451 C34.9728328,12.3782935 35.9346075,13.3503072 37.1946758,13.3503072" id="Fill-83" fill="#FAB9AF"></path>
            <polygon id="Fill-84" fill="#3C5A73" points="40.6368601 6.4552901 42.0791809 6.4552901 42.0791809 5.80136519 40.6368601 5.80136519"></polygon>
            <path d="M40.3686007,7.93194539 C40.3686007,8.90464164 40.8341297,9.69303754 41.4088737,9.69303754 C41.9829352,9.69303754 42.6163823,8.41795222 42.6163823,7.44525597 C42.6163823,6.47255973 41.9829352,6.17017065 41.4088737,6.17017065 C40.8341297,6.17017065 40.3686007,6.95924915 40.3686007,7.93194539" id="Fill-85" fill="#FAB9AF"></path>
            <path d="M33.46157,5.93945392 C33.2820478,5.31829352 32.8704437,3.28279863 33.7032082,1.61658703 C35.0049147,1.95515358 35.9714676,1.67665529 37.2062799,1.6759727 L39.7974061,1.67460751 C41.3544027,1.67392491 42.6165188,2.93604096 42.6165188,4.49303754 L42.6165188,5.09713311 L41.3414334,6.27119454 L40.9762457,7.4425256 L40.8745392,7.4425256 C40.3803413,7.4425256 39.9762457,7.05822526 39.9448464,6.57153584 C39.8936519,5.76880546 39.3400683,5.09713311 38.5359727,5.09713311 L36.236314,5.09713311 C34.836314,5.09713311 34.1093515,5.84866894 34.1093515,6.89508532 L34.1803413,7.78109215 L33.46157,5.93945392 Z" id="Fill-86" fill="#3C5A73"></path>
        </g>
    </g>
</svg>