<?xml version="1.0" encoding="UTF-8"?>
<svg width="69px" height="122px" viewBox="0 0 69 122" version="1.1" xmlns="http://www.w3.org/2000/svg" xmlns:xlink="http://www.w3.org/1999/xlink">
    <!-- Generator: Sketch 49 (51002) - http://www.bohemiancoding.com/sketch -->
    <title>ilustracion-3b</title>
    <desc>Created with Sketch.</desc>
    <defs></defs>
    <g id="ilustracion-3b" stroke="none" stroke-width="1" fill="none" fill-rule="evenodd">
        <g id="Group-35" transform="translate(3.000000, 5.000000)">
            <path d="M30.063413,33.9038225 C30.063413,33.9038225 34.2142662,22.0430717 33.9521502,18.8655973 C33.8251877,17.3304437 32.5432765,16.1556997 31.0026621,16.1556997 L28.4108532,16.1556997 C27.8770648,16.1556997 27.4395222,15.7318089 27.4217747,15.1987031 L27.3091468,11.7686689 L24.3767235,11.4062116 L23.2101706,15.4410239 C23.0879863,15.8642321 22.700273,16.1556997 22.26,16.1556997 L21.0088055,16.1556997 C19.3521502,16.1556997 17.9965188,17.4690102 17.9480546,19.1256655 C17.8313311,23.1379522 20.4402048,34.2519454 20.4402048,34.2519454 C20.4402048,34.2519454 15.0238225,49.6498976 16.1862799,50.9987031 C16.1862799,50.9987031 31.9350853,49.6915358 34.6627304,46.5611604 C37.0210922,43.8553584 30.063413,33.9038225 30.063413,33.9038225" id="Fill-5" fill="#FAB9AF"></path>
            <path d="M23.7104437,11.4690102 L22.7036177,11.4690102 C21.4251195,11.4690102 20.3882594,10.4321502 20.3882594,9.15365188 L20.3882594,6.33590444 L23.7104437,6.33590444 L23.7104437,11.4690102 Z" id="Fill-22" fill="#FF640A"></path>
            <path d="M24.4465529,7.28389078 C22.6342662,9.09617747 19.9544027,9.35351536 18.4602048,7.86 C16.9666894,6.36580205 17.2247099,3.68593857 19.036314,1.87365188 C20.8486007,0.0620477816 23.5284642,-0.195972696 25.0226621,1.29754266 C26.5161775,2.79174061 26.2588396,5.4716041 24.4465529,7.28389078" id="Fill-23" fill="#FF640A"></path>
            <path d="M30.2764505,5.92614334 C30.2764505,5.92614334 29.6006826,7.45174061 30.1010239,9.00668942 C30.6020478,10.5623208 30.2928328,12.4879181 28.9972696,13.8974744 C28.9972696,13.8974744 28.7474403,11.6954266 28.3085324,10.6408191 C27.8703072,9.5868942 28.1583618,6.48313993 30.2764505,5.92614334" id="Fill-43" fill="#FF8C46"></path>
            <path d="M27.4759727,4.60696246 C27.4759727,4.60696246 30.3476451,6.4137884 29.998157,8.84860068 C29.998157,8.84860068 31.5319454,7.76191126 31.8787031,4.02129693 C32.1189761,1.42948805 27.4759727,4.60696246 27.4759727,4.60696246" id="Fill-44" fill="#FF640A"></path>
            <path d="M34.3469625,19.4409556 C34.0568601,25.2730375 36.2780205,27.683959 36.2780205,27.683959 C36.2377474,27.712628 36.2111263,27.8054608 36.4766553,27.7146758 C36.7176109,27.6798635 37.282116,27.1836177 37.4575427,27.0122867 C40.8807509,23.552901 44.2268259,12.447099 43.9974744,13.1467577 C44.336041,12.1133106 45.8868942,12.4737201 45.7428669,13.5460751 C45.3804096,16.2627986 44.9285324,18.98157 44.2370648,21.6935154 C44.0800683,22.3740614 43.863686,23.0498294 43.6759727,23.731058 C38.4350171,39.2607509 28.685529,32.4170648 28.0834812,19.4409556 C28.0029352,17.665529 29.3694881,16.2320819 31.0698294,16.152901 C32.7995222,16.0730375 34.267099,17.4102389 34.3476451,19.1399317 C34.3517406,19.2395904 34.3517406,19.3433447 34.3469625,19.4409556" id="Fill-45" fill="#FAB9AF"></path>
            <path d="M21.7588396,99.0282594 L22.042116,105.439181 C22.0434812,105.480819 22.0407509,105.522457 22.0339249,105.563413 L21.6332423,107.863754 C21.4817065,108.734061 22.1342662,109.534744 23.0168601,109.556587 C25.8694198,109.626894 31.3895563,109.729966 31.5486007,109.469898 C32.3602048,108.146348 28.7055973,107.547031 25.9636177,106.618703 C24.114471,105.992082 24.3670307,100.422799 24.5772696,97.9251877 C24.6175427,97.4446416 24.0837543,97.134744 23.6830717,97.403686 L22.0127645,98.5251877 C21.8462116,98.6371331 21.7499659,98.8275768 21.7588396,99.0282594" id="Fill-46" fill="#FA968C"></path>
            <path d="M26.0727645,108.149488 C27.3123549,108.149488 28.5096246,108.020478 29.6673038,107.796587 C31.0570648,108.254608 31.999727,108.734471 31.5485324,109.470307 C31.3758362,109.752218 24.8823208,109.606826 22.3464846,109.539249 C21.8161092,109.524915 21.4277133,109.043003 21.5184983,108.520819 L21.6843686,107.569283 C23.1184983,107.933788 24.5888055,108.149488 26.0727645,108.149488" id="Fill-47" fill="#823264"></path>
            <path d="M43.8887372,108.860068 C43.8887372,109.887372 34.0637966,110.720137 21.9441006,110.720137 C9.82494063,110.720137 0,109.887372 0,108.860068 C0,107.832765 9.82494063,107 21.9441006,107 C34.0637966,107 43.8887372,107.832765 43.8887372,108.860068" id="Fill-112" fill-opacity="0.2" fill="#87AFB9"></path>
            <path d="M23.4197952,100.227235 C23.9631399,100.297543 24.4464164,99.8975427 24.4894198,99.3514676 C25.2293515,90.0245051 28.7098976,79.9849147 29.0798635,77.9057338 C29.6559727,74.6620478 28.5883959,71.7596587 26.694198,71.4224573 C24.8,71.0859386 22.7972696,73.4422526 22.2197952,76.6859386 C21.8307167,78.8750171 21.6054608,91.2586348 21.7754266,99.2012969 C21.7856655,99.6729693 22.1406143,100.062048 22.6081911,100.122116 L23.4197952,100.227235 Z" id="Fill-48" fill="#FA968C"></path>
            <path d="M34.3649147,49.2385666 C34.1184983,53.5375427 30.2516041,80.6290102 26.9116724,80.437884 C23.5717406,80.2460751 22.0236177,52.8453925 22.2693515,48.5457338 C22.5157679,44.2467577 25.4229352,40.9163823 28.7628669,41.1081911 C32.1027986,41.2993174 34.6113311,44.9395904 34.3649147,49.2385666" id="Fill-49" fill="#FA968C"></path>
            <path d="M20.44,34.2518089 C20.44,34.2518089 17.8420478,22.8142662 17.9553584,18.8681911 C17.9990444,17.3535154 19.2393174,16.1555631 20.7539932,16.1555631 L22.2359044,16.1555631 C22.8004096,17.4647782 23.996314,18.4756997 25.8556997,18.4756997 C27.7116724,18.4756997 28.9082594,17.4647782 29.4734471,16.1555631 L30.865256,16.1555631 C29.352628,19.3931058 29.8966553,23.6640956 32.4980205,26.1562457 C31.392901,30.0620478 30.0632082,33.903686 30.0632082,33.903686 C30.0632082,33.903686 37.02157,43.8552218 34.6632082,46.5617065 C31.9348805,49.6920819 16.1860751,50.9985666 16.1860751,50.9985666 C15.0243003,49.3016382 20.44,34.2518089 20.44,34.2518089" id="Fill-51" fill="#C3417D"></path>
            <path d="M27.3091468,11.7690102 L24.3767235,11.4058703 L23.928942,12.9546758 C24.5855973,13.6946075 25.4286007,15.2932423 26.4961775,15.2932423 C26.834744,15.2932423 27.1432765,15.1983618 27.4204096,15.0222526 L27.3091468,11.7690102 Z" id="Fill-52" fill="#FA968C"></path>
            <path d="M27.4593174,14.227099 C26.5644369,14.663959 24.154198,14.1158362 23.3371331,12.3704437 C22.8579522,11.3458703 22.3719454,10.3315358 22.3719454,9.45508532 L22.3719454,4.60730375 L29.8354266,4.60730375 C29.8354266,4.60730375 30.3958362,7.18136519 29.8518089,9.7356314 C29.4443003,11.6516724 28.325529,13.8045734 27.4593174,14.227099" id="Fill-53" fill="#FAB9AF"></path>
            <polygon id="Fill-54" fill="#FF640A" points="21.9733788 7.10238908 23.3761092 7.10238908 23.3761092 6.4662116 21.9733788 6.4662116"></polygon>
            <path d="M23.6373379,8.53802048 C23.6373379,9.48409556 23.1847782,10.2506485 22.6257338,10.2506485 C22.067372,10.2506485 21.4516724,9.01105802 21.4516724,8.06498294 C21.4516724,7.11890785 22.067372,6.82539249 22.6257338,6.82539249 C23.1847782,6.82539249 23.6373379,7.59194539 23.6373379,8.53802048" id="Fill-55" fill="#FAB9AF"></path>
            <path d="M24.1929693,2.45392491 L26.7124232,2.45460751 C27.4325597,2.4552901 28.1315358,2.2668942 28.7438225,1.91877133 C29.6332423,1.41433447 30.7567918,1.58225256 31.3629352,2.40546075 C32.0182253,3.29419795 32.3021843,4.48464164 30.6400683,5.58771331 C29.8134471,6.13515358 28.6059386,5.52832765 27.8011604,5.79112628 C27.7513311,5.78976109 27.7069625,5.78156997 27.6550853,5.78156997 L25.4352901,5.78156997 C24.6632765,5.78156997 24.0728328,6.41228669 24.0509898,7.18361775 C24.0366553,7.67098976 23.6366553,8.06279863 23.1451877,8.06279863 L23.0468942,8.06279863 L22.6912628,6.92354949 L21.5513311,5.87303754 C21.4878498,5.81433447 21.4516724,5.73242321 21.4516724,5.64641638 L21.4516724,5.19385666 C21.4516724,3.68054608 22.6789761,2.45324232 24.1929693,2.45392491" id="Fill-56" fill="#FF640A"></path>
            <path d="M45.7825256,10.5708532 C45.7825256,10.5708532 46.2330375,13.1612969 45.4876451,13.5606143 C44.7429352,13.9599317 44.1695563,14.0916724 43.5470307,13.0288737 C42.9251877,11.9667577 42.57843,10.2124915 42.5804778,9.11897611 C42.5832082,8.02546075 43.3606826,6.19406143 43.5736519,6.0534471 C44.3477133,5.54013652 44.1354266,7.5203413 44.0794539,8.48416382 C44.0234812,9.44798635 44.0555631,10.5421843 44.5272355,10.43843 C44.9989078,10.3339932 44.9675085,8.48006826 45.4685324,8.18177474 C45.9688737,7.88416382 45.7825256,10.5708532 45.7825256,10.5708532" id="Fill-57" fill="#FAB9AF"></path>
            <g id="pierna" transform="translate(4.000000, 40.000000)">
                <g id="Parte-alta" transform="translate(12.000000, 0.000000)" fill="#FAB9AF">
                    <path d="M13.2294881,8.2203413 C13.1557679,12.5261433 9.63017065,36.388942 6.28477816,36.3316041 C2.94006826,36.2742662 0.44109215,12.2203413 0.514812287,7.91522184 C0.589215017,3.6094198 3.96191126,0.262662116 7.30662116,0.32 C10.6520137,0.378020478 13.3032082,3.91453925 13.2294881,8.2203413" id="Fill-50"></path>
                </g>
                <g id="parte-baja" transform="translate(0.000000, 30.000000)">
                    <path d="M18.6354266,0.634948805 C16.9173379,-0.231262799 12.834744,2.7905802 11.3521502,5.73255973 C10.216314,7.98648464 6.76307167,20.7653242 4.96102389,27.8970648 C5.40197952,28.3250512 5.85795222,28.7373379 6.33167235,29.1325597 C10.0736519,23.2349488 17.6695563,9.03426621 18.8210922,6.74962457 C20.303686,3.80764505 20.3535154,1.50116041 18.6354266,0.634948805" id="Fill-94" fill="#FAB9AF"></path>
                    <path d="M5.79870307,24.7554949 L3.09767918,31.1302389 C2.84784983,31.7206826 2.42737201,32.2203413 1.88812287,32.5664164 C1.65399317,32.7159044 1.3065529,33.0831399 1.03215017,33.4012287 C0.816450512,33.6517406 0.800068259,34.0176109 0.995290102,34.2845051 C1.93590444,35.5705119 4.5509215,38.0135154 4.94546075,38.3582253 C5.3843686,38.7425256 8.51542662,39.4367235 8.62122867,39.1814334 C8.79324232,38.7664164 8.44238908,38.3896246 7.85399317,38.0005461 C7.20757679,37.5732423 6.70996587,36.9513993 6.39187713,36.2449147 C5.9625256,35.2926962 5.5843686,34.457884 5.30109215,33.836041 C4.96662116,33.0988396 4.97549488,32.2551536 5.32293515,31.5247782 L6.87924915,28.2551536 L5.79870307,24.7554949 Z" id="Fill-95" fill="#FAB9AF"></path>
                    <path d="M4.40662116,39.2853925 L0.177952218,35.1161092 C-0.0452559727,34.8751536 -0.0609556314,34.5092833 0.143139932,34.2512628 C0.315836177,34.0335154 0.525392491,33.7673038 0.731535836,33.5024573 C0.838703072,33.3645734 1.04825939,33.3597952 1.16771331,33.4874403 C4.67419795,37.2546758 5.60525597,38.3591126 7.38136519,37.5741297 C8.21617747,38.1017747 8.91856655,38.7086007 8.76361775,39.2000683 C8.65030717,39.55843 4.40662116,39.2853925 4.40662116,39.2853925" id="Fill-96" fill="#823264"></path>
                </g>
            </g>
            <path d="M13.2623208,63.2958362 C13.1217065,61.719727 13.0397952,60.1006143 13.0397952,58.4398635 C13.0397952,43.8610239 18.6984983,32.0425939 25.6787031,32.0425939 C32.6595904,32.0425939 38.3182935,43.8610239 38.3182935,58.4398635 C38.3182935,60.1006143 38.2356997,61.719727 38.0950853,63.2958362 C30.1926962,65.2753584 21.9496928,65.4596587 13.2623208,63.2958362" id="Fill-59" fill="#C3417D"></path>
            <path d="M30.0131058,31.736314 C30.5305119,31.6216382 30.948942,31.2407509 31.1107167,30.7356314 L31.1182253,30.7117406 C25.1066212,30.4073038 19.8991126,26.2250512 18.0315358,20.6776109 C18.1974061,22.5724915 18.6028669,25.0653242 19.0349488,27.3970648 C19.4745392,29.7704437 21.3714676,31.5943345 23.7584983,31.9540614 C23.7830717,31.9574744 23.8076451,31.96157 23.8322184,31.9649829 C25.542116,32.220273 28.3250512,32.1096928 30.0131058,31.736314" id="Fill-60" fill="#AA3C6E"></path>
            <path d="M27.5597952,9.01255973 C23.7843686,10.7750171 21.518157,8.99959044 20.3283959,10.8733106 C20.3283959,10.8733106 19.5161092,7.10744027 21.7345392,6.338157 C24.2444369,5.46784983 28.6478498,4.9047099 29.8232765,2.44054608 C29.8232765,2.44054608 31.3352218,7.25078498 27.5597952,9.01255973" id="Fill-61" fill="#FF8C46"></path>
            <g id="brazo" transform="translate(16.000000, 16.000000)" fill="#FAB9AF">
                <path d="M41.2492833,12.7266894 C41.2492833,12.7266894 38.7038908,12.0700341 38.2458703,12.7806143 C37.7878498,13.4911945 37.6103754,14.0522867 38.6199317,14.7574061 C39.6288055,15.4625256 41.3496246,15.949215 42.439727,16.0345392 C43.5298294,16.1205461 45.4172014,15.4918771 45.5748805,15.2911945 C46.148942,14.5601365 44.1578157,14.6133788 43.192628,14.5915358 C42.2274403,14.5703754 41.1393857,14.4502389 41.2806826,13.9888055 C41.4226621,13.5266894 43.2683959,13.7068942 43.6055973,13.2318089 C43.9427986,12.7567235 41.2492833,12.7266894 41.2492833,12.7266894" id="Fill-58"></path>
                <path d="M7,2.96546075 C6.99863481,2.93952218 6.99522184,2.91358362 6.9883959,2.88901024 C10.5153584,13.3490785 34.2430034,12.5251877 39.2300341,12.6009556 C40.294198,12.6173379 40.4430034,14.1593174 39.4006826,14.37843 C33.4143345,15.6357679 27.9952218,16.4460068 21.8027304,16.1866212 C1.44846416,15.0821843 -2.60682594,1.20914676 3.44709898,0.32109215 C5.15836177,0.0705802048 6.74880546,1.25419795 7,2.96546075" id="Fill-62"></path>
            </g>
        </g>
    </g>
</svg>