<?xml version="1.0" encoding="UTF-8"?>
<svg width="345px" height="290px" viewBox="0 0 345 290" version="1.1" xmlns="http://www.w3.org/2000/svg" xmlns:xlink="http://www.w3.org/1999/xlink">
    <!-- Generator: Sketch 49 (51002) - http://www.bohemiancoding.com/sketch -->
    <title>Mobile</title>
    <desc>Created with Sketch.</desc>
    <defs></defs>
    <g id="Mobile" stroke="none" stroke-width="1" fill="none" fill-rule="evenodd">
        <g id="Group-2" transform="translate(19.000000, 9.000000)" fill-rule="nonzero">
            <g id="sombras_piso" transform="translate(21.000000, 256.000000)" fill="#FBAFA7">
                <path d="M287,6.33333333 C287,9.6 262.436937,12.3333333 232.120946,12.3333333 C201.804955,12.3333333 177.241892,9.66666667 177.241892,6.33333333 C177.241892,3 201.804955,0.333333333 232.120946,0.333333333 C262.436937,0.333333333 287,3.06666667 287,6.33333333" id="Fill-25"></path>
                <path d="M189.975901,6.2 C189.975901,9.46666667 165.412838,12.2 135.096847,12.2 C104.780856,12.2 80.2177928,9.53333333 80.2177928,6.2 C80.2177928,2.93333333 104.780856,0.2 135.096847,0.2 C165.412838,0.266666667 189.975901,2.93333333 189.975901,6.2" id="Fill-27"></path>
                <path d="M109.887387,6.33333333 C109.887387,9.6 85.3243243,12.3333333 55.0083333,12.3333333 C24.6923423,12.3333333 0.129279279,9.66666667 0.129279279,6.33333333 C0.129279279,3 24.6923423,0.333333333 55.0083333,0.333333333 C85.3243243,0.333333333 109.887387,3.06666667 109.887387,6.33333333" id="Fill-29"></path>
                <path d="M212.147297,14.4666667 C212.147297,15.1333333 207.105405,15.6666667 200.96464,15.6666667 C194.759234,15.6666667 189.781982,15.1333333 189.781982,14.4666667 C189.781982,13.8 194.823874,13.2666667 200.96464,13.2666667 C207.170045,13.2666667 212.147297,13.8 212.147297,14.4666667" id="Fill-144"></path>
                <path d="M268.706982,14.0666667 C268.706982,14.6 264.505405,15.0666667 259.334234,15.0666667 C254.163063,15.0666667 249.961486,14.6 249.961486,14.0666667 C249.961486,13.5333333 254.163063,13.0666667 259.334234,13.0666667 C264.505405,13.0666667 268.706982,13.4666667 268.706982,14.0666667" id="Fill-148"></path>
            </g>
            <g id="amperson" transform="translate(75.000000, 0.000000)">
                <g id="ampersand">
                    <g id="Group-3" transform="translate(28.517588, 0.000000)" fill="#FEE28C">
                        <path d="M55.2670854,225.903509 C28.6316583,203.324561 26.2932161,178.065789 48.1376884,150.070175 C51.1605528,145.907895 58.5751256,139.635965 70.381407,131.368421 L93.5376884,158.622807 C104.602513,171.280702 115.439196,184.109649 125.990704,197.109649 L126.161809,197.394737 C105.800251,229.723684 82.1306533,239.245614 55.2670854,225.903509 M55.5522613,41.3377193 C58.5751256,31.872807 66.6170854,26.5131579 79.6781407,25.2587719 C91.8836683,26.2280702 100.153769,31.872807 104.431407,42.3070175 C110.077889,55.5350877 107.283166,68.4780702 96.2183417,81.0789474 C93.081407,84.9561404 87.7201005,89.2324561 80.1344221,94.0219298 L68.7844221,81.0789474 L67.5296482,79.8815789 C55.2100503,67.4517544 51.2175879,54.622807 55.5522613,41.3377193 M161.523618,191.635965 C166.94196,179.947368 170.307035,171.166667 171.618844,165.179825 L177.550503,137.982456 L148.690704,132.79386 L146.352261,147.732456 L143.215327,158.622807 L140.192462,167.118421 L133.291206,158.622807 L115.325126,136.614035 L96.2183417,113.236842 C123.538191,94.5921053 136.599246,76.0614035 135.458543,57.6447368 C134.888191,31.3026316 122.796734,13.2850877 99.241206,3.53508772 C82.6439698,-1.76754386 66.5030151,-0.570175439 50.8183417,7.01315789 L50.5331658,7.29824561 L49.3924623,7.9254386 C34.9625628,17.9605263 26.6924623,29.4210526 24.5251256,42.25 C21.9015075,56.4473684 23.9547739,69.3333333 30.6849246,81.0219298 C33.9359296,88.2061404 41.4645729,98.0131579 53.2138191,110.557018 L53.3849246,111.754386 L40.6090452,119.79386 C23.3844221,132.109649 11.9773869,144.995614 6.3879397,158.565789 C0.741457286,173.390351 -0.912562814,186.276316 1.36884422,197.337719 C4.10653266,213.416667 10.2663317,226.359649 19.791206,236.109649 C29.3160804,246.885965 40.6660804,254.070175 53.841206,257.605263 C86.921608,262.394737 111.903015,256.065789 128.842462,238.675439 L131.409045,236.109649 C134.603015,233.600877 139.336935,228.241228 145.610804,220.030702 L161.466583,236.109649 L172.303266,245.289474 L180.858543,250.934211 L181.999246,250.47807 L197.626884,226.188596 C189.584925,221.570175 177.493467,210.052632 161.523618,191.635965" id="Fill-1"></path>
                    </g>
                    <path d="M77.9670854,7.86842105 C63.5371859,17.9035088 55.2670854,29.3640351 53.0997487,42.1929825 C50.4761307,56.3903509 52.529397,69.2763158 59.2595477,80.9649123 C62.5105528,88.1491228 70.039196,97.9561404 81.7884422,110.442982 L81.9595477,111.640351 L49.7917085,117.798246 C26.1791457,94.9342105 17.3957286,72.9824561 23.3273869,52.0570175 C28.4605528,32.8421053 46.711809,18.0745614 77.9670854,7.86842105" id="Fill-4" fill="#FEC98C"></path>
                    <path d="M133.00603,42.1929825 C128.728392,31.8157895 120.458291,26.1140351 108.195729,25.1447368 C95.1346734,26.3991228 87.0927136,31.7587719 84.0698492,41.2236842 C97.7012563,48.2368421 101.693719,61.0657895 96.1042714,79.7105263 L97.3590452,80.9649123 L108.709045,93.9078947 C116.237688,89.1184211 121.65603,84.7850877 124.792965,80.9649123 C135.914824,68.3640351 138.652513,55.4210526 133.00603,42.1929825" id="Fill-6" fill="#FEC98C"></path>
                    <path d="M49.7917085,117.855263 L81.9595477,111.697368 L69.1836683,119.736842 C51.9590452,132.052632 40.5520101,144.938596 34.9625628,158.508772 C29.3731156,173.333333 27.6620603,186.219298 29.9434673,197.280702 C32.6241206,213.359649 38.7839196,226.302632 48.3658291,236.052632 C57.8907035,246.828947 69.2407035,253.95614 82.4158291,257.491228 C37.4721106,255.210526 10.6085427,236.109649 1.82512563,200.131579 C-4.7339196,167.346491 11.2359296,139.921053 49.7917085,117.855263" id="Fill-8" fill="#FEC98C"></path>
                    <path d="M122.169347,158.508772 L98.9560302,131.254386 C87.2067839,139.578947 79.7351759,145.79386 76.7693467,149.95614 L116.751005,196.311404 L154.565327,196.995614 C144.070854,183.995614 133.234171,171.166667 122.169347,158.508772" id="Fill-10" fill="#FEC98C"></path>
                    <polygon id="Fill-12" fill="#FEC98C" points="177.322362 132.679825 143.899749 136.5 161.865829 158.508772 168.767085 167.061404 171.78995 158.508772 174.926884 147.618421"></polygon>
                    <path d="M154.622362,196.995614 L116.80804,196.311404 C112.644472,207.258772 101.693719,217.122807 83.8987437,225.789474 C110.762312,239.131579 134.374874,229.666667 154.850503,197.223684 L154.622362,196.995614 Z" id="Fill-14" fill="#FEC98C"></path>
                    <path d="M190.041206,236.052632 L174.185427,219.973684 C167.968593,228.184211 163.234673,233.54386 159.983668,236.052632 L157.417085,238.618421 L167.569347,245.688596 L209.490201,250.877193 L200.934925,245.175439 L190.041206,236.052632 Z" id="Fill-16" fill="#FEC98C"></path>
                </g>
            </g>
            <g id="Layer_1" transform="translate(0.000000, 127.000000)">
                <path d="M106.2,126.24876 L105.293204,130.725207 C105.293204,130.725207 114.490707,133.514876 116.239528,134.488017 C117.211096,133.190496 110.345354,127.092149 110.345354,127.092149 L106.2,126.24876 Z" id="Fill-41_1_" fill="#300881"></path>
                <g id="persona2_1_" transform="translate(116.822469, 1.946281)">
                    <path d="M2.13744799,129.492562 L1.61927878,134.552893 C1.61927878,134.552893 14.7678225,134.228512 16.7757282,134.163636 C15.0916782,130.400826 5.05214979,129.946694 5.05214979,129.946694 L2.13744799,129.492562 Z" id="Fill-53_1_" fill="#0F0D33"></path>
                    <path d="M2.59084605,75.2561983 L0.842024965,77.4619835 C0.842024965,77.4619835 4.72829404,107.369835 4.27489598,112.624793 C3.82149792,117.879752 2.13744799,130.01157 2.13744799,130.01157 L6.02371706,129.881818 C6.02371706,129.881818 10.6872399,113.857438 11.140638,111.781405 C11.5940361,109.705372 10.7520111,74.9966942 10.7520111,74.9966942 L2.59084605,75.2561983 Z" id="Fill-55_1_" fill="#DD4412"></path>
                    <path d="M19.3665742,74.7371901 C19.3665742,74.7371901 20.8563107,93.1619835 19.3665742,104.190909 C17.8120666,115.154959 14.5087379,130.984711 14.5087379,130.984711 L10.298613,131.114463 C10.298613,131.114463 11.7883495,115.933471 11.2701803,110.87314 C10.7520111,105.81281 6.28280166,90.1128099 4.59875173,87.5826446 C2.9147018,85.0524793 -0.453398058,79.4082645 1.36019417,75.4508264 C3.30332871,71.2338843 19.3665742,74.7371901 19.3665742,74.7371901" id="Fill-57_1_" fill="#FA5C17"></path>
                    <path d="M10.4281553,130.530579 L9.90998613,135.590909 C9.90998613,135.590909 23.0585298,135.266529 25.0664355,135.201653 C23.3823856,131.438843 13.3428571,130.984711 13.3428571,130.984711 L10.4281553,130.530579 Z" id="Fill-59_1_" fill="#19124C"></path>
                    <path d="M26.4914008,14.7268595 C26.4914008,14.4024793 26.556172,14.0132231 26.4914008,13.688843 C26.3618585,8.10950413 21.7631068,3.76280992 16.1927878,3.89256198 C10.6224688,4.02231405 6.28280166,8.6285124 6.41234397,14.2078512 C6.47711512,16.8677686 7.57822469,19.2681818 9.32704577,21.0198347 C10.2338419,25.1070248 10.1690707,31.5297521 10.1690707,31.5297521 L10.2338419,33.2165289 C10.2338419,33.2165289 15.4803051,34.1896694 15.9984743,32.2433884 C16.5166436,30.3619835 17.4882108,27.0533058 19.0427184,26.7938017 C20.6619972,26.5342975 25.0664355,26.5991736 25.7789182,25.6260331 C26.4914008,24.7177686 26.4914008,19.2033058 26.556172,19.0086777 C26.6857143,18.7491736 28.0459085,17.9057851 28.0459085,17.3867769 C28.1106796,16.9326446 26.4914008,14.7268595 26.4914008,14.7268595" id="Fill-61_1_" fill="#F89A5B"></path>
                    <path d="M11.140638,18.7491736 C11.140638,18.7491736 11.7883495,23.1607438 10.8815534,23.485124 C9.97475728,23.7446281 8.29070735,23.485124 8.3554785,22.3822314 C8.42024965,21.2793388 7.70776699,19.7871901 6.86574202,18.8789256 C6.02371706,17.9706612 3.04424411,13.1698347 6.28280166,7.0714876 C8.80887656,2.27066116 16.0632455,1.55702479 17.8768377,2.20578512 C19.6256588,2.85454545 21.0506241,3.56818182 21.5687933,2.27066116 C22.0869626,1.03801653 24.0300971,-0.389256198 26.2323162,0.973140496 C28.4345354,2.33553719 28.1754508,5.90371901 25.9732316,6.8768595 C23.7710125,7.85 20.4676838,7.33099174 20.0142857,7.0714876 C19.5608877,6.81198347 18.2654646,9.79628099 17.3586685,10.7694215 C16.4518724,11.742562 14.7678225,12.7157025 14.7678225,12.7157025 L15.0269071,16.2190083 C15.0269071,16.2190083 14.0553398,14.0132231 12.3065187,14.5322314 C10.6872399,14.9214876 9.78044383,17.4516529 11.140638,18.7491736" id="Fill-63_1_" fill="#300881"></path>
                    <path d="M27.3334258,19.1384298 C27.3334258,19.1384298 23.5119279,17.2570248 20.4676838,18.5545455 C17.4234397,19.8520661 17.6177531,22.3173554 17.6177531,23.4202479 C17.552982,24.7177686 17.9416089,27.1181818 20.0142857,27.507438 C22.0221914,27.8966942 27.1391123,27.2479339 26.8152566,24.9772727 C26.556172,22.9661157 23.5119279,24.1338843 22.4755895,24.2636364 C21.439251,24.3933884 20.4676838,23.1607438 21.1801664,21.7983471 C21.8926491,20.3710744 25.4550624,20.5657025 26.556172,20.8252066 C27.6572816,20.9549587 27.9811373,19.592562 27.3334258,19.1384298" id="Fill-65_1_" fill="#300881"></path>
                    <path d="M8.74410541,30.0376033 C8.74410541,30.0376033 18.2654646,29.5834711 18.848405,30.6214876 C19.4313454,31.5946281 20.5324549,76.618595 20.5324549,76.618595 L0.259084605,76.6834711 C0.259084605,76.6834711 6.86574202,31.5297521 8.74410541,30.0376033" id="Fill-67_1_" fill="#DADADE"></path>
                    <polygon id="Fill-69_1_" fill="#19124C" points="36.854785 49.3706612 37.8263523 51.2520661 47.6715673 41.4557851 44.8216366 40.0285124"></polygon>
                    <polygon id="Fill-71_1_" fill="#0A091C" points="47.6715673 42.6235537 38.4740638 52.2252066 37.8263523 51.2520661 47.6715673 41.4557851"></polygon>
                    <path d="M34.0696255,54.2363636 C34.0696255,54.2363636 35.7536755,50.5384298 36.7900139,49.3706612 C37.8263523,48.2028926 39.7047157,47.4243802 39.6399445,47.8785124 C39.5751734,48.3326446 38.2149792,50.1491736 38.2149792,50.1491736 C38.2149792,50.1491736 41.5183079,49.3057851 42.2307906,47.6838843 C42.9432732,46.0619835 44.8216366,45.218595 44.7568655,45.7376033 C44.6920943,46.2566116 41.5183079,54.0417355 40.7410541,54.6256198 C39.9638003,55.2095041 37.1138696,57.8045455 35.4298197,57.6747934 C33.8105409,57.5450413 34.0696255,54.2363636 34.0696255,54.2363636" id="Fill-73_1_" fill="#F89A5B"></path>
                    <path d="M12.0474341,34.7086777 C12.6303745,32.2433884 16.6461859,31.4 16.7757282,34.2545455 C16.9700416,39.4446281 16.8404993,46.3863636 17.1643551,49.5652893 C17.4234397,52.1603306 18.2654646,58.3235537 24.3539528,56.896281 C30.5072122,55.5338843 34.5230236,52.3549587 34.5230236,52.3549587 L37.4377254,57.4152893 C37.4377254,57.4152893 26.7504854,62.9297521 20.985853,62.9946281 C15.7393897,62.9946281 12.8246879,60.918595 11.7883495,54.1714876 C10.7520111,47.4243802 11.4644938,37.1739669 12.0474341,34.7086777" id="Fill-75_1_" fill="#FFD63F"></path>
                </g>
                <g id="planta7_1_" transform="translate(201.672677, 98.611570)">
                    <path d="M22.9289875,34.4491736 C22.9289875,34.9681818 18.7188627,35.422314 13.5371706,35.422314 C8.3554785,35.422314 4.14535368,34.9681818 4.14535368,34.4491736 C4.14535368,33.9301653 8.3554785,33.4760331 13.5371706,33.4760331 C18.7188627,33.4760331 22.9289875,33.9301653 22.9289875,34.4491736" id="Fill-23_1_" fill="#FBAFA7"></path>
                    <path d="M11.6588072,34.7086777 C11.6588072,34.7086777 3.30332871,25.561157 0.906796117,20.1115702 C-1.42496533,14.6619835 2.39653259,13.688843 4.33966713,16.5433884 C6.28280166,19.4628099 9.78044383,26.0152893 10.7520111,18.1652893 C11.7235784,10.3152893 10.4281553,8.6285124 11.5940361,7.6553719 C12.7599168,6.6822314 14.2496533,7.33099174 15.3507628,11.0938017 C16.4518724,14.8566116 20.143828,15.635124 21.1153953,12.0669421 C22.0869626,8.49876033 24.5482663,0.713636364 28.1106796,1.10289256 C31.6730929,1.55702479 27.9811373,7.20123967 28.1106796,10.4450413 C28.2402219,13.688843 31.0901526,13.1049587 33.3571429,10.2504132 C35.6241331,7.33099174 43.3319001,-1.62190083 46.7647712,1.10289256 C50.1976422,3.82768595 45.3398058,7.33099174 46.7647712,10.7694215 C48.1897365,14.2078512 47.9306519,19.7871901 41.3887656,17.646281 C34.8468793,15.5053719 35.3002774,21.603719 34.9764216,22.7066116 C34.6525659,23.8095041 33.0332871,27.442562 28.9527046,25.6260331 C24.8721221,23.8095041 22.6051318,24.6528926 24.1596394,26.1450413 C25.6493759,27.6371901 28.3697642,29.2590909 26.9447989,30.1024793 C25.5198336,30.9458678 20.2085992,28.1561983 17.9416089,29.6483471 C15.6746186,31.1404959 14.8325936,34.7086777 14.8325936,34.7086777 L11.6588072,34.7086777 Z" id="Fill-19_1_" fill="#519CBB"></path>
                    <path d="M43.8500693,8.95289256 C43.8500693,8.95289256 43.3319001,9.40702479 42.425104,10.1855372 C41.5183079,10.8991736 40.1581137,12.0020661 38.4740638,13.1698347 C37.6320388,13.753719 36.7252427,14.3376033 35.6889043,14.9863636 C34.6525659,15.5702479 33.6162275,16.2190083 32.3855756,16.7380165 C29.989043,17.711157 27.3981969,18.4247934 24.8073509,19.3330579 C22.2165049,20.1764463 19.69043,21.1495868 17.552982,22.5119835 C16.5166436,23.2256198 15.6098474,24.0041322 15.0269071,24.9772727 C14.7678225,25.431405 14.573509,25.9504132 14.4439667,26.4694215 C14.3791956,26.9884298 14.3144244,27.507438 14.1848821,28.0264463 C13.9257975,30.0376033 13.731484,31.7243802 13.6667129,32.9570248 C13.6019417,34.1247934 13.6667129,34.8384298 13.6667129,34.8384298 C13.6667129,34.8384298 13.5371706,34.1896694 13.5371706,32.9570248 C13.5371706,31.7892562 13.6019417,30.0376033 13.7962552,28.0264463 C13.8610264,27.507438 13.9257975,26.9884298 13.9905687,26.4694215 C14.0553398,25.8855372 14.2496533,25.3016529 14.573509,24.7826446 C15.1564494,23.7446281 16.1280166,22.8363636 17.2291262,22.1227273 C19.4313454,20.6954545 22.0221914,19.722314 24.5482663,18.8140496 C27.1391123,17.9706612 29.7947295,17.1921488 32.126491,16.2838843 C33.2923717,15.8297521 34.3934813,15.2458678 35.3650485,14.6619835 C36.401387,14.0780992 37.3081831,13.4942149 38.150208,12.9752066 C39.834258,11.872314 41.2592233,10.8991736 42.2307906,10.1855372 C43.267129,9.34214876 43.8500693,8.95289256 43.8500693,8.95289256" id="Fill-21_1_" fill="#E9E2FA"></path>
                </g>
                <g id="persona3_1_" transform="translate(162.809986, 0.000000)">
                    <polygon id="Fill-77_1_" fill="#34227A" points="29.2765603 82.1330579 24.4834951 132.087603 20.4676838 132.087603 18.2654646 72.4016529"></polygon>
                    <path d="M24.4834951,132.087603 L24.2244105,137.147934 C24.2244105,137.147934 14.573509,137.407438 13.278086,137.407438 C13.278086,136.045041 20.5324549,132.087603 20.5324549,132.087603 L24.4834951,132.087603 Z" id="Fill-79_1_" fill="#19124C"></path>
                    <path d="M38.6683773,70.9743802 L38.6683773,109.25124 L40.287656,132.152479 L36.3366158,132.152479 C36.3366158,132.152479 33.8753121,112.689669 33.0980583,109.770248 C32.3208044,106.850826 27.1391123,83.4305785 27.00957,83.0413223 C26.8800277,82.6520661 20.5972261,78.1107438 18.2654646,72.4665289 C18.3950069,71.8826446 18.7188627,70.0661157 18.7188627,70.0661157 L27.3981969,66.9520661 L38.6683773,70.9743802 Z" id="Fill-81_1_" fill="#464195"></path>
                    <path d="M36.3366158,132.087603 L36.5957004,137.147934 C36.5957004,137.147934 46.2466019,137.407438 47.542025,137.407438 C47.542025,136.045041 40.287656,132.087603 40.287656,132.087603 L36.3366158,132.087603 Z" id="Fill-83_1_" fill="#19124C"></path>
                    <polygon id="Fill-85_1_" fill="#19124C" points="7.83730929 34.1247934 7.51345354 17.8409091 0.582940361 18.2950413 1.16588072 34.9033058"></polygon>
                    <path d="M18.6540915,42.4938017 C18.6540915,42.4938017 15.868932,49.3057851 13.0837725,48.7867769 C10.298613,48.2677686 9.32704577,35.422314 9.32704577,35.422314 C9.32704577,35.422314 10.5576976,30.4917355 9.13273232,29.1942149 C7.70776699,27.8318182 5.570319,26.8586777 5.05214979,27.7020661 C4.53398058,28.6103306 6.60665742,28.7400826 7.25436893,29.518595 C7.90208044,30.3619835 7.57822469,34.1247934 7.57822469,34.1247934 L5.4407767,34.3194215 C5.4407767,34.3194215 8.0963939,51.057438 11.7883495,52.1603306 C15.4803051,53.2632231 21.1153953,47.4243802 21.439251,45.4780992 C21.6983356,43.5966942 18.6540915,42.4938017 18.6540915,42.4938017" id="Fill-87_1_" fill="#CC845B"></path>
                    <path d="M24.8073509,31.9190083 L21.8278779,47.6838843 L16.710957,42.5586777 C16.710957,42.5586777 23.2528433,31.5297521 24.2891817,31.6595041 C25.260749,31.7892562 24.8073509,31.9190083 24.8073509,31.9190083" id="Fill-89_1_" fill="#DDBA44"></path>
                    <path d="M24.1596394,16.9326446 L42.8137309,18.9438017 C42.8137309,18.9438017 41.5830791,21.4090909 42.0364771,24.7826446 C42.4898752,28.1561983 47.0886269,38.4066116 46.7,43.9859504 C46.3113731,49.5652893 43.0728155,53.6524793 39.1865465,53.9768595 C35.3002774,54.2363636 20.4029126,51.2520661 21.8926491,42.4938017 C23.3823856,33.7355372 25.5846047,31.1404959 24.9368932,25.8206612 C24.2244105,20.4359504 22.2165049,18.6842975 24.1596394,16.9326446" id="Fill-91_1_" fill="#300881"></path>
                    <path d="M34.9116505,20.6954545 C37.6320388,19.1384298 39.5104022,16.2190083 39.5104022,12.8454545 C39.5104022,7.85 35.4945908,3.76280992 30.4424411,3.76280992 C25.4550624,3.76280992 21.3744799,7.78512397 21.3744799,12.8454545 C21.3744799,13.1698347 21.3744799,13.4942149 21.439251,13.818595 L21.3744799,13.8834711 C21.3744799,13.8834711 20.2733703,16.6731405 20.5972261,17.1272727 C20.985853,17.581405 21.7631068,17.581405 21.7631068,17.581405 L21.9574202,21.0198347 C21.9574202,21.0198347 22.4755895,24.5231405 25.3902913,24.4582645 C28.3049931,24.3933884 30.1185853,23.4202479 30.1185853,23.4202479 C29.989043,25.9504132 29.147018,31.0107438 29.147018,31.0107438 L26.556172,31.0107438 L25.8436893,35.4871901 L31.0901526,35.8115702 L32.579889,34.1896694 L34.4582524,30.9458678 L33.0332871,30.9458678 L34.1991678,22.4471074 L34.9116505,20.6954545 Z" id="Fill-93_1_" fill="#CC845B"></path>
                    <path d="M32.3208044,8.95289256 C32.3208044,8.95289256 30.831068,11.807438 32.126491,13.4942149 C33.4866852,15.1809917 35.8832178,13.9483471 35.8832178,13.9483471 C35.8832178,13.9483471 37.3729542,11.2235537 38.2149792,11.677686 C39.0570042,12.1318182 40.3524272,14.0780992 38.6683773,16.6082645 C36.9195562,19.1384298 35.559362,17.711157 35.559362,17.711157 L34.1991678,22.3822314 L42.3603329,22.3822314 C42.3603329,22.3822314 47.3477115,11.872314 42.3603329,4.86570248 C37.3729542,-2.14090909 27.7868239,0.454132231 22.9937587,4.02231405 C19.6256588,6.48760331 17.9416089,10.8991736 18.5245492,13.4942149 C19.1074896,16.0892562 21.5040222,12.0020661 21.5040222,12.0020661 C21.5040222,12.0020661 21.3744799,13.4942149 22.4108183,13.818595 C23.3176144,14.2727273 27.2038835,13.818595 32.3208044,8.95289256" id="Fill-95_1_" fill="#300881"></path>
                    <path d="M23.8357836,32.3731405 C23.8357836,32.3731405 19.4313454,44.1157025 19.8199723,45.9971074 C20.2085992,47.8785124 22.4755895,49.5004132 22.4755895,49.5004132 L18.2006935,72.4016529 L39.8990291,72.4016529 L37.2434119,62.735124 L38.992233,31.0756198 L24.6778086,31.4 C24.7425798,31.4 24.2244105,31.2702479 23.8357836,32.3731405" id="Fill-97_1_" fill="#FFD63F"></path>
                    <path d="M41.5183079,43.142562 C41.5183079,43.142562 43.4614424,55.5338843 43.6557559,61.5024793 C43.8500693,67.4710744 43.267129,76.6834711 43.267129,76.6834711 C43.267129,76.6834711 43.267129,84.468595 42.2307906,86.6095041 C41.1944521,88.6855372 39.6399445,90.0479339 39.1217753,89.0747934 C38.6036061,88.1016529 39.9638003,85.0524793 40.2228849,83.9495868 C40.4819695,82.7818182 40.2228849,80.2516529 40.2228849,80.2516529 C40.2228849,80.2516529 39.2513176,83.5603306 38.992233,84.403719 C38.7331484,85.2471074 37.4377254,85.7012397 37.69681,83.1710744 C37.9558946,80.7057851 39.834258,77.1376033 39.834258,77.1376033 C39.834258,77.1376033 41.0649098,74.2181818 40.6115118,66.627686 C40.2228849,59.0371901 37.1786408,44.5049587 37.9558946,42.5586777 C38.9274619,40.5475207 41.5183079,43.142562 41.5183079,43.142562" id="Fill-99_1_" fill="#CC845B"></path>
                    <path d="M36.9843273,31.5946281 L36.3366158,45.4780992 C36.3366158,45.4780992 40.8058252,47.1 44.3034674,44.3752066 C44.3034674,42.5586777 39.0570042,31.0756198 39.0570042,31.0756198 L36.9843273,31.5946281 Z" id="Fill-101_1_" fill="#FFD63F"></path>
                </g>
                <g id="persona4_1_" transform="translate(206.854369, 22.706612)">
                    <path d="M60.5610264,38.4714876 C60.5610264,40.2231405 58.7474341,47.2946281 54.0839112,49.2409091 C49.4203883,51.1871901 32.5151179,51.5764463 31.8674064,51.7710744 C31.1549237,51.9657025 24.6130374,55.2095041 27.00957,54.95 C28.9527046,54.7553719 31.2196949,53.5876033 32.4503467,53.7173554 C34.0048544,53.9119835 35.3650485,54.1714876 36.1423024,54.4958678 C36.9195562,54.8202479 40.0933426,53.7173554 40.0933426,53.7173554 C40.0933426,53.7173554 52.0112344,55.014876 54.7963939,53.6524793 C57.5815534,52.2252066 64.70638,48.7867769 66.1961165,40.0285124 C66.7790569,36.6549587 65.7427184,33.9950413 63.7348128,34.1247934 C62.0507628,34.1896694 60.5610264,36.7198347 60.5610264,38.4714876" id="Fill-103_1_" fill="#6D402D"></path>
                    <path d="M0.259084605,57.4152893 L0.259084605,60.3347107 C0.259084605,61.3727273 12.7599168,62.2161157 28.2402219,62.2161157 C43.720527,62.2161157 56.2213592,61.3727273 56.2213592,60.3347107 L56.2213592,57.4152893 L0.259084605,57.4152893 Z" id="Fill-105_1_" fill="#BBBBBB"></path>
                    <path d="M56.2213592,57.4152893 C56.2213592,58.4533058 43.720527,59.2966942 28.2402219,59.2966942 C12.7599168,59.2966942 0.259084605,58.4533058 0.259084605,57.4152893 C0.259084605,56.3772727 12.7599168,55.5338843 28.2402219,55.5338843 C43.6557559,55.5338843 56.2213592,56.3772727 56.2213592,57.4152893" id="Fill-107_1_" fill="#300881"></path>
                    <path d="M6.15325936,110.54876 L6.15325936,112.689669 C6.15325936,113.468182 15.2212205,114.052066 26.4266297,114.052066 C37.6320388,114.052066 46.7,113.468182 46.7,112.689669 L46.7,110.54876 L6.15325936,110.54876 Z" id="Fill-109_1_" fill="#19124C"></path>
                    <path d="M46.7,110.54876 C46.7,111.327273 37.6320388,111.911157 26.4266297,111.911157 C15.2212205,111.911157 6.15325936,111.327273 6.15325936,110.54876 C6.15325936,109.770248 15.2212205,109.186364 26.4266297,109.186364 C37.6320388,109.121488 46.7,109.770248 46.7,110.54876" id="Fill-111_1_" fill="#300881"></path>
                    <polygon id="Fill-113_1_" fill="#BBBBBB" points="24.6130374 109.770248 28.2402219 109.770248 28.2402219 62.2161157 24.6130374 62.2161157"></polygon>
                    <polygon id="Fill-115_1_" fill="#19124C" points="36.5957004 56.831405 52.5294036 56.831405 52.5294036 55.8582645 36.2718447 55.8582645"></polygon>
                    <polygon id="Fill-116_1_" fill="#19124C" points="43.720527 105.683058 45.0159501 105.683058 45.0159501 77.9809917 43.720527 77.9809917"></polygon>
                    <polygon id="Fill-117_1_" fill="#19124C" points="72.6732316 109.380992 73.9686546 109.380992 73.9686546 77.9809917 72.6732316 77.9809917"></polygon>
                    <polygon id="Fill-118_1_" fill="#DD4412" points="43.720527 73.8938017 43.720527 78.0458678 55.3145631 85.4417355 55.3145631 80.381405"></polygon>
                    <polygon id="Fill-119_1_" fill="#DD4412" points="85.5626907 80.381405 55.3145631 80.381405 43.720527 73.8938017 68.2687933 73.8938017"></polygon>
                    <path d="M85.5626907,41.3909091 L85.5626907,80.381405 L81.5468793,80.381405 L81.5468793,78.8892562 L68.2687933,73.9586777 L68.2687933,36.2008264 C68.2687933,36.2008264 76.4299584,26.6640496 85.5626907,41.3909091" id="Fill-120_1_" fill="#FA5C17"></path>
                    <path d="M81.5468793,40.7421488 L81.5468793,78.8892562 L64.252982,73.2450413 L64.252982,35.4871901 C64.252982,35.4871901 72.414147,25.9504132 81.5468793,40.7421488" id="Fill-121_1_" fill="#DD4412"></path>
                    <polygon id="Fill-122_1_" fill="#FA5C17" points="55.3145631 85.4417355 85.5626907 85.4417355 85.5626907 80.381405 55.3145631 80.381405"></polygon>
                    <polygon id="Fill-123_1_" fill="#19124C" points="55.3145631 113.143802 56.6099861 113.143802 56.6099861 85.4417355 55.3145631 85.4417355"></polygon>
                    <polygon id="Fill-124_1_" fill="#19124C" points="84.2672677 113.143802 85.5626907 113.143802 85.5626907 85.4417355 84.2672677 85.4417355"></polygon>
                    <path d="M46.6352288,109.056612 L46.7,112.949174 C46.7,112.949174 37.4377254,113.208678 36.0775312,113.208678 C36.0775312,111.846281 43.3319001,109.056612 43.3319001,109.056612 L46.6352288,109.056612 Z" id="Fill-125_1_" fill="#464195"></path>
                    <path d="M40.2228849,105.942562 L39.0570042,109.640496 C39.0570042,109.640496 29.8595007,107.823967 28.5640777,107.499587 C28.8879334,106.13719 36.5957004,105.228926 36.5957004,105.228926 L40.2228849,105.942562 Z" id="Fill-126_1_" fill="#464195"></path>
                    <path d="M66.9085992,5.90371901 C66.9085992,5.90371901 57.3872399,3.11404959 54.861165,4.99545455 C50.132871,8.4338843 47.9306519,13.818595 47.9306519,16.8028926 C47.9306519,20.9549587 52.4646325,21.7334711 52.3350902,23.8743802 C52.1407767,25.9504132 48.7079057,30.2971074 49.9385576,33.0867769 C51.6873786,37.1739669 57.1929265,40.2231405 64.0586685,39.5095041 C70.9891817,38.7958678 79.279889,34.2545455 79.2151179,29.0644628 C79.1503467,23.3553719 75.0049931,21.4090909 75.0049931,19.1384298 C75.0049931,16.2190083 76.4947295,16.2838843 75.7822469,10.3152893 C75.5231623,7.91487603 66.9085992,5.90371901 66.9085992,5.90371901" id="Fill-127_1_" fill="#9673D0"></path>
                    <path d="M72.6732316,13.2995868 C72.6732316,8.2392562 68.5926491,4.08719008 63.4757282,4.08719008 C58.4235784,4.08719008 54.2782247,8.17438017 54.2782247,13.2995868 C54.2782247,13.5590909 54.2782247,13.818595 54.3429958,14.0780992 C54.3429958,14.0780992 52.7237171,19.2033058 54.0839112,23.1607438 C55.4441054,27.1181818 59.5246879,27.3128099 61.0144244,26.9884298 C62.5041609,26.6640496 63.9938974,27.507438 64.0586685,31.7892562 C64.1234397,36.1359504 67.4267684,33.1516529 67.4267684,33.1516529 L68.2040222,31.2702479 L66.3256588,25.8855372 C66.3256588,25.8855372 67.4915395,25.431405 68.2040222,23.3553719 C68.5278779,22.4471074 68.7869626,21.538843 68.9165049,20.7603306 C71.1834951,19.0735537 72.6732316,16.3487603 72.6732316,13.2995868" id="Fill-128_1_" fill="#90573E"></path>
                    <path d="M53.565742,7.00661157 C53.565742,7.00661157 52.4646325,13.6239669 56.9338419,14.9863636 C61.4030513,16.4136364 67.4915395,13.2995868 67.4915395,13.2995868 L67.9449376,15.3107438 C67.9449376,15.3107438 71.2482663,11.6128099 71.8959778,13.2995868 C72.5436893,14.9214876 72.2846047,18.6842975 69.6937587,18.6842975 C67.1029126,18.6842975 70.0823856,23.3553719 70.0823856,23.3553719 C70.0823856,23.3553719 75.1345354,20.1764463 75.5879334,15.1809917 C76.0413315,10.1855372 75.9117892,6.35785124 73.3209431,4.15206612 C70.7300971,1.94628099 68.0744799,-0.519008264 62.8927878,1.1677686 C57.6463245,2.85454545 54.4725381,4.34669421 53.565742,7.00661157" id="Fill-129_1_" fill="#9673D0"></path>
                    <path d="M62.1803051,61.1132231 C62.1803051,61.1132231 51.8816921,66.757438 44.2386963,67.5359504 C36.5957004,68.3144628 38.2149792,82.5871901 37.9558946,85.1173554 C37.69681,87.6475207 36.401387,105.423554 36.401387,105.423554 C36.401387,105.423554 38.6683773,106.331818 40.287656,106.072314 C40.287656,106.072314 46.3761442,82.0681818 48.0601942,72.2070248 C48.0601942,72.2070248 63.4757282,66.0438017 70.1471567,59.5561983 C70.0823856,59.6859504 65.8722607,61.2429752 62.1803051,61.1132231" id="Fill-130_1_" fill="#FFD63F"></path>
                    <path d="M72.0902913,58.7128099 C72.0902913,58.7128099 81.8059639,65.7842975 72.0255201,74.607438 C64.6416089,80.1219008 49.4203883,79.8623967 49.4203883,79.8623967 C49.4203883,79.8623967 49.8090153,97.8330579 46.6352288,109.186364 C46.6352288,109.186364 45.3398058,109.186364 43.2023578,109.316116 C43.2023578,109.316116 43.8500693,101.790496 43.0080444,95.1082645 C43.0080444,95.1082645 46.6352288,79.1487603 48.0601942,72.3367769 C48.0601942,72.3367769 61.7269071,66.627686 70.1471567,59.6859504 C70.0823856,59.6859504 70.9891817,59.1669421 72.0902913,58.7128099" id="Fill-131_1_" fill="#E6C03B"></path>
                    <path d="M62.1803051,61.1132231 C62.1803051,61.1132231 62.1803051,52.3549587 60.7553398,49.7599174 C59.2656033,47.164876 57.4520111,44.0508264 59.0712899,39.6392562 C60.7553398,35.227686 62.3098474,33.2165289 62.3098474,33.2165289 L68.139251,30.8161157 C68.139251,30.8161157 72.6084605,30.8161157 73.3209431,33.411157 C73.70957,34.7735537 72.0902913,58.6479339 72.0902913,58.6479339 C72.0902913,58.6479339 67.1029126,61.5673554 62.1803051,61.1132231" id="Fill-132_1_" fill="#34227A"></path>
                    <path d="M67.9449376,36.9793388 C68.0744799,38.7309917 66.7790569,45.9322314 62.2450763,48.2028926 C57.7758669,50.4735537 40.9353675,52.0954545 40.2228849,52.3549587 C39.5104022,52.6144628 33.2276006,56.2475207 35.559362,55.8582645 C37.5024965,55.5338843 39.6399445,54.2363636 40.9353675,54.2363636 C42.4898752,54.3012397 43.8500693,54.4958678 44.6273232,54.7553719 C45.404577,55.014876 48.5135922,53.7173554 48.5135922,53.7173554 C48.5135922,53.7173554 60.4962552,54.1714876 63.1518724,52.5495868 C65.8074896,50.927686 72.6732316,46.9702479 73.5800277,38.1471074 C73.9038835,34.7086777 72.7380028,32.1785124 70.6653259,32.4380165 C69.1108183,32.6326446 67.8153953,35.227686 67.9449376,36.9793388" id="Fill-133_1_" fill="#90573E"></path>
                    <polygon id="Fill-134_1_" fill="#19124C" points="4.92260749 36.3954545 12.3712899 56.831405 36.5957004 56.831405 29.0822469 36.3954545"></polygon>
                </g>
                <g id="persona1_1_" transform="translate(17.722607, 25.950413)">
                    <path d="M76.1708738,104.190909 L76.4299584,108.732231 C76.4299584,108.732231 86.0808599,109.121488 87.9592233,109.57562 C88.5421637,108.083471 80.3809986,103.931405 80.3809986,103.931405 L76.1708738,104.190909 Z" id="Fill-37_1_" fill="#300881"></path>
                    <path d="M55.249792,73.3747934 C55.249792,73.3747934 65.1597781,72.3367769 69.6289875,74.672314 C84.3320388,82.327686 81.2230236,97.1194215 80.4457698,103.931405 C78.3083218,104.061157 76.1708738,104.190909 76.1708738,104.190909 C76.1708738,104.190909 79.668516,87.4528926 70.1471567,82.327686 C63.4757282,78.6946281 57.1929265,79.0838843 56.6747573,79.1487603 C56.0918169,79.2136364 55.249792,73.3747934 55.249792,73.3747934" id="Fill-39_1_" fill="#DE8551"></path>
                    <path d="M64.0586685,69.8066116 C64.0586685,69.8066116 73.6447989,70.3904959 78.2435506,72.4665289 C89.4489598,77.5268595 93.4647712,94.3297521 92.6875173,101.141736 C90.5500693,100.882231 88.4773925,100.298347 88.4773925,100.298347 C88.4773925,100.298347 88.4773925,85.7012397 78.9560333,80.5760331 C72.2846047,76.9429752 66.3256588,77.0727273 65.7427184,77.1376033 C65.1597781,77.2673554 64.0586685,69.8066116 64.0586685,69.8066116" id="Fill-43_1_" fill="#EDB090"></path>
                    <path d="M39.7694868,3.11404959 C39.7694868,3.11404959 40.3524272,1.29752066 43.267129,1.23264463 C46.1818308,1.1677686 47.8658807,4.15206612 47.8011096,5.96859504 C47.6715673,7.78512397 47.3477115,8.75826446 47.8011096,9.92603306 C48.2545076,11.0938017 49.7442441,13.2995868 49.0317614,15.635124 C48.3192788,17.9706612 47.6715673,20.1115702 45.404577,18.8789256 C43.1375867,17.581405 39.1865465,4.47644628 39.7694868,3.11404959" id="Fill-45_1_" fill="#9673D0"></path>
                    <path d="M47.2181692,16.2838843 C47.3477115,15.635124 47.4124827,14.9863636 47.4124827,14.3376033 C47.4124827,9.21239669 43.267129,4.99545455 38.0854369,4.99545455 C32.968516,4.99545455 28.7583911,9.14752066 28.7583911,14.3376033 C28.7583911,17.3867769 30.2481276,20.0466942 32.4503467,21.7983471 L30.5719834,32.3731405 L33.421914,33.2165289 L37.3081831,27.507438 C37.3081831,27.507438 43.4614424,27.507438 45.404577,26.5342975 C47.4124827,25.6260331 47.2181692,16.2838843 47.2181692,16.2838843 Z" id="Fill-47_1_" fill="#EDB090"></path>
                    <path d="M68.2687933,68.9632231 C67.1029126,68.9632231 64.0586685,67.7305785 55.70319,67.6008264 C44.6920943,67.4710744 41.5183079,63.1243802 40.0933426,61.4376033 C38.6683773,59.7508264 36.6604716,60.0752066 36.854785,57.1557851 C37.0490985,54.2363636 38.538835,53.4578512 38.9274619,52.3549587 C39.3160888,51.1871901 35.6241331,31.4 35.6241331,31.4 L30.1185853,28.9347107 C30.1185853,28.9347107 25.1959778,37.7578512 23.9005548,48.0731405 C22.5403606,58.3884298 22.9289875,61.3727273 25.1959778,67.4710744 C27.4629681,73.5694215 34.5230236,77.3971074 40.9353675,78.564876 C47.995423,79.8623967 64.7711512,79.4731405 68.2040222,81.3545455 C70.0176144,78.8892562 69.3699029,68.9632231 68.2687933,68.9632231" id="Fill-49_1_" fill="#464195"></path>
                    <path d="M44.8864078,7.97975207 C44.8864078,7.97975207 44.8216366,12.5210744 41.971706,14.7917355 C39.1217753,17.1272727 36.6604716,17.2570248 36.6604716,17.2570248 C36.6604716,17.2570248 33.0332871,13.6239669 31.3492372,16.4136364 C29.6651872,19.2033058 32.3208044,20.4359504 32.3208044,20.4359504 C32.3208044,20.4359504 34.0048544,20.7603306 33.0332871,24.5231405 C32.0617198,28.2859504 31.8674064,31.9190083 28.8231623,32.2433884 C25.7789182,32.6326446 25.260749,29.9078512 25.260749,29.9078512 C25.260749,29.9078512 18.2006935,28.8698347 19.2370319,20.4359504 C20.2733703,12.0020661 23.3176144,13.688843 24.9368932,13.4293388 C24.418724,10.7694215 24.6778086,7.52561983 26.3618585,5.70909091 C28.0459085,3.89256198 30.8958391,0.778512397 33.6162275,0.519008264 C36.3366158,0.194628099 44.4977809,-0.454132231 44.8864078,7.97975207" id="Fill-51_1_" fill="#9673D0"></path>
                    <path d="M1.10110957,56.4421488 C1.10110957,56.4421488 -3.49764216,35.1628099 10.0395284,32.3082645 C23.5119279,29.388843 23.7710125,49.046281 23.6414702,55.2095041 C23.576699,58.1938017 20.5972261,85.1173554 58.0349515,75.5805785 C58.0349515,75.5805785 67.685853,72.9206612 69.6289875,81.1599174 C71.5721221,89.4640496 67.0381415,94.0053719 61.3382802,95.4326446 C55.6384189,96.9247934 30.3776699,99.0008264 23.7062413,97.5735537 C23.6414702,97.5086777 11.3349515,97.0545455 1.10110957,56.4421488" id="Fill-135_1_" fill="#FF885F"></path>
                    <polygon id="Fill-136_1_" fill="#34227A" points="19.9495146 107.629339 25.5846047 107.629339 30.5072122 98.027686 25.1959778 98.027686"></polygon>
                    <polygon id="Fill-137_1_" fill="#34227A" points="66.4552011 107.629339 60.7553398 107.629339 55.1202497 96.4057851 59.978086 95.8867769"></polygon>
                    <polygon id="Fill-138_1_" fill="#19124C" points="43.3966713 67.2764463 68.8517337 68.1847107 80.6400832 44.1805785 78.2435506 43.8561983 67.7506241 65.4599174 43.720527 64.811157"></polygon>
                    <path d="M32.5151179,47.6190083 C32.5151179,47.6190083 34.3287101,49.6950413 36.7252427,54.5607438 C38.7331484,58.5181818 41.3887656,62.8 47.4772538,63.1243802 C50.5214979,63.3190083 53.6305132,62.3458678 54.9907074,60.788843 C56.998613,58.5181818 57.1281553,56.1177686 58.8122053,55.014876 C60.6905687,53.7822314 64.0586685,54.885124 63.9938974,56.1826446 C63.9291262,57.4801653 60.7553398,55.2095041 59.7837725,57.6747934 C59.2008322,59.2318182 59.4599168,59.4264463 59.2008322,60.788843 C58.8769764,62.8 57.7758669,64.6165289 56.0918169,64.811157 C54.7316227,64.9409091 50.0033287,68.1847107 44.4977809,67.1466942 C41.0001387,66.4979339 34.4582524,62.5404959 31.4787795,55.6636364 C28.1106796,47.9433884 27.2686546,47.8785124 28.2402219,45.8673554 C29.2117892,43.9859504 31.284466,43.207438 32.5151179,47.6190083" id="Fill-139_1_" fill="#EDB090"></path>
                    <path d="M30.0538141,33.7355372 C31.3492372,33.6057851 32.7742025,33.8652893 33.5514563,38.0822314 C34.3287101,42.2991736 35.0411928,49.2409091 35.0411928,49.2409091 C35.0411928,49.2409091 28.5640777,52.2900826 25.1959778,49.2409091 C25.6493759,46.0619835 26.7504854,38.2119835 26.7504854,38.2119835 C26.7504854,38.2119835 27.4629681,33.9301653 30.0538141,33.7355372" id="Fill-140_1_" fill="#343474"></path>
                </g>
                <g id="planta6_1_" transform="translate(153.094313, 101.855372)">
                    <path d="M23.576699,28.2859504 C23.576699,28.9347107 18.5245492,29.453719 12.3712899,29.453719 C6.21803051,29.453719 1.16588072,28.9347107 1.16588072,28.2859504 C1.16588072,27.6371901 6.21803051,27.1181818 12.3712899,27.1181818 C18.5245492,27.1181818 23.576699,27.6371901 23.576699,28.2859504" id="Fill-145_1_" fill="#FBAFA7"></path>
                    <path d="M17.3586685,28.5454545 C17.3586685,28.5454545 21.9574202,21.1495868 17.7472954,17.1272727 C14.6382802,14.9214876 11.140638,18.8140496 9.19750347,16.5433884 C7.25436893,14.3376033 16.1927878,6.94173554 13.278086,3.24380165 C10.4281553,-0.454132231 4.66352288,-0.778512397 1.29542302,2.40041322 C-2.07267684,5.57933884 3.36809986,23.2904959 7.51345354,28.5454545 C7.51345354,28.5454545 13.0190014,29.1942149 17.3586685,28.5454545" id="Fill-146_1_" fill="#519CBB"></path>
                    <path d="M12.6951456,28.8698347 C12.6951456,28.8698347 12.3712899,28.5454545 11.7883495,27.8966942 C11.5292649,27.572314 11.2054092,27.1830579 10.8167822,26.7289256 C10.4281553,26.2747934 10.0395284,25.7557851 9.65090153,25.1070248 C9.26227462,24.5231405 8.80887656,23.8095041 8.3554785,23.0958678 C8.16116505,22.7066116 7.9668516,22.3822314 7.70776699,21.9929752 C7.51345354,21.603719 7.31914008,21.2144628 7.12482663,20.7603306 C6.73619972,19.9169421 6.41234397,19.0735537 6.08848821,18.1652893 C5.89417476,17.711157 5.82940361,17.2570248 5.6998613,16.7380165 C5.570319,16.2838843 5.50554785,15.764876 5.37600555,15.3107438 L5.24646325,14.5971074 L5.24646325,13.8834711 L5.24646325,13.1698347 C5.24646325,12.9103306 5.24646325,12.6508264 5.3112344,12.4561983 C5.37600555,11.4830579 5.570319,10.5747934 5.6998613,9.66652893 C5.89417476,8.75826446 6.08848821,7.91487603 6.34757282,7.13636364 C6.60665742,6.35785124 6.86574202,5.57933884 7.18959778,4.93057851 C7.44868239,4.28181818 7.77253814,3.63305785 8.0963939,3.17892562 C8.42024965,2.65991736 8.67933426,2.27066116 8.93841886,1.94628099 C9.45658807,1.29752066 9.84521498,0.973140496 9.84521498,0.973140496 C9.84521498,0.973140496 9.45658807,1.29752066 9.00319001,2.01115702 C8.74410541,2.33553719 8.4850208,2.78966942 8.2259362,3.30867769 C7.9668516,3.82768595 7.70776699,4.41157025 7.44868239,5.12520661 C6.93051318,6.48760331 6.54188627,8.10950413 6.21803051,9.86115702 C6.08848821,10.7694215 5.89417476,11.677686 5.89417476,12.5859504 C5.89417476,12.8454545 5.82940361,13.0400826 5.89417476,13.2995868 L5.95894591,14.0132231 L6.02371706,14.7268595 L6.15325936,15.4404959 C6.21803051,15.8946281 6.28280166,16.3487603 6.41234397,16.8028926 C6.54188627,17.2570248 6.60665742,17.711157 6.80097087,18.1652893 C7.06005548,19.0735537 7.44868239,19.9169421 7.77253814,20.7603306 C7.9668516,21.1495868 8.16116505,21.538843 8.3554785,21.9280992 C8.54979196,22.3173554 8.74410541,22.7066116 8.93841886,23.0309917 C9.32704577,23.7446281 9.71567268,24.4582645 10.1042996,25.0421488 C10.8815534,26.2747934 11.5292649,27.2479339 12.0474341,27.9615702 C12.436061,28.4805785 12.6951456,28.8698347 12.6951456,28.8698347" id="Fill-147_1_" fill="#E9E2FA"></path>
                </g>
                <g id="planta4_1_" transform="translate(0.234397, 102.504132)">
                    <path d="M19.9495146,29.0644628 C19.9495146,29.518595 16.5166436,29.8429752 12.2417476,29.8429752 C8.03162275,29.8429752 4.53398058,29.453719 4.53398058,29.0644628 C4.53398058,28.6752066 7.9668516,28.2859504 12.2417476,28.2859504 C16.5166436,28.2210744 19.9495146,28.6103306 19.9495146,29.0644628" id="Fill-31_3_" fill="#FBAFA7"></path>
                    <path d="M17.7472954,28.8049587 C17.7472954,28.8049587 22.3460472,21.4090909 18.1359223,17.3867769 C15.0269071,15.1809917 11.5292649,19.0735537 9.58613037,16.8028926 C7.64299584,14.5322314 16.5814147,7.20123967 13.6667129,3.50330579 C10.8167822,-0.194628099 5.05214979,-0.519008264 1.68404993,2.65991736 C-1.68404993,5.83884298 3.75672677,23.55 7.90208044,28.8049587 C7.90208044,28.8049587 13.4076283,29.388843 17.7472954,28.8049587" id="Fill-33_3_" fill="#519CBB"></path>
                    <path d="M13.0837725,29.0644628 C13.0837725,29.0644628 12.7599168,28.7400826 12.1769764,28.0913223 C11.9178918,27.7669421 11.5940361,27.377686 11.2054092,26.9235537 C10.8167822,26.4694215 10.4281553,25.9504132 10.0395284,25.3016529 C9.65090153,24.7177686 9.19750347,24.0041322 8.74410541,23.2904959 C8.54979196,22.9012397 8.3554785,22.5768595 8.0963939,22.1876033 C7.90208044,21.7983471 7.70776699,21.4090909 7.51345354,20.9549587 C7.12482663,20.1115702 6.80097087,19.2681818 6.47711512,18.3599174 C6.28280166,17.9057851 6.21803051,17.4516529 6.08848821,16.9326446 C5.95894591,16.4785124 5.89417476,15.9595041 5.76463245,15.5053719 L5.63509015,14.7917355 L5.63509015,14.0780992 L5.63509015,13.3644628 C5.63509015,13.1049587 5.63509015,12.8454545 5.6998613,12.6508264 C5.76463245,11.677686 5.95894591,10.7694215 6.08848821,9.86115702 C6.28280166,8.95289256 6.47711512,8.10950413 6.73619972,7.33099174 C6.99528433,6.55247934 7.25436893,5.77396694 7.57822469,5.12520661 C7.83730929,4.47644628 8.16116505,3.82768595 8.4850208,3.37355372 C8.80887656,2.85454545 9.06796117,2.46528926 9.32704577,2.07603306 C9.84521498,1.42727273 10.2338419,1.10289256 10.2338419,1.10289256 C10.2338419,1.10289256 9.84521498,1.42727273 9.39181692,2.14090909 C9.13273232,2.46528926 8.87364771,2.91942149 8.61456311,3.43842975 C8.3554785,3.95743802 8.0963939,4.54132231 7.83730929,5.25495868 C7.31914008,6.61735537 6.93051318,8.2392562 6.60665742,9.99090909 C6.47711512,10.8991736 6.28280166,11.807438 6.28280166,12.7157025 C6.28280166,12.9752066 6.21803051,13.1698347 6.28280166,13.4293388 L6.34757282,14.1429752 L6.41234397,14.8566116 L6.54188627,15.5702479 C6.60665742,16.0243802 6.67142857,16.4785124 6.80097087,16.9326446 C6.93051318,17.3867769 6.99528433,17.8409091 7.18959778,18.2950413 C7.44868239,19.2033058 7.83730929,20.0466942 8.16116505,20.8900826 C8.3554785,21.2793388 8.54979196,21.668595 8.74410541,22.0578512 C8.93841886,22.4471074 9.13273232,22.8363636 9.32704577,23.1607438 C9.71567268,23.8743802 10.1042996,24.5880165 10.4929265,25.1719008 C11.2701803,26.4045455 11.9178918,27.377686 12.436061,28.0913223 C12.8246879,28.6752066 13.0837725,29.0644628 13.0837725,29.0644628" id="Fill-35_3_" fill="#E9E2FA"></path>
                </g>
            </g>
        </g>
        <g id="sombras_piso" transform="translate(40.000000, 265.000000)" fill="#FBAFA7" fill-rule="nonzero">
            <path d="M287,6.33333333 C287,9.6 262.436937,12.3333333 232.120946,12.3333333 C201.804955,12.3333333 177.241892,9.66666667 177.241892,6.33333333 C177.241892,3 201.804955,0.333333333 232.120946,0.333333333 C262.436937,0.333333333 287,3.06666667 287,6.33333333" id="Fill-25"></path>
            <path d="M189.975901,6.2 C189.975901,9.46666667 165.412838,12.2 135.096847,12.2 C104.780856,12.2 80.2177928,9.53333333 80.2177928,6.2 C80.2177928,2.93333333 104.780856,0.2 135.096847,0.2 C165.412838,0.266666667 189.975901,2.93333333 189.975901,6.2" id="Fill-27"></path>
            <path d="M109.887387,6.33333333 C109.887387,9.6 85.3243243,12.3333333 55.0083333,12.3333333 C24.6923423,12.3333333 0.129279279,9.66666667 0.129279279,6.33333333 C0.129279279,3 24.6923423,0.333333333 55.0083333,0.333333333 C85.3243243,0.333333333 109.887387,3.06666667 109.887387,6.33333333" id="Fill-29"></path>
            <path d="M212.147297,14.4666667 C212.147297,15.1333333 207.105405,15.6666667 200.96464,15.6666667 C194.759234,15.6666667 189.781982,15.1333333 189.781982,14.4666667 C189.781982,13.8 194.823874,13.2666667 200.96464,13.2666667 C207.170045,13.2666667 212.147297,13.8 212.147297,14.4666667" id="Fill-144"></path>
            <path d="M268.706982,14.0666667 C268.706982,14.6 264.505405,15.0666667 259.334234,15.0666667 C254.163063,15.0666667 249.961486,14.6 249.961486,14.0666667 C249.961486,13.5333333 254.163063,13.0666667 259.334234,13.0666667 C264.505405,13.0666667 268.706982,13.4666667 268.706982,14.0666667" id="Fill-148"></path>
        </g>
        <path d="M177.784673,234.903509 C151.149246,212.324561 148.810804,187.065789 170.655276,159.070175 C173.678141,154.907895 181.092714,148.635965 192.898995,140.368421 L216.055276,167.622807 C227.120101,180.280702 237.956784,193.109649 248.508291,206.109649 L248.679397,206.394737 C228.317839,238.723684 204.648241,248.245614 177.784673,234.903509 M178.069849,50.3377193 C181.092714,40.872807 189.134673,35.5131579 202.195729,34.2587719 C214.401256,35.2280702 222.671357,40.872807 226.948995,51.3070175 C232.595477,64.5350877 229.800754,77.4780702 218.73593,90.0789474 C215.598995,93.9561404 210.237688,98.2324561 202.65201,103.02193 L191.30201,90.0789474 L190.047236,88.8815789 C177.727638,76.4517544 173.735176,63.622807 178.069849,50.3377193 M284.041206,200.635965 C289.459548,188.947368 292.824623,180.166667 294.136432,174.179825 L300.06809,146.982456 L271.208291,141.79386 L268.869849,156.732456 L265.732915,167.622807 L262.71005,176.118421 L255.808794,167.622807 L237.842714,145.614035 L218.73593,122.236842 C246.055779,103.592105 259.116834,85.0614035 257.976131,66.6447368 C257.405779,40.3026316 245.314322,22.2850877 221.758794,12.5350877 C205.161558,7.23245614 189.020603,8.42982456 173.33593,16.0131579 L173.050754,16.2982456 L171.91005,16.9254386 C157.480151,26.9605263 149.21005,38.4210526 147.042714,51.25 C144.419095,65.4473684 146.472362,78.3333333 153.202513,90.0219298 C156.453518,97.2061404 163.982161,107.013158 175.731407,119.557018 L175.902513,120.754386 L163.126633,128.79386 C145.90201,141.109649 134.494975,153.995614 128.905528,167.565789 C123.259045,182.390351 121.605025,195.276316 123.886432,206.337719 C126.624121,222.416667 132.78392,235.359649 142.308794,245.109649 C151.833668,255.885965 163.183668,263.070175 176.358794,266.605263 C209.439196,271.394737 234.420603,265.065789 251.36005,247.675439 L253.926633,245.109649 C257.120603,242.600877 261.854523,237.241228 268.128392,229.030702 L283.984171,245.109649 L294.820854,254.289474 L303.376131,259.934211 L304.516834,259.47807 L320.144472,235.188596 C312.102513,230.570175 300.011055,219.052632 284.041206,200.635965" id="Fill-1" fill="#FEE28C" fill-rule="nonzero"></path>
        <path d="M171.967085,16.8684211 C157.537186,26.9035088 149.267085,38.3640351 147.099749,51.1929825 C144.476131,65.3903509 146.529397,78.2763158 153.259548,89.9649123 C156.510553,97.1491228 164.039196,106.95614 175.788442,119.442982 L175.959548,120.640351 L143.791709,126.798246 C120.179146,103.934211 111.395729,81.9824561 117.327387,61.0570175 C122.460553,41.8421053 140.711809,27.0745614 171.967085,16.8684211" id="Fill-4" fill="#FEC98C" fill-rule="nonzero"></path>
        <path d="M227.00603,51.1929825 C222.728392,40.8157895 214.458291,35.1140351 202.195729,34.1447368 C189.134673,35.3991228 181.092714,40.7587719 178.069849,50.2236842 C191.701256,57.2368421 195.693719,70.0657895 190.104271,88.7105263 L191.359045,89.9649123 L202.709045,102.907895 C210.237688,98.1184211 215.65603,93.7850877 218.792965,89.9649123 C229.914824,77.3640351 232.652513,64.4210526 227.00603,51.1929825" id="Fill-6" fill="#FEC98C" fill-rule="nonzero"></path>
        <path d="M143.791709,126.855263 L175.959548,120.697368 L163.183668,128.736842 C145.959045,141.052632 134.55201,153.938596 128.962563,167.508772 C123.373116,182.333333 121.66206,195.219298 123.943467,206.280702 C126.624121,222.359649 132.78392,235.302632 142.365829,245.052632 C151.890704,255.828947 163.240704,262.95614 176.415829,266.491228 C131.472111,264.210526 104.608543,245.109649 95.8251256,209.131579 C89.2660804,176.346491 105.23593,148.921053 143.791709,126.855263" id="Fill-8" fill="#FEC98C" fill-rule="nonzero"></path>
        <path d="M216.169347,167.508772 L192.95603,140.254386 C181.206784,148.578947 173.735176,154.79386 170.769347,158.95614 L210.751005,205.311404 L248.565327,205.995614 C238.070854,192.995614 227.234171,180.166667 216.169347,167.508772" id="Fill-10" fill="#FEC98C" fill-rule="nonzero"></path>
        <polygon id="Fill-12" fill="#FEC98C" fill-rule="nonzero" points="271.322362 141.679825 237.899749 145.5 255.865829 167.508772 262.767085 176.061404 265.78995 167.508772 268.926884 156.618421"></polygon>
        <path d="M248.622362,205.995614 L210.80804,205.311404 C206.644472,216.258772 195.693719,226.122807 177.898744,234.789474 C204.762312,248.131579 228.374874,238.666667 248.850503,206.223684 L248.622362,205.995614 Z" id="Fill-14" fill="#FEC98C" fill-rule="nonzero"></path>
        <path d="M284.041206,245.052632 L268.185427,228.973684 C261.968593,237.184211 257.234673,242.54386 253.983668,245.052632 L251.417085,247.618421 L261.569347,254.688596 L303.490201,259.877193 L294.934925,254.175439 L284.041206,245.052632 Z" id="Fill-16" fill="#FEC98C" fill-rule="nonzero"></path>
        <path d="M125.2,262.24876 L124.293204,266.725207 C124.293204,266.725207 133.490707,269.514876 135.239528,270.488017 C136.211096,269.190496 129.345354,263.092149 129.345354,263.092149 L125.2,262.24876 Z" id="Fill-41_1_" fill="#300881" fill-rule="nonzero"></path>
        <g id="persona2_1_" transform="translate(135.822469, 137.946281)" fill-rule="nonzero">
            <path d="M2.13744799,129.492562 L1.61927878,134.552893 C1.61927878,134.552893 14.7678225,134.228512 16.7757282,134.163636 C15.0916782,130.400826 5.05214979,129.946694 5.05214979,129.946694 L2.13744799,129.492562 Z" id="Fill-53_1_" fill="#0F0D33"></path>
            <path d="M2.59084605,75.2561983 L0.842024965,77.4619835 C0.842024965,77.4619835 4.72829404,107.369835 4.27489598,112.624793 C3.82149792,117.879752 2.13744799,130.01157 2.13744799,130.01157 L6.02371706,129.881818 C6.02371706,129.881818 10.6872399,113.857438 11.140638,111.781405 C11.5940361,109.705372 10.7520111,74.9966942 10.7520111,74.9966942 L2.59084605,75.2561983 Z" id="Fill-55_1_" fill="#DD4412"></path>
            <path d="M19.3665742,74.7371901 C19.3665742,74.7371901 20.8563107,93.1619835 19.3665742,104.190909 C17.8120666,115.154959 14.5087379,130.984711 14.5087379,130.984711 L10.298613,131.114463 C10.298613,131.114463 11.7883495,115.933471 11.2701803,110.87314 C10.7520111,105.81281 6.28280166,90.1128099 4.59875173,87.5826446 C2.9147018,85.0524793 -0.453398058,79.4082645 1.36019417,75.4508264 C3.30332871,71.2338843 19.3665742,74.7371901 19.3665742,74.7371901" id="Fill-57_1_" fill="#FA5C17"></path>
            <path d="M10.4281553,130.530579 L9.90998613,135.590909 C9.90998613,135.590909 23.0585298,135.266529 25.0664355,135.201653 C23.3823856,131.438843 13.3428571,130.984711 13.3428571,130.984711 L10.4281553,130.530579 Z" id="Fill-59_1_" fill="#19124C"></path>
            <path d="M26.4914008,14.7268595 C26.4914008,14.4024793 26.556172,14.0132231 26.4914008,13.688843 C26.3618585,8.10950413 21.7631068,3.76280992 16.1927878,3.89256198 C10.6224688,4.02231405 6.28280166,8.6285124 6.41234397,14.2078512 C6.47711512,16.8677686 7.57822469,19.2681818 9.32704577,21.0198347 C10.2338419,25.1070248 10.1690707,31.5297521 10.1690707,31.5297521 L10.2338419,33.2165289 C10.2338419,33.2165289 15.4803051,34.1896694 15.9984743,32.2433884 C16.5166436,30.3619835 17.4882108,27.0533058 19.0427184,26.7938017 C20.6619972,26.5342975 25.0664355,26.5991736 25.7789182,25.6260331 C26.4914008,24.7177686 26.4914008,19.2033058 26.556172,19.0086777 C26.6857143,18.7491736 28.0459085,17.9057851 28.0459085,17.3867769 C28.1106796,16.9326446 26.4914008,14.7268595 26.4914008,14.7268595" id="Fill-61_1_" fill="#F89A5B"></path>
            <path d="M11.140638,18.7491736 C11.140638,18.7491736 11.7883495,23.1607438 10.8815534,23.485124 C9.97475728,23.7446281 8.29070735,23.485124 8.3554785,22.3822314 C8.42024965,21.2793388 7.70776699,19.7871901 6.86574202,18.8789256 C6.02371706,17.9706612 3.04424411,13.1698347 6.28280166,7.0714876 C8.80887656,2.27066116 16.0632455,1.55702479 17.8768377,2.20578512 C19.6256588,2.85454545 21.0506241,3.56818182 21.5687933,2.27066116 C22.0869626,1.03801653 24.0300971,-0.389256198 26.2323162,0.973140496 C28.4345354,2.33553719 28.1754508,5.90371901 25.9732316,6.8768595 C23.7710125,7.85 20.4676838,7.33099174 20.0142857,7.0714876 C19.5608877,6.81198347 18.2654646,9.79628099 17.3586685,10.7694215 C16.4518724,11.742562 14.7678225,12.7157025 14.7678225,12.7157025 L15.0269071,16.2190083 C15.0269071,16.2190083 14.0553398,14.0132231 12.3065187,14.5322314 C10.6872399,14.9214876 9.78044383,17.4516529 11.140638,18.7491736" id="Fill-63_1_" fill="#300881"></path>
            <path d="M27.3334258,19.1384298 C27.3334258,19.1384298 23.5119279,17.2570248 20.4676838,18.5545455 C17.4234397,19.8520661 17.6177531,22.3173554 17.6177531,23.4202479 C17.552982,24.7177686 17.9416089,27.1181818 20.0142857,27.507438 C22.0221914,27.8966942 27.1391123,27.2479339 26.8152566,24.9772727 C26.556172,22.9661157 23.5119279,24.1338843 22.4755895,24.2636364 C21.439251,24.3933884 20.4676838,23.1607438 21.1801664,21.7983471 C21.8926491,20.3710744 25.4550624,20.5657025 26.556172,20.8252066 C27.6572816,20.9549587 27.9811373,19.592562 27.3334258,19.1384298" id="Fill-65_1_" fill="#300881"></path>
            <path d="M8.74410541,30.0376033 C8.74410541,30.0376033 18.2654646,29.5834711 18.848405,30.6214876 C19.4313454,31.5946281 20.5324549,76.618595 20.5324549,76.618595 L0.259084605,76.6834711 C0.259084605,76.6834711 6.86574202,31.5297521 8.74410541,30.0376033" id="Fill-67_1_" fill="#DADADE"></path>
            <polygon id="Fill-69_1_" fill="#19124C" points="36.854785 49.3706612 37.8263523 51.2520661 47.6715673 41.4557851 44.8216366 40.0285124"></polygon>
            <polygon id="Fill-71_1_" fill="#0A091C" points="47.6715673 42.6235537 38.4740638 52.2252066 37.8263523 51.2520661 47.6715673 41.4557851"></polygon>
            <path d="M34.0696255,54.2363636 C34.0696255,54.2363636 35.7536755,50.5384298 36.7900139,49.3706612 C37.8263523,48.2028926 39.7047157,47.4243802 39.6399445,47.8785124 C39.5751734,48.3326446 38.2149792,50.1491736 38.2149792,50.1491736 C38.2149792,50.1491736 41.5183079,49.3057851 42.2307906,47.6838843 C42.9432732,46.0619835 44.8216366,45.218595 44.7568655,45.7376033 C44.6920943,46.2566116 41.5183079,54.0417355 40.7410541,54.6256198 C39.9638003,55.2095041 37.1138696,57.8045455 35.4298197,57.6747934 C33.8105409,57.5450413 34.0696255,54.2363636 34.0696255,54.2363636" id="Fill-73_1_" fill="#F89A5B"></path>
            <path d="M12.0474341,34.7086777 C12.6303745,32.2433884 16.6461859,31.4 16.7757282,34.2545455 C16.9700416,39.4446281 16.8404993,46.3863636 17.1643551,49.5652893 C17.4234397,52.1603306 18.2654646,58.3235537 24.3539528,56.896281 C30.5072122,55.5338843 34.5230236,52.3549587 34.5230236,52.3549587 L37.4377254,57.4152893 C37.4377254,57.4152893 26.7504854,62.9297521 20.985853,62.9946281 C15.7393897,62.9946281 12.8246879,60.918595 11.7883495,54.1714876 C10.7520111,47.4243802 11.4644938,37.1739669 12.0474341,34.7086777" id="Fill-75_1_" fill="#FFD63F"></path>
        </g>
        <g id="planta7_1_" transform="translate(220.672677, 234.611570)" fill-rule="nonzero">
            <path d="M22.9289875,34.4491736 C22.9289875,34.9681818 18.7188627,35.422314 13.5371706,35.422314 C8.3554785,35.422314 4.14535368,34.9681818 4.14535368,34.4491736 C4.14535368,33.9301653 8.3554785,33.4760331 13.5371706,33.4760331 C18.7188627,33.4760331 22.9289875,33.9301653 22.9289875,34.4491736" id="Fill-23_1_" fill="#FBAFA7"></path>
            <path d="M11.6588072,34.7086777 C11.6588072,34.7086777 3.30332871,25.561157 0.906796117,20.1115702 C-1.42496533,14.6619835 2.39653259,13.688843 4.33966713,16.5433884 C6.28280166,19.4628099 9.78044383,26.0152893 10.7520111,18.1652893 C11.7235784,10.3152893 10.4281553,8.6285124 11.5940361,7.6553719 C12.7599168,6.6822314 14.2496533,7.33099174 15.3507628,11.0938017 C16.4518724,14.8566116 20.143828,15.635124 21.1153953,12.0669421 C22.0869626,8.49876033 24.5482663,0.713636364 28.1106796,1.10289256 C31.6730929,1.55702479 27.9811373,7.20123967 28.1106796,10.4450413 C28.2402219,13.688843 31.0901526,13.1049587 33.3571429,10.2504132 C35.6241331,7.33099174 43.3319001,-1.62190083 46.7647712,1.10289256 C50.1976422,3.82768595 45.3398058,7.33099174 46.7647712,10.7694215 C48.1897365,14.2078512 47.9306519,19.7871901 41.3887656,17.646281 C34.8468793,15.5053719 35.3002774,21.603719 34.9764216,22.7066116 C34.6525659,23.8095041 33.0332871,27.442562 28.9527046,25.6260331 C24.8721221,23.8095041 22.6051318,24.6528926 24.1596394,26.1450413 C25.6493759,27.6371901 28.3697642,29.2590909 26.9447989,30.1024793 C25.5198336,30.9458678 20.2085992,28.1561983 17.9416089,29.6483471 C15.6746186,31.1404959 14.8325936,34.7086777 14.8325936,34.7086777 L11.6588072,34.7086777 Z" id="Fill-19_1_" fill="#519CBB"></path>
            <path d="M43.8500693,8.95289256 C43.8500693,8.95289256 43.3319001,9.40702479 42.425104,10.1855372 C41.5183079,10.8991736 40.1581137,12.0020661 38.4740638,13.1698347 C37.6320388,13.753719 36.7252427,14.3376033 35.6889043,14.9863636 C34.6525659,15.5702479 33.6162275,16.2190083 32.3855756,16.7380165 C29.989043,17.711157 27.3981969,18.4247934 24.8073509,19.3330579 C22.2165049,20.1764463 19.69043,21.1495868 17.552982,22.5119835 C16.5166436,23.2256198 15.6098474,24.0041322 15.0269071,24.9772727 C14.7678225,25.431405 14.573509,25.9504132 14.4439667,26.4694215 C14.3791956,26.9884298 14.3144244,27.507438 14.1848821,28.0264463 C13.9257975,30.0376033 13.731484,31.7243802 13.6667129,32.9570248 C13.6019417,34.1247934 13.6667129,34.8384298 13.6667129,34.8384298 C13.6667129,34.8384298 13.5371706,34.1896694 13.5371706,32.9570248 C13.5371706,31.7892562 13.6019417,30.0376033 13.7962552,28.0264463 C13.8610264,27.507438 13.9257975,26.9884298 13.9905687,26.4694215 C14.0553398,25.8855372 14.2496533,25.3016529 14.573509,24.7826446 C15.1564494,23.7446281 16.1280166,22.8363636 17.2291262,22.1227273 C19.4313454,20.6954545 22.0221914,19.722314 24.5482663,18.8140496 C27.1391123,17.9706612 29.7947295,17.1921488 32.126491,16.2838843 C33.2923717,15.8297521 34.3934813,15.2458678 35.3650485,14.6619835 C36.401387,14.0780992 37.3081831,13.4942149 38.150208,12.9752066 C39.834258,11.872314 41.2592233,10.8991736 42.2307906,10.1855372 C43.267129,9.34214876 43.8500693,8.95289256 43.8500693,8.95289256" id="Fill-21_1_" fill="#E9E2FA"></path>
        </g>
        <g id="persona3_1_" transform="translate(181.809986, 136.000000)" fill-rule="nonzero">
            <polygon id="Fill-77_1_" fill="#34227A" points="29.2765603 82.1330579 24.4834951 132.087603 20.4676838 132.087603 18.2654646 72.4016529"></polygon>
            <path d="M24.4834951,132.087603 L24.2244105,137.147934 C24.2244105,137.147934 14.573509,137.407438 13.278086,137.407438 C13.278086,136.045041 20.5324549,132.087603 20.5324549,132.087603 L24.4834951,132.087603 Z" id="Fill-79_1_" fill="#19124C"></path>
            <path d="M38.6683773,70.9743802 L38.6683773,109.25124 L40.287656,132.152479 L36.3366158,132.152479 C36.3366158,132.152479 33.8753121,112.689669 33.0980583,109.770248 C32.3208044,106.850826 27.1391123,83.4305785 27.00957,83.0413223 C26.8800277,82.6520661 20.5972261,78.1107438 18.2654646,72.4665289 C18.3950069,71.8826446 18.7188627,70.0661157 18.7188627,70.0661157 L27.3981969,66.9520661 L38.6683773,70.9743802 Z" id="Fill-81_1_" fill="#464195"></path>
            <path d="M36.3366158,132.087603 L36.5957004,137.147934 C36.5957004,137.147934 46.2466019,137.407438 47.542025,137.407438 C47.542025,136.045041 40.287656,132.087603 40.287656,132.087603 L36.3366158,132.087603 Z" id="Fill-83_1_" fill="#19124C"></path>
            <polygon id="Fill-85_1_" fill="#19124C" points="7.83730929 34.1247934 7.51345354 17.8409091 0.582940361 18.2950413 1.16588072 34.9033058"></polygon>
            <path d="M18.6540915,42.4938017 C18.6540915,42.4938017 15.868932,49.3057851 13.0837725,48.7867769 C10.298613,48.2677686 9.32704577,35.422314 9.32704577,35.422314 C9.32704577,35.422314 10.5576976,30.4917355 9.13273232,29.1942149 C7.70776699,27.8318182 5.570319,26.8586777 5.05214979,27.7020661 C4.53398058,28.6103306 6.60665742,28.7400826 7.25436893,29.518595 C7.90208044,30.3619835 7.57822469,34.1247934 7.57822469,34.1247934 L5.4407767,34.3194215 C5.4407767,34.3194215 8.0963939,51.057438 11.7883495,52.1603306 C15.4803051,53.2632231 21.1153953,47.4243802 21.439251,45.4780992 C21.6983356,43.5966942 18.6540915,42.4938017 18.6540915,42.4938017" id="Fill-87_1_" fill="#CC845B"></path>
            <path d="M24.8073509,31.9190083 L21.8278779,47.6838843 L16.710957,42.5586777 C16.710957,42.5586777 23.2528433,31.5297521 24.2891817,31.6595041 C25.260749,31.7892562 24.8073509,31.9190083 24.8073509,31.9190083" id="Fill-89_1_" fill="#DDBA44"></path>
            <path d="M24.1596394,16.9326446 L42.8137309,18.9438017 C42.8137309,18.9438017 41.5830791,21.4090909 42.0364771,24.7826446 C42.4898752,28.1561983 47.0886269,38.4066116 46.7,43.9859504 C46.3113731,49.5652893 43.0728155,53.6524793 39.1865465,53.9768595 C35.3002774,54.2363636 20.4029126,51.2520661 21.8926491,42.4938017 C23.3823856,33.7355372 25.5846047,31.1404959 24.9368932,25.8206612 C24.2244105,20.4359504 22.2165049,18.6842975 24.1596394,16.9326446" id="Fill-91_1_" fill="#300881"></path>
            <path d="M34.9116505,20.6954545 C37.6320388,19.1384298 39.5104022,16.2190083 39.5104022,12.8454545 C39.5104022,7.85 35.4945908,3.76280992 30.4424411,3.76280992 C25.4550624,3.76280992 21.3744799,7.78512397 21.3744799,12.8454545 C21.3744799,13.1698347 21.3744799,13.4942149 21.439251,13.818595 L21.3744799,13.8834711 C21.3744799,13.8834711 20.2733703,16.6731405 20.5972261,17.1272727 C20.985853,17.581405 21.7631068,17.581405 21.7631068,17.581405 L21.9574202,21.0198347 C21.9574202,21.0198347 22.4755895,24.5231405 25.3902913,24.4582645 C28.3049931,24.3933884 30.1185853,23.4202479 30.1185853,23.4202479 C29.989043,25.9504132 29.147018,31.0107438 29.147018,31.0107438 L26.556172,31.0107438 L25.8436893,35.4871901 L31.0901526,35.8115702 L32.579889,34.1896694 L34.4582524,30.9458678 L33.0332871,30.9458678 L34.1991678,22.4471074 L34.9116505,20.6954545 Z" id="Fill-93_1_" fill="#CC845B"></path>
            <path d="M32.3208044,8.95289256 C32.3208044,8.95289256 30.831068,11.807438 32.126491,13.4942149 C33.4866852,15.1809917 35.8832178,13.9483471 35.8832178,13.9483471 C35.8832178,13.9483471 37.3729542,11.2235537 38.2149792,11.677686 C39.0570042,12.1318182 40.3524272,14.0780992 38.6683773,16.6082645 C36.9195562,19.1384298 35.559362,17.711157 35.559362,17.711157 L34.1991678,22.3822314 L42.3603329,22.3822314 C42.3603329,22.3822314 47.3477115,11.872314 42.3603329,4.86570248 C37.3729542,-2.14090909 27.7868239,0.454132231 22.9937587,4.02231405 C19.6256588,6.48760331 17.9416089,10.8991736 18.5245492,13.4942149 C19.1074896,16.0892562 21.5040222,12.0020661 21.5040222,12.0020661 C21.5040222,12.0020661 21.3744799,13.4942149 22.4108183,13.818595 C23.3176144,14.2727273 27.2038835,13.818595 32.3208044,8.95289256" id="Fill-95_1_" fill="#300881"></path>
            <path d="M23.8357836,32.3731405 C23.8357836,32.3731405 19.4313454,44.1157025 19.8199723,45.9971074 C20.2085992,47.8785124 22.4755895,49.5004132 22.4755895,49.5004132 L18.2006935,72.4016529 L39.8990291,72.4016529 L37.2434119,62.735124 L38.992233,31.0756198 L24.6778086,31.4 C24.7425798,31.4 24.2244105,31.2702479 23.8357836,32.3731405" id="Fill-97_1_" fill="#FFD63F"></path>
            <path d="M41.5183079,43.142562 C41.5183079,43.142562 43.4614424,55.5338843 43.6557559,61.5024793 C43.8500693,67.4710744 43.267129,76.6834711 43.267129,76.6834711 C43.267129,76.6834711 43.267129,84.468595 42.2307906,86.6095041 C41.1944521,88.6855372 39.6399445,90.0479339 39.1217753,89.0747934 C38.6036061,88.1016529 39.9638003,85.0524793 40.2228849,83.9495868 C40.4819695,82.7818182 40.2228849,80.2516529 40.2228849,80.2516529 C40.2228849,80.2516529 39.2513176,83.5603306 38.992233,84.403719 C38.7331484,85.2471074 37.4377254,85.7012397 37.69681,83.1710744 C37.9558946,80.7057851 39.834258,77.1376033 39.834258,77.1376033 C39.834258,77.1376033 41.0649098,74.2181818 40.6115118,66.627686 C40.2228849,59.0371901 37.1786408,44.5049587 37.9558946,42.5586777 C38.9274619,40.5475207 41.5183079,43.142562 41.5183079,43.142562" id="Fill-99_1_" fill="#CC845B"></path>
            <path d="M36.9843273,31.5946281 L36.3366158,45.4780992 C36.3366158,45.4780992 40.8058252,47.1 44.3034674,44.3752066 C44.3034674,42.5586777 39.0570042,31.0756198 39.0570042,31.0756198 L36.9843273,31.5946281 Z" id="Fill-101_1_" fill="#FFD63F"></path>
        </g>
        <g id="persona4_1_" transform="translate(225.854369, 158.706612)" fill-rule="nonzero">
            <path d="M60.5610264,38.4714876 C60.5610264,40.2231405 58.7474341,47.2946281 54.0839112,49.2409091 C49.4203883,51.1871901 32.5151179,51.5764463 31.8674064,51.7710744 C31.1549237,51.9657025 24.6130374,55.2095041 27.00957,54.95 C28.9527046,54.7553719 31.2196949,53.5876033 32.4503467,53.7173554 C34.0048544,53.9119835 35.3650485,54.1714876 36.1423024,54.4958678 C36.9195562,54.8202479 40.0933426,53.7173554 40.0933426,53.7173554 C40.0933426,53.7173554 52.0112344,55.014876 54.7963939,53.6524793 C57.5815534,52.2252066 64.70638,48.7867769 66.1961165,40.0285124 C66.7790569,36.6549587 65.7427184,33.9950413 63.7348128,34.1247934 C62.0507628,34.1896694 60.5610264,36.7198347 60.5610264,38.4714876" id="Fill-103_1_" fill="#6D402D"></path>
            <path d="M0.259084605,57.4152893 L0.259084605,60.3347107 C0.259084605,61.3727273 12.7599168,62.2161157 28.2402219,62.2161157 C43.720527,62.2161157 56.2213592,61.3727273 56.2213592,60.3347107 L56.2213592,57.4152893 L0.259084605,57.4152893 Z" id="Fill-105_1_" fill="#BBBBBB"></path>
            <path d="M56.2213592,57.4152893 C56.2213592,58.4533058 43.720527,59.2966942 28.2402219,59.2966942 C12.7599168,59.2966942 0.259084605,58.4533058 0.259084605,57.4152893 C0.259084605,56.3772727 12.7599168,55.5338843 28.2402219,55.5338843 C43.6557559,55.5338843 56.2213592,56.3772727 56.2213592,57.4152893" id="Fill-107_1_" fill="#300881"></path>
            <path d="M6.15325936,110.54876 L6.15325936,112.689669 C6.15325936,113.468182 15.2212205,114.052066 26.4266297,114.052066 C37.6320388,114.052066 46.7,113.468182 46.7,112.689669 L46.7,110.54876 L6.15325936,110.54876 Z" id="Fill-109_1_" fill="#19124C"></path>
            <path d="M46.7,110.54876 C46.7,111.327273 37.6320388,111.911157 26.4266297,111.911157 C15.2212205,111.911157 6.15325936,111.327273 6.15325936,110.54876 C6.15325936,109.770248 15.2212205,109.186364 26.4266297,109.186364 C37.6320388,109.121488 46.7,109.770248 46.7,110.54876" id="Fill-111_1_" fill="#300881"></path>
            <polygon id="Fill-113_1_" fill="#BBBBBB" points="24.6130374 109.770248 28.2402219 109.770248 28.2402219 62.2161157 24.6130374 62.2161157"></polygon>
            <polygon id="Fill-115_1_" fill="#19124C" points="36.5957004 56.831405 52.5294036 56.831405 52.5294036 55.8582645 36.2718447 55.8582645"></polygon>
            <polygon id="Fill-116_1_" fill="#19124C" points="43.720527 105.683058 45.0159501 105.683058 45.0159501 77.9809917 43.720527 77.9809917"></polygon>
            <polygon id="Fill-117_1_" fill="#19124C" points="72.6732316 109.380992 73.9686546 109.380992 73.9686546 77.9809917 72.6732316 77.9809917"></polygon>
            <polygon id="Fill-118_1_" fill="#DD4412" points="43.720527 73.8938017 43.720527 78.0458678 55.3145631 85.4417355 55.3145631 80.381405"></polygon>
            <polygon id="Fill-119_1_" fill="#DD4412" points="85.5626907 80.381405 55.3145631 80.381405 43.720527 73.8938017 68.2687933 73.8938017"></polygon>
            <path d="M85.5626907,41.3909091 L85.5626907,80.381405 L81.5468793,80.381405 L81.5468793,78.8892562 L68.2687933,73.9586777 L68.2687933,36.2008264 C68.2687933,36.2008264 76.4299584,26.6640496 85.5626907,41.3909091" id="Fill-120_1_" fill="#FA5C17"></path>
            <path d="M81.5468793,40.7421488 L81.5468793,78.8892562 L64.252982,73.2450413 L64.252982,35.4871901 C64.252982,35.4871901 72.414147,25.9504132 81.5468793,40.7421488" id="Fill-121_1_" fill="#DD4412"></path>
            <polygon id="Fill-122_1_" fill="#FA5C17" points="55.3145631 85.4417355 85.5626907 85.4417355 85.5626907 80.381405 55.3145631 80.381405"></polygon>
            <polygon id="Fill-123_1_" fill="#19124C" points="55.3145631 113.143802 56.6099861 113.143802 56.6099861 85.4417355 55.3145631 85.4417355"></polygon>
            <polygon id="Fill-124_1_" fill="#19124C" points="84.2672677 113.143802 85.5626907 113.143802 85.5626907 85.4417355 84.2672677 85.4417355"></polygon>
            <path d="M46.6352288,109.056612 L46.7,112.949174 C46.7,112.949174 37.4377254,113.208678 36.0775312,113.208678 C36.0775312,111.846281 43.3319001,109.056612 43.3319001,109.056612 L46.6352288,109.056612 Z" id="Fill-125_1_" fill="#464195"></path>
            <path d="M40.2228849,105.942562 L39.0570042,109.640496 C39.0570042,109.640496 29.8595007,107.823967 28.5640777,107.499587 C28.8879334,106.13719 36.5957004,105.228926 36.5957004,105.228926 L40.2228849,105.942562 Z" id="Fill-126_1_" fill="#464195"></path>
            <path d="M66.9085992,5.90371901 C66.9085992,5.90371901 57.3872399,3.11404959 54.861165,4.99545455 C50.132871,8.4338843 47.9306519,13.818595 47.9306519,16.8028926 C47.9306519,20.9549587 52.4646325,21.7334711 52.3350902,23.8743802 C52.1407767,25.9504132 48.7079057,30.2971074 49.9385576,33.0867769 C51.6873786,37.1739669 57.1929265,40.2231405 64.0586685,39.5095041 C70.9891817,38.7958678 79.279889,34.2545455 79.2151179,29.0644628 C79.1503467,23.3553719 75.0049931,21.4090909 75.0049931,19.1384298 C75.0049931,16.2190083 76.4947295,16.2838843 75.7822469,10.3152893 C75.5231623,7.91487603 66.9085992,5.90371901 66.9085992,5.90371901" id="Fill-127_1_" fill="#9673D0"></path>
            <path d="M72.6732316,13.2995868 C72.6732316,8.2392562 68.5926491,4.08719008 63.4757282,4.08719008 C58.4235784,4.08719008 54.2782247,8.17438017 54.2782247,13.2995868 C54.2782247,13.5590909 54.2782247,13.818595 54.3429958,14.0780992 C54.3429958,14.0780992 52.7237171,19.2033058 54.0839112,23.1607438 C55.4441054,27.1181818 59.5246879,27.3128099 61.0144244,26.9884298 C62.5041609,26.6640496 63.9938974,27.507438 64.0586685,31.7892562 C64.1234397,36.1359504 67.4267684,33.1516529 67.4267684,33.1516529 L68.2040222,31.2702479 L66.3256588,25.8855372 C66.3256588,25.8855372 67.4915395,25.431405 68.2040222,23.3553719 C68.5278779,22.4471074 68.7869626,21.538843 68.9165049,20.7603306 C71.1834951,19.0735537 72.6732316,16.3487603 72.6732316,13.2995868" id="Fill-128_1_" fill="#90573E"></path>
            <path d="M53.565742,7.00661157 C53.565742,7.00661157 52.4646325,13.6239669 56.9338419,14.9863636 C61.4030513,16.4136364 67.4915395,13.2995868 67.4915395,13.2995868 L67.9449376,15.3107438 C67.9449376,15.3107438 71.2482663,11.6128099 71.8959778,13.2995868 C72.5436893,14.9214876 72.2846047,18.6842975 69.6937587,18.6842975 C67.1029126,18.6842975 70.0823856,23.3553719 70.0823856,23.3553719 C70.0823856,23.3553719 75.1345354,20.1764463 75.5879334,15.1809917 C76.0413315,10.1855372 75.9117892,6.35785124 73.3209431,4.15206612 C70.7300971,1.94628099 68.0744799,-0.519008264 62.8927878,1.1677686 C57.6463245,2.85454545 54.4725381,4.34669421 53.565742,7.00661157" id="Fill-129_1_" fill="#9673D0"></path>
            <path d="M62.1803051,61.1132231 C62.1803051,61.1132231 51.8816921,66.757438 44.2386963,67.5359504 C36.5957004,68.3144628 38.2149792,82.5871901 37.9558946,85.1173554 C37.69681,87.6475207 36.401387,105.423554 36.401387,105.423554 C36.401387,105.423554 38.6683773,106.331818 40.287656,106.072314 C40.287656,106.072314 46.3761442,82.0681818 48.0601942,72.2070248 C48.0601942,72.2070248 63.4757282,66.0438017 70.1471567,59.5561983 C70.0823856,59.6859504 65.8722607,61.2429752 62.1803051,61.1132231" id="Fill-130_1_" fill="#FFD63F"></path>
            <path d="M72.0902913,58.7128099 C72.0902913,58.7128099 81.8059639,65.7842975 72.0255201,74.607438 C64.6416089,80.1219008 49.4203883,79.8623967 49.4203883,79.8623967 C49.4203883,79.8623967 49.8090153,97.8330579 46.6352288,109.186364 C46.6352288,109.186364 45.3398058,109.186364 43.2023578,109.316116 C43.2023578,109.316116 43.8500693,101.790496 43.0080444,95.1082645 C43.0080444,95.1082645 46.6352288,79.1487603 48.0601942,72.3367769 C48.0601942,72.3367769 61.7269071,66.627686 70.1471567,59.6859504 C70.0823856,59.6859504 70.9891817,59.1669421 72.0902913,58.7128099" id="Fill-131_1_" fill="#E6C03B"></path>
            <path d="M62.1803051,61.1132231 C62.1803051,61.1132231 62.1803051,52.3549587 60.7553398,49.7599174 C59.2656033,47.164876 57.4520111,44.0508264 59.0712899,39.6392562 C60.7553398,35.227686 62.3098474,33.2165289 62.3098474,33.2165289 L68.139251,30.8161157 C68.139251,30.8161157 72.6084605,30.8161157 73.3209431,33.411157 C73.70957,34.7735537 72.0902913,58.6479339 72.0902913,58.6479339 C72.0902913,58.6479339 67.1029126,61.5673554 62.1803051,61.1132231" id="Fill-132_1_" fill="#34227A"></path>
            <path d="M67.9449376,36.9793388 C68.0744799,38.7309917 66.7790569,45.9322314 62.2450763,48.2028926 C57.7758669,50.4735537 40.9353675,52.0954545 40.2228849,52.3549587 C39.5104022,52.6144628 33.2276006,56.2475207 35.559362,55.8582645 C37.5024965,55.5338843 39.6399445,54.2363636 40.9353675,54.2363636 C42.4898752,54.3012397 43.8500693,54.4958678 44.6273232,54.7553719 C45.404577,55.014876 48.5135922,53.7173554 48.5135922,53.7173554 C48.5135922,53.7173554 60.4962552,54.1714876 63.1518724,52.5495868 C65.8074896,50.927686 72.6732316,46.9702479 73.5800277,38.1471074 C73.9038835,34.7086777 72.7380028,32.1785124 70.6653259,32.4380165 C69.1108183,32.6326446 67.8153953,35.227686 67.9449376,36.9793388" id="Fill-133_1_" fill="#90573E"></path>
            <polygon id="Fill-134_1_" fill="#19124C" points="4.92260749 36.3954545 12.3712899 56.831405 36.5957004 56.831405 29.0822469 36.3954545"></polygon>
        </g>
        <g id="persona1_1_" transform="translate(36.722607, 161.950413)" fill-rule="nonzero">
            <path d="M76.1708738,104.190909 L76.4299584,108.732231 C76.4299584,108.732231 86.0808599,109.121488 87.9592233,109.57562 C88.5421637,108.083471 80.3809986,103.931405 80.3809986,103.931405 L76.1708738,104.190909 Z" id="Fill-37_1_" fill="#300881"></path>
            <path d="M55.249792,73.3747934 C55.249792,73.3747934 65.1597781,72.3367769 69.6289875,74.672314 C84.3320388,82.327686 81.2230236,97.1194215 80.4457698,103.931405 C78.3083218,104.061157 76.1708738,104.190909 76.1708738,104.190909 C76.1708738,104.190909 79.668516,87.4528926 70.1471567,82.327686 C63.4757282,78.6946281 57.1929265,79.0838843 56.6747573,79.1487603 C56.0918169,79.2136364 55.249792,73.3747934 55.249792,73.3747934" id="Fill-39_1_" fill="#DE8551"></path>
            <path d="M64.0586685,69.8066116 C64.0586685,69.8066116 73.6447989,70.3904959 78.2435506,72.4665289 C89.4489598,77.5268595 93.4647712,94.3297521 92.6875173,101.141736 C90.5500693,100.882231 88.4773925,100.298347 88.4773925,100.298347 C88.4773925,100.298347 88.4773925,85.7012397 78.9560333,80.5760331 C72.2846047,76.9429752 66.3256588,77.0727273 65.7427184,77.1376033 C65.1597781,77.2673554 64.0586685,69.8066116 64.0586685,69.8066116" id="Fill-43_1_" fill="#EDB090"></path>
            <path d="M39.7694868,3.11404959 C39.7694868,3.11404959 40.3524272,1.29752066 43.267129,1.23264463 C46.1818308,1.1677686 47.8658807,4.15206612 47.8011096,5.96859504 C47.6715673,7.78512397 47.3477115,8.75826446 47.8011096,9.92603306 C48.2545076,11.0938017 49.7442441,13.2995868 49.0317614,15.635124 C48.3192788,17.9706612 47.6715673,20.1115702 45.404577,18.8789256 C43.1375867,17.581405 39.1865465,4.47644628 39.7694868,3.11404959" id="Fill-45_1_" fill="#9673D0"></path>
            <path d="M47.2181692,16.2838843 C47.3477115,15.635124 47.4124827,14.9863636 47.4124827,14.3376033 C47.4124827,9.21239669 43.267129,4.99545455 38.0854369,4.99545455 C32.968516,4.99545455 28.7583911,9.14752066 28.7583911,14.3376033 C28.7583911,17.3867769 30.2481276,20.0466942 32.4503467,21.7983471 L30.5719834,32.3731405 L33.421914,33.2165289 L37.3081831,27.507438 C37.3081831,27.507438 43.4614424,27.507438 45.404577,26.5342975 C47.4124827,25.6260331 47.2181692,16.2838843 47.2181692,16.2838843 Z" id="Fill-47_1_" fill="#EDB090"></path>
            <path d="M68.2687933,68.9632231 C67.1029126,68.9632231 64.0586685,67.7305785 55.70319,67.6008264 C44.6920943,67.4710744 41.5183079,63.1243802 40.0933426,61.4376033 C38.6683773,59.7508264 36.6604716,60.0752066 36.854785,57.1557851 C37.0490985,54.2363636 38.538835,53.4578512 38.9274619,52.3549587 C39.3160888,51.1871901 35.6241331,31.4 35.6241331,31.4 L30.1185853,28.9347107 C30.1185853,28.9347107 25.1959778,37.7578512 23.9005548,48.0731405 C22.5403606,58.3884298 22.9289875,61.3727273 25.1959778,67.4710744 C27.4629681,73.5694215 34.5230236,77.3971074 40.9353675,78.564876 C47.995423,79.8623967 64.7711512,79.4731405 68.2040222,81.3545455 C70.0176144,78.8892562 69.3699029,68.9632231 68.2687933,68.9632231" id="Fill-49_1_" fill="#464195"></path>
            <path d="M44.8864078,7.97975207 C44.8864078,7.97975207 44.8216366,12.5210744 41.971706,14.7917355 C39.1217753,17.1272727 36.6604716,17.2570248 36.6604716,17.2570248 C36.6604716,17.2570248 33.0332871,13.6239669 31.3492372,16.4136364 C29.6651872,19.2033058 32.3208044,20.4359504 32.3208044,20.4359504 C32.3208044,20.4359504 34.0048544,20.7603306 33.0332871,24.5231405 C32.0617198,28.2859504 31.8674064,31.9190083 28.8231623,32.2433884 C25.7789182,32.6326446 25.260749,29.9078512 25.260749,29.9078512 C25.260749,29.9078512 18.2006935,28.8698347 19.2370319,20.4359504 C20.2733703,12.0020661 23.3176144,13.688843 24.9368932,13.4293388 C24.418724,10.7694215 24.6778086,7.52561983 26.3618585,5.70909091 C28.0459085,3.89256198 30.8958391,0.778512397 33.6162275,0.519008264 C36.3366158,0.194628099 44.4977809,-0.454132231 44.8864078,7.97975207" id="Fill-51_1_" fill="#9673D0"></path>
            <path d="M1.10110957,56.4421488 C1.10110957,56.4421488 -3.49764216,35.1628099 10.0395284,32.3082645 C23.5119279,29.388843 23.7710125,49.046281 23.6414702,55.2095041 C23.576699,58.1938017 20.5972261,85.1173554 58.0349515,75.5805785 C58.0349515,75.5805785 67.685853,72.9206612 69.6289875,81.1599174 C71.5721221,89.4640496 67.0381415,94.0053719 61.3382802,95.4326446 C55.6384189,96.9247934 30.3776699,99.0008264 23.7062413,97.5735537 C23.6414702,97.5086777 11.3349515,97.0545455 1.10110957,56.4421488" id="Fill-135_1_" fill="#FF885F"></path>
            <polygon id="Fill-136_1_" fill="#34227A" points="19.9495146 107.629339 25.5846047 107.629339 30.5072122 98.027686 25.1959778 98.027686"></polygon>
            <polygon id="Fill-137_1_" fill="#34227A" points="66.4552011 107.629339 60.7553398 107.629339 55.1202497 96.4057851 59.978086 95.8867769"></polygon>
            <polygon id="Fill-138_1_" fill="#19124C" points="43.3966713 67.2764463 68.8517337 68.1847107 80.6400832 44.1805785 78.2435506 43.8561983 67.7506241 65.4599174 43.720527 64.811157"></polygon>
            <path d="M32.5151179,47.6190083 C32.5151179,47.6190083 34.3287101,49.6950413 36.7252427,54.5607438 C38.7331484,58.5181818 41.3887656,62.8 47.4772538,63.1243802 C50.5214979,63.3190083 53.6305132,62.3458678 54.9907074,60.788843 C56.998613,58.5181818 57.1281553,56.1177686 58.8122053,55.014876 C60.6905687,53.7822314 64.0586685,54.885124 63.9938974,56.1826446 C63.9291262,57.4801653 60.7553398,55.2095041 59.7837725,57.6747934 C59.2008322,59.2318182 59.4599168,59.4264463 59.2008322,60.788843 C58.8769764,62.8 57.7758669,64.6165289 56.0918169,64.811157 C54.7316227,64.9409091 50.0033287,68.1847107 44.4977809,67.1466942 C41.0001387,66.4979339 34.4582524,62.5404959 31.4787795,55.6636364 C28.1106796,47.9433884 27.2686546,47.8785124 28.2402219,45.8673554 C29.2117892,43.9859504 31.284466,43.207438 32.5151179,47.6190083" id="Fill-139_1_" fill="#EDB090"></path>
            <path d="M30.0538141,33.7355372 C31.3492372,33.6057851 32.7742025,33.8652893 33.5514563,38.0822314 C34.3287101,42.2991736 35.0411928,49.2409091 35.0411928,49.2409091 C35.0411928,49.2409091 28.5640777,52.2900826 25.1959778,49.2409091 C25.6493759,46.0619835 26.7504854,38.2119835 26.7504854,38.2119835 C26.7504854,38.2119835 27.4629681,33.9301653 30.0538141,33.7355372" id="Fill-140_1_" fill="#343474"></path>
        </g>
        <g id="planta6_1_" transform="translate(172.094313, 237.855372)" fill-rule="nonzero">
            <path d="M23.576699,28.2859504 C23.576699,28.9347107 18.5245492,29.453719 12.3712899,29.453719 C6.21803051,29.453719 1.16588072,28.9347107 1.16588072,28.2859504 C1.16588072,27.6371901 6.21803051,27.1181818 12.3712899,27.1181818 C18.5245492,27.1181818 23.576699,27.6371901 23.576699,28.2859504" id="Fill-145_1_" fill="#FBAFA7"></path>
            <path d="M17.3586685,28.5454545 C17.3586685,28.5454545 21.9574202,21.1495868 17.7472954,17.1272727 C14.6382802,14.9214876 11.140638,18.8140496 9.19750347,16.5433884 C7.25436893,14.3376033 16.1927878,6.94173554 13.278086,3.24380165 C10.4281553,-0.454132231 4.66352288,-0.778512397 1.29542302,2.40041322 C-2.07267684,5.57933884 3.36809986,23.2904959 7.51345354,28.5454545 C7.51345354,28.5454545 13.0190014,29.1942149 17.3586685,28.5454545" id="Fill-146_1_" fill="#519CBB"></path>
            <path d="M12.6951456,28.8698347 C12.6951456,28.8698347 12.3712899,28.5454545 11.7883495,27.8966942 C11.5292649,27.572314 11.2054092,27.1830579 10.8167822,26.7289256 C10.4281553,26.2747934 10.0395284,25.7557851 9.65090153,25.1070248 C9.26227462,24.5231405 8.80887656,23.8095041 8.3554785,23.0958678 C8.16116505,22.7066116 7.9668516,22.3822314 7.70776699,21.9929752 C7.51345354,21.603719 7.31914008,21.2144628 7.12482663,20.7603306 C6.73619972,19.9169421 6.41234397,19.0735537 6.08848821,18.1652893 C5.89417476,17.711157 5.82940361,17.2570248 5.6998613,16.7380165 C5.570319,16.2838843 5.50554785,15.764876 5.37600555,15.3107438 L5.24646325,14.5971074 L5.24646325,13.8834711 L5.24646325,13.1698347 C5.24646325,12.9103306 5.24646325,12.6508264 5.3112344,12.4561983 C5.37600555,11.4830579 5.570319,10.5747934 5.6998613,9.66652893 C5.89417476,8.75826446 6.08848821,7.91487603 6.34757282,7.13636364 C6.60665742,6.35785124 6.86574202,5.57933884 7.18959778,4.93057851 C7.44868239,4.28181818 7.77253814,3.63305785 8.0963939,3.17892562 C8.42024965,2.65991736 8.67933426,2.27066116 8.93841886,1.94628099 C9.45658807,1.29752066 9.84521498,0.973140496 9.84521498,0.973140496 C9.84521498,0.973140496 9.45658807,1.29752066 9.00319001,2.01115702 C8.74410541,2.33553719 8.4850208,2.78966942 8.2259362,3.30867769 C7.9668516,3.82768595 7.70776699,4.41157025 7.44868239,5.12520661 C6.93051318,6.48760331 6.54188627,8.10950413 6.21803051,9.86115702 C6.08848821,10.7694215 5.89417476,11.677686 5.89417476,12.5859504 C5.89417476,12.8454545 5.82940361,13.0400826 5.89417476,13.2995868 L5.95894591,14.0132231 L6.02371706,14.7268595 L6.15325936,15.4404959 C6.21803051,15.8946281 6.28280166,16.3487603 6.41234397,16.8028926 C6.54188627,17.2570248 6.60665742,17.711157 6.80097087,18.1652893 C7.06005548,19.0735537 7.44868239,19.9169421 7.77253814,20.7603306 C7.9668516,21.1495868 8.16116505,21.538843 8.3554785,21.9280992 C8.54979196,22.3173554 8.74410541,22.7066116 8.93841886,23.0309917 C9.32704577,23.7446281 9.71567268,24.4582645 10.1042996,25.0421488 C10.8815534,26.2747934 11.5292649,27.2479339 12.0474341,27.9615702 C12.436061,28.4805785 12.6951456,28.8698347 12.6951456,28.8698347" id="Fill-147_1_" fill="#E9E2FA"></path>
        </g>
        <g id="planta4_1_" transform="translate(19.234397, 238.504132)" fill-rule="nonzero">
            <path d="M19.9495146,29.0644628 C19.9495146,29.518595 16.5166436,29.8429752 12.2417476,29.8429752 C8.03162275,29.8429752 4.53398058,29.453719 4.53398058,29.0644628 C4.53398058,28.6752066 7.9668516,28.2859504 12.2417476,28.2859504 C16.5166436,28.2210744 19.9495146,28.6103306 19.9495146,29.0644628" id="Fill-31_3_" fill="#FBAFA7"></path>
            <path d="M17.7472954,28.8049587 C17.7472954,28.8049587 22.3460472,21.4090909 18.1359223,17.3867769 C15.0269071,15.1809917 11.5292649,19.0735537 9.58613037,16.8028926 C7.64299584,14.5322314 16.5814147,7.20123967 13.6667129,3.50330579 C10.8167822,-0.194628099 5.05214979,-0.519008264 1.68404993,2.65991736 C-1.68404993,5.83884298 3.75672677,23.55 7.90208044,28.8049587 C7.90208044,28.8049587 13.4076283,29.388843 17.7472954,28.8049587" id="Fill-33_3_" fill="#519CBB"></path>
            <path d="M13.0837725,29.0644628 C13.0837725,29.0644628 12.7599168,28.7400826 12.1769764,28.0913223 C11.9178918,27.7669421 11.5940361,27.377686 11.2054092,26.9235537 C10.8167822,26.4694215 10.4281553,25.9504132 10.0395284,25.3016529 C9.65090153,24.7177686 9.19750347,24.0041322 8.74410541,23.2904959 C8.54979196,22.9012397 8.3554785,22.5768595 8.0963939,22.1876033 C7.90208044,21.7983471 7.70776699,21.4090909 7.51345354,20.9549587 C7.12482663,20.1115702 6.80097087,19.2681818 6.47711512,18.3599174 C6.28280166,17.9057851 6.21803051,17.4516529 6.08848821,16.9326446 C5.95894591,16.4785124 5.89417476,15.9595041 5.76463245,15.5053719 L5.63509015,14.7917355 L5.63509015,14.0780992 L5.63509015,13.3644628 C5.63509015,13.1049587 5.63509015,12.8454545 5.6998613,12.6508264 C5.76463245,11.677686 5.95894591,10.7694215 6.08848821,9.86115702 C6.28280166,8.95289256 6.47711512,8.10950413 6.73619972,7.33099174 C6.99528433,6.55247934 7.25436893,5.77396694 7.57822469,5.12520661 C7.83730929,4.47644628 8.16116505,3.82768595 8.4850208,3.37355372 C8.80887656,2.85454545 9.06796117,2.46528926 9.32704577,2.07603306 C9.84521498,1.42727273 10.2338419,1.10289256 10.2338419,1.10289256 C10.2338419,1.10289256 9.84521498,1.42727273 9.39181692,2.14090909 C9.13273232,2.46528926 8.87364771,2.91942149 8.61456311,3.43842975 C8.3554785,3.95743802 8.0963939,4.54132231 7.83730929,5.25495868 C7.31914008,6.61735537 6.93051318,8.2392562 6.60665742,9.99090909 C6.47711512,10.8991736 6.28280166,11.807438 6.28280166,12.7157025 C6.28280166,12.9752066 6.21803051,13.1698347 6.28280166,13.4293388 L6.34757282,14.1429752 L6.41234397,14.8566116 L6.54188627,15.5702479 C6.60665742,16.0243802 6.67142857,16.4785124 6.80097087,16.9326446 C6.93051318,17.3867769 6.99528433,17.8409091 7.18959778,18.2950413 C7.44868239,19.2033058 7.83730929,20.0466942 8.16116505,20.8900826 C8.3554785,21.2793388 8.54979196,21.668595 8.74410541,22.0578512 C8.93841886,22.4471074 9.13273232,22.8363636 9.32704577,23.1607438 C9.71567268,23.8743802 10.1042996,24.5880165 10.4929265,25.1719008 C11.2701803,26.4045455 11.9178918,27.377686 12.436061,28.0913223 C12.8246879,28.6752066 13.0837725,29.0644628 13.0837725,29.0644628" id="Fill-35_3_" fill="#E9E2FA"></path>
        </g>
    </g>
</svg>