<svg viewBox="0 0 56 87" version="1.1" xmlns="http://www.w3.org/2000/svg" xmlns:xlink="http://www.w3.org/1999/xlink" id="el_Lku5HaVWMF"><style>@-webkit-keyframes el_WVxklmmb74_vzkdZ-s3n_Animation{33.33%{-webkit-transform: rotate(0deg);transform: rotate(0deg);}50%{-webkit-transform: rotate(20deg);transform: rotate(20deg);}66.67%{-webkit-transform: rotate(0deg);transform: rotate(0deg);}0%{-webkit-transform: rotate(0deg);transform: rotate(0deg);}100%{-webkit-transform: rotate(0deg);transform: rotate(0deg);}}@keyframes el_WVxklmmb74_vzkdZ-s3n_Animation{33.33%{-webkit-transform: rotate(0deg);transform: rotate(0deg);}50%{-webkit-transform: rotate(20deg);transform: rotate(20deg);}66.67%{-webkit-transform: rotate(0deg);transform: rotate(0deg);}0%{-webkit-transform: rotate(0deg);transform: rotate(0deg);}100%{-webkit-transform: rotate(0deg);transform: rotate(0deg);}}#el_Lku5HaVWMF *{-webkit-animation-duration: 3s;animation-duration: 3s;-webkit-animation-iteration-count: infinite;animation-iteration-count: infinite;-webkit-animation-timing-function: cubic-bezier(0, 0, 1, 1);animation-timing-function: cubic-bezier(0, 0, 1, 1);}#el_pysGBn5CSa{stroke: none;stroke-width: 1;fill: none;}#el_lJWoATWM40{fill: #8D83BF;opacity: 0.2;-webkit-transform: translate(57px, 0px) scale(-1, 1);transform: translate(57px, 0px) scale(-1, 1);}#el_VYd5_65QyQ{fill: #FFD4A8;-webkit-transform: translate(46px, 0px) scale(-1, 1);transform: translate(46px, 0px) scale(-1, 1);}#el_bt5RfcCX9Q{fill: #412E7D;-webkit-transform: translate(40px, 0px) scale(-1, 1);transform: translate(40px, 0px) scale(-1, 1);}#el_4It36z_Rg9{fill: #FFD4A8;-webkit-transform: translate(37px, 0px) scale(-1, 1);transform: translate(37px, 0px) scale(-1, 1);}#el_i94vLB5Wvi{fill: #412E7D;-webkit-transform: translate(34px, 0px) scale(-1, 1);transform: translate(34px, 0px) scale(-1, 1);}#el_MhR5S11diY{fill: #FF9987;-webkit-transform: translate(69px, 0px) scale(-1, 1);transform: translate(69px, 0px) scale(-1, 1);}#el_WVxklmmb74{fill: #694EB9;-webkit-transform: translate(27px, 0px) scale(-1, 1);transform: translate(27px, 0px) scale(-1, 1);}#el_JhSv7zMFCm{fill: #CABAFF;-webkit-transform: translate(66px, 0px) scale(-1, 1);transform: translate(66px, 0px) scale(-1, 1);}#el_gvePTy8dIp{fill: #694EB9;-webkit-transform: translate(43px, 0px) scale(-1, 1);transform: translate(43px, 0px) scale(-1, 1);}#el_MAJrFqx16Ra{fill: #FFC44F;-webkit-transform: translate(51px, 0px) scale(-1, 1);transform: translate(51px, 0px) scale(-1, 1);}#el_UZLPI1AW--h{fill: #FFD4A8;-webkit-transform: translate(42px, 0px) scale(-1, 1);transform: translate(42px, 0px) scale(-1, 1);}#el_BwY4odBDHac{fill: #FF9987;-webkit-transform: translate(38px, 0px) scale(-1, 1);transform: translate(38px, 0px) scale(-1, 1);}#el_qjD_wC_GMiE{fill: #694EB9;-webkit-transform: translate(50px, 0px) scale(-1, 1);transform: translate(50px, 0px) scale(-1, 1);}#el_n-462gtiQLP{fill: #694EB9;-webkit-transform: translate(71px, 0px) scale(-1, 1);transform: translate(71px, 0px) scale(-1, 1);}#el_u_xHYE4cFHt{fill: #FF9987;-webkit-transform: translate(49px, 0px) scale(-1, 1);transform: translate(49px, 0px) scale(-1, 1);}#el_RfpgxWBQxhN{fill: #EEA33C;-webkit-transform: translate(72px, 0px) scale(-1, 1);transform: translate(72px, 0px) scale(-1, 1);}#el_6pd-v4nKdyW{fill: #EEA33C;-webkit-transform: translate(59px, 0px) scale(-1, 1);transform: translate(59px, 0px) scale(-1, 1);}#el_fHE5W6xUqnP{fill: #EEA33C;-webkit-transform: translate(53px, 0px) scale(-1, 1);transform: translate(53px, 0px) scale(-1, 1);}#el_t-7QCtFpW0X{fill: #EEA33C;-webkit-transform: translate(58px, 0px) scale(-1, 1);transform: translate(58px, 0px) scale(-1, 1);}#el_0ZBwJeEl7K2{fill: #EEA33C;-webkit-transform: translate(35px, 0px) scale(-1, 1);transform: translate(35px, 0px) scale(-1, 1);}#el_WVxklmmb74_vzkdZ-s3n{-webkit-animation-name: el_WVxklmmb74_vzkdZ-s3n_Animation;animation-name: el_WVxklmmb74_vzkdZ-s3n_Animation;-webkit-animation-timing-function: cubic-bezier(0, 0, 0.58, 1);animation-timing-function: cubic-bezier(0, 0, 0.58, 1);-webkit-transform-origin: 100% 50%;transform-origin: 100% 50%;transform-box: fill-box;}</style>
    <!-- Generator: Sketch 49 (51002) - http://www.bohemiancoding.com/sketch -->
    <title>ilustracion-6b</title>
    <desc>Created with Sketch.</desc>
    <defs/>
    <g id="el_pysGBn5CSa" fill-rule="evenodd">
        <path d="M12.2050596,38.8951945 C11.0605255,39.8075261 10.7815453,41.4953794 11.1566982,42.9112035 C11.5310562,44.3270277 12.4371457,45.5336598 13.3400559,46.6862043 C15.6044848,49.5751219 17.9809827,52.3757493 20.4623961,55.0801325 C21.6792584,56.406871 22.9302978,57.7200877 23.9015621,59.2369285 C27.7969521,65.3201998 26.5069668,73.1987044 27.2691947,80.3844096 C27.4408748,82.0038579 28.197539,84.0353269 29.824526,83.9995336 C30.4254064,83.9852163 30.9722393,83.6622811 31.4626404,83.3154837 C34.7690722,80.9769877 36.8721536,77.0206341 36.9603781,72.9696272 C36.986607,71.7900389 36.8570521,70.5754527 37.2369738,69.4579061 C37.7639364,67.9060674 39.1588373,66.8489718 40.2540929,65.6304085 C42.5240855,63.1065827 43.5859588,59.7523521 44.5874261,56.5086831 C45.7359342,52.7901562 46.8510602,48.6071118 45.0579568,45.1534554 C43.7878419,42.7075794 41.2786098,41.1501728 38.7208941,40.1296659 C30.3936138,36.8072516 21.0370476,38.0472908 12.1669085,39.3390315" id="el_lJWoATWM40"/>
        <polygon id="el_VYd5_65QyQ" points="23.8922261 82 24 84.6996403 22.0768551 85 22 82.0215827"/>
        <path d="M16.1270224,84.7123991 C16.1270224,84.7123991 22.9007944,83.4087032 23.9192419,84.3285331 C24.9369332,85.248363 16,86 16,86 L16.1270224,84.7123991 Z" id="el_bt5RfcCX9Q"/>
        <polygon id="el_4It36z_Rg9" points="20 68.9254891 18.696756 71 17 70.2666845 18.4716502 68"/>
        <path d="M13.8193055,70 C13.8193055,70 20.580995,72.5533036 20.9858093,73.7730713 C21.3906236,74.9928391 13,70.8979046 13,70.8979046 L13.8193055,70 Z" id="el_i94vLB5Wvi"/>
        <path d="M48.4081967,10.2470098 C51.2493676,8.49920231 47.6229565,6.98845379 50.955204,7.15560043 C51.7090988,7.19336915 52.5280955,7.26729939 53.1566091,6.84943278 C53.9739984,6.30700978 54.1218839,5.14823352 53.9177376,4.18874749 C53.4298759,1.88967753 51.2413304,0.0671362321 48.8912359,0.00204547141 C45.6972293,-0.0855457992 42.9235713,2.66996307 39.7327796,2.50844155 C38.5151349,2.44656515 37.3674143,1.95958983 36.1996006,1.61083193 C32.7950178,0.594291035 28.4131044,1.13510686 26.7244763,4.26107056 C26.2727824,5.09841096 26.0557764,6.05146827 25.5582701,6.86229022 C24.1445163,9.16377094 21.0421344,9.61538832 18.7700013,11.0755107 C16.2438909,12.6987618 14.7449422,15.7925819 15.0358909,18.7811317 C15.1572535,20.0250885 15.6210034,21.3156535 16.6312868,22.0517416 C16.6312868,22.0517416 20.0688223,26.435323 27.8504963,22.0517416 C35.6321702,17.6681601 48.4081967,10.2470098 48.4081967,10.2470098" id="el_MhR5S11diY"/>
        <g id="el_WVxklmmb74_vzkdZ-s3n" data-animator-group="true" data-animator-type="1"><path d="M0,18.9221131 C1.21619582,17.5453039 19.8623811,37.9040769 23.8424384,40.0476556 C27.8233021,42.1904305 26.9095423,40.0476556 26.9095423,40.0476556 L18.9212004,31.1687229 L3.56067941,14 L0,18.9221131 Z" id="el_WVxklmmb74"/></g>
        <path d="M41.9240848,10.9816914 C38.6363689,9.35352229 34.7184224,9.76958324 31.8560924,12.0887823 C31.8262683,12.1136337 31.7964442,12.1376835 31.7666201,12.1625349 C26.7742207,16.2413752 20.4679907,24.2579638 22.3359219,38 L39.9753145,35.8619758 C39.9753145,35.8619758 37.4952042,32.8004406 40.6910932,23.7376872 C42.449931,18.7513691 44,14.0969378 44,14.0969378 L41.9240848,10.9816914 Z" id="el_JhSv7zMFCm"/>
        <path d="M9.07630394,17.7604346 C9.07630394,17.7604346 10.613412,33.7708016 16.7642663,35.8850043 C22.9151205,38 33.9864967,38 33.9864967,38 C33.9864967,38 34.8357812,36.8858009 23.0636646,34.1236974 C22.5744379,34.0087088 22.0642214,33.8913413 21.530593,33.7708016 C21.530593,33.7708016 14.855798,29.9825246 15.2005171,18.3988191 C15.2166632,17.873044 15.1956733,17.3480619 15.1149428,16.8294241 C14.8493396,15.1252149 14.0105501,11.7041082 11.5652242,12.0205249 C8.32066677,12.4408278 9.07630394,17.7604346 9.07630394,17.7604346" id="el_gvePTy8dIp"/>
        <path d="M6,38.1271795 C6,38.1271795 19.7478918,54.4510126 22.4971493,59.2878508 C25.2472089,64.1246891 24.0249602,81.3119316 24.9416467,81.7872829 C25.8575312,82.2626342 29.3670852,81.7928379 29.3670852,81.7928379 L29.5844273,68.7488493 L29.7319954,61.9185512 C29.8033735,58.641881 29.2331511,55.3826694 28.0534085,52.3202643 L24.3297204,42.6616657 C24.3297204,42.6616657 39.527629,43.5957032 36.8561655,51.1259343 C33.4989916,60.5877263 30.4401618,67.7521194 30.4401618,67.7521194 L33.4957836,68.9607338 C33.4957836,68.9607338 47.8411657,51.1259343 44.4936158,43.2663697 C41.1468679,35.4068051 24.0249602,36.0107155 24.0249602,36.0107155 L6,38.1271795 Z" id="el_MAJrFqx16Ra"/>
        <path d="M27,7.04296439 L24.5185528,12.2081557 C23.9658445,13.358673 22.5709529,13.8465506 21.4073133,13.2955645 L20.7209381,12.9703127 L19.5597586,14.2608015 C18.7438167,15.1685936 17.3366246,15.2519292 16.4165374,14.4460817 L15.8654692,13.9638677 C14.8026947,13.0334213 14.7051097,11.4281989 15.6481581,10.3788171 L21.3843521,4 L27,7.04296439 Z" id="el_UZLPI1AW--h"/>
        <path d="M14,10.8785146 C14,10.8785146 16.2224845,11.4209412 17.2475808,10.2134524 C17.2475808,10.2134524 16.0942491,7.19001348 17.2829832,7.1813661 C18.4709307,7.17271872 18.5464558,9.48156947 18.5464558,9.48156947 C18.5464558,9.48156947 19.3890331,7.04222187 20.0372905,6.79144782 C20.0372905,6.79144782 22.9497286,9.36679514 24,7.23639489 C24,7.23639489 23.842656,5.78520711 22.1032177,4.05887539 C20.3645661,2.33254367 16.9045708,3.23658806 16.9045708,3.23658806 L14,10.8785146 Z" id="el_BwY4odBDHac"/>
        <path d="M26.9971821,14.4589857 C27.0110929,14.4672156 26.9763158,14.5674705 26.8294793,14.6849334 C26.6857342,14.8046408 26.423747,14.9056439 26.1022524,14.9482897 C25.7784393,14.9842019 25.4113481,15.0216104 24.9708387,14.9849501 C24.7529024,14.9625049 24.5164184,14.9078884 24.2961637,14.788181 C24.075909,14.66997 23.8896585,14.4934016 23.7358666,14.2966326 C23.1454295,13.4953412 22.9862278,12.6012766 23.0009114,11.9817909 C23.0140494,11.3540753 23.1709326,10.9904641 23.2026184,11.0001903 C23.2520791,11.0099165 23.1740239,11.3817576 23.2149836,11.9765537 C23.2520791,12.5616236 23.4445122,13.3965826 23.9785332,14.1200642 C24.1130045,14.2936399 24.2691149,14.4410296 24.443773,14.5382919 C24.6168855,14.6370504 24.8124099,14.6894224 25.0056157,14.7163566 C25.3928004,14.7642395 25.7784393,14.7500243 26.0806133,14.7417944 C26.3851058,14.7260828 26.6192713,14.6669773 26.7637893,14.5891675 C26.9113986,14.5158467 26.9778615,14.4440223 26.9971821,14.4589857" id="el_qjD_wC_GMiE"/>
        <path d="M38.9986082,16.0003905 C39.0163776,16.0116806 38.8634065,16.3028037 38.5736886,16.8205352 C38.2723819,17.3495567 37.8513252,18.0914772 37.3344685,19.0019427 C36.3007549,20.8462602 34.8652992,23.4074987 33.7481469,26.4469534 C33.1972966,27.9670839 32.7955544,29.4630214 32.5529639,30.8476708 C32.3096009,32.2315138 32.2138008,33.4992301 32.2238444,34.5637247 C32.2307976,35.6274129 32.3157815,36.4878794 32.4023106,37.0773836 C32.486522,37.6676942 32.5467833,37.9934941 32.5220607,37.9999455 C32.5120171,38.0023648 32.4857494,37.9241406 32.44403,37.7717244 C32.4069461,37.6185016 32.3374138,37.3951191 32.2856509,37.0991573 C32.1635831,36.511266 32.043833,35.6451545 32.0090668,34.5669505 C31.9719829,33.4895529 32.0461507,32.2016757 32.2779251,30.796059 C32.5089268,29.3904422 32.9075787,27.872731 33.4638371,26.3340524 C34.5941232,23.2615339 36.0689806,20.7035212 37.1505942,18.885816 C37.6960364,17.9769634 38.1526319,17.2519781 38.473253,16.7544075 C38.7946468,16.2576433 38.9808388,15.9882939 38.9986082,16.0003905" id="el_n-462gtiQLP"/>
        <path d="M21,9.74157703 C21,9.74157703 22.7549739,10.9414101 24.7387494,10.9996854 C26.7233539,11.0579608 28,3 28,3 L21,9.74157703 Z" id="el_u_xHYE4cFHt"/>
        <path d="M36.9021135,39.000053 C36.9330965,38.9952721 37.0044922,39.3140033 36.9997774,39.8438939 C36.9970832,40.3705973 36.894031,41.1076632 36.6131633,41.8495101 C36.3296013,42.5905602 35.9322105,43.170651 35.600827,43.522849 C35.26877,43.8782343 35.0195588,44.0264443 35.0020466,43.9961648 C34.9771255,43.9563234 35.1825564,43.7475545 35.4674654,43.3682643 C35.7523744,42.989771 36.1032906,42.4224294 36.3720346,41.7212208 C36.6374108,41.0184184 36.7633635,40.3315527 36.8132057,39.8279574 C36.8643951,39.3251589 36.8603538,39.0040372 36.9021135,39.000053" id="el_RfpgxWBQxhN"/>
        <path d="M24.0006936,45.0002801 C24.0098449,44.9939355 24.1080135,45.0954501 24.2885437,45.2961002 C24.469074,45.4959573 24.731966,45.7941566 25.0647408,46.1827675 C25.7286263,46.9591961 26.6861856,48.0885469 27.7968212,49.5375103 C28.9032971,50.9880598 30.1728327,52.7621874 31.2984431,54.8892371 C31.8608324,55.9511757 32.3849526,57.1011467 32.8125681,58.3335983 C33.2435113,59.5660499 33.5496641,60.8817752 33.7834383,62.2355686 C34.6711149,67.6523282 34.9498137,72.613858 34.9930744,76.199388 C35.0155367,77.9933427 34.9797634,79.4438922 34.9373346,80.4455565 C34.919864,80.9467852 34.893242,81.3353961 34.8749394,81.5986998 C34.8558048,81.8620035 34.84083,82 34.8291829,82 C34.8183677,81.9992069 34.8117122,81.8612104 34.8092164,81.5971136 C34.8092164,81.3234999 34.8100483,80.9364752 34.8100483,80.4431773 C34.8133761,79.441513 34.814208,77.9933427 34.761796,76.2033534 C34.6602997,72.6281335 34.3449957,67.679293 33.4614788,62.2855328 C33.2293684,60.9420496 32.9298712,59.6445651 32.5089112,58.4287683 C32.0912789,57.2113852 31.5788058,56.0725175 31.0297275,55.0169235 C29.9299071,52.9041493 28.6869935,51.1276425 27.6088035,49.6659898 C26.5264537,48.2051302 25.5980122,47.0567454 24.9649083,46.2573173 C24.653764,45.8631549 24.4100065,45.5538523 24.2377956,45.3349613 C24.0730721,45.1216219 23.9915423,45.0074179 24.0006936,45.0002801" id="el_6pd-v4nKdyW"/>
        <path d="M26.0690452,41.0000507 C26.1588663,40.9944247 26.2534993,41.4573643 26.4523891,41.9910307 C26.645665,42.5271083 26.8726238,42.9410212 26.8004461,42.9948701 C26.7354861,43.0479153 26.3689837,42.68544 26.1564604,42.0995322 C25.9407292,41.5160355 25.9856398,41.0008545 26.0690452,41.0000507" id="el_fHE5W6xUqnP"/>
        <path d="M29.9934635,38.9957907 C29.9320769,39.0500294 29.5184154,38.5719543 28.9743074,38.0318922 C28.4329897,37.4895056 27.9607319,37.0827156 28.0025864,37.0098808 C28.0402554,36.9401454 28.5955246,37.2431071 29.1570719,37.8056395 C29.7207119,38.3666222 30.0513621,38.9469759 29.9934635,38.9957907" id="el_t-7QCtFpW0X"/>
        <path d="M11.0001368,42.2307035 C10.9953352,42.2211117 11.1169758,42.153969 11.3554555,42.0348707 C11.5939351,41.9165717 11.9540554,41.7607048 12.431815,41.5944468 C13.3849333,41.2723219 14.8414197,40.9230201 16.6620277,41.0149417 C17.5695308,41.0565062 18.5594614,41.2275601 19.5790019,41.5528823 C20.5905397,41.8885956 21.6596968,42.4025567 22.5199841,43.2810066 C22.9433255,43.7214305 23.3050463,44.2553746 23.5315219,44.855662 C23.7643997,45.4535514 23.8868406,46.0978013 23.9460604,46.7508436 C24.0052801,47.4046853 24.0036796,48.0681188 23.9964772,48.7371475 C23.9876743,49.4069755 23.962866,50.0887933 23.8956435,50.7778049 C23.7724024,52.1598248 23.4074805,53.4834945 22.9377236,54.6952597 C22.4703675,55.9118209 21.9261858,57.0380592 21.4308204,58.1171377 C20.4288857,60.2704989 19.5261843,62.2104424 18.7659304,63.8434479 C17.9968735,65.4684603 17.3982736,66.7937286 16.9197138,67.6833689 C16.6812341,68.1277894 16.4715641,68.4603055 16.3211139,68.6793185 C16.1706636,68.8983314 16.0810337,69.0046407 16.0722307,68.9998448 C16.0626275,68.9926509 16.1354519,68.8735526 16.2682962,68.6457471 C16.4003403,68.4171423 16.5900037,68.0774324 16.8108774,67.6274167 C17.2518247,66.7289839 17.8208147,65.3877292 18.564263,63.7507271 C19.3061108,62.1105277 20.1888056,60.1609924 21.1683327,57.9972401 C21.6564957,56.9133657 22.1934751,55.7863281 22.6496274,54.5857533 C23.1105813,53.3859778 23.4626989,52.1022739 23.582739,50.7474309 C23.6491612,50.0712083 23.6739695,49.3973837 23.684373,48.7331509 C23.6931759,48.0673195 23.6947764,47.4126785 23.639558,46.7780204 C23.5835393,46.1441617 23.4683008,45.527888 23.2514284,44.9635698 C23.0401578,44.3976531 22.7080469,43.9004776 22.3111143,43.4816353 C21.5060455,42.6463486 20.4785023,42.136384 19.4965744,41.7998714 C18.5050432,41.4713519 17.5375201,41.2907062 16.6492234,41.2371519 C14.8646274,41.1172543 13.4241464,41.4273895 12.4694275,41.7103478 C11.5123079,42.0060953 11.0129411,42.2594789 11.0001368,42.2307035" id="el_0ZBwJeEl7K2"/>
    </g>
<script>(function(){var a=document.querySelector('#el_Lku5HaVWMF'),b=a.querySelectorAll('style'),c=function(d){b.forEach(function(f){var g=f.textContent;g&amp;&amp;(f.textContent=g.replace(/transform-box:[^;\r\n]*/gi,'transform-box: '+d))})};c('initial'),window.requestAnimationFrame(function(){return c('fill-box')})})();</script></svg>