<svg viewBox="0 0 785 496" version="1.1" xmlns="http://www.w3.org/2000/svg" xmlns:xlink="http://www.w3.org/1999/xlink" id="el_ypKMog8jFc">
    <style>
        @-webkit-keyframes el_SDrgvEo5jOO__Vekssnld_Animation{50%{-webkit-transform: scale(0, 0);transform: scale(0, 0);}57.14%{-webkit-transform: scale(1, 1);transform: scale(1, 1);}0%{-webkit-transform: scale(0, 0);transform: scale(0, 0);}100%{-webkit-transform: scale(1, 1);transform: scale(1, 1);}}@keyframes el_SDrgvEo5jOO__Vekssnld_Animation{50%{-webkit-transform: scale(0, 0);transform: scale(0, 0);}57.14%{-webkit-transform: scale(1, 1);transform: scale(1, 1);}0%{-webkit-transform: scale(0, 0);transform: scale(0, 0);}100%{-webkit-transform: scale(1, 1);transform: scale(1, 1);}}@-webkit-keyframes el_ISngawEVeFx__NwxXQFjG_Animation{0%{-webkit-transform: scale(0, 0);transform: scale(0, 0);}57.14%{-webkit-transform: scale(0, 0);transform: scale(0, 0);}64.29%{-webkit-transform: scale(1, 1);transform: scale(1, 1);}100%{-webkit-transform: scale(1, 1);transform: scale(1, 1);}}@keyframes el_ISngawEVeFx__NwxXQFjG_Animation{0%{-webkit-transform: scale(0, 0);transform: scale(0, 0);}57.14%{-webkit-transform: scale(0, 0);transform: scale(0, 0);}64.29%{-webkit-transform: scale(1, 1);transform: scale(1, 1);}100%{-webkit-transform: scale(1, 1);transform: scale(1, 1);}}@-webkit-keyframes el_BIdt2LB_mZm_h8QJrgRkC_Animation{0%{-webkit-transform: scale(0, 0);transform: scale(0, 0);}64.29%{-webkit-transform: scale(0, 0);transform: scale(0, 0);}71.43%{-webkit-transform: scale(1, 1);transform: scale(1, 1);}100%{-webkit-transform: scale(1, 1);transform: scale(1, 1);}}@keyframes el_BIdt2LB_mZm_h8QJrgRkC_Animation{0%{-webkit-transform: scale(0, 0);transform: scale(0, 0);}64.29%{-webkit-transform: scale(0, 0);transform: scale(0, 0);}71.43%{-webkit-transform: scale(1, 1);transform: scale(1, 1);}100%{-webkit-transform: scale(1, 1);transform: scale(1, 1);}}@-webkit-keyframes el_DyUt1kcGy0G_oe20EQFjO_Animation{0%{-webkit-transform: scale(0, 0);transform: scale(0, 0);}71.43%{-webkit-transform: scale(0, 0);transform: scale(0, 0);}78.57%{-webkit-transform: scale(1, 1);transform: scale(1, 1);}100%{-webkit-transform: scale(1, 1);transform: scale(1, 1);}}@keyframes el_DyUt1kcGy0G_oe20EQFjO_Animation{0%{-webkit-transform: scale(0, 0);transform: scale(0, 0);}71.43%{-webkit-transform: scale(0, 0);transform: scale(0, 0);}78.57%{-webkit-transform: scale(1, 1);transform: scale(1, 1);}100%{-webkit-transform: scale(1, 1);transform: scale(1, 1);}}@-webkit-keyframes el_Libe6Gku-96_5NkFSOOHJ_Animation{0%{-webkit-transform: scale(0, 0);transform: scale(0, 0);}78.57%{-webkit-transform: scale(0, 0);transform: scale(0, 0);}85.71%{-webkit-transform: scale(1, 1);transform: scale(1, 1);}100%{-webkit-transform: scale(1, 1);transform: scale(1, 1);}}@keyframes el_Libe6Gku-96_5NkFSOOHJ_Animation{0%{-webkit-transform: scale(0, 0);transform: scale(0, 0);}78.57%{-webkit-transform: scale(0, 0);transform: scale(0, 0);}85.71%{-webkit-transform: scale(1, 1);transform: scale(1, 1);}100%{-webkit-transform: scale(1, 1);transform: scale(1, 1);}}@-webkit-keyframes el_OT5kTx1DXdR_mT1gTK1pz_Animation{0%{-webkit-transform: scale(0, 0);transform: scale(0, 0);}85.71%{-webkit-transform: scale(0, 0);transform: scale(0, 0);}92.86%{-webkit-transform: scale(1, 1);transform: scale(1, 1);}100%{-webkit-transform: scale(1, 1);transform: scale(1, 1);}}@keyframes el_OT5kTx1DXdR_mT1gTK1pz_Animation{0%{-webkit-transform: scale(0, 0);transform: scale(0, 0);}85.71%{-webkit-transform: scale(0, 0);transform: scale(0, 0);}92.86%{-webkit-transform: scale(1, 1);transform: scale(1, 1);}100%{-webkit-transform: scale(1, 1);transform: scale(1, 1);}}@-webkit-keyframes el_MdvyiapX7Wk_8CYUrUGju_Animation{0%{-webkit-transform: scale(0, 0);transform: scale(0, 0);}92.86%{-webkit-transform: scale(0, 0);transform: scale(0, 0);}100%{-webkit-transform: scale(1, 1);transform: scale(1, 1);}}@keyframes el_MdvyiapX7Wk_8CYUrUGju_Animation{0%{-webkit-transform: scale(0, 0);transform: scale(0, 0);}92.86%{-webkit-transform: scale(0, 0);transform: scale(0, 0);}100%{-webkit-transform: scale(1, 1);transform: scale(1, 1);}}@-webkit-keyframes el_xeVA5nvW_v_Animation{57.14%{opacity: 0;}71.43%{opacity: 1;}0%{opacity: 0;}100%{opacity: 1;}}@keyframes el_xeVA5nvW_v_Animation{57.14%{opacity: 0;}71.43%{opacity: 1;}0%{opacity: 0;}100%{opacity: 1;}}#el_ypKMog8jFc *{-webkit-animation-duration: 7s;animation-duration: 7s;-webkit-animation-timing-function: cubic-bezier(0, 0, 1, 1);animation-timing-function: cubic-bezier(0, 0, 1, 1);}#el_W5B2KA-6nE{stroke: none;stroke-width: 1;fill: none;}#el_VE3Mc9Cqfq{-webkit-transform: translate(385px, 3px);transform: translate(385px, 3px);opacity: 0.5;}#el_xeVA5nvW_v{-webkit-transform: translate(0px, 0.586px);transform: translate(0px, 0.586px);-webkit-animation-name: el_xeVA5nvW_v_Animation;animation-name: el_xeVA5nvW_v_Animation;opacity: 1;}#el__Wj4iTpAIi{-webkit-transform: translate(50px, 0px);transform: translate(50px, 0px);fill: #FCB900;}#el_ZciGs-bARa{fill: #FC8100;}#el_23ZhvOaJOe{fill: #FC8100;}#el_nj5CbPfhz0{fill: #FC8100;}#el_zqi-7PVEJt{fill: #FC8100;}#el_9KGjVu2_6N{fill: #FC8100;}#el_BsqcoMOhzMP{fill: #FC8100;}#el_EtBPLUnquLS{fill: #FC8100;}#el_ejmlL6ONe5E{-webkit-transform: translate(301px, 453px);transform: translate(301px, 453px);fill: #FBAFA7;}#el_Od3EzgNbApk{-webkit-transform: translate(0px, 252px);transform: translate(0px, 252px);}#el_-yHQvGvDXt8{fill: #300881;}#el_NInk_FOw0uJ{-webkit-transform: translate(449px, 3px);transform: translate(449px, 3px);}#el_eGqGFQ248xi{fill: #0F0D33;}#el_cYXy5qSOudi{fill: #DD4412;}#el_fGj0pSx-qQN{fill: #FA5C17;}#el_XnQK-PlkPQo{fill: #19124C;}#el_-ryX7Y0jCaQ{fill: #F89A5B;}#el_jJATTHYK4X0{fill: #300881;}#el_dHiLDuLQSMY{fill: #300881;}#el_r30oJKP_QTU{fill: #DADADE;}#el_dlVwbLtzEo5{fill: #19124C;}#el_PMaEw9pE9Af{fill: #0A091C;}#el_1T6UeCIy3BD{fill: #F89A5B;}#el_4jbs2hY4w2Z{fill: #E6C03B;}#el_Tk7YEMDmUf9{-webkit-transform: translate(520px, 0px);transform: translate(520px, 0px);}#el_5am9Hqqtz2J{fill: #34227A;}#el_MQ613Q-Gcgy{fill: #19124C;}#el_G7o89L-PsHk{fill: #464195;}#el_F6cLV0xklB5{fill: #19124C;}#el_WHO7gAhEi25{fill: #19124C;}#el_Qhzps0OYvj3{fill: #CC845B;}#el_mD1IvaSIMoi{fill: #DDBA44;}#el_ZZqEM_0cCOX{fill: #300881;}#el_C1GhgPU--XR{fill: #CC845B;}#el_PYBTFr0bs25{fill: #300881;}#el_Dnz5cowLyR-{fill: #E6C03B;}#el_yPpNkgu1QFU{fill: #CC845B;}#el_Ggf39rO8AHj{fill: #E6C03B;}#el_8iawosrvWNZ{-webkit-transform: translate(588px, 35px);transform: translate(588px, 35px);}#el_gM6sqo9KVXc{fill: #6D402D;}#el_mf9bS7GksFG{fill: #BBBBBB;}#el_h0azsg2XUVZ{fill: #300881;}#el_3H1XX5cS0gf{fill: #19124C;}#el_lsbPwaNOO2g{fill: #300881;}#el_W8L_fbGwnOT{fill: #BBBBBB;}#el_y7DJyWJAlZm{fill: #19124C;}#el_MmDCU49CS92{fill: #19124C;}#el_fg1zkW_hJOK{fill: #19124C;}#el_2YsW8bOPhYC{fill: #DD4412;}#el_ayFMnBGb1Lf{fill: #DD4412;}#el_6phuTRpSGoz{fill: #FA5C17;}#el_qLNRzr7UHwi{fill: #DD4412;}#el_9fyMJuxv31Q{fill: #FA5C17;}#el_k9zdHbBKpOr{fill: #19124C;}#el_L-s-ED_0iC8{fill: #19124C;}#el_VlgtJkzI5OH{fill: #464195;}#el_ybtX-IDblrN{fill: #464195;}#el_9JdTd_IZnML{fill: #9673D0;}#el_bRY6HnMis0j{fill: #90573E;}#el_MxwsWjmmZsS{fill: #9673D0;}#el_PpZrMaGSaJE{fill: #E6C03B;}#el_H_kV-sNJ5v3{fill: #E6C03B;}#el_c2Ge-F76Hup{fill: #34227A;}#el_xtfj0BFOjNY{fill: #90573E;}#el_B8FtHzzGnzB{fill: #19124C;}#el_RLUJxwlb1MK{-webkit-transform: translate(296px, 40px);transform: translate(296px, 40px);}#el_zl1zQj8UBzZ{fill: #300881;}#el_pWi6Pa3eTn-{fill: #DE8551;}#el_ccnXOp4nnSa{fill: #EDB090;}#el_7L6uNkyr4-0{fill: #9673D0;}#el_eu1zBfabxdD{fill: #EDB090;}#el_wNRSyTdgM-y{fill: #464195;}#el_9_8J3B_8lun{fill: #9673D0;}#el_OKkjcDBcWbR{fill: #FF885F;}#el_Ai_KettGMi1{fill: #34227A;}#el_FPMxP48Oc4A{fill: #34227A;}#el_fKdEUqyZ0s_{fill: #19124C;}#el_bg4Petdjogb{fill: #EDB090;}#el_5niE7Bhxw8b{fill: #343474;}#el_MdvyiapX7Wk{-webkit-transform: translate(578px, 142px);transform: translate(578px, 142px);}#el_ge3g97fTDKD{fill: #FBAFA7;}#el_6-DJ8ByKVrO{fill: #519CBB;}#el_5dtGxX-Pdh7{fill: #E9E2FA;}#el_OT5kTx1DXdR{-webkit-transform: translate(505px, 148px);transform: translate(505px, 148px);}#el_WsH0Ex0p4Is{fill: #FBAFA7;}#el_rZuGNahRwpi{fill: #519CBB;}#el_71kTIs-Xp2O{fill: #E9E2FA;}#el_Libe6Gku-96{-webkit-transform: translate(324px, 173px);transform: translate(324px, 173px);}#el_VYTYhRH6Cw3{fill: #FBAFA7;}#el_5ageFrDzUgn{fill: #519CBB;}#el_SnGB3y1y1_d{fill: #E9E2FA;}#el_DyUt1kcGy0G{-webkit-transform: translate(269px, 158px);transform: translate(269px, 158px);}#el_-5M35VCilfU{fill: #FBAFA7;}#el_zkCSXZSpwLZ{fill: #519CBB;}#el_Z6WEmxyHewP{fill: #E9E2FA;}#el_BIdt2LB_mZm{-webkit-transform: translate(189px, 153px);transform: translate(189px, 153px);}#el_MnSbNvkxpr7{fill: #FBAFA7;}#el_lpMhQKVvQFa{fill: #2A7890;}#el_RpcvCKAV4v2{fill: #E9E2FA;}#el_FwQZ0Hd02t8{fill: #519CBB;}#el_7FTqKO78WHM{fill: #E9E2FA;}#el_ISngawEVeFx{-webkit-transform: translate(65px, 167px);transform: translate(65px, 167px);}#el_c4em76JBCwA{fill: #FBAFA7;}#el_9lKRHO2dBrw{fill: #519CBB;}#el_rlHXeBS_WB4{fill: #E9E2FA;}#el_SDrgvEo5jOO{-webkit-transform: translate(0px, 164px);transform: translate(0px, 164px);}#el_J0XXH19tdHW{fill: #FBAFA7;}#el_uZC8oLOVLS2{fill: #519CBB;}#el_WJpte3VhYXp{fill: #E9E2FA;}#el_MdvyiapX7Wk_8CYUrUGju{-webkit-animation-name: el_MdvyiapX7Wk_8CYUrUGju_Animation;animation-name: el_MdvyiapX7Wk_8CYUrUGju_Animation;-webkit-transform-origin: 50% 100%;transform-origin: 50% 100%;transform-box: fill-box;-webkit-transform: scale(1, 1);transform: scale(1, 1);}#el_OT5kTx1DXdR_mT1gTK1pz{-webkit-animation-name: el_OT5kTx1DXdR_mT1gTK1pz_Animation;animation-name: el_OT5kTx1DXdR_mT1gTK1pz_Animation;-webkit-transform-origin: 50% 100%;transform-origin: 50% 100%;transform-box: fill-box;-webkit-transform: scale(1, 1);transform: scale(1, 1);}#el_Libe6Gku-96_5NkFSOOHJ{-webkit-animation-name: el_Libe6Gku-96_5NkFSOOHJ_Animation;animation-name: el_Libe6Gku-96_5NkFSOOHJ_Animation;-webkit-transform-origin: 50% 100%;transform-origin: 50% 100%;transform-box: fill-box;-webkit-transform: scale(1, 1);transform: scale(1, 1);}#el_DyUt1kcGy0G_oe20EQFjO{-webkit-animation-name: el_DyUt1kcGy0G_oe20EQFjO_Animation;animation-name: el_DyUt1kcGy0G_oe20EQFjO_Animation;-webkit-animation-timing-function: cubic-bezier(0, 0, 0.58, 1);animation-timing-function: cubic-bezier(0, 0, 0.58, 1);-webkit-transform-origin: 50% 100%;transform-origin: 50% 100%;transform-box: fill-box;-webkit-transform: scale(1, 1);transform: scale(1, 1);}#el_BIdt2LB_mZm_h8QJrgRkC{-webkit-animation-name: el_BIdt2LB_mZm_h8QJrgRkC_Animation;animation-name: el_BIdt2LB_mZm_h8QJrgRkC_Animation;-webkit-transform-origin: 50% 100%;transform-origin: 50% 100%;transform-box: fill-box;-webkit-transform: scale(1, 1);transform: scale(1, 1);}#el_ISngawEVeFx__NwxXQFjG{-webkit-animation-name: el_ISngawEVeFx__NwxXQFjG_Animation;animation-name: el_ISngawEVeFx__NwxXQFjG_Animation;-webkit-animation-timing-function: cubic-bezier(0.42, 0, 1, 1);animation-timing-function: cubic-bezier(0.42, 0, 1, 1);-webkit-transform-origin: 50% 100%;transform-origin: 50% 100%;transform-box: fill-box;-webkit-transform: scale(1, 1);transform: scale(1, 1);}#el_SDrgvEo5jOO__Vekssnld{-webkit-animation-name: el_SDrgvEo5jOO__Vekssnld_Animation;animation-name: el_SDrgvEo5jOO__Vekssnld_Animation;-webkit-animation-timing-function: cubic-bezier(0.42, 0, 0.58, 1);animation-timing-function: cubic-bezier(0.42, 0, 0.58, 1);-webkit-transform-origin: 50% 100%;transform-origin: 50% 100%;transform-box: fill-box;-webkit-transform: scale(1, 1);transform: scale(1, 1);}
    </style>
    <title>
        ilustracion-1
    </title>
    <desc>
        Created with Sketch.
    </desc>
    <defs/>
    <g id="el_W5B2KA-6nE" fill-rule="evenodd">
        <g id="el_VE3Mc9Cqfq" fill-rule="nonzero">
            <g id="el_xeVA5nvW_v">
                <g id="el__Wj4iTpAIi">
                    <path d="M96.9,396.2 C50.2,356.6 46.1,312.3 84.4,263.2 C89.7,255.9 102.7,244.9 123.4,230.4 L164,278.2 C183.4,300.4 202.4,322.9 220.9,345.7 L221.2,346.2 C185.5,402.9 144,419.6 96.9,396.2 M97.4,72.5 C102.7,55.9 116.8,46.5 139.7,44.3 C161.1,46 175.6,55.9 183.1,74.2 C193,97.4 188.1,120.1 168.7,142.2 C163.2,149 153.8,156.5 140.5,164.9 L120.6,142.2 L118.4,140.1 C96.8,118.3 89.8,95.8 97.4,72.5 M283.2,336.1 C292.7,315.6 298.6,300.2 300.9,289.7 L311.3,242 L260.7,232.9 L256.6,259.1 L251.1,278.2 L245.8,293.1 L233.7,278.2 L202.2,239.6 L168.7,198.6 C216.6,165.9 239.5,133.4 237.5,101.1 C236.5,54.9 215.3,23.3 174,6.2 C144.9,-3.1 116.6,-1 89.1,12.3 L88.6,12.8 L86.6,13.9 C61.3,31.5 46.8,51.6 43,74.1 C38.4,99 42,121.6 53.8,142.1 C59.5,154.7 72.7,171.9 93.3,193.9 L93.6,196 L71.2,210.1 C41,231.7 21,254.3 11.2,278.1 C1.3,304.1 -1.6,326.7 2.4,346.1 C7.2,374.3 18,397 34.7,414.1 C51.4,433 71.3,445.6 94.4,451.8 C152.4,460.2 196.2,449.1 225.9,418.6 L230.4,414.1 C236,409.7 244.3,400.3 255.3,385.9 L283.1,414.1 L302.1,430.2 L317.1,440.1 L319.1,439.3 L346.5,396.7 C332.4,388.6 311.2,368.4 283.2,336.1" id="el_das3-EiK9l"/>
                </g>
                <path d="M136.7,13.8 C111.4,31.4 96.9,51.5 93.1,74 C88.5,98.9 92.1,121.5 103.9,142 C109.6,154.6 122.8,171.8 143.4,193.7 L143.7,195.8 L87.3,206.6 C45.9,166.5 30.5,128 40.9,91.3 C49.9,57.6 81.9,31.7 136.7,13.8" id="el_ZciGs-bARa"/>
                <path d="M233.2,74 C225.7,55.8 211.2,45.8 189.7,44.1 C166.8,46.3 152.7,55.7 147.4,72.3 C171.3,84.6 178.3,107.1 168.5,139.8 L170.7,142 L190.6,164.7 C203.8,156.3 213.3,148.7 218.8,142 C238.3,119.9 243.1,97.2 233.2,74" id="el_23ZhvOaJOe"/>
                <path d="M87.3,206.7 L143.7,195.9 L121.3,210 C91.1,231.6 71.1,254.2 61.3,278 C51.5,304 48.5,326.6 52.5,346 C57.2,374.2 68,396.9 84.8,414 C101.5,432.9 121.4,445.4 144.5,451.6 C65.7,447.6 18.6,414.1 3.2,351 C-8.3,293.5 19.7,245.4 87.3,206.7" id="el_nj5CbPfhz0"/>
                <path d="M214.2,278 L173.5,230.2 C152.9,244.8 139.8,255.7 134.6,263 L204.7,344.3 L271,345.5 C252.6,322.7 233.6,300.2 214.2,278" id="el_zqi-7PVEJt"/>
                <polygon id="el_9KGjVu2_6N" points="310.9 232.7 252.3 239.4 283.8 278 295.9 293 301.2 278 306.7 258.9"/>
                <path d="M271.1,345.5 L204.8,344.3 C197.5,363.5 178.3,380.8 147.1,396 C194.2,419.4 235.6,402.8 271.5,345.9 L271.1,345.5 Z" id="el_BsqcoMOhzMP"/>
                <path d="M333.2,414 L305.4,385.8 C294.5,400.2 286.2,409.6 280.5,414 L276,418.5 L293.8,430.9 L367.3,440 L352.3,430 L333.2,414 Z" id="el_EtBPLUnquLS"/>
            </g>
        </g>
        <g id="el_ejmlL6ONe5E" fill-rule="nonzero">
            <path d="M444,9.5 C444,14.4 406,18.5 359.1,18.5 C312.2,18.5 274.2,14.5 274.2,9.5 C274.2,4.5 312.2,0.5 359.1,0.5 C406,0.5 444,4.6 444,9.5" id="el_oybmDaX9VdT"/>
            <path d="M293.9,9.3 C293.9,14.2 255.9,18.3 209,18.3 C162.1,18.3 124.1,14.3 124.1,9.3 C124.1,4.4 162.1,0.3 209,0.3 C255.9,0.4 293.9,4.4 293.9,9.3" id="el_Ya-HpB9K6AF"/>
            <path d="M170,9.5 C170,14.4 132,18.5 85.1,18.5 C38.2,18.5 0.2,14.5 0.2,9.5 C0.2,4.5 38.2,0.5 85.1,0.5 C132,0.5 170,4.6 170,9.5" id="el_JN7Fi5fJmti"/>
            <path d="M328.2,21.7 C328.2,22.7 320.4,23.5 310.9,23.5 C301.3,23.5 293.6,22.7 293.6,21.7 C293.6,20.7 301.4,19.9 310.9,19.9 C320.5,19.9 328.2,20.7 328.2,21.7" id="el_WDWtWfFcsDP"/>
            <path d="M415.7,21.1 C415.7,21.9 409.2,22.6 401.2,22.6 C393.2,22.6 386.7,21.9 386.7,21.1 C386.7,20.3 393.2,19.6 401.2,19.6 C409.2,19.6 415.7,20.2 415.7,21.1" id="el_ZfQxRsL7VfL"/>
        </g>
        <g id="el_Od3EzgNbApk" fill-rule="nonzero">
            <g id="el_MdvyiapX7Wk_8CYUrUGju" data-animator-group="true" data-animator-type="2">
                <g id="el_MdvyiapX7Wk">
                    <path id="el_ge3g97fTDKD" d="m35.4,62.85c0,0.8 -6.5,1.5 -14.5,1.5c-8,0 -14.5,-0.7 -14.5,-1.5c0,-0.8 6.5,-1.5 14.5,-1.5c8,0 14.5,0.7 14.5,1.5"/>
                    <path id="el_6-DJ8ByKVrO" d="m18,63.25c0,0 -12.9,-14.1 -16.6,-22.5c-3.6,-8.4 2.3,-9.9 5.3,-5.5c3,4.5 8.4,14.6 9.9,2.5c1.5,-12.1 -0.5,-14.7 1.3,-16.2c1.8,-1.5 4.1,-0.5 5.8,5.3c1.7,5.8 7.4,7 8.9,1.5c1.5,-5.5 5.3,-17.5 10.8,-16.9c5.5,0.7 -0.2,9.4 0,14.4c0.2,5 4.6,4.1 8.1,-0.3c3.5,-4.5 15.4,-18.3 20.7,-14.1c5.3,4.2 -2.2,9.6 0,14.9c2.2,5.3 1.8,13.9 -8.3,10.6c-10.1,-3.3 -9.4,6.1 -9.9,7.8c-0.5,1.7 -3,7.3 -9.3,4.5c-6.3,-2.8 -9.8,-1.5 -7.4,0.8c2.3,2.3 6.5,4.8 4.3,6.1c-2.2,1.3 -10.4,-3 -13.9,-0.7c-3.5,2.3 -4.8,7.8 -4.8,7.8l-4.9,0z"/>
                    <path id="el_5dtGxX-Pdh7" d="m67.7,23.55c0,0 -0.8,0.7 -2.2,1.9c-1.4,1.1 -3.5,2.8 -6.1,4.6c-1.3,0.9 -2.7,1.8 -4.3,2.8c-1.6,0.9 -3.2,1.9 -5.1,2.7c-3.7,1.5 -7.7,2.6 -11.7,4c-4,1.3 -7.9,2.8 -11.2,4.9c-1.6,1.1 -3,2.3 -3.9,3.8c-0.4,0.7 -0.7,1.5 -0.9,2.3c-0.1,0.8 -0.2,1.6 -0.4,2.4c-0.4,3.1 -0.7,5.7 -0.8,7.6c-0.1,1.8 0,2.9 0,2.9c0,0 -0.2,-1 -0.2,-2.9c0,-1.8 0.1,-4.5 0.4,-7.6c0.1,-0.8 0.2,-1.6 0.3,-2.4c0.1,-0.9 0.4,-1.8 0.9,-2.6c0.9,-1.6 2.4,-3 4.1,-4.1c3.4,-2.2 7.4,-3.7 11.3,-5.1c4,-1.3 8.1,-2.5 11.7,-3.9c1.8,-0.7 3.5,-1.6 5,-2.5c1.6,-0.9 3,-1.8 4.3,-2.6c2.6,-1.7 4.8,-3.2 6.3,-4.3c1.6,-1.3 2.5,-1.9 2.5,-1.9"/>
                </g>
            </g>
            <path d="M432.6,194.6 L431.2,201.5 C431.2,201.5 445.4,205.8 448.1,207.3 C449.6,205.3 439,195.9 439,195.9 L432.6,194.6 Z" id="el_-yHQvGvDXt8"/>
            <g id="el_NInk_FOw0uJ">
                <path d="M3.3,199.6 L2.5,207.4 C2.5,207.4 22.8,206.9 25.9,206.8 C23.3,201 7.8,200.3 7.8,200.3 L3.3,199.6 Z" id="el_eGqGFQ248xi"/>
                <path d="M4,116 L1.3,119.4 C1.3,119.4 7.3,165.5 6.6,173.6 C5.9,181.7 3.3,200.4 3.3,200.4 L9.3,200.2 C9.3,200.2 16.5,175.5 17.2,172.3 C17.9,169.1 16.6,115.6 16.6,115.6 L4,116 Z" id="el_cYXy5qSOudi"/>
                <path d="M29.9,115.2 C29.9,115.2 32.2,143.6 29.9,160.6 C27.5,177.5 22.4,201.9 22.4,201.9 L15.9,202.1 C15.9,202.1 18.2,178.7 17.4,170.9 C16.6,163.1 9.7,138.9 7.1,135 C4.5,131.1 -0.7,122.4 2.1,116.3 C5.1,109.8 29.9,115.2 29.9,115.2" id="el_fGj0pSx-qQN"/>
                <path d="M16.1,201.2 L15.3,209 C15.3,209 35.6,208.5 38.7,208.4 C36.1,202.6 20.6,201.9 20.6,201.9 L16.1,201.2 Z" id="el_XnQK-PlkPQo"/>
                <path d="M40.9,22.7 C40.9,22.2 41,21.6 40.9,21.1 C40.7,12.5 33.6,5.8 25,6 C16.4,6.2 9.7,13.3 9.9,21.9 C10,26 11.7,29.7 14.4,32.4 C15.8,38.7 15.7,48.6 15.7,48.6 L15.8,51.2 C15.8,51.2 23.9,52.7 24.7,49.7 C25.5,46.8 27,41.7 29.4,41.3 C31.9,40.9 38.7,41 39.8,39.5 C40.9,38.1 40.9,29.6 41,29.3 C41.2,28.9 43.3,27.6 43.3,26.8 C43.4,26.1 40.9,22.7 40.9,22.7" id="el_-ryX7Y0jCaQ"/>
                <path d="M17.2,28.9 C17.2,28.9 18.2,35.7 16.8,36.2 C15.4,36.6 12.8,36.2 12.9,34.5 C13,32.8 11.9,30.5 10.6,29.1 C9.3,27.7 4.7,20.3 9.7,10.9 C13.6,3.5 24.8,2.4 27.6,3.4 C30.3,4.4 32.5,5.5 33.3,3.5 C34.1,1.6 37.1,-0.6 40.5,1.5 C43.9,3.6 43.5,9.1 40.1,10.6 C36.7,12.1 31.6,11.3 30.9,10.9 C30.2,10.5 28.2,15.1 26.8,16.6 C25.4,18.1 22.8,19.6 22.8,19.6 L23.2,25 C23.2,25 21.7,21.6 19,22.4 C16.5,23 15.1,26.9 17.2,28.9" id="el_jJATTHYK4X0"/>
                <path d="M42.2,29.5 C42.2,29.5 36.3,26.6 31.6,28.6 C26.9,30.6 27.2,34.4 27.2,36.1 C27.1,38.1 27.7,41.8 30.9,42.4 C34,43 41.9,42 41.4,38.5 C41,35.4 36.3,37.2 34.7,37.4 C33.1,37.6 31.6,35.7 32.7,33.6 C33.8,31.4 39.3,31.7 41,32.1 C42.7,32.3 43.2,30.2 42.2,29.5" id="el_dHiLDuLQSMY"/>
                <path d="M13.5,46.3 C13.5,46.3 28.2,45.6 29.1,47.2 C30,48.7 31.7,118.1 31.7,118.1 L0.4,118.2 C0.4,118.2 10.6,48.6 13.5,46.3" id="el_r30oJKP_QTU"/>
                <polygon id="el_dlVwbLtzEo5" points="56.9 76.1 58.4 79 73.6 63.9 69.2 61.7"/>
                <polygon id="el_PMaEw9pE9Af" points="73.6 65.7 59.4 80.5 58.4 79 73.6 63.9"/>
                <path d="M52.6,83.6 C52.6,83.6 55.2,77.9 56.8,76.1 C58.4,74.3 61.3,73.1 61.2,73.8 C61.1,74.5 59,77.3 59,77.3 C59,77.3 64.1,76 65.2,73.5 C66.3,71 69.2,69.7 69.1,70.5 C69,71.3 64.1,83.3 62.9,84.2 C61.7,85.1 57.3,89.1 54.7,88.9 C52.2,88.7 52.6,83.6 52.6,83.6" id="el_1T6UeCIy3BD"/>
                <path d="M18.6,53.5 C19.5,49.7 25.7,48.4 25.9,52.8 C26.2,60.8 26,71.5 26.5,76.4 C26.9,80.4 28.2,89.9 37.6,87.7 C47.1,85.6 53.3,80.7 53.3,80.7 L57.8,88.5 C57.8,88.5 41.3,97 32.4,97.1 C24.3,97.1 19.8,93.9 18.2,83.5 C16.6,73.1 17.7,57.3 18.6,53.5" id="el_4jbs2hY4w2Z"/>
            </g>
            <g id="el_Tk7YEMDmUf9">
                <polygon id="el_5am9Hqqtz2J" points="45.2 126.6 37.8 203.6 31.6 203.6 28.2 111.6"/>
                <path d="M37.8,203.6 L37.4,211.4 C37.4,211.4 22.5,211.8 20.5,211.8 C20.5,209.7 31.7,203.6 31.7,203.6 L37.8,203.6 Z" id="el_MQ613Q-Gcgy"/>
                <path d="M59.7,109.4 L59.7,168.4 L62.2,203.7 L56.1,203.7 C56.1,203.7 52.3,173.7 51.1,169.2 C49.9,164.7 41.9,128.6 41.7,128 C41.5,127.4 31.8,120.4 28.2,111.7 C28.4,110.8 28.9,108 28.9,108 L42.3,103.2 L59.7,109.4 Z" id="el_G7o89L-PsHk"/>
                <path d="M56.1,203.6 L56.5,211.4 C56.5,211.4 71.4,211.8 73.4,211.8 C73.4,209.7 62.2,203.6 62.2,203.6 L56.1,203.6 Z" id="el_F6cLV0xklB5"/>
                <polygon id="el_WHO7gAhEi25" points="12.1 52.6 11.6 27.5 0.9 28.2 1.8 53.8"/>
                <path d="M28.8,65.5 C28.8,65.5 24.5,76 20.2,75.2 C15.9,74.4 14.4,54.6 14.4,54.6 C14.4,54.6 16.3,47 14.1,45 C11.9,42.9 8.6,41.4 7.8,42.7 C7,44.1 10.2,44.3 11.2,45.5 C12.2,46.8 11.7,52.6 11.7,52.6 L8.4,52.9 C8.4,52.9 12.5,78.7 18.2,80.4 C23.9,82.1 32.6,73.1 33.1,70.1 C33.5,67.2 28.8,65.5 28.8,65.5" id="el_Qhzps0OYvj3"/>
                <path d="M38.3,49.2 L33.7,73.5 L25.8,65.6 C25.8,65.6 35.9,48.6 37.5,48.8 C39,49 38.3,49.2 38.3,49.2" id="el_mD1IvaSIMoi"/>
                <path d="M37.3,26.1 L66.1,29.2 C66.1,29.2 64.2,33 64.9,38.2 C65.6,43.4 72.7,59.2 72.1,67.8 C71.5,76.4 66.5,82.7 60.5,83.2 C54.5,83.6 31.5,79 33.8,65.5 C36.1,52 39.5,48 38.5,39.8 C37.4,31.5 34.3,28.8 37.3,26.1" id="el_ZZqEM_0cCOX"/>
                <path d="M53.9,31.9 C58.1,29.5 61,25 61,19.8 C61,12.1 54.8,5.8 47,5.8 C39.3,5.8 33,12 33,19.8 C33,20.3 33,20.8 33.1,21.3 L33,21.4 C33,21.4 31.3,25.7 31.8,26.4 C32.4,27.1 33.6,27.1 33.6,27.1 L33.9,32.4 C33.9,32.4 34.7,37.8 39.2,37.7 C43.7,37.6 46.5,36.1 46.5,36.1 C46.3,40 45,47.8 45,47.8 L41,47.8 L39.9,54.7 L48,55.2 L50.3,52.7 L53.2,47.7 L51,47.7 L52.8,34.6 L53.9,31.9 Z" id="el_C1GhgPU--XR"/>
                <path d="M49.9,13.8 C49.9,13.8 47.6,18.2 49.6,20.8 C51.7,23.4 55.4,21.5 55.4,21.5 C55.4,21.5 57.7,17.3 59,18 C60.3,18.7 62.3,21.7 59.7,25.6 C57,29.5 54.9,27.3 54.9,27.3 L52.8,34.5 L65.4,34.5 C65.4,34.5 73.1,18.3 65.4,7.5 C57.7,-3.3 42.9,0.7 35.5,6.2 C30.3,10 27.7,16.8 28.6,20.8 C29.5,24.8 33.2,18.5 33.2,18.5 C33.2,18.5 33,20.8 34.6,21.3 C36,22 42,21.3 49.9,13.8" id="el_PYBTFr0bs25"/>
                <path d="M36.8,49.9 C36.8,49.9 30,68 30.6,70.9 C31.2,73.8 34.7,76.3 34.7,76.3 L28.1,111.6 L61.6,111.6 L57.5,96.7 L60.2,47.9 L38.1,48.4 C38.2,48.4 37.4,48.2 36.8,49.9" id="el_Dnz5cowLyR-"/>
                <path d="M64.1,66.5 C64.1,66.5 67.1,85.6 67.4,94.8 C67.7,104 66.8,118.2 66.8,118.2 C66.8,118.2 66.8,130.2 65.2,133.5 C63.6,136.7 61.2,138.8 60.4,137.3 C59.6,135.8 61.7,131.1 62.1,129.4 C62.5,127.6 62.1,123.7 62.1,123.7 C62.1,123.7 60.6,128.8 60.2,130.1 C59.8,131.4 57.8,132.1 58.2,128.2 C58.6,124.4 61.5,118.9 61.5,118.9 C61.5,118.9 63.4,114.4 62.7,102.7 C62.1,91 57.4,68.6 58.6,65.6 C60.1,62.5 64.1,66.5 64.1,66.5" id="el_yPpNkgu1QFU"/>
                <path d="M57.1,48.7 L56.1,70.1 C56.1,70.1 63,72.6 68.4,68.4 C68.4,65.6 60.3,47.9 60.3,47.9 L57.1,48.7 Z" id="el_Ggf39rO8AHj"/>
            </g>
            <g id="el_8iawosrvWNZ">
                <path d="M93.5,59.3 C93.5,62 90.7,72.9 83.5,75.9 C76.3,78.9 50.2,79.5 49.2,79.8 C48.1,80.1 38,85.1 41.7,84.7 C44.7,84.4 48.2,82.6 50.1,82.8 C52.5,83.1 54.6,83.5 55.8,84 C57,84.5 61.9,82.8 61.9,82.8 C61.9,82.8 80.3,84.8 84.6,82.7 C88.9,80.5 99.9,75.2 102.2,61.7 C103.1,56.5 101.5,52.4 98.4,52.6 C95.8,52.7 93.5,56.6 93.5,59.3" id="el_gM6sqo9KVXc"/>
                <path d="M0.4,88.5 L0.4,93 C0.4,94.6 19.7,95.9 43.6,95.9 C67.5,95.9 86.8,94.6 86.8,93 L86.8,88.5 L0.4,88.5 Z" id="el_mf9bS7GksFG"/>
                <path d="M86.8,88.5 C86.8,90.1 67.5,91.4 43.6,91.4 C19.7,91.4 0.4,90.1 0.4,88.5 C0.4,86.9 19.7,85.6 43.6,85.6 C67.4,85.6 86.8,86.9 86.8,88.5" id="el_h0azsg2XUVZ"/>
                <path d="M9.5,170.4 L9.5,173.7 C9.5,174.9 23.5,175.8 40.8,175.8 C58.1,175.8 72.1,174.9 72.1,173.7 L72.1,170.4 L9.5,170.4 Z" id="el_3H1XX5cS0gf"/>
                <path d="M72.1,170.4 C72.1,171.6 58.1,172.5 40.8,172.5 C23.5,172.5 9.5,171.6 9.5,170.4 C9.5,169.2 23.5,168.3 40.8,168.3 C58.1,168.2 72.1,169.2 72.1,170.4" id="el_lsbPwaNOO2g"/>
                <polygon id="el_W8L_fbGwnOT" points="38 169.2 43.6 169.2 43.6 95.9 38 95.9"/>
                <polygon id="el_y7DJyWJAlZm" points="56.5 87.6 81.1 87.6 81.1 86.1 56 86.1"/>
                <polygon id="el_MmDCU49CS92" points="67.5 162.9 69.5 162.9 69.5 120.2 67.5 120.2"/>
                <polygon id="el_fg1zkW_hJOK" points="112.2 168.6 114.2 168.6 114.2 120.2 112.2 120.2"/>
                <polygon id="el_2YsW8bOPhYC" points="67.5 113.9 67.5 120.3 85.4 131.7 85.4 123.9"/>
                <polygon id="el_ayFMnBGb1Lf" points="132.1 123.9 85.4 123.9 67.5 113.9 105.4 113.9"/>
                <path d="M132.1,63.8 L132.1,123.9 L125.9,123.9 L125.9,121.6 L105.4,114 L105.4,55.8 C105.4,55.8 118,41.1 132.1,63.8" id="el_6phuTRpSGoz"/>
                <path d="M125.9,62.8 L125.9,121.6 L99.2,112.9 L99.2,54.7 C99.2,54.7 111.8,40 125.9,62.8" id="el_qLNRzr7UHwi"/>
                <polygon id="el_9fyMJuxv31Q" points="85.4 131.7 132.1 131.7 132.1 123.9 85.4 123.9"/>
                <polygon id="el_k9zdHbBKpOr" points="85.4 174.4 87.4 174.4 87.4 131.7 85.4 131.7"/>
                <polygon id="el_L-s-ED_0iC8" points="130.1 174.4 132.1 174.4 132.1 131.7 130.1 131.7"/>
                <path d="M72,168.1 L72.1,174.1 C72.1,174.1 57.8,174.5 55.7,174.5 C55.7,172.4 66.9,168.1 66.9,168.1 L72,168.1 Z" id="el_VlgtJkzI5OH"/>
                <path d="M62.1,163.3 L60.3,169 C60.3,169 46.1,166.2 44.1,165.7 C44.6,163.6 56.5,162.2 56.5,162.2 L62.1,163.3 Z" id="el_ybtX-IDblrN"/>
                <path d="M103.3,9.1 C103.3,9.1 88.6,4.8 84.7,7.7 C77.4,13 74,21.3 74,25.9 C74,32.3 81,33.5 80.8,36.8 C80.5,40 75.2,46.7 77.1,51 C79.8,57.3 88.3,62 98.9,60.9 C109.6,59.8 122.4,52.8 122.3,44.8 C122.2,36 115.8,33 115.8,29.5 C115.8,25 118.1,25.1 117,15.9 C116.6,12.2 103.3,9.1 103.3,9.1" id="el_9JdTd_IZnML"/>
                <path d="M112.2,20.5 C112.2,12.7 105.9,6.3 98,6.3 C90.2,6.3 83.8,12.6 83.8,20.5 C83.8,20.9 83.8,21.3 83.9,21.7 C83.9,21.7 81.4,29.6 83.5,35.7 C85.6,41.8 91.9,42.1 94.2,41.6 C96.5,41.1 98.8,42.4 98.9,49 C99,55.7 104.1,51.1 104.1,51.1 L105.3,48.2 L102.4,39.9 C102.4,39.9 104.2,39.2 105.3,36 C105.8,34.6 106.2,33.2 106.4,32 C109.9,29.4 112.2,25.2 112.2,20.5" id="el_bRY6HnMis0j"/>
                <path d="M82.7,10.8 C82.7,10.8 81,21 87.9,23.1 C94.8,25.3 104.2,20.5 104.2,20.5 L104.9,23.6 C104.9,23.6 110,17.9 111,20.5 C112,23 111.6,28.8 107.6,28.8 C103.6,28.8 108.2,36 108.2,36 C108.2,36 116,31.1 116.7,23.4 C117.4,15.7 117.2,9.8 113.2,6.4 C109.2,3 105.1,-0.8 97.1,1.8 C89,4.4 84.1,6.7 82.7,10.8" id="el_MxwsWjmmZsS"/>
                <path d="M96,94.2 C96,94.2 80.1,102.9 68.3,104.1 C56.5,105.3 59,127.3 58.6,131.2 C58.2,135.1 56.2,162.5 56.2,162.5 C56.2,162.5 59.7,163.9 62.2,163.5 C62.2,163.5 71.6,126.5 74.2,111.3 C74.2,111.3 98,101.8 108.3,91.8 C108.2,92 101.7,94.4 96,94.2" id="el_PpZrMaGSaJE"/>
                <path d="M111.3,90.5 C111.3,90.5 126.3,101.4 111.2,115 C99.8,123.5 76.3,123.1 76.3,123.1 C76.3,123.1 76.9,150.8 72,168.3 C72,168.3 70,168.3 66.7,168.5 C66.7,168.5 67.7,156.9 66.4,146.6 C66.4,146.6 72,122 74.2,111.5 C74.2,111.5 95.3,102.7 108.3,92 C108.2,92 109.6,91.2 111.3,90.5" id="el_H_kV-sNJ5v3"/>
                <path d="M96,94.2 C96,94.2 96,80.7 93.8,76.7 C91.5,72.7 88.7,67.9 91.2,61.1 C93.8,54.3 96.2,51.2 96.2,51.2 L105.2,47.5 C105.2,47.5 112.1,47.5 113.2,51.5 C113.8,53.6 111.3,90.4 111.3,90.4 C111.3,90.4 103.6,94.9 96,94.2" id="el_c2Ge-F76Hup"/>
                <path d="M104.9,57 C105.1,59.7 103.1,70.8 96.1,74.3 C89.2,77.8 63.2,80.3 62.1,80.7 C61,81.1 51.3,86.7 54.9,86.1 C57.9,85.6 61.2,83.6 63.2,83.6 C65.6,83.7 67.7,84 68.9,84.4 C70.1,84.8 74.9,82.8 74.9,82.8 C74.9,82.8 93.4,83.5 97.5,81 C101.6,78.5 112.2,72.4 113.6,58.8 C114.1,53.5 112.3,49.6 109.1,50 C106.7,50.3 104.7,54.3 104.9,57" id="el_xtfj0BFOjNY"/>
                <polygon id="el_B8FtHzzGnzB" points="7.6 56.1 19.1 87.6 56.5 87.6 44.9 56.1"/>
            </g>
            <g id="el_RLUJxwlb1MK">
                <path d="M117.6,160.6 L118,167.6 C118,167.6 132.9,168.2 135.8,168.9 C136.7,166.6 124.1,160.2 124.1,160.2 L117.6,160.6 Z" id="el_zl1zQj8UBzZ"/>
                <path d="M85.3,113.1 C85.3,113.1 100.6,111.5 107.5,115.1 C130.2,126.9 125.4,149.7 124.2,160.2 C120.9,160.4 117.6,160.6 117.6,160.6 C117.6,160.6 123,134.8 108.3,126.9 C98,121.3 88.3,121.9 87.5,122 C86.6,122.1 85.3,113.1 85.3,113.1" id="el_pWi6Pa3eTn-"/>
                <path d="M98.9,107.6 C98.9,107.6 113.7,108.5 120.8,111.7 C138.1,119.5 144.3,145.4 143.1,155.9 C139.8,155.5 136.6,154.6 136.6,154.6 C136.6,154.6 136.6,132.1 121.9,124.2 C111.6,118.6 102.4,118.8 101.5,118.9 C100.6,119.1 98.9,107.6 98.9,107.6" id="el_ccnXOp4nnSa"/>
                <path d="M61.4,4.8 C61.4,4.8 62.3,2 66.8,1.9 C71.3,1.8 73.9,6.4 73.8,9.2 C73.6,12 73.1,13.5 73.8,15.3 C74.5,17.1 76.8,20.5 75.7,24.1 C74.6,27.7 73.6,31 70.1,29.1 C66.6,27.1 60.5,6.9 61.4,4.8" id="el_7L6uNkyr4-0"/>
                <path d="M72.9,25.1 C73.1,24.1 73.2,23.1 73.2,22.1 C73.2,14.2 66.8,7.7 58.8,7.7 C50.9,7.7 44.4,14.1 44.4,22.1 C44.4,26.8 46.7,30.9 50.1,33.6 L47.2,49.9 L51.6,51.2 L57.6,42.4 C57.6,42.4 67.1,42.4 70.1,40.9 C73.2,39.5 72.9,25.1 72.9,25.1 Z" id="el_eu1zBfabxdD"/>
                <path d="M105.4,106.3 C103.6,106.3 98.9,104.4 86,104.2 C69,104 64.1,97.3 61.9,94.7 C59.7,92.1 56.6,92.6 56.9,88.1 C57.2,83.6 59.5,82.4 60.1,80.7 C60.7,78.9 55,48.4 55,48.4 L46.5,44.6 C46.5,44.6 38.9,58.2 36.9,74.1 C34.8,90 35.4,94.6 38.9,104 C42.4,113.4 53.3,119.3 63.2,121.1 C74.1,123.1 100,122.5 105.3,125.4 C108.1,121.6 107.1,106.3 105.4,106.3" id="el_wNRSyTdgM-y"/>
                <path d="M69.3,12.3 C69.3,12.3 69.2,19.3 64.8,22.8 C60.4,26.4 56.6,26.6 56.6,26.6 C56.6,26.6 51,21 48.4,25.3 C45.8,29.6 49.9,31.5 49.9,31.5 C49.9,31.5 52.5,32 51,37.8 C49.5,43.6 49.2,49.2 44.5,49.7 C39.8,50.3 39,46.1 39,46.1 C39,46.1 28.1,44.5 29.7,31.5 C31.3,18.5 36,21.1 38.5,20.7 C37.7,16.6 38.1,11.6 40.7,8.8 C43.3,6 47.7,1.2 51.9,0.8 C56.1,0.3 68.7,-0.7 69.3,12.3" id="el_9_8J3B_8lun"/>
                <path d="M1.7,87 C1.7,87 -5.4,54.2 15.5,49.8 C36.3,45.3 36.7,75.6 36.5,85.1 C36.4,89.7 31.8,131.2 89.6,116.5 C89.6,116.5 104.5,112.4 107.5,125.1 C110.5,137.9 103.5,144.9 94.7,147.1 C85.9,149.4 46.9,152.6 36.6,150.4 C36.5,150.3 17.5,149.6 1.7,87" id="el_OKkjcDBcWbR"/>
                <polygon id="el_Ai_KettGMi1" points="30.8 165.9 39.5 165.9 47.1 151.1 38.9 151.1"/>
                <polygon id="el_FPMxP48Oc4A" points="102.6 165.9 93.8 165.9 85.1 148.6 92.6 147.8"/>
                <polygon id="el_fKdEUqyZ0s_" points="67 103.7 106.3 105.1 124.5 68.1 120.8 67.6 104.6 100.9 67.5 99.9"/>
                <path d="M50.2,73.4 C50.2,73.4 53,76.6 56.7,84.1 C59.8,90.2 63.9,96.8 73.3,97.3 C78,97.6 82.8,96.1 84.9,93.7 C88,90.2 88.2,86.5 90.8,84.8 C93.7,82.9 98.9,84.6 98.8,86.6 C98.7,88.6 93.8,85.1 92.3,88.9 C91.4,91.3 91.8,91.6 91.4,93.7 C90.9,96.8 89.2,99.6 86.6,99.9 C84.5,100.1 77.2,105.1 68.7,103.5 C63.3,102.5 53.2,96.4 48.6,85.8 C43.4,73.9 42.1,73.8 43.6,70.7 C45.1,67.8 48.3,66.6 50.2,73.4" id="el_bg4Petdjogb"/>
                <path d="M46.4,52 C48.4,51.8 50.6,52.2 51.8,58.7 C53,65.2 54.1,75.9 54.1,75.9 C54.1,75.9 44.1,80.6 38.9,75.9 C39.6,71 41.3,58.9 41.3,58.9 C41.3,58.9 42.4,52.3 46.4,52" id="el_5niE7Bhxw8b"/>
            </g>
            <g id="el_OT5kTx1DXdR_mT1gTK1pz" data-animator-group="true" data-animator-type="2">
                <g id="el_OT5kTx1DXdR">
                    <path id="el_WsH0Ex0p4Is" d="m36.4,54.1c0,1 -7.8,1.8 -17.3,1.8c-9.5,0 -17.3,-0.8 -17.3,-1.8c0,-1 7.8,-1.8 17.3,-1.8c9.5,0 17.3,0.8 17.3,1.8"/>
                    <path id="el_rZuGNahRwpi" d="m26.8,54.5c0,0 7.1,-11.4 0.6,-17.6c-4.8,-3.4 -10.2,2.6 -13.2,-0.9c-3,-3.4 10.8,-14.8 6.3,-20.5c-4.4,-5.7 -13.3,-6.2 -18.5,-1.3c-5.2,4.9 3.2,32.2 9.6,40.3c0,0 8.5,1 15.2,0"/>
                    <path id="el_71kTIs-Xp2O" d="m19.6,55c0,0 -0.5,-0.5 -1.4,-1.5c-0.4,-0.5 -0.9,-1.1 -1.5,-1.8c-0.6,-0.7 -1.2,-1.5 -1.8,-2.5c-0.6,-0.9 -1.3,-2 -2,-3.1c-0.3,-0.6 -0.6,-1.1 -1,-1.7c-0.3,-0.6 -0.6,-1.2 -0.9,-1.9c-0.6,-1.3 -1.1,-2.6 -1.6,-4c-0.3,-0.7 -0.4,-1.4 -0.6,-2.2c-0.2,-0.7 -0.3,-1.5 -0.5,-2.2l-0.2,-1.1l0,-1.1l0,-1.1c0,-0.4 0,-0.8 0.1,-1.1c0.1,-1.5 0.4,-2.9 0.6,-4.3c0.3,-1.4 0.6,-2.7 1,-3.9c0.4,-1.2 0.8,-2.4 1.3,-3.4c0.4,-1 0.9,-2 1.4,-2.7c0.5,-0.8 0.9,-1.4 1.3,-1.9c0.8,-1 1.4,-1.5 1.4,-1.5c0,0 -0.6,0.5 -1.3,1.6c-0.4,0.5 -0.8,1.2 -1.2,2c-0.4,0.8 -0.8,1.7 -1.2,2.8c-0.8,2.1 -1.4,4.6 -1.9,7.3c-0.2,1.4 -0.5,2.8 -0.5,4.2c0,0.4 -0.1,0.7 0,1.1l0.1,1.1l0.1,1.1l0.2,1.1c0.1,0.7 0.2,1.4 0.4,2.1c0.2,0.7 0.3,1.4 0.6,2.1c0.4,1.4 1,2.7 1.5,4c0.3,0.6 0.6,1.2 0.9,1.8c0.3,0.6 0.6,1.2 0.9,1.7c0.6,1.1 1.2,2.2 1.8,3.1c1.2,1.9 2.2,3.4 3,4.5c0.6,0.8 1,1.4 1,1.4"/>
                </g>
            </g>
            <g id="el_Libe6Gku-96_5NkFSOOHJ" data-animator-group="true" data-animator-type="2">
                <g id="el_Libe6Gku-96">
                    <path d="M71.6,52.8 C71.6,53.8 63.8,54.6 54.3,54.6 C44.8,54.6 37,53.8 37,52.8 C37,51.8 44.8,51 54.3,51 C63.8,51 71.6,51.7 71.6,52.8" id="el_VYTYhRH6Cw3"/>
                    <path d="M56.2,53.2 C56.2,53.2 69.1,39.1 72.8,30.7 C76.4,22.3 70.5,20.8 67.5,25.2 C64.5,29.7 59.1,39.8 57.6,27.7 C56.1,15.6 58.1,13 56.3,11.5 C54.5,10 52.2,11 50.5,16.8 C48.8,22.6 43.1,23.8 41.6,18.3 C40.1,12.8 36.3,0.8 30.8,1.4 C25.3,2.1 31,10.8 30.8,15.8 C30.6,20.8 26.2,19.9 22.7,15.5 C19.2,11 7.3,-2.8 2,1.4 C-3.3,5.6 4.2,11 2,16.3 C-0.2,21.6 0.2,30.2 10.3,26.9 C20.4,23.6 19.7,33 20.2,34.7 C20.7,36.4 23.2,42 29.5,39.2 C35.8,36.4 39.3,37.7 37,40 C34.7,42.3 30.5,44.8 32.7,46.1 C34.9,47.4 43.1,43.1 46.6,45.4 C50.1,47.7 51.4,53.2 51.4,53.2 L56.2,53.2 Z" id="el_5ageFrDzUgn"/>
                    <path d="M6.5,13.5 C6.5,13.5 7.3,14.1 8.8,15.2 C10.3,16.3 12.4,17.8 15.1,19.5 C16.4,20.3 17.9,21.2 19.4,22.1 C21,23 22.6,23.9 24.4,24.6 C28,26 32.1,27.1 36.1,28.5 C40.1,29.9 44.1,31.4 47.4,33.6 C49.1,34.7 50.6,36.1 51.5,37.7 C52,38.5 52.3,39.4 52.4,40.3 C52.5,41.1 52.6,42 52.7,42.7 C53.1,45.8 53.1,48.5 53.1,50.3 C53.1,52.1 52.9,53.2 52.9,53.2 C52.9,53.2 53,52.1 52.9,50.3 C52.8,48.5 52.6,45.9 52.1,42.7 C52,41.9 51.9,41.1 51.7,40.3 C51.6,39.5 51.3,38.7 50.8,38 C49.9,36.5 48.5,35.3 46.9,34.2 C43.6,32.1 39.7,30.6 35.7,29.3 C31.7,27.9 27.7,26.8 24,25.3 C22.1,24.5 20.5,23.6 18.9,22.6 C17.3,21.7 15.9,20.7 14.6,19.8 C12,18 9.9,16.4 8.5,15.2 C7.3,14.2 6.5,13.5 6.5,13.5" id="el_SnGB3y1y1_d"/>
                </g>
            </g>
            <g id="el_DyUt1kcGy0G_oe20EQFjO" data-animator-group="true" data-animator-type="2">
                <g id="el_DyUt1kcGy0G">
                    <path d="M30.8,44.8 C30.8,45.5 25.5,46 18.9,46 C12.4,46 7,45.4 7,44.8 C7,44.2 12.3,43.6 18.9,43.6 C25.5,43.5 30.8,44.1 30.8,44.8" id="el_-5M35VCilfU"/>
                    <path d="M27.4,44.4 C27.4,44.4 34.5,33 28,26.8 C23.2,23.4 17.8,29.4 14.8,25.9 C11.8,22.4 25.6,11.1 21.1,5.4 C16.7,-0.3 7.8,-0.8 2.6,4.1 C-2.6,9 5.8,36.3 12.2,44.4 C12.2,44.4 20.7,45.3 27.4,44.4" id="el_zkCSXZSpwLZ"/>
                    <path d="M20.2,44.8 C20.2,44.8 19.7,44.3 18.8,43.3 C18.4,42.8 17.9,42.2 17.3,41.5 C16.7,40.8 16.1,40 15.5,39 C14.9,38.1 14.2,37 13.5,35.9 C13.2,35.3 12.9,34.8 12.5,34.2 C12.2,33.6 11.9,33 11.6,32.3 C11,31 10.5,29.7 10,28.3 C9.7,27.6 9.6,26.9 9.4,26.1 C9.2,25.4 9.1,24.6 8.9,23.9 L8.7,22.8 L8.7,21.7 L8.7,20.6 C8.7,20.2 8.7,19.8 8.8,19.5 C8.9,18 9.2,16.6 9.4,15.2 C9.7,13.8 10,12.5 10.4,11.3 C10.8,10.1 11.2,8.9 11.7,7.9 C12.1,6.9 12.6,5.9 13.1,5.2 C13.6,4.4 14,3.8 14.4,3.2 C15.2,2.2 15.8,1.7 15.8,1.7 C15.8,1.7 15.2,2.2 14.5,3.3 C14.1,3.8 13.7,4.5 13.3,5.3 C12.9,6.1 12.5,7 12.1,8.1 C11.3,10.2 10.7,12.7 10.2,15.4 C10,16.8 9.7,18.2 9.7,19.6 C9.7,20 9.6,20.3 9.7,20.7 L9.8,21.8 L9.9,22.9 L10.1,24 C10.2,24.7 10.3,25.4 10.5,26.1 C10.7,26.8 10.8,27.5 11.1,28.2 C11.5,29.6 12.1,30.9 12.6,32.2 C12.9,32.8 13.2,33.4 13.5,34 C13.8,34.6 14.1,35.2 14.4,35.7 C15,36.8 15.6,37.9 16.2,38.8 C17.4,40.7 18.4,42.2 19.2,43.3 C19.8,44.2 20.2,44.8 20.2,44.8" id="el_Z6WEmxyHewP"/>
                </g>
            </g>
            <g id="el_BIdt2LB_mZm_h8QJrgRkC" data-animator-group="true" data-animator-type="2">
                <g id="el_BIdt2LB_mZm">
                    <path d="M47.5,54.4 C47.5,55.4 39.7,56.2 30.2,56.2 C20.7,56.2 12.9,55.4 12.9,54.4 C12.9,53.4 20.7,52.6 30.2,52.6 C39.7,52.6 47.5,53.4 47.5,54.4" id="el_MnSbNvkxpr7"/>
                    <path d="M29.6,54.4 C33.4,55.4 39.2,48.7 44.3,41.3 C49.4,33.9 54.3,24.1 51.1,23.1 C47.9,22.1 45.3,26.6 42.7,24.8 C40.1,23 43.7,15.4 44.1,11.6 C44.5,7.8 41.7,1 37.8,0.3 C33.9,-0.3 30.5,5.5 30.2,9.7 C29.9,13.9 31.2,19.5 30,20.9 C28.8,22.3 25.3,22.7 23.7,19.4 C22.4,16.7 19.9,13.6 18.1,13.8 C16.7,14 14.8,17.1 15.2,21.4 C15.6,24.5 22.9,52.5 29.6,54.4" id="el_lpMhQKVvQFa"/>
                    <path d="M37.5,0.7 C37.5,0.7 37.4,1.5 37.2,3 C37,4.5 36.8,6.5 36.4,9 C36,11.5 35.7,14.4 35.2,17.5 C34.7,20.6 34.2,23.9 33.7,27.3 C33.2,30.6 32.6,33.9 32.1,37 C31.6,40.1 31,43 30.6,45.5 C30.2,48 29.7,50 29.5,51.5 C29.2,52.9 29,53.8 29,53.8 C29,53.8 29.1,53 29.3,51.5 C29.5,50 29.7,47.9 30.1,45.5 C30.5,43 30.8,40.1 31.3,37 C31.8,33.9 32.3,30.6 32.8,27.2 C33.3,23.9 33.9,20.6 34.4,17.5 C34.9,14.4 35.5,11.5 35.9,9 C36.3,6.5 36.8,4.5 37,3 C37.3,1.5 37.5,0.7 37.5,0.7" id="el_RpcvCKAV4v2"/>
                    <path d="M31.1,54.5 C34.9,53.6 36.9,45 37.9,36 C38.9,27 38.6,16.1 35.3,16.7 C32,17.3 31.9,22.5 28.7,22.2 C25.5,21.8 25.1,13.5 23.7,9.9 C22.2,6.3 16.6,1.6 12.8,2.9 C9.1,4.2 8.8,10.9 10.6,14.8 C12.4,18.7 16.1,23 15.7,24.8 C15.3,26.6 12.5,28.6 9.4,26.4 C7,24.7 3.3,23 1.8,24.1 C0.6,24.9 0.5,28.6 2.8,32.2 C4.6,34.8 24.3,56.1 31.1,54.5" id="el_FwQZ0Hd02t8"/>
                    <path d="M12.7,3.5 C12.7,3.5 13,4.3 13.6,5.7 C14.1,7.1 14.9,9 15.8,11.4 C16.7,13.8 17.7,16.5 18.8,19.5 C19.9,22.5 21,25.6 22.1,28.8 C23.2,32 24.3,35.2 25.3,38.1 C26.3,41.1 27.2,43.9 28,46.3 C28.8,48.7 29.4,50.7 29.8,52.1 C30.2,53.5 30.5,54.3 30.5,54.3 C30.5,54.3 30.2,53.5 29.6,52.1 C29.1,50.7 28.3,48.8 27.4,46.4 C26.5,44 25.5,41.3 24.4,38.3 C23.3,35.3 22.2,32.2 21.1,29 C20,25.8 18.9,22.6 17.9,19.7 C16.9,16.7 16,13.9 15.2,11.5 C14.4,9.1 13.8,7.1 13.4,5.7 C12.9,4.3 12.7,3.5 12.7,3.5" id="el_7FTqKO78WHM"/>
                </g>
            </g>
            <g id="el_ISngawEVeFx__NwxXQFjG" data-animator-group="true" data-animator-type="2">
                <g id="el_ISngawEVeFx">
                    <path d="M49.7,72.9 C49.7,74.1 40.7,75 29.5,75 C18.4,75 9.3,74 9.3,72.9 C9.3,71.8 18.3,70.8 29.5,70.8 C40.6,70.7 49.7,71.7 49.7,72.9" id="el_c4em76JBCwA"/>
                    <path d="M25.6,73.5 C25.6,73.5 7.7,54 2.6,42.2 C-2.5,30.5 5.8,28.4 10,34.6 C14.1,40.8 21.7,54.8 23.8,38 C25.9,21.2 23.1,17.5 25.6,15.5 C28.1,13.4 31.3,14.8 33.6,22.9 C35.9,31 43.9,32.6 46,25 C48.1,17.4 53.4,0.6 60.9,1.5 C68.5,2.4 60.7,14.6 60.9,21.5 C61.1,28.4 67.3,27.2 72.2,21 C77,14.8 93.6,-4.4 100.9,1.4 C108.3,7.2 97.9,14.8 100.9,22.1 C103.9,29.5 103.4,41.5 89.4,36.8 C75.4,32.2 76.3,45.3 75.6,47.6 C74.9,49.9 71.5,57.7 62.7,53.8 C54,49.9 49.1,51.7 52.4,54.9 C55.6,58.1 61.4,61.6 58.4,63.4 C55.4,65.2 43.9,59.3 39.1,62.5 C34.3,65.7 32.4,73.3 32.4,73.3 L25.6,73.3 L25.6,73.5 Z" id="el_9lKRHO2dBrw"/>
                    <path d="M94.9,18 C94.9,18 93.8,19 91.8,20.6 C89.8,22.2 87,24.5 83.3,27 C81.5,28.2 79.5,29.6 77.3,30.9 C75.1,32.2 72.8,33.5 70.2,34.6 C65.1,36.7 59.5,38.3 54,40.2 C48.5,42 43,44.1 38.5,47 C36.3,48.5 34.3,50.2 33,52.2 C32.4,53.2 32,54.3 31.8,55.4 C31.6,56.6 31.4,57.7 31.3,58.8 C30.7,63.1 30.3,66.7 30.2,69.3 C30.1,70.6 30.1,71.6 30.1,72.3 C30.1,73 30.1,73.3 30.1,73.3 C30.1,73.3 29.9,71.9 29.8,69.3 C29.8,66.7 29.9,63.1 30.4,58.7 C30.5,57.6 30.7,56.5 30.8,55.3 C31,54.1 31.4,52.8 32,51.7 C32.6,50.6 33.5,49.5 34.5,48.6 C35.5,47.6 36.6,46.8 37.7,46 C40,44.5 42.6,43.2 45.3,42 C48,40.8 50.7,39.8 53.5,38.9 C59,37 64.7,35.5 69.7,33.5 C72.2,32.5 74.5,31.3 76.7,30.1 C78.9,28.9 80.9,27.6 82.7,26.5 C86.4,24.1 89.4,22.1 91.4,20.6 C93.7,18.9 94.9,18 94.9,18" id="el_rlHXeBS_WB4"/>
                </g>
            </g>
            <g id="el_SDrgvEo5jOO__Vekssnld" data-animator-group="true" data-animator-type="2">
                <g id="el_SDrgvEo5jOO">
                    <path d="M30.7,45.2 C30.7,45.9 25.4,46.4 18.9,46.4 C12.4,46.4 7,45.8 7,45.2 C7,44.6 12.3,44 18.9,44 C25.4,44 30.7,44.6 30.7,45.2" id="el_J0XXH19tdHW"/>
                    <path d="M27.4,44.6 C27.4,44.6 34.5,33.2 28,27 C23.2,23.6 17.8,29.6 14.8,26.1 C11.8,22.7 25.6,11.3 21.1,5.6 C16.7,-0.1 7.8,-0.6 2.6,4.3 C-2.6,9.2 5.8,36.5 12.2,44.6 C12.2,44.6 20.7,45.6 27.4,44.6" id="el_uZC8oLOVLS2"/>
                    <path d="M20.5,45.2 C20.5,45.2 20,44.7 19.1,43.7 C18.7,43.2 18.2,42.6 17.6,41.9 C17,41.2 16.4,40.4 15.8,39.4 C15.2,38.5 14.5,37.4 13.8,36.3 C13.5,35.7 13.2,35.2 12.8,34.6 C12.5,34 12.2,33.4 11.9,32.7 C11.3,31.4 10.8,30.1 10.3,28.7 C10,28 9.9,27.3 9.7,26.5 C9.5,25.8 9.4,25 9.2,24.3 L9,23.2 L9,22.1 L9,21 C9,20.6 9,20.2 9.1,19.9 C9.2,18.4 9.5,17 9.7,15.6 C10,14.2 10.3,12.9 10.7,11.7 C11.1,10.5 11.5,9.3 12,8.3 C12.4,7.3 12.9,6.3 13.4,5.6 C13.9,4.8 14.3,4.2 14.7,3.7 C15.5,2.7 16.1,2.2 16.1,2.2 C16.1,2.2 15.5,2.7 14.8,3.8 C14.4,4.3 14,5 13.6,5.8 C13.2,6.6 12.8,7.5 12.4,8.6 C11.6,10.7 11,13.2 10.5,15.9 C10.3,17.3 10,18.7 10,20.1 C10,20.5 9.9,20.8 9.9,21.2 L10,22.3 L10.1,23.4 L10.3,24.5 C10.4,25.2 10.5,25.9 10.7,26.6 C10.9,27.3 11,28 11.3,28.7 C11.7,30.1 12.3,31.4 12.8,32.7 C13.1,33.3 13.4,33.9 13.7,34.5 C14,35.1 14.3,35.7 14.6,36.2 C15.2,37.3 15.8,38.4 16.4,39.3 C17.6,41.2 18.6,42.7 19.4,43.8 C20,44.6 20.5,45.2 20.5,45.2" id="el_WJpte3VhYXp"/>
                </g>
            </g>
        </g>
    </g>
    <script>
        (function(){var a=document.querySelector('#el_ypKMog8jFc'),b=a.querySelectorAll('style'),c=function(d){b.forEach(function(f){var g=f.textContent;g&amp;&amp;(f.textContent=g.replace(/transform-box:[^;\r\n]*/gi,'transform-box: '+d))})};c('initial'),window.requestAnimationFrame(function(){return c('fill-box')})})();
    </script>
</svg>