<?xml version="1.0" encoding="UTF-8"?>
<svg width="83px" height="150px" viewBox="0 0 83 150" version="1.1" xmlns="http://www.w3.org/2000/svg" xmlns:xlink="http://www.w3.org/1999/xlink">
    <!-- Generator: Sketch 49 (51002) - http://www.bohemiancoding.com/sketch -->
    <title>ilustracion-6a</title>
    <desc>Created with Sketch.</desc>
    <defs></defs>
    <g id="ilustracion-6a" stroke="none" stroke-width="1" fill="none" fill-rule="evenodd">
        <g id="mano" transform="translate(32.000000, 8.000000)">
            <path d="M14.708131,6.0091989 C13.5981981,6.61691044 6.41972282,24.91151 6.41972282,24.91151 L6.83434373,36.6125594 L0.137855227,37.8271818 L0.138657202,24.4198962 L11.8354578,3.86099063 L14.708131,6.0091989 Z" id="Fill-140" fill="#412E7D"></path>
            <path d="M14.0937382,6.0091989 C14.0937382,6.0091989 17.2446967,4.32378019 17.1981822,4.11000024 C17.0626485,3.48947791 15.3849175,4.26052694 15.3849175,4.26052694 C15.3849175,4.26052694 17.9488305,1.5886779 17.554259,1.21396248 C17.3128646,0.984169053 15.7425982,2.34211211 15.7425982,2.34211211 C15.7425982,2.34211211 16.7322349,0.751172928 16.4226727,0.40688312 C16.1203282,0.0722014 14.6551205,1.9425758 14.6551205,1.9425758 C14.6551205,1.9425758 15.1956514,0.738362144 14.8820793,0.445315471 C14.6663482,0.24354563 11.8201401,5.06760631 11.8201401,5.06760631 L14.0937382,6.0091989 Z" id="Fill-156" fill="#FFD4A8"></path>
        </g>
        <path d="M51.50819,135.404344 C51.50819,136.308305 43.6849271,137.040921 34.0347659,137.040921 C24.3846047,137.040921 16.5613418,136.308305 16.5613418,135.404344 C16.5613418,134.500383 24.3846047,133.767766 34.0347659,133.767766 C43.6849271,133.767766 51.50819,134.500383 51.50819,135.404344" id="Fill-7" fill-opacity="0.4" fill="#8D83BF"></path>
        <polygon id="Fill-138" fill="#FFD4A8" points="48.6096932 74.6876353 46.8485568 110.432123 41.7231367 134.29541 39.3188166 133.634854 41.3285651 109.764361 37.3186918 85.1700589 33.7547164 108.094956 25.8360185 134.386687 23.7196073 134.458748 27.5137495 108.287118 26.4743903 76.4307025"></polygon>
        <path d="M56.168946,14.6527006 L53.8039227,32.9577089 L42.3797935,43.9685774 L32.137775,44.1183034 L28.4206224,50.5669316 L29.9130973,56.3990408 C31.0053868,60.6682344 30.6292607,65.1792315 28.8440651,69.2098243 L26.4742299,76.4303022 L48.8501252,79.002067 C49.584734,62.0397889 49.2414888,60.6562243 46.4658545,51.0121063 L59.6767832,33.9233217 L59.7136741,14.0089587 L56.168946,14.6527006 Z" id="Fill-139" fill="#412E7D"></path>
        <path d="M40.8930127,32.8071021 L42.9396521,38.0819422 C43.3959757,39.256531 42.8081282,40.5768423 41.6292255,41.0260204 L40.9331114,41.2918442 L41.2691388,45.1590995 L35.8742552,45.6258924 L34.9263212,34.7151082 L40.8930127,32.8071021 Z" id="Fill-141" fill="#FFD4A8"></path>
        <path d="M37.9122333,42.764684 C37.9122333,42.764684 39.978922,40.9703736 39.8032895,39.3666236 C39.8032895,39.3666236 36.7557858,38.0999574 37.5826217,37.2152127 C38.4094575,36.3320693 40.1713959,37.8933835 40.1713959,37.8933835 C40.1713959,37.8933835 38.9564043,35.5626216 39.2250658,34.9076703 C39.2250658,34.9076703 43.174791,34.5609785 42.3343216,32.2926691 C42.3343216,32.2926691 41.149003,31.3919109 38.6508519,31.4671742 C36.1535028,31.5416369 35.1486285,35.8524656 35.1486285,35.8524656 L37.9122333,42.764684 Z" id="Fill-142" fill="#FFC44F"></path>
        <path d="M39.041173,31.7421257 C36.7138425,31.1232047 34.0994051,31.7028927 32.2532594,33.2481934 C30.4071137,34.7926935 29.3789822,37.2611714 29.5834857,39.6575886 C29.7262372,41.3398046 30.4223512,43.0972839 29.764732,44.6521928 C29.4262987,45.4520661 28.7710854,46.068585 28.1295056,46.6538777 C26.2528849,48.364918 24.3121062,50.047134 22.8581261,52.127285 C21.4033441,54.207436 20.4634297,56.773596 20.8644171,59.2789049 C21.0360397,60.3430006 21.4538685,61.3806741 22.1523884,62.2021656 C22.5196928,62.6337288 22.9607789,63.0044409 23.2839747,63.4704331 C24.4380162,65.1342337 23.7892187,67.4593909 24.4965604,69.3569882 C25.4043957,71.7918377 28.2626334,72.879153 30.8506057,73.1409734 C34.4025515,73.500476 38.2319806,72.7502445 40.8496259,70.3258037 C43.4680732,67.9029642 44.4424724,63.5841288 42.4263081,60.6432533 C41.4278496,59.1868274 39.7308712,57.9073504 39.89688,56.1506717 C40.0003347,55.0593531 40.8255666,54.1938245 41.2995337,53.2057928 C42.2498737,51.2265268 41.6203235,48.6219343 39.8712168,47.2936162 C39.2256272,46.8044044 38.4589394,46.4777294 37.8614683,45.9308691 C37.2647991,45.3840088 36.8606039,44.4880546 37.2190865,43.7618433 C37.4941639,43.2029729 38.1397535,42.9011188 38.4284643,42.3478531 C38.8599267,41.5223582 38.3362373,40.5223164 37.7267365,39.8169227 C37.1172358,39.1107282 36.3665875,38.4109392 36.2783703,37.4837587 C36.2118064,36.778365 36.5518436,36.1057988 36.8822572,35.4788711 C37.5334606,34.2418298 38.185466,33.0047885 38.8366695,31.7669466" id="cabello" fill="#FFC44F"></path>
        <polygon id="Fill-144" fill="#694EB9" points="26.4743101 76.4305424 24.8583311 88.8882287 36.9055946 90.8282617 37.4212644 85.9001134 38.0957251 90.7089613 50.1429886 90.7089613 48.8502054 79.0023072"></polygon>
        <path d="M23.939589,133.370632 C23.939589,133.370632 31.2407664,133.357821 32.1421859,134.44914 C33.0444074,135.540458 23.5811063,134.607673 23.5811063,134.607673 L23.939589,133.370632 Z" id="Fill-145" fill="#412E7D"></path>
        <path d="M38.7595997,133.889068 C38.7595997,133.889068 45.9444908,132.591977 47.0247506,133.506346 C48.1042085,134.422317 38.6248679,135.170147 38.6248679,135.170147 L38.7595997,133.889068 Z" id="Fill-146" fill="#412E7D"></path>
        <path d="M42.0901203,87.3435685 C42.0492196,87.4252372 40.3137464,86.6085498 38.1187417,85.7398185 C35.925341,84.8646819 34.1032546,84.2681797 34.1297197,84.1809063 C34.1417493,84.1400719 34.6141124,84.2377541 35.3615528,84.4539361 C36.1089932,84.6693174 37.1307089,85.0096038 38.2350281,85.4475725 C39.3393472,85.8871425 40.3153504,86.340324 41.0066525,86.6966239 C41.6987567,87.0529238 42.1093677,87.3059368 42.0901203,87.3435685" id="Fill-147" fill="#47398A"></path>
        <path d="M37.1364832,89.538456 C37.1236516,89.5848951 36.4419731,89.4223583 35.335248,89.1981696 C34.228523,88.9707782 32.6935435,88.6993497 30.9853374,88.4639516 C29.2771314,88.2301548 27.7237064,88.0580099 26.6001399,87.9202939 C25.4757714,87.7841794 24.7820634,87.6832944 24.7860732,87.6392574 C24.7900831,87.596021 25.491009,87.6200412 26.6217932,87.6993079 C27.7509736,87.7809767 29.3124183,87.9186926 31.0286441,88.1532901 C32.7440679,88.3886882 34.2854632,88.6977484 35.3849705,88.9811869 C36.4852797,89.2630242 37.1477108,89.5008244 37.1364832,89.538456" id="Fill-148" fill="#47398A"></path>
        <path d="M49.749219,88.9691768 C49.750021,89.0140146 49.0699464,89.0580516 47.9720431,89.1157002 C46.8749418,89.172548 45.3584077,89.2478114 43.6854885,89.3510983 C42.0125693,89.4551859 40.4992431,89.5672803 39.4029438,89.646547 C38.3058424,89.7250131 37.6265699,89.7650468 37.6209561,89.7210097 C37.6169462,89.6793746 38.288199,89.5608749 39.3804885,89.425561 C40.47358,89.2894464 41.9885101,89.1413217 43.6662411,89.0372341 C45.3431702,88.9331465 46.8653181,88.8931128 47.9664293,88.8931128 C49.0675405,88.8923121 49.749219,88.9267411 49.749219,88.9691768" id="Fill-149" fill="#47398A"></path>
        <path d="M49.2659491,81.9390192 C49.2803846,81.9734481 49.015733,82.135985 48.5257264,82.2208564 C48.0429377,82.3073292 47.3235664,82.2809069 46.6274524,81.9502286 C45.9313384,81.6187496 45.4589753,81.0766933 45.2215908,80.647532 C44.9793944,80.2143674 44.9392957,79.906108 44.9745826,79.8956992 C45.0210971,79.8796857 45.1357795,80.1535162 45.4092529,80.5266303 C45.6779144,80.8997443 46.133436,81.3657366 46.7629861,81.6659893 C47.3925362,81.9654414 48.0421357,82.025492 48.5016672,81.9990697 C48.9644066,81.9766508 49.2499096,81.8925801 49.2659491,81.9390192" id="Fill-150" fill="#47398A"></path>
        <path d="M48.5497857,91.0185819 C48.4631724,91.02819 48.1808773,89.1033698 47.9178296,86.7197634 C47.6547819,84.3353563 47.5120305,82.3953233 47.5986437,82.3865158 C47.684455,82.3769078 47.9675521,84.3009273 48.2305998,86.6861351 C48.4936474,89.0689408 48.6363989,91.0089738 48.5497857,91.0185819" id="Fill-151" fill="#47398A"></path>
        <path d="M27.6639593,109.030624 C27.6976423,108.948154 28.3320042,109.137914 29.1147315,109.350093 C29.8958548,109.566275 30.5374346,109.726409 30.525405,109.815284 C30.5141773,109.898554 29.8341028,109.875335 29.0313261,109.653548 C28.2277475,109.434964 27.6302764,109.108289 27.6639593,109.030624" id="Fill-152" fill="#E1AD83"></path>
        <path d="M30.7481133,108.842946 C30.7649548,108.924614 30.0600191,109.128786 29.1626094,109.098361 C28.2660017,109.072739 27.5746995,108.82453 27.5971548,108.744463 C27.6188082,108.656389 28.3149222,108.760476 29.1730351,108.785297 C30.030346,108.814121 30.7320738,108.754071 30.7481133,108.842946" id="Fill-153" fill="#E1AD83"></path>
        <path d="M44.9338423,109.27531 C44.9538916,109.35858 44.310708,109.58437 43.4846741,109.710876 C42.6586401,109.839785 41.9769617,109.819768 41.9713478,109.733295 C41.9649321,109.646022 42.6249572,109.526721 43.4365556,109.400215 C44.2481539,109.27531 44.9137929,109.189638 44.9338423,109.27531" id="Fill-154" fill="#E1AD83"></path>
        <path d="M44.1518368,108.568475 C44.1831138,108.650944 43.7749087,108.880737 43.2536251,109.112933 C42.7315396,109.345128 42.2872457,109.493253 42.2471469,109.415588 C42.2078502,109.338723 42.594402,109.060889 43.1253092,108.825491 C43.6562164,108.589292 44.1213617,108.487607 44.1518368,108.568475" id="Fill-155" fill="#E1AD83"></path>
        <path d="M56.683493,14.6902522 C56.683493,14.6902522 55.3506111,11.3786646 55.5246396,11.2449521 C56.0274777,10.8558245 56.8174228,12.5220271 56.8174228,12.5220271 C56.8174228,12.5220271 56.5688106,8.83092006 57.1117475,8.7956904 C57.4453689,8.7740722 57.7765845,10.8213955 57.7765845,10.8213955 C57.7765845,10.8213955 58.0404341,8.96703463 58.4991636,8.90137936 C58.9458635,8.83812612 58.86727,11.2113238 58.86727,11.2113238 C58.86727,11.2113238 59.2265547,9.94145485 59.6556111,9.91823531 C59.9507378,9.90222183 59.0324768,15.4244702 59.0324768,15.4244702 L56.683493,14.6902522 Z" id="Fill-157" fill="#FFD4A8"></path>
    </g>
</svg>