<svg viewBox="0 0 125 183" version="1.1" xmlns="http://www.w3.org/2000/svg" xmlns:xlink="http://www.w3.org/1999/xlink" id="el_hGXgw5m_96"><style>@-webkit-keyframes el_9e95SoHiNaa_dIZ2RKraO_Animation{25%{-webkit-transform: rotate(0deg);transform: rotate(0deg);}50%{-webkit-transform: rotate(45deg);transform: rotate(45deg);}75%{-webkit-transform: rotate(0deg);transform: rotate(0deg);}0%{-webkit-transform: rotate(0deg);transform: rotate(0deg);}100%{-webkit-transform: rotate(0deg);transform: rotate(0deg);}}@keyframes el_9e95SoHiNaa_dIZ2RKraO_Animation{25%{-webkit-transform: rotate(0deg);transform: rotate(0deg);}50%{-webkit-transform: rotate(45deg);transform: rotate(45deg);}75%{-webkit-transform: rotate(0deg);transform: rotate(0deg);}0%{-webkit-transform: rotate(0deg);transform: rotate(0deg);}100%{-webkit-transform: rotate(0deg);transform: rotate(0deg);}}#el_hGXgw5m_96 *{-webkit-animation-duration: 2s;animation-duration: 2s;-webkit-animation-iteration-count: infinite;animation-iteration-count: infinite;-webkit-animation-timing-function: cubic-bezier(0, 0, 1, 1);animation-timing-function: cubic-bezier(0, 0, 1, 1);}#el_xznsHetbDS{stroke: none;stroke-width: 1;fill: none;}#el_nDAdrnXy31{-webkit-transform: translate(48px, 47px);transform: translate(48px, 47px);}#el_lxcxN6iEK6{fill: #FFE7EE;}#el_43pfN9OTTQ{fill: #F8B7B0;}#el_24xvT7hRLq{fill: #E85858;}#el_4CquRWHA0F{fill: #F8B7B0;}#el_ga02L7L2ux{fill: #F8B7B0;}#el_q6zF8vuUvy{fill: #1C1E38;}#el_IiCVvCPbug{fill: #F8B7B0;}#el_XKmjryv0iv{fill: #1C1E38;}#el_rnicN06X7In{fill-opacity: 0.599999964;fill: #EAD6DC;}#el_IRuSO9wU2c3{fill: #E04B4B;}#el_z0OoqsY-3VB{fill: #E04B4B;}#el_KvwiwYFpIxL{fill: #FF6666;}#el_LMQyHyd9L_W{fill: #6C59C7;}#el_6jrvT__5iSK{fill: #432AA5;}#el_GMIYkO-kUm_{fill: #F8B7B0;}#el_yhB7O0K5fgB{fill: #FF6666;}#el_b7ZUa8psRlE{-webkit-transform: translate(94px, 127px);transform: translate(94px, 127px);}#el_8yRt-87-uXz{fill: #FF71A8;}#el_zFHr3lUz5x_{fill: #E25990;}#el_pX1zNh0r-TY{fill-opacity: 0.599999964;fill: #EAD6DC;}#el_sA3-wWDoZyW{fill: #F8CAD7;}#el_jCVwKq8o6zB{-webkit-transform: translate(0px, 91px);transform: translate(0px, 91px);}#el_o6gUfzlUj3Y{fill-opacity: 0.599999964;fill: #EAD6DC;}#el_ZDuDjuQoQHo{fill: #E1B1BE;}#el_NzX1Lm9Gp8c{fill: #E1B1BE;}#el_-2_psMxzadY{fill: #E1B1BE;}#el_-6qdI4Qlzxb{fill: #E1B1BE;}#el_BUu2U-qbLrY{fill: #E1B1BE;}#el_YVwkgekUCAS{-webkit-transform: translate(4px, 0px);transform: translate(4px, 0px);}#el_AIVpdPNSOuZ{fill: #F8B7B0;}#el_xJKT8_0Yw3V{fill: #F8B7B0;}#el_YLT2HaUlwxh{fill: #F8B7B0;}#el_pt0Gkza3Bxv{fill: #F8B7B0;}#el_h1ZWTPZeTYa{fill: #F8B7B0;}#el_cSwfbHmxvMS{fill: #432AA5;}#el_Fouzwh8yyqB{fill: #6C59C7;}#el_FJvlrbhl3fT{fill: #FF6666;}#el_9e95SoHiNaa{fill: #432AA5;}#el_Ye_GM8fYjg_{fill: #5A4EAD;}#el_746Gbc7ZeYF{fill: #1C1E38;}#el_nNjnYw7shYu{fill: #E04B4B;}#el_66n3lGkZeSE{fill: #E04B4B;}#el_9e95SoHiNaa_dIZ2RKraO{-webkit-animation-name: el_9e95SoHiNaa_dIZ2RKraO_Animation;animation-name: el_9e95SoHiNaa_dIZ2RKraO_Animation;-webkit-transform-origin: 50% 0%;transform-origin: 50% 0%;transform-box: fill-box;}</style>
    <!-- Generator: Sketch 49 (51002) - http://www.bohemiancoding.com/sketch -->
    <title>ilustracion-4b</title>
    <desc>Created with Sketch.</desc>
    <defs>
        <path d="M13.2229834,1.29060773 C11.3542541,2.28066298 11.0236464,5.38254144 10.9723757,6.00574586 C10.7133702,9.13325967 13.4616575,12.6108287 12.1719337,14.5264088 C10.8583425,16.478232 10.4075138,14.7226519 9.22917127,12.9670718 C8.24353591,11.4970166 6.7478453,10.0278453 3.81127072,10.7323757 C0.451270718,11.5394475 0.125082873,13.7759116 0.517569061,14.6095028 C1.17171271,16.0035359 3.51867403,14.7023204 6.5798895,16.6134807 C8.72088398,17.9500552 9.92574586,20.3960221 9.41922652,21.0598895 C9.13635359,21.4293923 8.38674033,21.0952486 7.39314917,20.761989 C6.29524862,20.3924862 4.90121547,20.0238674 3.51690608,20.6037569 C1.98320442,21.2472928 0.89679558,23.0285083 1.22209945,23.7922652 C1.45016575,24.3306077 2.32530387,24.1927072 3.89966851,24.4888398 C4.78364641,24.6550276 8.92773481,25.4355801 9.84707182,27.8108287 C10.0176796,28.2501657 10.3244199,29.3807735 9.36530387,31.238895 L16.6103867,31.238895 C16.760663,29.8864088 17.1902762,27.5164641 18.7407735,25.8280663 C21.3493923,22.9887293 24.359337,23.0258564 26.5056354,23.0638674 C27.9818785,23.0903867 29.0488398,23.1169061 29.2990055,22.2072928 C29.5907182,21.1447514 27.7847514,19.3272928 25.7630939,18.7253039 C23.1093923,17.9359116 21.8223204,18.5679558 21.001105,19.201768 C20.240884,19.7869613 19.881105,20.3739227 19.2066298,19.8302762 C17.4961326,18.4521547 24.6165746,11.5367956 21.5801105,5.36220994 C20.3283978,2.81723757 17.1849724,0.93878453 14.7964641,0.93878453 C14.2139227,0.93878453 13.6773481,1.05016575 13.2229834,1.29060773 Z" id="path-1"/>
    </defs>
    <g id="el_xznsHetbDS" fill-rule="evenodd">
        <g id="el_nDAdrnXy31">
            <polygon id="el_lxcxN6iEK6" points="24.5144751 59.6579006 43.040884 59.6579006 43.040884 58.7739227 24.5144751 58.7739227"/>
            <path d="M27.7800663,9.35805525 C27.2045967,9.53043094 26.592,10.0396022 26.592,10.0396022 C26.592,10.0396022 25.4790718,7.70059669 25.2395138,6.52844199 C24.9999558,5.35628729 24.9725525,5.00358011 25.1431602,3.66700552 C25.312884,2.33043094 25.6116685,1.0760663 27.4194033,0.907226519 C28.8806188,0.771093923 29.4525525,2.74943646 29.1961989,3.7518674 C28.9398453,4.75341436 28.0417238,6.33308287 28.1813923,7.16137017 C28.3219448,7.98965746 28.7391823,9.19717127 28.7391823,9.19717127 C28.7391823,9.19717127 28.3254807,9.19451934 27.7800663,9.35805525" id="el_43pfN9OTTQ"/>
            <path d="M35.9352044,30.6579448 C32.552221,28.689326 28.3480221,26.2751823 27.0415028,23.3165083 C25.6916685,20.2588287 25.5732155,10.6809282 25.6819448,8.92888398 C25.6960884,8.70258564 25.8163094,8.49838674 26.0037127,8.36932597 C27.1961989,7.54545856 28.5380773,7.63474033 28.7891271,7.9441326 C29.0622762,8.27916022 28.5990718,19.0919779 31.7345414,22.5739669 C33.9223867,25.0040221 34.3210608,24.8944088 36.913768,26.1134144 C39.3464751,27.2563978 41.1550939,26.2972818 41.2797348,29.2365083 C41.4043757,32.1757348 39.1352044,32.5196022 35.9352044,30.6579448" id="el_24xvT7hRLq"/>
            <path d="M35.4305414,31.1682652 C32.4188287,31.5678232 30.5067845,29.934232 29.9030276,29.1819669 C29.2992707,28.4297017 31.2387182,27.6730166 31.9405967,26.9180994 C32.2393812,26.5963315 32.3622541,26.0739006 32.368442,25.4082652 C32.3799337,24.5092597 32.4046851,21.6584309 32.1509834,20.3801989 L37.9870055,21.0113591 C37.9870055,21.0113591 37.7925304,23.9912486 37.7942983,25.1050608 C37.7951823,25.3039558 37.8199337,25.4727956 37.8694365,25.6239558 C38.0921989,26.3169945 38.8179448,26.6122431 39.9759558,27.5236243 C41.3841326,28.6347845 38.4422541,30.7695912 35.4305414,31.1682652" id="el_4CquRWHA0F"/>
            <path d="M40.5274696,20.2109171 C38.8019448,23.1536796 37.913547,24.5539006 36.0952044,25.2274917 C34.2759779,25.9010829 32.7325525,25.894895 31.7221657,25.4113591 C30.4589613,24.8084862 29.6085746,21.7269392 29.8949834,20.2701436 C30.191116,18.7611934 31.3579669,15.0670497 33.3433812,11.8909171 C34.350232,10.2811934 37.2470276,9.12937017 39.232442,10.0778785 C41.2169724,11.0272707 44.7431602,13.0215249 40.5274696,20.2109171" id="el_ga02L7L2ux"/>
            <path d="M33.2989171,15.3543425 C32.3990276,18.1848398 32.6032265,19.4692597 33.3864309,21.135558 C34.1696354,22.8018564 35.6520663,23.7017459 36.7190276,23.7830718 C38.0679779,23.8864972 38.3764862,23.5205304 40.7278674,21.3167735 C41.7090829,20.3965525 43.3364862,19.1253923 44.222232,15.9828508 C44.6712928,14.3899227 43.4796906,11.6920221 41.424442,10.7868287 C39.3691934,9.88163536 35.4973702,8.4398674 33.2989171,15.3543425" id="el_q6zF8vuUvy"/>
            <path d="M31.8191381,17.1238895 C31.5009061,18.185547 31.8474254,19.2357127 32.5926188,19.4699669 C33.3386961,19.705105 34.2014586,19.0341657 34.5196906,17.9725083 C34.8379227,16.9117348 34.4914033,15.8606851 33.745326,15.6264309 C33.0001326,15.3921768 32.1373702,16.062232 31.8191381,17.1238895" id="el_IiCVvCPbug"/>
            <path d="M34.8627624,14.2027845 C33.8214365,12.7247735 32.361989,11.2883094 33.7931492,10.2717348 C35.2251934,9.25427624 38.8,8.12720442 42.0698343,10.9099669 C45.9372376,14.2027845 34.8627624,14.2027845 34.8627624,14.2027845" id="el_XKmjryv0iv"/>
            <path d="M48.5380773,116.655558 C48.5380773,118.120309 39.7884641,119.307492 28.9959779,119.307492 C18.2034917,119.307492 9.45387845,118.120309 9.45387845,116.655558 C9.45387845,115.190807 18.2034917,114.003624 28.9959779,114.003624 C39.7884641,114.003624 48.5380773,115.190807 48.5380773,116.655558" id="el_rnicN06X7In"/>
            <path d="M21.0582099,115.583028 C24.1636243,115.415072 26.8739006,114.578829 26.7457238,116.484685 C26.6369945,118.102365 26.495558,117.964464 21.1890387,117.994519 C18.0792044,118.012199 15.537768,117.758497 15.5015249,117.092862 C15.4652818,116.426343 17.9536796,115.750983 21.0582099,115.583028" id="el_IRuSO9wU2c3"/>
            <path d="M36.0363315,113.451403 C38.9729061,112.427757 41.8520221,112.447204 41.7238453,114.353061 C41.615116,115.97074 41.8299227,115.83284 36.5225193,115.862895 C33.4135691,115.880575 32.6064972,115.236155 33.1156685,114.806541 C33.9483757,114.103779 34.7916906,113.885436 36.0363315,113.451403" id="el_z0OoqsY-3VB"/>
            <path d="M31.806674,25.9421878 C34.6689945,25.9483757 36.2026961,25.8131271 39.5573923,26.6193149 C41.9008177,27.1815249 44.4175028,28.695779 43.5087735,35.6915801 C43.5087735,35.6915801 41.7549613,52.9061657 41.6515359,55.2593149 C41.409326,60.7983204 43.0004862,61.9218564 38.5355138,61.5240663 C33.8283315,61.1041768 28.2256796,61.3251713 25.9538564,61.054674 C25.2449061,60.9706961 25.4446851,59.2840663 25.7213702,57.2137901 C25.9441326,55.537768 27.2851271,42.4257238 27.1039116,36.2652818 C27.0773923,32.015116 25.9361768,25.9298122 31.806674,25.9421878" id="el_KvwiwYFpIxL"/>
            <path d="M41.231558,111.383867 C41.3995138,113.045746 41.6028287,113.66453 41.6028287,113.66453 C41.6028287,113.66453 40.5066961,113.867845 37.0768619,113.443536 C36.7409503,113.399337 36.1575249,108.502099 35.9365304,106.150718 C35.7066961,103.746298 34.6547624,92.3341436 34.7343204,89.6291713 C34.8227182,86.9330387 34.3188508,70.6678453 34.3188508,70.6678453 L33.1343204,70.6678453 C33.1343204,70.6678453 29.8459227,79.118674 29.3774144,82.1330387 C28.670232,86.7385635 28.1310055,89.5054144 28.2017238,91.1230939 C28.3166409,94.0137017 26.9376354,110.986077 26.6812818,112.568398 C26.4249282,114.150718 26.6812818,115.821436 26.6812818,115.821436 C26.6812818,115.821436 24.1619448,116.590497 21.5718895,115.918674 C21.5718895,115.918674 21.9343204,91.7153591 22.0138785,88.1440884 C22.0669171,85.6777901 23.8260331,73.0722652 24.8160884,66.159558 C24.833768,66.000442 24.8514475,65.8501657 24.8779669,65.6998895 C25.231558,63.2335912 25.470232,61.598232 25.470232,61.598232 C25.470232,61.598232 25.470232,60.9264088 26.0624972,60.8468508 C26.3630497,60.8026519 26.7431602,60.7319337 27.9542099,60.6700552 C28.0956464,60.6612155 28.2547624,60.6612155 28.4227182,60.6435359 C29.5718895,60.6081768 31.3398453,60.5728177 34.1066961,60.5728177 C40.6746519,60.5728177 41.7265856,60.7319337 41.7265856,61.1827624 C41.7265856,61.1827624 40.9310055,84.6612155 40.7630497,88.3827624 C40.5862541,92.1043094 41.0636022,109.721989 41.231558,111.383867" id="el_LMQyHyd9L_W"/>
            <path d="M28.4227182,60.6434475 C28.2547624,60.6611271 28.0956464,60.6611271 27.9542099,60.6699669 C28.1044862,61.0677569 28.1840442,61.5009061 28.1840442,61.9517348 C28.1840442,63.8788066 26.7431602,65.4699669 24.8779669,65.6998011 C24.8514475,65.8500773 24.833768,66.0003536 24.8160884,66.1594696 C26.9553149,65.9473149 28.6260331,64.1351602 28.6260331,61.9517348 C28.6260331,61.5009061 28.5553149,61.0589171 28.4227182,60.6434475" id="el_6jrvT__5iSK"/>
            <path d="M7.77281768,24.968221 C7.54740331,25.5251271 7.56154696,26.3215912 7.56154696,26.3215912 C7.56154696,26.3215912 5.04044199,25.727558 3.9761326,25.1803757 C2.9118232,24.6340773 2.61922652,24.4351823 1.68309392,23.4663425 C0.746077348,22.4983867 -0.0459668508,21.4809282 0.952928177,19.9649061 C1.76088398,18.7388287 3.66232044,19.529989 4.28375691,20.3565083 C4.90607735,21.1839116 5.57524862,22.8723094 6.30983425,23.2807072 C7.04353591,23.689105 8.24751381,24.1187182 8.24751381,24.1187182 C8.24751381,24.1187182 7.98674033,24.4404862 7.77281768,24.968221" id="el_GMIYkO-kUm_"/>
            <path d="M29.4932155,31.9266298 C25.8415028,33.3348066 21.3279116,35.1062983 18.2021657,34.2744751 C14.9721105,33.4152486 7.42470718,27.5173481 6.12525967,26.3363536 C5.95730387,26.1843094 5.87420994,25.9624309 5.89012155,25.7361326 C5.99354696,24.2908287 6.90227624,23.2990055 7.30095028,23.2963536 C7.73321547,23.2928177 15.8808398,30.4167956 20.5579669,30.1480663 C23.8233812,29.960663 23.9869171,29.5814365 26.5584088,28.320884 C28.9725525,27.1372376 29.3553149,25.1261878 31.7270276,26.8676243 C34.0978564,28.6081768 32.9469171,30.5944751 29.4932155,31.9266298" id="el_yhB7O0K5fgB"/>
        </g>
        <g id="el_b7ZUa8psRlE">
            <path d="M16.6102983,31.2391602 C16.7605746,29.886674 17.1901878,27.5158453 18.7406851,25.8283315 C23.142895,21.0354033 28.6872044,24.4378343 29.2989171,22.207558 C29.5906298,21.1441326 27.784663,19.327558 25.7630055,18.7255691 C20.6536133,17.2033591 20.6085304,20.9593812 19.2074254,19.8305414 C17.4960442,18.4515359 24.6164862,11.5370608 21.5800221,5.36247514 C20.023337,2.19695028 15.5406851,0.0630276243 13.222011,1.29087293 C11.3541657,2.28092818 11.023558,5.38280663 10.9722873,6.00601105 C10.7132818,9.13352486 13.4606851,12.6110939 12.1718453,14.526674 C9.75858564,18.1120884 10.2571492,9.18567956 3.81118232,10.7326409 C0.45118232,11.5388287 0.124994475,13.7752928 0.516596685,14.609768 C1.17250829,16.0029171 3.51770166,14.7017017 6.57891713,16.6137459 C8.7199116,17.9503204 9.92654144,20.3954033 9.41913812,21.0601547 C8.82510497,21.8362873 6.15372376,19.4972818 3.5159337,20.6040221 C1.98311602,21.246674 0.896707182,23.0278895 1.22201105,23.7925304 C1.45096133,24.3308729 2.32521547,24.1920884 3.90046409,24.489105 C4.78355801,24.6552928 8.92764641,25.4358453 9.84698343,27.8102099 C10.0175912,28.249547 10.3243315,29.3810387 9.36521547,31.2391602 L16.6102983,31.2391602 Z" id="el_8yRt-87-uXz"/>
            <g id="el_oXRC6naQ-7E">
                <mask id="mask-2" fill="white">
                    <use xlink:href="#path-1"/>
                </mask>
                <g id="el_FXqrpI458kM"/>
                <path d="M27.0853481,59.719779 C27.4336354,56.5807735 28.4307624,51.0824309 32.0276685,47.1664088 C42.2420331,36.0468508 55.1030276,43.9416575 56.5226961,38.7668508 C57.1998232,36.2996685 53.009768,32.0848619 48.3193812,30.6881768 C36.4661215,27.158453 36.3618122,35.8718232 33.1096575,33.2517127 C29.1405967,30.0534807 45.6586077,14.0110497 38.6150718,-0.312928177 C35.0031381,-7.65790055 24.6049061,-12.6081768 19.2259006,-9.75911602 C14.8908729,-7.46342541 14.1253481,-0.266961326 14.0051271,1.17834254 C13.4049061,8.43491713 19.7792707,16.5029834 16.7887735,20.9467403 C11.1896575,29.2640884 12.3450166,8.5560221 -2.60835359,12.1449724 C-10.4041547,14.0163536 -11.1599558,19.2044199 -10.2503425,21.1394475 C-8.72990055,24.3730387 -3.2881326,21.3533702 3.81374586,25.7882873 C8.78081768,28.8901657 11.5786077,34.5635359 10.4011492,36.1043094 C9.02479558,37.9058564 2.82722652,32.479116 -3.29255249,35.0461878 C-6.8479116,36.5374586 -9.36901657,40.6700552 -8.6158674,42.4433149 C-8.08459669,43.6932597 -6.05498343,43.3706077 -2.40061878,44.0592265 C-0.353325967,44.4446409 9.26170166,46.2567956 11.3956243,51.7648619 C11.7898785,52.7849724 12.5014807,55.4095028 10.2765083,59.719779 L27.0853481,59.719779 Z" mask="url(#mask-2)" id="el_zFHr3lUz5x_"/>
            </g>
            <path d="M20.777989,45.1710055 C20.777989,45.5979669 17.3039558,45.9444862 13.0193149,45.9444862 C8.73379006,45.9444862 5.26064088,45.5979669 5.26064088,45.1710055 C5.26064088,44.7440442 8.73379006,44.3975249 13.0193149,44.3975249 C17.3039558,44.3975249 20.777989,44.7440442 20.777989,45.1710055" id="el_pX1zNh0r-TY"/>
            <path d="M22.5219006,35.6681547 C22.5219006,40.975558 18.1709613,45.2672707 12.8414586,45.1691492 C7.61007735,45.0736796 3.51637569,40.5848398 3.51637569,35.3534586 L3.51637569,29.9222983 C3.51637569,28.6608619 4.53913812,27.6389834 5.79969061,27.6389834 L20.2385856,27.6389834 C21.4991381,27.6389834 22.5219006,28.6608619 22.5219006,29.9222983 L22.5219006,35.6681547 Z" id="el_sA3-wWDoZyW"/>
        </g>
        <g id="el_jCVwKq8o6zB">
            <path d="M67.0350497,81.0722652 C67.0350497,82.5370166 52.0286409,83.7241989 33.5172597,83.7241989 C15.0058785,83.7241989 0.00035359116,82.5370166 0.00035359116,81.0722652 C0.00035359116,79.6075138 15.0058785,78.4203315 33.5172597,78.4203315 C52.0286409,78.4203315 67.0350497,79.6075138 67.0350497,81.0722652" id="el_o6gUfzlUj3Y"/>
            <path d="M49.5189392,3.70864088 L17.6250166,3.70864088 C16.6570608,3.70864088 15.8650166,2.91659669 15.8650166,1.94864088 C15.8650166,0.980685083 16.6570608,0.188640884 17.6250166,0.188640884 L49.5189392,0.188640884 C50.486895,0.188640884 51.2789392,0.980685083 51.2789392,1.94864088 C51.2789392,2.91659669 50.486895,3.70864088 49.5189392,3.70864088" id="el_ZDuDjuQoQHo"/>
            <path d="M7.02824309,81.6616133 C6.992,81.6616133 6.95575691,81.6598453 6.91951381,81.6545414 C6.43420994,81.5953149 6.08945856,81.1542099 6.15045304,80.6697901 L15.8742099,1.8401768 C15.9334365,1.35575691 16.3851492,1.00481768 16.8589613,1.07111602 C17.3442652,1.13034254 17.6881326,1.57144751 17.6280221,2.0558674 L7.90426519,80.8854807 C7.84945856,81.3336575 7.46846409,81.6616133 7.02824309,81.6616133" id="el_NzX1Lm9Gp8c"/>
            <path d="M60.1160663,81.6616133 C59.6758453,81.6616133 59.2948508,81.3336575 59.2400442,80.8854807 L49.5162873,2.0558674 C49.4552928,1.57144751 49.8000442,1.13034254 50.2853481,1.07111602 C50.7582762,1.00039779 51.2108729,1.35487293 51.2700994,1.8401768 L60.9938564,80.6697901 C61.0548508,81.1542099 60.7100994,81.5953149 60.2247956,81.6545414 C60.1885525,81.6598453 60.1523094,81.6616133 60.1160663,81.6616133" id="el_-2_psMxzadY"/>
            <path d="M53.9550055,32.5930608 L13.0798674,32.5930608 C12.5910276,32.5930608 12.1958895,32.1979227 12.1958895,31.7090829 C12.1958895,31.2202431 12.5910276,30.825105 13.0798674,30.825105 L53.9550055,30.825105 C54.4438453,30.825105 54.8389834,31.2202431 54.8389834,31.7090829 C54.8389834,32.1979227 54.4438453,32.5930608 53.9550055,32.5930608" id="el_-6qdI4Qlzxb"/>
            <path d="M57.4218785,59.1667624 L9.80198895,59.1667624 C9.31314917,59.1667624 8.91801105,58.7716243 8.91801105,58.2827845 C8.91801105,57.7939448 9.31314917,57.3988066 9.80198895,57.3988066 L57.4218785,57.3988066 C57.9107182,57.3988066 58.3058564,57.7939448 58.3058564,58.2827845 C58.3058564,58.7716243 57.9107182,59.1667624 57.4218785,59.1667624" id="el_BUu2U-qbLrY"/>
        </g>
        <g id="el_YVwkgekUCAS">
            <path d="M60.9256133,29.8130829 C60.8080442,30.2754033 60.4235138,30.7775028 60.4235138,30.7775028 C60.4235138,30.7775028 62.3152265,31.5854586 63.2522431,31.7366188 C64.1901436,31.888663 64.534011,31.3034696 65.5885967,31.1257901 C66.6440663,30.9472265 66.975558,30.8915359 67.0506961,29.4515359 C67.1116906,28.288221 65.9687072,27.8285525 65.1828508,28.0645746 C64.3961105,28.3005967 63.3167735,29.5081105 62.655558,29.4232486 C61.9934586,29.3392707 61.0219669,29.046674 61.0219669,29.046674 C61.0219669,29.046674 61.0369945,29.3755138 60.9256133,29.8130829" id="el_AIVpdPNSOuZ"/>
            <path d="M36.4313812,16.7072265 C38.2470718,17.3958453 39.6746961,16.6586077 40.16,16.2793812 C40.6461878,15.8992707 39.5500552,15.1452376 39.2238674,14.5733039 C39.0841989,14.329326 39.0850829,13.9863425 39.1779006,13.5708729 C39.3016575,13.0104309 39.5933702,12.3173923 39.9381215,11.5589392 L36.3244199,10.0146298 C36.3244199,10.0146298 36.0106077,11.8975028 35.8461878,12.5896575 C35.8170166,12.7134144 35.7772376,12.8150718 35.7241989,12.9017017 C35.4846409,13.3003757 34.9896133,13.3772818 34.1365746,13.7759558 C33.0979006,14.2612597 34.6156906,16.0186077 36.4313812,16.7072265" id="el_xJKT8_0Yw3V"/>
            <path d="M35.9071823,8.32048619 C35.9239779,10.8937459 35.9743646,12.1436906 36.8689503,13.2689945 C37.7635359,14.3951823 38.7314917,14.9733039 39.5385635,15.0387182 C40.5471823,15.1209282 42.1931492,13.4289945 42.5396685,12.369105 C42.8994475,11.2712044 43.5040884,8.41860773 43.4086188,5.59429834 C43.360884,4.16313812 41.9633149,2.31827624 40.3783425,2.18921547 C38.7933702,2.06103867 35.8665193,2.03363536 35.9071823,8.32048619" id="el_YLT2HaUlwxh"/>
            <path d="M43.5815249,9.6600663 C43.2986519,10.5749834 42.6798674,11.1964199 42.2007514,11.0479116 C41.7216354,10.8994033 41.5625193,10.0375249 41.8462762,9.12260773 C42.1291492,8.20769061 42.7470497,7.58625414 43.2261657,7.73476243 C43.7061657,7.88327072 43.8643978,8.74514917 43.5815249,9.6600663" id="el_pt0Gkza3Bxv"/>
            <path d="M36.6906519,8.24198895 C36.9797127,9.15513812 36.8267845,10.0179006 36.3485525,10.1699448 C35.8703204,10.321105 35.248,9.7040884 34.9589392,8.79093923 C34.6698785,7.87779006 34.8228066,7.01502762 35.3010387,6.86298343 C35.7792707,6.7118232 36.4015912,7.32883978 36.6906519,8.24198895" id="el_h1ZWTPZeTYa"/>
            <path d="M31.670453,89.6818122 C29.0795138,89.366232 26.8563094,88.5131934 26.8563094,90.1167293 C26.8563094,91.4780552 26.9818343,91.3702099 31.4255912,91.6937459 C34.0289061,91.8838011 36.1725525,91.8148508 36.2397348,91.2588287 C36.3078011,90.7036906 34.2613923,89.9973923 31.670453,89.6818122" id="el_cSwfbHmxvMS"/>
            <path d="M20.0921989,28.0047293 C19.9198232,28.8303646 20.4192707,29.6445083 21.2334144,29.8655028 C23.6092246,30.5313678 25.4286402,31.0239753 26.691661,31.3433254 C27.0433933,30.2721637 27.2854959,29.362517 27.7240149,28.0265795 C27.0846553,27.688095 26.1569229,27.1689884 24.9408177,26.4692597 C27.4309834,21.7647293 29.1954033,20.7835138 29.1954033,20.7835138 C28.8983867,26.6195359 23.7067845,39.7430718 23.366453,41.3077127 C22.9465635,43.2409724 22.6274475,44.817105 23.2957348,44.9567735 C25.4349613,45.4040663 30.4771713,45.6887072 34.9324199,46.414453 C38.1235801,46.934232 38.1439116,45.7426298 37.7036906,40.5068287 C37.0398232,32.6067182 39.1587182,29.3669392 40.7790497,26.6416354 C42.1748508,24.294674 41.8840221,22.0219669 41.8840221,22.0219669 L46.8820331,28.657105 C47.3478895,29.2316906 48.0135249,29.6073812 48.7463425,29.7099227 L61.2952928,31.096 C61.8230276,31.1702541 62.2924199,30.7547845 62.2844641,30.2217459 L62.2782762,29.8089282 C62.2720884,29.4190939 62.006011,29.0805304 61.6285525,28.9815249 L49.8035801,25.8663867 C49.8035801,25.8663867 46.4665635,20.4847293 44.888663,18.2703646 C44.2247956,17.3386519 42.9766188,14.6089282 40.5085525,14.1536796 C32.7313149,12.7172155 31.646674,12.2876022 29.3571713,14.4047293 C26.1421436,17.377547 20.8639116,24.3052818 20.0921989,28.0047293 Z" id="el_Fouzwh8yyqB"/>
            <path d="M37.9756022,44.3433812 C37.9756022,44.3433812 37.8783646,45.6251492 37.7192486,47.5964199 C37.7015691,47.7732155 37.6927293,47.9588508 37.6750497,48.153326 C37.1888619,54.1466961 36.2606851,65.3732155 35.8982541,67.9367514 C35.4032265,71.3842652 31.6993591,83.3444862 29.6043315,89.5676906 C29.4982541,89.8770829 29.2153812,90.0803978 28.8971492,90.071558 L27.6595801,90.0450387 C27.2352707,90.0361989 26.8993591,89.6649282 26.943558,89.2229392 C27.305989,85.0505635 29.9490829,71.552221 30.5767072,68.5997348 C31.142453,65.8947624 31.5402431,56.0207293 30.0905193,51.5566409 C29.8518453,50.8140994 28.7733923,50.8582983 28.5700773,51.6096796 C27.5623425,55.2516685 25.3258785,63.1809503 23.982232,66.6373039 C22.4175912,70.6417238 4.73803315,65.7268066 1.56455249,64.7986298 C1.36123757,64.7367514 1.2198011,64.5599558 1.20212155,64.3478011 L1.14024309,63.4549834 C1.11372376,63.1455912 1.36123757,62.8803978 1.66179006,62.9069171 C4.70267403,63.1632707 19.0319558,64.2240442 19.703779,61.4748729 C20.3137238,58.9555359 21.542453,51.6185193 22.2849945,47.0660331 L22.2849945,47.0571934 C22.3291934,46.8273591 22.3645525,46.6152044 22.3999116,46.4030497 C22.7004641,44.5290166 22.8949392,43.273768 22.8949392,43.273768 C22.8949392,43.273768 22.9568177,42.6284641 23.504884,42.6107845 L23.5756022,42.6107845 C23.6905193,42.6019448 23.8319558,42.593105 24.0264309,42.593105 C24.7689724,42.5842652 26.3512928,42.6373039 30.9214586,43.1146519 C33.5380331,43.3886851 35.2264309,43.5831602 36.2872044,43.7422762 C36.4463204,43.7599558 36.5965967,43.7864751 36.7291934,43.8041547 C37.745768,43.9809503 37.9932818,44.1312265 37.9756022,44.3433812" id="el_FJvlrbhl3fT"/>
            <g id="el_9e95SoHiNaa_dIZ2RKraO" data-animator-group="true" data-animator-type="1"><path d="M3.37555801,67.1036906 C2.78859669,64.5604862 1.87014365,62.6007072 1.32472928,62.726232 C0.779314917,62.8517569 0.189701657,63.2716464 1.3998674,67.5598232 C2.10970166,70.0712044 2.90528177,72.0628066 3.45069613,71.9372818 C3.9961105,71.8108729 3.96251934,69.646895 3.37555801,67.1036906" id="el_9e95SoHiNaa"/></g>
            <path d="M27.7412597,27.9518674 L26.0042431,27.0325304 L23.847337,30.5746298 L26.7149613,31.3525304 C27.0729724,30.2245746 27.4221436,29.0780552 27.7412597,27.9518674" id="el_Ye_GM8fYjg_"/>
            <path d="M42.4681547,10.3670718 C41.4294807,12.9880663 42.0677127,17.7774586 41.1713591,22.0214365 C40.2750055,26.2654144 33.5426298,33.0561326 27.7410829,28.2278453 C21.0741215,22.68 29.6239558,16.5292818 31.1841768,12.6061878 C32.936221,8.20132597 32.8884862,4.76176796 35.2186519,2.33790055 C37.4400884,0.0280662983 40.7426298,0.999558011 42.1180994,2.16464088 C44.9910276,4.59558011 43.3335691,8.18276243 42.4681547,10.3670718" id="el_746Gbc7ZeYF"/>
            <path d="M36.5701657,44.873768 C36.5701657,44.5024972 36.6232044,44.1400663 36.7292818,43.8041547 C36.5966851,43.7864751 36.4464088,43.7599558 36.2872928,43.7422762 C36.1812155,44.1047072 36.1281768,44.4848177 36.1281768,44.873768 C36.1281768,46.190895 36.7292818,47.3754254 37.6751381,48.153326 C37.6928177,47.9588508 37.7016575,47.7732155 37.719337,47.5964199 C37.0121547,46.9069171 36.5701657,45.9345414 36.5701657,44.873768" id="el_nNjnYw7shYu"/>
            <path d="M24.0265193,42.593105 C23.8320442,42.593105 23.6906077,42.6019448 23.5756906,42.6107845 C23.6552486,42.911337 23.6994475,43.2207293 23.6994475,43.5478011 C23.6994475,44.6881326 23.1955801,45.713547 22.4,46.4030497 C22.3646409,46.6152044 22.3292818,46.8273591 22.2850829,47.0571934 C23.4077348,46.2969724 24.1414365,45.0063646 24.1414365,43.5478011 C24.1414365,43.2207293 24.1060773,42.8936575 24.0265193,42.593105" id="el_66n3lGkZeSE"/>
        </g>
    </g>
<script>(function(){var a=document.querySelector('#el_hGXgw5m_96'),b=a.querySelectorAll('style'),c=function(d){b.forEach(function(f){var g=f.textContent;g&amp;&amp;(f.textContent=g.replace(/transform-box:[^;\r\n]*/gi,'transform-box: '+d))})};c('initial'),window.requestAnimationFrame(function(){return c('fill-box')})})();</script></svg>