<svg width="260px" height="260px" viewBox="0 0 260 360" version="1.1" xmlns="http://www.w3.org/2000/svg" xmlns:xlink="http://www.w3.org/1999/xlink" id="el_sj_FEwSjj">
    <style>
        @-webkit-keyframes el_Jz9MkcWZt6__sS6XIv5F_Animation{25%{-webkit-transform: rotate(0deg);transform: rotate(0deg);}50%{-webkit-transform: rotate(45deg);transform: rotate(45deg);}75%{-webkit-transform: rotate(45deg);transform: rotate(45deg);}100%{-webkit-transform: rotate(0deg);transform: rotate(0deg);}0%{-webkit-transform: rotate(0deg);transform: rotate(0deg);}}@keyframes el_Jz9MkcWZt6__sS6XIv5F_Animation{25%{-webkit-transform: rotate(0deg);transform: rotate(0deg);}50%{-webkit-transform: rotate(45deg);transform: rotate(45deg);}75%{-webkit-transform: rotate(45deg);transform: rotate(45deg);}100%{-webkit-transform: rotate(0deg);transform: rotate(0deg);}0%{-webkit-transform: rotate(0deg);transform: rotate(0deg);}}@-webkit-keyframes el_Jz9MkcWZt6_W91m80KUo_Animation{25%{-webkit-transform: scale(1, 1);transform: scale(1, 1);}35.42%{-webkit-transform: scale(1.05, 0.9);transform: scale(1.05, 0.9);}50%{-webkit-transform: scale(1, 1);transform: scale(1, 1);}75%{-webkit-transform: scale(1, 1);transform: scale(1, 1);}85.42%{-webkit-transform: scale(1.05, 0.9);transform: scale(1.05, 0.9);}100%{-webkit-transform: scale(1, 1);transform: scale(1, 1);}0%{-webkit-transform: scale(1, 1);transform: scale(1, 1);}}@keyframes el_Jz9MkcWZt6_W91m80KUo_Animation{25%{-webkit-transform: scale(1, 1);transform: scale(1, 1);}35.42%{-webkit-transform: scale(1.05, 0.9);transform: scale(1.05, 0.9);}50%{-webkit-transform: scale(1, 1);transform: scale(1, 1);}75%{-webkit-transform: scale(1, 1);transform: scale(1, 1);}85.42%{-webkit-transform: scale(1.05, 0.9);transform: scale(1.05, 0.9);}100%{-webkit-transform: scale(1, 1);transform: scale(1, 1);}0%{-webkit-transform: scale(1, 1);transform: scale(1, 1);}}@-webkit-keyframes el_Jz9MkcWZt6_WdMRfIUUx_Animation{0%{-webkit-transform: translate(0px, 0px);transform: translate(0px, 0px);}25%{-webkit-transform: translate(0px, 100px);transform: translate(0px, 100px);}50%{-webkit-transform: translate(0px, 0px);transform: translate(0px, 0px);}75%{-webkit-transform: translate(0px, 100px);transform: translate(0px, 100px);}100%{-webkit-transform: translate(0px, 0px);transform: translate(0px, 0px);}}@keyframes el_Jz9MkcWZt6_WdMRfIUUx_Animation{0%{-webkit-transform: translate(0px, 0px);transform: translate(0px, 0px);}25%{-webkit-transform: translate(0px, 100px);transform: translate(0px, 100px);}50%{-webkit-transform: translate(0px, 0px);transform: translate(0px, 0px);}75%{-webkit-transform: translate(0px, 100px);transform: translate(0px, 100px);}100%{-webkit-transform: translate(0px, 0px);transform: translate(0px, 0px);}}#el_sj_FEwSjj *{-webkit-animation-duration: 1.6s;animation-duration: 1.6s;-webkit-animation-iteration-count: infinite;animation-iteration-count: infinite;-webkit-animation-timing-function: cubic-bezier(0, 0, 1, 1);animation-timing-function: cubic-bezier(0, 0, 1, 1);}#el_Jz9MkcWZt6{stroke: none;stroke-width: 1;fill: none;}#el_RWBveZTgl7{-webkit-transform: translate(8px, 8px);transform: translate(8px, 8px);}#el_xbcUuVKFWf{fill: #DE030E;}#el_fzsQ-RdYrk{fill: #791010;}#el_2wlj7BCEWs{fill: #FFFFFF;}#el_1d4NwxenwU{fill: #423F40;}#el_WzCF5ncf0o{fill: #FFFFFF;}#el_Jr-kOFiAAg{fill: #FFFFFF;}#el_0zvAH6oJ3H{fill: #423F40;}#el_OspwOCnuCP{fill: #FFFFFF;}#el_CaQwbi8dWs{fill: #FFFFFF;}#el_a4EiSPeUn6{fill: #565757;}#el_Jz9MkcWZt6_WdMRfIUUx{-webkit-animation-name: el_Jz9MkcWZt6_WdMRfIUUx_Animation;animation-name: el_Jz9MkcWZt6_WdMRfIUUx_Animation;-webkit-transform-origin: 50% 50%;transform-origin: 50% 50%;transform-box: fill-box;-webkit-transform: translate(0px, 0px);transform: translate(0px, 0px);}#el_Jz9MkcWZt6__sS6XIv5F{-webkit-transform-origin: 50% 50%;transform-origin: 50% 50%;transform-box: fill-box;-webkit-transform: rotate(0deg);transform: rotate(0deg);-webkit-animation-name: el_Jz9MkcWZt6__sS6XIv5F_Animation;animation-name: el_Jz9MkcWZt6__sS6XIv5F_Animation;-webkit-animation-timing-function: cubic-bezier(0, 0, 0.58, 1);animation-timing-function: cubic-bezier(0, 0, 0.58, 1);}#el_Jz9MkcWZt6_W91m80KUo{-webkit-animation-name: el_Jz9MkcWZt6_W91m80KUo_Animation;animation-name: el_Jz9MkcWZt6_W91m80KUo_Animation;-webkit-transform-origin: 50% 50%;transform-origin: 50% 50%;transform-box: fill-box;-webkit-transform: scale(1, 1);transform: scale(1, 1);}
    </style>
    <title>
        Favicon
    </title>
    <desc>
        Created with Sketch.
    </desc>
    <defs/>
    <g id="el_Jz9MkcWZt6_WdMRfIUUx" data-animator-group="true" data-animator-type="0">
        <g id="el_Jz9MkcWZt6__sS6XIv5F" data-animator-group="true" data-animator-type="1">
            <g id="el_Jz9MkcWZt6_W91m80KUo" data-animator-group="true" data-animator-type="2">
                <g id="el_Jz9MkcWZt6" fill-rule="evenodd">
                    <g id="el_RWBveZTgl7">
                        <path d="M122.020364,244 C189.445168,244 244,189.390767 244,122.030553 C244,54.6499708 189.445168,0 122.020364,0 C54.5548322,0 0,54.6499708 0,122.030553 C0,189.390767 54.5548322,244 122.020364,244" id="el_xbcUuVKFWf"/>
                        <path d="M121,235.97863 C121,235.97863 158.949949,237.513077 191.061445,214.577133 C221.904587,192.529554 236.923506,145.910633 236.923506,145.910633 C236.923506,145.910633 240.426578,121.682524 238.332788,100.442548 C237.306025,89.8629405 222.951482,45.5053104 206.402486,49.2202871 C173.968868,56.4281497 200.543899,94.6076119 204.409358,121.743094 C208.214419,148.918957 200.24191,186.250435 182.726549,206.400146 C165.15079,226.529667 121,235.97863 121,235.97863" id="el_fzsQ-RdYrk"/>
                        <path d="M58.070069,121.708174 C62.0174772,151.497611 53.0460949,177.054557 37.8264086,178.897412 C22.564504,180.720015 6.94374416,158.038731 2.95411765,128.269546 C-1.05661798,98.5003606 7.9358735,72.8826604 23.1977781,71.1005596 C38.3963552,69.2982075 53.9960059,91.9389892 58.070069,121.708174" id="el_2wlj7BCEWs"/>
                        <path d="M50.2453944,122.785593 C53.3944533,147.278143 46.3987591,168.364984 34.6396149,169.914887 C22.8804707,171.424003 10.8821575,152.68241 7.73309852,128.210254 C4.62390107,103.676918 11.6993183,82.5696831 23.3787395,81.0809602 C35.0980222,79.6126309 47.1760584,98.2930434 50.2453944,122.785593" id="el_1d4NwxenwU"/>
                        <path d="M21.8472694,102.027288 C22.5024093,106.712383 20.998014,110.731152 18.3289258,110.981024 C15.635573,111.293364 12.8451625,107.711869 12.1414938,103.047598 C11.5106184,98.341681 13.039278,94.3020887 15.7326308,94.0105717 C18.3774546,93.7815227 21.1921296,97.300549 21.8472694,102.027288" id="el_WzCF5ncf0o"/>
                        <path d="M207.806709,47.8069999 C227.93763,70.6412288 234.992763,96.5481375 223.448001,105.78626 C211.965307,114.923968 186.310278,103.918553 166.179357,81.1044067 C146.027746,58.3304264 139.034682,32.3833519 150.538066,23.2456437 C162.062139,14.047687 187.717167,25.0731854 207.806709,47.8069999" id="el_Jr-kOFiAAg"/>
                        <path d="M202.842499,42.1923649 C218.23594,60.4031193 223.54539,81.0916645 214.768949,88.4041688 C205.972697,95.7569624 186.4783,86.9537548 171.104671,68.7631449 C155.790475,50.632969 150.441403,29.9444238 159.237655,22.5714856 C168.014095,15.2589813 187.567926,24.0823336 202.842499,42.1923649" id="el_0zvAH6oJ3H"/>
                        <path d="M183.964992,31.680535 C186.825279,35.5219512 187.895314,39.8818406 186.166796,41.4608276 C184.602897,42.9926807 180.837196,41.154457 177.976908,37.2894739 C175.116621,33.4951917 174.149474,29.0881683 175.81626,27.5563153 C177.462468,25.9773283 181.104704,27.8862528 183.964992,31.680535" id="el_OspwOCnuCP"/>
                        <path d="M38.4672479,197.290088 C38.4672479,197.290088 33.2982026,205.192541 42.3642234,206.318539 C50.5821977,207.280754 112.20691,210.576855 159.192724,185.293099 C206.117963,160.050287 232.48817,128.624727 232.48817,128.624727 C232.48817,128.624727 237.737982,117.467118 228.671961,118.01988" id="el_CaQwbi8dWs"/>
                        <path d="M49,197 C49,197 228.178062,123.688083 229.995079,122.497496 C231.731339,121.327088 236.53634,119.551297 235.950856,123.082699 C235.385562,126.593923 221.556044,141.244198 221.556044,141.244198 C221.556044,141.244198 235.385562,124.838311 227.592578,127.158947 C219.779405,129.540121 49,197 49,197" id="el_a4EiSPeUn6"/>
                    </g>
                </g>
            </g>
        </g>
    </g>
    <script>
        (function(){var a=document.querySelector('#el_sj_FEwSjj'),b=a.querySelectorAll('style'),c=function(d){b.forEach(function(f){var g=f.textContent;g&amp;&amp;(f.textContent=g.replace(/transform-box:[^;\r\n]*/gi,'transform-box: '+d))})};c('initial'),window.requestAnimationFrame(function(){return c('fill-box')})})();
    </script>
</svg>