<?xml version="1.0" encoding="UTF-8"?>
<svg width="127px" height="30px" viewBox="0 0 127 30" version="1.1" xmlns="http://www.w3.org/2000/svg" xmlns:xlink="http://www.w3.org/1999/xlink">
    <!-- Generator: Sketch 49 (51002) - http://www.bohemiancoding.com/sketch -->
    <title>logoTech</title>
    <desc>Created with Sketch.</desc>
    <defs>
        <polygon id="path-1" points="0 29.683125 126.275625 29.683125 126.275625 0 0 0"></polygon>
    </defs>
    <g id="final" stroke="none" stroke-width="1" fill="none" fill-rule="evenodd">
        <g id="logoTech">
            <path d="M72.308375,19.3364375 L74.564,19.3364375 C76.50025,19.3364375 77.884625,17.8439375 77.884625,15.6595625 C77.884625,13.4583125 76.428375,11.9489375 74.4215,11.9489375 L72.308375,11.9489375 L72.308375,19.3364375 Z M74.493375,9.4264375 C78.399625,9.4264375 81.099625,11.9489375 81.099625,15.6426875 C81.099625,19.3195625 78.36525,21.8576875 74.369,21.8576875 L69.1465,21.8576875 L69.1465,9.4264375 L74.493375,9.4264375 Z" id="Fill-1" fill="#1E1210"></path>
            <path d="M88.8244375,16.246875 C88.8244375,15.074375 88.0775625,14.31 86.9775625,14.31 C85.9119375,14.31 85.1819375,15.09125 84.9875625,16.246875 L88.8244375,16.246875 Z M91.7725625,17.89875 L85.0400625,17.89875 C85.3419375,19.035 86.1594375,19.673125 87.2963125,19.673125 C88.1300625,19.673125 88.9475625,19.33625 89.5875625,18.696875 L91.2050625,20.2775 C90.2281875,21.343125 88.7875625,21.965 87.0300625,21.965 C83.9050625,21.965 81.9519375,20.011875 81.9519375,17.099375 C81.9519375,14.133125 83.9744375,12.18 86.9419375,12.18 C90.3163125,12.18 91.9850625,14.39875 91.7725625,17.89875 Z" id="Fill-3" fill="#1E1210"></path>
            <path d="M100.430938,13.236 L99.3834375,15.225375 C98.2290625,14.6035 97.1628125,14.266 96.3646875,14.266 C95.8140625,14.266 95.4234375,14.479125 95.4234375,14.922875 C95.4234375,16.23725 100.466563,15.597875 100.447813,18.93725 C100.447813,20.907875 98.7265625,21.991625 96.4184375,21.991625 C94.8190625,21.991625 93.2753125,21.52975 92.1190625,20.642875 L93.0959375,18.6885 C94.1809375,19.451 95.4234375,19.879125 96.4890625,19.879125 C97.0921875,19.879125 97.5365625,19.665375 97.5365625,19.221625 C97.5365625,17.817875 92.5815625,18.546 92.6003125,15.189125 C92.6003125,13.2185 94.2678125,12.15225 96.4890625,12.15225 C97.8734375,12.15225 99.2603125,12.542875 100.430938,13.236" id="Fill-5" fill="#1E1210"></path>
            <mask id="mask-2" fill="white">
                <use xlink:href="#path-1"></use>
            </mask>
            <g id="Clip-8"></g>
            <polygon id="Fill-7" fill="#1E1210" mask="url(#mask-2)" points="101.2975 21.866875 104.351875 21.866875 104.351875 12.29375 101.2975 12.29375"></polygon>
            <path d="M112.084937,16.7961875 C112.084937,15.3943125 111.284312,14.4524375 110.094938,14.4524375 C108.886813,14.4524375 108.069937,15.4111875 108.069937,16.7961875 C108.069937,18.1643125 108.886813,19.1236875 110.094938,19.1236875 C111.284312,19.1236875 112.084937,18.1643125 112.084937,16.7961875 Z M115.138062,20.9886875 C115.138062,23.7061875 113.043062,25.4280625 109.953688,25.4280625 C108.282438,25.4280625 106.773688,24.8955625 105.691187,24.1674375 L106.756812,22.0899375 C107.625563,22.6936875 108.691187,23.0480625 109.721812,23.0480625 C111.194937,23.0480625 112.084937,22.2668125 112.084937,21.0774375 L112.084937,20.0649375 C111.463687,20.8818125 110.521187,21.3430625 109.331187,21.3430625 C106.916187,21.3430625 105.212437,19.4968125 105.212437,16.7080625 C105.212437,13.9899375 106.861812,12.1799375 109.259313,12.1799375 C110.485563,12.1611875 111.444312,12.6230625 112.084937,13.4580625 L112.084937,12.2855625 L115.138062,12.2855625 L115.138062,20.9886875 Z" id="Fill-9" fill="#1E1210" mask="url(#mask-2)"></path>
            <path d="M125.758062,15.819625 L125.758062,21.85775 L122.702437,21.85775 L122.702437,16.672125 C122.702437,15.554 122.046188,14.860875 121.015563,14.860875 C119.897437,14.860875 119.186812,15.659625 119.063687,16.795875 L119.063687,21.85775 L115.989937,21.85775 L115.989937,12.285875 L119.063687,12.285875 L119.063687,13.849 C119.737437,12.73025 120.838687,12.160875 122.259312,12.144 C124.371187,12.144 125.758062,13.582125 125.758062,15.819625" id="Fill-10" fill="#1E1210" mask="url(#mask-2)"></path>
            <path d="M71.3989375,28.928125 C71.3989375,29.1775 71.4101875,29.42125 71.4401875,29.616875 L70.9714375,29.616875 L70.9226875,29.254375 L70.9045625,29.254375 C70.7508125,29.48 70.4345625,29.683125 70.0258125,29.683125 C69.4433125,29.683125 69.1476875,29.27375 69.1476875,28.856875 C69.1476875,28.161875 69.7645625,27.781875 70.8751875,27.7875 L70.8751875,27.729375 C70.8751875,27.490625 70.8108125,27.05875 70.2208125,27.06375 C69.9501875,27.06375 69.6701875,27.14 69.4676875,27.276875 L69.3483125,26.926875 C69.5864375,26.77875 69.9376875,26.676875 70.3001875,26.676875 C71.1839375,26.676875 71.3989375,27.276875 71.3989375,27.85375 L71.3989375,28.928125 Z M70.8876875,28.151875 C70.3176875,28.13875 69.6701875,28.239375 69.6701875,28.7975 C69.6701875,29.1425 69.8951875,29.29625 70.1564375,29.29625 C70.5358125,29.29625 70.7814375,29.059375 70.8633125,28.815 C70.8801875,28.761875 70.8876875,28.704375 70.8876875,28.649375 L70.8876875,28.151875 Z" id="Fill-11" fill="#CDCDCE" mask="url(#mask-2)"></path>
            <path d="M75.7849375,29.0880625 C75.9474375,29.1836875 76.2180625,29.2905625 76.4793125,29.2905625 C76.8543125,29.2905625 77.0336875,29.1049375 77.0336875,28.8636875 C77.0336875,28.6136875 76.8836875,28.4768125 76.5049375,28.3336875 C75.9824375,28.1443125 75.7386875,27.8661875 75.7386875,27.5218125 C75.7386875,27.0586875 76.1180625,26.6774375 76.7299375,26.6774375 C77.0218125,26.6774375 77.2768125,26.7549375 77.4305625,26.8555625 L77.3061875,27.2286875 C77.1924375,27.1655625 76.9849375,27.0649375 76.7199375,27.0649375 C76.4099375,27.0649375 76.2424375,27.2418125 76.2424375,27.4555625 C76.2424375,27.6986875 76.4099375,27.8055625 76.7836875,27.9486875 C77.2768125,28.1318125 77.5393125,28.3824375 77.5393125,28.8155625 C77.5393125,29.3261875 77.1399375,29.6818125 76.4686875,29.6818125 C76.1536875,29.6818125 75.8630625,29.5993125 75.6618125,29.4799375 L75.7849375,29.0880625 Z" id="Fill-12" fill="#CDCDCE" mask="url(#mask-2)"></path>
            <path d="M81.7590625,29.0880625 C81.9203125,29.1836875 82.1921875,29.2905625 82.4534375,29.2905625 C82.8284375,29.2905625 83.0078125,29.1049375 83.0078125,28.8636875 C83.0078125,28.6136875 82.8578125,28.4768125 82.4765625,28.3336875 C81.9540625,28.1443125 81.7115625,27.8661875 81.7115625,27.5218125 C81.7115625,27.0586875 82.0921875,26.6774375 82.7028125,26.6774375 C82.9934375,26.6774375 83.2484375,26.7549375 83.4034375,26.8555625 L83.2803125,27.2286875 C83.1653125,27.1655625 82.9590625,27.0649375 82.6915625,27.0649375 C82.3828125,27.0649375 82.2153125,27.2418125 82.2153125,27.4555625 C82.2153125,27.6986875 82.3828125,27.8055625 82.7578125,27.9486875 C83.2484375,28.1318125 83.5109375,28.3824375 83.5109375,28.8155625 C83.5109375,29.3261875 83.1128125,29.6818125 82.4428125,29.6818125 C82.1290625,29.6818125 81.8371875,29.5993125 81.6346875,29.4799375 L81.7590625,29.0880625 Z" id="Fill-13" fill="#CDCDCE" mask="url(#mask-2)"></path>
            <path d="M88.974625,29.6819375 C88.202125,29.6819375 87.5965,29.1125625 87.5965,28.2050625 C87.5965,27.2419375 88.2315,26.6769375 89.020875,26.6769375 C89.847125,26.6769375 90.404,27.2769375 90.404,28.1519375 C90.404,29.2188125 89.663375,29.6819375 88.979625,29.6819375 L88.974625,29.6819375 Z M88.99025,29.2906875 C89.490875,29.2906875 89.864625,28.8219375 89.864625,28.1669375 C89.864625,27.6819375 89.6215,27.0688125 89.004,27.0688125 C88.392125,27.0688125 88.12525,27.6400625 88.12525,28.1856875 C88.12525,28.8150625 88.4815,29.2906875 88.985875,29.2906875 L88.99025,29.2906875 Z" id="Fill-14" fill="#CDCDCE" mask="url(#mask-2)"></path>
            <path d="M96.74075,29.5165 C96.603875,29.582125 96.301375,29.683375 95.9145,29.683375 C95.047625,29.683375 94.483875,29.094 94.483875,28.209 C94.483875,27.32525 95.088875,26.677125 96.027625,26.677125 C96.33575,26.677125 96.610125,26.754625 96.751375,26.832125 L96.63325,27.230875 C96.508875,27.16525 96.31325,27.09275 96.027625,27.09275 C95.368875,27.09275 95.01075,27.585875 95.01075,28.185875 C95.01075,28.85275 95.44075,29.26025 96.0095,29.26025 C96.307625,29.26025 96.502625,29.190875 96.651375,29.12525 L96.74075,29.5165 Z" id="Fill-15" fill="#CDCDCE" mask="url(#mask-2)"></path>
            <path d="M101.223125,26.2145 C101.026875,26.2145 100.8975,26.06075 100.8975,25.87575 C100.8975,25.692 101.03375,25.54325 101.235625,25.54325 C101.436875,25.54325 101.5675,25.692 101.5675,25.87575 C101.5675,26.06075 101.436875,26.2145 101.228125,26.2145 L101.223125,26.2145 Z M100.974375,29.617 L101.495625,29.617 L101.495625,26.74325 L100.974375,26.74325 L100.974375,29.617 Z" id="Fill-16" fill="#CDCDCE" mask="url(#mask-2)"></path>
            <path d="M108.009062,28.928125 C108.009062,29.1775 108.022187,29.42125 108.051563,29.616875 L107.582813,29.616875 L107.534063,29.254375 L107.515938,29.254375 C107.363438,29.48 107.048437,29.683125 106.637187,29.683125 C106.055937,29.683125 105.759062,29.27375 105.759062,28.856875 C105.759062,28.161875 106.377188,27.781875 107.486562,27.7875 L107.486562,27.729375 C107.486562,27.490625 107.422188,27.05875 106.835937,27.06375 C106.561562,27.06375 106.281562,27.14 106.080312,27.276875 L105.960938,26.926875 C106.199062,26.77875 106.550312,26.676875 106.911563,26.676875 C107.796562,26.676875 108.009062,27.276875 108.009062,27.85375 L108.009062,28.928125 Z M107.500313,28.151875 C106.929688,28.13875 106.281562,28.239375 106.281562,28.7975 C106.281562,29.1425 106.507812,29.29625 106.770313,29.29625 C107.148437,29.29625 107.392813,29.059375 107.474688,28.815 C107.494062,28.761875 107.500313,28.704375 107.500313,28.649375 L107.500313,28.151875 Z" id="Fill-17" fill="#CDCDCE" mask="url(#mask-2)"></path>
            <path d="M113.074938,26.054 L113.074938,26.74275 L113.824313,26.74275 L113.824313,27.140875 L113.074938,27.140875 L113.074938,28.69025 C113.074938,29.04775 113.176187,29.249625 113.466813,29.249625 C113.610563,29.249625 113.692437,29.23775 113.770562,29.214 L113.793688,29.6115 C113.692437,29.6465 113.531187,29.683375 113.329937,29.683375 C113.088062,29.683375 112.891813,29.599625 112.767438,29.4615 C112.624313,29.302125 112.564937,29.04775 112.564937,28.709625 L112.564937,27.140875 L112.119313,27.140875 L112.119313,26.74275 L112.564937,26.74275 L112.564937,26.214625 L113.074938,26.054 Z" id="Fill-18" fill="#CDCDCE" mask="url(#mask-2)"></path>
            <path d="M118.295875,28.268375 C118.309,28.9765 118.7515,29.2665 119.274625,29.2665 C119.649625,29.2665 119.8815,29.2015 120.070875,29.12525 L120.165875,29.492125 C119.9815,29.57525 119.663375,29.677125 119.20525,29.677125 C118.3265,29.677125 117.7915,29.08775 117.7915,28.227125 C117.7915,27.355875 118.309,26.670875 119.14525,26.670875 C120.084,26.670875 120.325875,27.4965 120.325875,28.025875 C120.325875,28.1315 120.319625,28.214 120.309,28.275875 L118.295875,28.268375 Z M119.8215,27.89525 C119.8265,27.568375 119.6865,27.047125 119.10275,27.047125 C118.568375,27.047125 118.343375,27.53275 118.302125,27.89525 L119.8215,27.89525 Z" id="Fill-19" fill="#CDCDCE" mask="url(#mask-2)"></path>
            <path d="M124.523938,29.0880625 C124.683938,29.1836875 124.957063,29.2905625 125.218313,29.2905625 C125.593313,29.2905625 125.771438,29.1049375 125.771438,28.8636875 C125.771438,28.6136875 125.623938,28.4768125 125.243938,28.3336875 C124.718938,28.1443125 124.476438,27.8661875 124.476438,27.5218125 C124.476438,27.0586875 124.855813,26.6774375 125.468938,26.6774375 C125.759563,26.6774375 126.015813,26.7549375 126.169563,26.8555625 L126.043938,27.2286875 C125.932688,27.1655625 125.722688,27.0649375 125.456438,27.0649375 C125.147688,27.0649375 124.980187,27.2418125 124.980187,27.4555625 C124.980187,27.6986875 125.147688,27.8055625 125.521438,27.9486875 C126.015813,28.1318125 126.275813,28.3824375 126.275813,28.8155625 C126.275813,29.3261875 125.877688,29.6818125 125.207688,29.6818125 C124.892688,29.6818125 124.600813,29.5993125 124.399563,29.4799375 L124.523938,29.0880625 Z" id="Fill-20" fill="#CDCDCE" mask="url(#mask-2)"></path>
            <path d="M51.9595625,25.8733125 C48.9089375,23.2858125 48.6383125,20.3883125 51.1451875,17.1783125 C51.4933125,16.7020625 52.3426875,15.9851875 53.6939375,15.0314375 L56.3514375,18.1539375 C57.6226875,19.6064375 58.8614375,21.0770625 60.0689375,22.5664375 L60.0908125,22.5995625 C57.7495625,26.3145625 55.0395625,27.4045625 51.9595625,25.8733125 M51.9926875,4.7101875 C52.3376875,3.6251875 53.2608125,3.0114375 54.7576875,2.8664375 C56.1589375,2.9739375 57.1070625,3.6251875 57.5970625,4.8183125 C58.2426875,6.3351875 57.9276875,7.8170625 56.6545625,9.2626875 C56.2920625,9.7045625 55.6789375,10.1983125 54.8101875,10.7489375 L53.5108125,9.2626875 L53.3683125,9.1220625 C51.9520625,7.7051875 51.4933125,6.2351875 51.9926875,4.7101875 M64.1358125,21.9483125 C64.7558125,20.6108125 65.1439375,19.5995625 65.2951875,18.9126875 L65.9776875,15.7914375 L62.6714375,15.1945625 L62.4001875,16.9076875 L62.0439375,18.1539375 L61.6970625,19.1295625 L60.9039375,18.1539375 L58.8433125,15.6276875 L56.6545625,12.9495625 C59.7833125,10.8095625 61.2833125,8.6851875 61.1551875,6.5751875 C61.0901875,3.5533125 59.7051875,1.4870625 57.0020625,0.3726875 C55.1014375,-0.2335625 53.2489375,-0.1004375 51.4495625,0.7745625 L51.4176875,0.8070625 L51.2870625,0.8814375 C49.6326875,2.0314375 48.6820625,3.3439375 48.4351875,4.8183125 C48.1326875,6.4439375 48.3670625,7.9258125 49.1420625,9.2626875 C49.5170625,10.0876875 50.3764375,11.2139375 51.7214375,12.6470625 L51.7420625,12.7870625 L50.2789375,13.7083125 C48.3058125,15.1183125 46.9964375,16.6001875 46.3539375,18.1539375 C45.7095625,19.8514375 45.5201875,21.3339375 45.7776875,22.5995625 C46.0901875,24.4420625 46.7945625,25.9239375 47.8920625,27.0433125 C48.9845625,28.2808125 50.2858125,29.1008125 51.7958125,29.5051875 C55.5851875,30.0539375 58.4501875,29.3308125 60.3945625,27.3376875 L60.6889375,27.0433125 C61.0576875,26.7551875 61.5970625,26.1401875 62.3145625,25.2014375 L64.1358125,27.0433125 L65.3808125,28.0964375 L66.3583125,28.7464375 L66.4883125,28.6926875 L68.2764375,25.9058125 C67.3533125,25.3783125 65.9701875,24.0589375 64.1358125,21.9483125" id="Fill-21" fill="#F2A117" mask="url(#mask-2)"></path>
            <path d="M51.293,0.876375 C49.63925,2.027 48.688,3.33825 48.44175,4.81325 C48.137375,6.438875 48.373,7.92075 49.14675,9.2595 C49.52175,10.081375 50.382375,11.208875 51.727375,12.642 L51.74925,12.782625 L48.06175,13.487625 C45.358,10.86325 44.347375,8.351375 45.026125,5.952625 C45.61925,3.738875 47.708,2.04825 51.293,0.876375" id="Fill-22" fill="#E58B00" mask="url(#mask-2)"></path>
            <path d="M57.602875,4.813125 C57.111,3.620625 56.1635,2.969375 54.761,2.86125 C53.266,3.005625 52.345375,3.620625 51.99725,4.705 C53.55975,5.506875 54.017875,6.9775 53.375375,9.116875 L53.51725,9.259375 L54.81725,10.74375 C55.684125,10.195 56.299125,9.699375 56.660375,9.259375 C57.93225,7.8125 58.246,6.33 57.602875,4.813125" id="Fill-23" fill="#CF8100" mask="url(#mask-2)"></path>
            <path d="M48.0618125,13.4874375 L51.7486875,12.7824375 L50.2836875,13.7036875 C48.3118125,15.1149375 47.0024375,16.5955625 46.3586875,18.1493125 C45.7168125,19.8480625 45.5243125,21.3293125 45.7861875,22.5936875 C46.0955625,24.4380625 46.8018125,25.9193125 47.8993125,27.0399375 C48.9905625,28.2755625 50.2918125,29.0955625 51.8030625,29.4999375 C46.6493125,29.2399375 43.5686875,27.0468125 42.5649375,22.9199375 C41.8118125,19.1605625 43.6455625,16.0180625 48.0618125,13.4874375" id="Fill-24" fill="#CF8100" mask="url(#mask-2)"></path>
            <path d="M56.35775,18.1493125 L53.699,15.0268125 C52.35025,15.9799375 51.498375,16.6955625 51.154,17.1730625 L55.739,22.4849375 L60.075875,22.5611875 C58.86775,21.0724375 57.628375,19.6018125 56.35775,18.1493125" id="Fill-25" fill="#CF8100" mask="url(#mask-2)"></path>
            <polygon id="Fill-26" fill="#E58B00" mask="url(#mask-2)" points="62.6785 15.189125 58.850375 15.6235 60.90975 18.149125 61.701 19.126 62.04725 18.149125 62.406 16.901"></polygon>
            <path d="M60.076,22.5609375 L55.739125,22.4853125 C55.262875,23.7440625 54.005375,24.8715625 51.964125,25.8684375 C55.042875,27.4009375 57.752875,26.3096875 60.097875,22.5940625 L60.076,22.5609375 Z" id="Fill-27" fill="#E58B00" mask="url(#mask-2)"></path>
            <path d="M64.1381875,27.0396875 L62.3181875,25.1959375 C61.6044375,26.1365625 61.0638125,26.7496875 60.6938125,27.0396875 L60.3994375,27.3328125 L61.5606875,28.1446875 L66.3650625,28.7428125 L65.3869375,28.0921875 L64.1381875,27.0396875 Z" id="Fill-28" fill="#CF8100" mask="url(#mask-2)"></path>
            <path d="M102.824688,11.1333125 C104.894063,11.1333125 106.568438,9.4576875 106.568438,7.3908125 C106.568438,5.3233125 104.894063,3.6464375 102.824688,3.6464375 C100.754063,3.6464375 99.0796875,5.3233125 99.0796875,7.3908125 C99.0796875,9.4576875 100.754063,11.1333125 102.824688,11.1333125" id="Fill-29" fill="#DE030E" mask="url(#mask-2)"></path>
            <path d="M102.76975,10.959375 C102.76975,10.959375 103.947875,11.006875 104.94475,10.296875 C105.90225,9.614375 106.3685,8.17125 106.3685,8.17125 C106.3685,8.17125 106.47725,7.42125 106.41225,6.76375 C106.380375,6.43625 105.93475,5.063125 105.421,5.178125 C104.414125,5.40125 105.239125,6.583125 105.359125,7.423125 C105.47725,8.264375 105.22975,9.42 104.686,10.04375 C104.140375,10.666875 102.76975,10.959375 102.76975,10.959375" id="Fill-30" fill="#791010" mask="url(#mask-2)"></path>
            <path d="M100.87525,7.3998125 C100.992125,8.3191875 100.7265,9.1079375 100.275875,9.1648125 C99.824,9.2210625 99.3615,8.5210625 99.243375,7.6023125 C99.124625,6.6835625 99.390875,5.8929375 99.84275,5.8379375 C100.29275,5.7823125 100.754625,6.4810625 100.87525,7.3998125" id="Fill-31" fill="#FFFFFF" mask="url(#mask-2)"></path>
            <path d="M100.60425,7.42425 C100.703,8.174875 100.483625,8.821125 100.114875,8.868625 C99.746125,8.914875 99.369875,8.3405 99.271125,7.5905 C99.173625,6.838625 99.3955,6.19175 99.76175,6.146125 C100.12925,6.101125 100.508,6.673625 100.60425,7.42425" id="Fill-32" fill="#423F40" mask="url(#mask-2)"></path>
            <path d="M99.6985,6.772375 C99.715375,6.913 99.676625,7.033625 99.607875,7.041125 C99.5385,7.0505 99.466625,6.943 99.4485,6.803 C99.43225,6.66175 99.471625,6.5405 99.541,6.53175 C99.609125,6.524875 99.681625,6.6305 99.6985,6.772375" id="Fill-33" fill="#FFFFFF" mask="url(#mask-2)"></path>
            <path d="M105.43825,5.04875 C106.046375,5.759375 106.2595,6.565625 105.91075,6.853125 C105.563875,7.1375 104.788875,6.795 104.18075,6.085 C103.572,5.37625 103.36075,4.56875 103.70825,4.284375 C104.056375,3.998125 104.831375,4.34125 105.43825,5.04875" id="Fill-34" fill="#FFFFFF" mask="url(#mask-2)"></path>
            <path d="M105.31375,4.9351875 C105.799375,5.5001875 105.966875,6.1420625 105.69,6.3689375 C105.4125,6.5970625 104.7975,6.3239375 104.3125,5.7595625 C103.829375,5.1970625 103.660625,4.5551875 103.938125,4.3264375 C104.215,4.0995625 104.831875,4.3733125 105.31375,4.9351875" id="Fill-35" fill="#423F40" mask="url(#mask-2)"></path>
            <path d="M104.74,4.58975 C104.826875,4.691625 104.859375,4.80725 104.806875,4.849125 C104.759375,4.88975 104.645,4.841 104.558125,4.7385 C104.47125,4.637875 104.441875,4.521 104.4925,4.480375 C104.5425,4.4385 104.653125,4.489125 104.74,4.58975" id="Fill-36" fill="#FFFFFF" mask="url(#mask-2)"></path>
            <path d="M100.3125,9.7014375 C100.3125,9.7014375 100.1525,9.9426875 100.433125,9.9770625 C100.6875,10.0064375 102.595,10.1070625 104.049375,9.3351875 C105.501875,8.5645625 106.318125,7.6051875 106.318125,7.6051875 C106.318125,7.6051875 106.480625,7.2645625 106.2,7.2814375" id="Fill-37" fill="#FFFFFF" mask="url(#mask-2)"></path>
            <path d="M100.560312,9.6703125 C100.560312,9.6703125 106.107187,7.3996875 106.163438,7.3628125 C106.217187,7.3265625 106.365937,7.2715625 106.347812,7.3809375 C106.330312,7.4896875 105.902187,7.9434375 105.902187,7.9434375 C105.902187,7.9434375 106.330312,7.4353125 106.089062,7.5071875 C105.847188,7.5809375 100.560312,9.6703125 100.560312,9.6703125" id="Fill-38" fill="#565757" mask="url(#mask-2)"></path>
            <polygon id="Fill-39" fill="#1E1210" mask="url(#mask-2)" points="6.849375 11.8840625 6.849375 21.7403125 3.69875 21.7403125 3.69875 11.8840625 0 11.8840625 0 9.3359375 10.5825 9.3359375 10.5825 11.8840625"></polygon>
            <path d="M16.1575625,16.1498125 C16.1575625,14.9810625 15.4144375,14.2198125 14.3181875,14.2198125 C13.2556875,14.2198125 12.5306875,14.9991875 12.3356875,16.1498125 L16.1575625,16.1498125 Z M19.0956875,17.7954375 L12.3894375,17.7954375 C12.6894375,18.9273125 13.5038125,19.5654375 14.6350625,19.5654375 C15.4669375,19.5654375 16.2819375,19.2279375 16.9194375,18.5910625 L18.5294375,20.1660625 C17.5563125,21.2285625 16.1219375,21.8473125 14.3706875,21.8473125 C11.2563125,21.8473125 9.3094375,19.9016875 9.3094375,16.9985625 C9.3094375,14.0441875 11.3269375,12.0966875 14.2813125,12.0966875 C17.6444375,12.0966875 19.3081875,14.3085625 19.0956875,17.7954375 Z" id="Fill-40" fill="#1E1210" mask="url(#mask-2)"></path>
            <path d="M28.8186875,14.2388125 L26.6249375,15.5656875 C26.1830625,14.9463125 25.5261875,14.5744375 24.6961875,14.5744375 C23.5099375,14.5744375 22.6955625,15.5475625 22.6955625,16.9819375 C22.6955625,18.4494375 23.5099375,19.4056875 24.6961875,19.4056875 C25.5630625,19.4056875 26.2355625,19.0519375 26.6424375,18.3256875 L28.8724375,19.6356875 C28.0936875,21.0344375 26.5543125,21.8475625 24.5361875,21.8475625 C21.5993125,21.8475625 19.6168125,19.9019375 19.6168125,16.9988125 C19.6168125,14.0613125 21.6180625,12.0969375 24.5718125,12.0969375 C26.4649375,12.0969375 27.9874375,12.8756875 28.8186875,14.2388125" id="Fill-41" fill="#1E1210" mask="url(#mask-2)"></path>
            <path d="M39.267875,15.83 L39.267875,21.8475 L36.206625,21.8475 L36.206625,16.68 C36.206625,15.565625 35.569125,14.875625 34.526625,14.875625 C33.321625,14.875625 32.5785,15.83 32.5785,17.140625 L32.5785,21.8475 L29.516625,21.8475 L29.516625,8.71625 L32.5785,8.71625 L32.5785,13.885 C33.25225,12.751875 34.365375,12.185 35.781625,12.16875 C37.8885,12.16875 39.267875,13.60125 39.267875,15.83" id="Fill-42" fill="#1E1210" mask="url(#mask-2)"></path>
        </g>
    </g>
</svg>