<svg id="Layer_1" data-name="Layer 1" xmlns="http://www.w3.org/2000/svg" viewBox="0 0 146.8 87.9"><defs><style>.cls-1{fill:#f89a2e;}.cls-1,.cls-3,.cls-4,.cls-6{fill-rule:evenodd;}.cls-2{fill:#fff;}.cls-3{fill:#e78629;}.cls-4{fill:#cc7d29;}.cls-5{fill:#c2c4c6;}.cls-6{fill:#94391f;}.cls-7{fill:#bcbec0;}</style></defs><title>logos_curvas</title><path class="cls-1" d="M112.8,4.4A20.3,20.3,0,0,0,97.7,5.5h-.1l-.3.2c-4.5,3.2-7.1,6.8-7.7,10.8a16.8,16.8,0,0,0,1.9,12.1c1,2.3,3.3,5.3,7,9.2v.4l-4,2.5c-5.3,3.9-8.8,7.9-10.6,12.2s-2.3,8.6-1.5,12.1a21.5,21.5,0,0,0,5.7,12.1,20.8,20.8,0,0,0,10.6,6.7c10.2,1.5,18-.4,23.3-5.9l.8-.8a32.1,32.1,0,0,0,4.4-5l4.9,5,3.4,2.9,2.6,1.8.4-.2,4.8-7.6c-2.5-1.4-6.2-5-11.2-10.8a50.5,50.5,0,0,0,3.2-8.3l1.8-8.5-9-1.6-.7,4.7-1,3.4-.9,2.6L123.4,53l-5.6-6.9-6-7.3c8.5-5.9,12.6-11.7,12.2-17.4-.1-8.3-3.9-13.9-11.2-17"/><path class="cls-2" d="M114.4,16.6c-1.3-3.3-3.9-5.1-7.7-5.3s-6.6,2-7.5,5-.1,8.2,3.7,12l.4.4,3.5,4.1a19,19,0,0,0,5-4.1c3.5-3.9,4.3-8,2.6-12.1"/><path class="cls-2" d="M111,53l-7.2-8.6c-3.7,2.6-6,4.6-6.9,5.9C90.1,59.1,90.8,67,99.1,74c8.4,4.2,15.7,1.2,22-8.9h0c-3.3-4.1-6.6-8.1-10.1-12"/><path class="cls-3" d="M97.3,5.8c-4.5,3.2-7.1,6.7-7.7,10.8a16.8,16.8,0,0,0,1.9,12.1c1,2.2,3.3,5.3,7,9.2v.4l-10,1.9c-7.3-7.1-10-14-8.2-20.5S87.6,9,97.3,5.8"/><path class="cls-4" d="M114.4,16.6c-1.3-3.3-3.9-5.1-7.7-5.4s-6.6,2.1-7.5,5.1c4.2,2.2,5.5,6.2,3.7,12l.4.4,3.6,4a20.1,20.1,0,0,0,4.9-4c3.5-4,4.3-8,2.6-12.1"/><path class="cls-4" d="M88.5,40.2l10-1.9-3.9,2.5c-5.4,3.9-8.9,7.9-10.7,12.2s-2.2,8.6-1.5,12.1a21.5,21.5,0,0,0,5.7,12.1,21.2,21.2,0,0,0,10.6,6.7c-14-.7-22.3-6.7-25.1-17.9s3-18.9,14.9-25.8"/><path class="cls-4" d="M111,53l-7.2-8.6a37.2,37.2,0,0,0-6.9,5.9l12.4,14.5,11.8.2c-3.3-4.1-6.6-8.1-10.1-12"/><polyline class="cls-3" points="128.2 44.9 117.8 46.1 123.4 53 125.5 55.6 126.5 53 127.4 49.6 128.2 44.9"/><path class="cls-3" d="M121.1,65l-11.8-.2c-1.2,3.4-4.7,6.5-10.2,9.2,8.4,4.2,15.7,1.2,22.1-8.9h-.1"/><path class="cls-4" d="M132.1,77.2l-4.9-5a37.9,37.9,0,0,1-4.4,5l-.8.8,3.1,2.2,13.1,1.7-2.7-1.8-3.4-2.9"/><path d="M11.4,43.3a40.7,40.7,0,0,1,7.3-.6c5,0,8.5,1.1,10.8,3.3s3.8,5.3,3.8,9.6-1.4,8-3.8,10.4-6.7,3.9-11.8,3.9a38.5,38.5,0,0,1-6.3-.4Zm3.5,23.6a17.8,17.8,0,0,0,3.5.2c7.3,0,11.3-4.1,11.3-11.4S26.2,45.4,18.9,45.4a18.2,18.2,0,0,0-4,.4Z"/><path d="M39.8,60.6c.1,4.7,3,6.7,6.5,6.7a12.5,12.5,0,0,0,5.2-1l.7,2.5A16.7,16.7,0,0,1,45.8,70c-5.8,0-9.4-3.9-9.4-9.7S39.9,50,45.4,50s7.8,5.5,7.8,9a8.1,8.1,0,0,1-.1,1.7Zm10.1-2.5c0-2.2-.9-5.6-4.8-5.6s-5,3.2-5.3,5.6Z"/><path d="M57.1,66.1a9.6,9.6,0,0,0,4.6,1.3c2.5,0,3.6-1.2,3.6-2.8s-1-2.6-3.5-3.5-5.1-3.2-5.1-5.5S59.3,50,63.3,50A8.8,8.8,0,0,1,68,51.2l-.9,2.5a7,7,0,0,0-3.9-1.1c-2,0-3.1,1.2-3.1,2.6s1.1,2.3,3.6,3.3,5,2.9,5,5.8-2.7,5.8-7.1,5.8a11.1,11.1,0,0,1-5.4-1.4Z"/><path d="M74.8,46.9a2.3,2.3,0,0,1,.1-4.5,2.2,2.2,0,0,1,2.2,2.2,2.2,2.2,0,0,1-2.3,2.3ZM73.1,69.6V50.4h3.5V69.6Z"/><path d="M98.7,66.8c0,4.4-1,7.1-2.8,8.8A10.3,10.3,0,0,1,89,77.9a11.9,11.9,0,0,1-6.4-1.6l.9-2.7a9.6,9.6,0,0,0,5.6,1.6c3.5,0,6.1-1.9,6.1-6.8V66.3h-.1a6.6,6.6,0,0,1-6,3.2c-4.7,0-8.1-4-8.1-9.4S85.2,50,89.6,50a6.2,6.2,0,0,1,5.9,3.3h.1V50.4h3.1c-.1,1.4-.1,2.9-.1,5.3ZM95.2,58a7.8,7.8,0,0,0-.2-1.6,5,5,0,0,0-4.9-3.7c-3.3,0-5.6,2.8-5.6,7.3s1.9,6.9,5.6,6.9a5,5,0,0,0,4.8-3.6,6.3,6.3,0,0,0,.3-1.9Z"/><path d="M104.4,55.6c0-2-.1-3.6-.2-5.2h3.1l.2,3.2h0a7.2,7.2,0,0,1,6.4-3.6c2.6,0,6.7,1.6,6.7,8.2V69.6h-3.5v-11c0-3.1-1.1-5.7-4.4-5.7a5,5,0,0,0-4.6,3.5,4.5,4.5,0,0,0-.3,1.6V69.6h-3.4Z"/><path class="cls-5" d="M14.7,76.9a3.4,3.4,0,0,0,.1,1h-.7v-.5h0a1.6,1.6,0,0,1-1.3.6,1.2,1.2,0,0,1-1.3-1.2c0-1.1.9-1.6,2.6-1.6h0a.9.9,0,0,0-1-1,2,2,0,0,0-1.1.3l-.2-.5a3.3,3.3,0,0,1,1.4-.4c1.3,0,1.6.9,1.6,1.8ZM14,75.7c-.9,0-1.8.1-1.8,1a.6.6,0,0,0,.7.7.9.9,0,0,0,1-.7v-1Z"/><path class="cls-5" d="M19.1,77.1a2.4,2.4,0,0,0,1,.3c.6,0,.8-.3.8-.6s-.2-.6-.8-.8S19,75.3,19,74.8a1.4,1.4,0,0,1,1.5-1.3,1.5,1.5,0,0,1,1,.3l-.2.6a1.2,1.2,0,0,0-.8-.3c-.5,0-.7.3-.7.6s.2.5.8.7,1.1.7,1.1,1.3S21.1,78,20.1,78a2.1,2.1,0,0,1-1.2-.3Z"/><path class="cls-5" d="M25.8,77.1a2.4,2.4,0,0,0,1,.3c.6,0,.8-.3.8-.6s-.2-.6-.7-.8-1.2-.7-1.2-1.2a1.4,1.4,0,0,1,1.5-1.3,1.5,1.5,0,0,1,1,.3l-.2.6a1.2,1.2,0,0,0-.8-.3c-.5,0-.7.3-.7.6s.2.5.8.7,1.1.7,1.1,1.3S27.8,78,26.8,78a2.1,2.1,0,0,1-1.2-.3Z"/><path class="cls-5" d="M34.3,78a2.1,2.1,0,0,1-2-2.2,2.1,2.1,0,0,1,2.1-2.3,2,2,0,0,1,2,2.2A2.1,2.1,0,0,1,34.3,78Zm.1-.6c.7,0,1.2-.7,1.2-1.7s-.3-1.6-1.2-1.6-1.3.9-1.3,1.7.5,1.6,1.2,1.6Z"/><path class="cls-5" d="M43.7,77.7a3,3,0,0,1-1.2.3,2.1,2.1,0,0,1-2.2-2.2,2.2,2.2,0,0,1,2.3-2.3,1.6,1.6,0,0,1,1.1.3l-.2.6a1.9,1.9,0,0,0-.9-.3,1.6,1.6,0,0,0-1.5,1.7,1.5,1.5,0,0,0,1.5,1.6l.9-.2Z"/><path class="cls-5" d="M48.2,72.8a.5.5,0,0,1-.5-.5.5.5,0,0,1,1,0,.5.5,0,0,1-.5.5Zm-.4,5.1V73.6h.8v4.3Z"/><path class="cls-5" d="M56.1,76.9v1h-.6v-.5h0a1.8,1.8,0,0,1-1.3.6,1.2,1.2,0,0,1-1.3-1.2c0-1.1.9-1.6,2.5-1.6h0c0-.4-.1-1-.9-1a2.1,2.1,0,0,0-1.2.3v-.5a2.6,2.6,0,0,1,1.4-.4c1.3,0,1.6.9,1.6,1.8Zm-.8-1.2c-.8,0-1.8.1-1.8,1a.7.7,0,0,0,.8.7,1,1,0,0,0,1-.7v-1Z"/><path class="cls-5" d="M61.4,72.6v1h1.2v.6H61.4v2.3c0,.5.2.8.6.8h.5v.6h-.7a1.1,1.1,0,0,1-.8-.3,2.1,2.1,0,0,1-.3-1.2V74.2H60v-.6h.7v-.8Z"/><path class="cls-5" d="M67,75.9a1.5,1.5,0,0,0,1.5,1.5l1.2-.2v.5a3.7,3.7,0,0,1-1.4.3,2,2,0,0,1-2.1-2.2,2.1,2.1,0,0,1,2-2.3c1.4,0,1.7,1.2,1.7,2v.4Zm2.3-.6a1.1,1.1,0,0,0-1.1-1.2,1.1,1.1,0,0,0-1.1,1.2Z"/><path class="cls-5" d="M74.1,77.1l1,.3c.6,0,.9-.3.9-.6s-.3-.6-.8-.8-1.1-.7-1.1-1.2a1.3,1.3,0,0,1,1.4-1.3,1.5,1.5,0,0,1,1,.3v.6a1.9,1.9,0,0,0-.9-.3c-.5,0-.7.3-.7.6s.2.5.8.7,1.1.7,1.1,1.3S76.1,78,75.1,78a2.4,2.4,0,0,1-1.2-.3Z"/><path d="M11.5,15.3H3.4v-3H23v3H14.9V39.1H11.5Z"/><path d="M25.2,30.1c.1,4.7,3,6.6,6.5,6.6a13.7,13.7,0,0,0,5.3-.9l.6,2.4a14.3,14.3,0,0,1-6.4,1.3c-5.8,0-9.4-4-9.4-9.7s3.5-10.4,9-10.4,7.9,5.5,7.9,9a6.5,6.5,0,0,1-.2,1.7Zm10.1-2.5c.1-2.2-.9-5.7-4.7-5.7s-5.1,3.2-5.4,5.7Z"/><path d="M56.4,38.4A13.8,13.8,0,0,1,51,39.5c-5.8,0-9.5-3.9-9.5-9.8s4-10.3,10.2-10.3a10.9,10.9,0,0,1,4.8,1.1l-.8,2.6a8.7,8.7,0,0,0-4-.9c-4.4,0-6.7,3.3-6.7,7.3s2.8,7.2,6.6,7.2a9.7,9.7,0,0,0,4.2-.9Z"/><path d="M60.4,10.9h3.4v12h.1a6.7,6.7,0,0,1,2.5-2.5,6.8,6.8,0,0,1,3.5-1c2.6,0,6.7,1.6,6.7,8.2V39.1H73.1V28c0-3.1-1.1-5.7-4.4-5.7a5,5,0,0,0-4.6,3.5,4.3,4.3,0,0,0-.3,1.7V39.1H60.4Z"/><path class="cls-6" d="M77.1,44.7a2.3,2.3,0,1,1-2.3-2.3A2.3,2.3,0,0,1,77.1,44.7Z"/><path class="cls-7" d="M143.4,9.5a5.4,5.4,0,0,1-5.5,5.4,5.5,5.5,0,0,1-5.5-5.4,5.5,5.5,0,0,1,5.5-5.4A5.4,5.4,0,0,1,143.4,9.5Zm-9.6,0a4.2,4.2,0,0,0,4.1,4.3A4.1,4.1,0,0,0,142,9.5a4.2,4.2,0,0,0-4.1-4.3A4.2,4.2,0,0,0,133.8,9.5Zm3.3,2.8h-1.3V6.9h2.1a2.6,2.6,0,0,1,1.8.4,1.4,1.4,0,0,1,.6,1.1c0,.7-.5,1.1-1.2,1.3h0c.6.1.8.6,1,1.3a6.8,6.8,0,0,0,.4,1.3h-1.3a2.8,2.8,0,0,1-.4-1.3c-.1-.6-.5-.8-1.1-.8h-.6Zm0-3h.6c.7,0,1.2-.2,1.2-.8s-.3-.8-1.1-.8h-.7Z"/></svg>